<?xml version="1.0" encoding="UTF-8" standalone="no"?>
<svg
   xmlns:dc="http://purl.org/dc/elements/1.1/"
   xmlns:cc="http://creativecommons.org/ns#"
   xmlns:rdf="http://www.w3.org/1999/02/22-rdf-syntax-ns#"
   xmlns:svg="http://www.w3.org/2000/svg"
   xmlns="http://www.w3.org/2000/svg"
   xmlns:sodipodi="http://sodipodi.sourceforge.net/DTD/sodipodi-0.dtd"
   xmlns:inkscape="http://www.inkscape.org/namespaces/inkscape"
   sodipodi:docname="logoBlack.svg"
   inkscape:version="1.0 (4035a4fb49, 2020-05-01)"
   inkscape:export-ydpi="96"
   inkscape:export-xdpi="96"
   inkscape:export-filename="/home/mguillos/Workspace/Wordclock/Logo/logoBlack.png"
   id="svg8"
   version="1.1"
   viewBox="0 0 338.66665 190.49999"
   height="720"
   width="1280">
  <defs
     id="defs2">
    <rect
       id="rect20"
       height="15.399819"
       width="7.0251479"
       y="19.348921"
       x="88.062973" />
    <rect
       id="rect12"
       height="50.207897"
       width="142.09459"
       y="23.216837"
       x="21.650995" />
  </defs>
  <sodipodi:namedview
     inkscape:window-maximized="0"
     inkscape:window-y="25"
     inkscape:window-x="25"
     inkscape:window-height="1030"
     inkscape:window-width="1870"
     inkscape:guide-bbox="true"
     showguides="true"
     units="px"
     lock-margins="true"
     fit-margin-bottom="50"
     fit-margin-right="50"
     fit-margin-left="50"
     fit-margin-top="50"
     inkscape:pagecheckerboard="true"
     showgrid="false"
     inkscape:document-rotation="0"
     inkscape:current-layer="layer1"
     inkscape:document-units="mm"
     inkscape:cy="399.63729"
     inkscape:cx="478.20833"
     inkscape:zoom="0.70160574"
     inkscape:pageshadow="2"
     inkscape:pageopacity="0"
     borderopacity="1.0"
     bordercolor="#666666"
     pagecolor="#ffffff"
     id="base">
    <sodipodi:guide
       inkscape:color="rgb(0,0,255)"
       inkscape:locked="false"
       inkscape:label=""
       id="guide874"
       orientation="-1,0"
       position="39.687498,45.689324" />
    <sodipodi:guide
       inkscape:color="rgb(0,0,255)"
       inkscape:locked="false"
       inkscape:label=""
       id="guide876"
       orientation="-1,0"
       position="298.97915,-25.207565" />
    <sodipodi:guide
       inkscape:color="rgb(0,0,255)"
       inkscape:locked="false"
       inkscape:label=""
       id="guide878"
       orientation="0,1"
       position="164.04166,164.04166" />
    <sodipodi:guide
       inkscape:color="rgb(0,0,255)"
       inkscape:locked="false"
       inkscape:label=""
       id="guide880"
       orientation="0,1"
       position="193.45803,26.458332" />
  </sodipodi:namedview>
  <metadata
     id="metadata5">
    <rdf:RDF>
      <cc:Work
         rdf:about="">
        <dc:format>image/svg+xml</dc:format>
        <dc:type
           rdf:resource="http://purl.org/dc/dcmitype/StillImage" />
        <dc:title></dc:title>
      </cc:Work>
    </rdf:RDF>
  </metadata>
  <g
     transform="translate(1.9296791,-2.5668018)"
     id="layer1"
     inkscape:groupmode="layer"
     inkscape:label="Layer 1">
    <g
       style="font-style:normal;font-variant:normal;font-weight:normal;font-stretch:normal;font-size:10.5833px;line-height:1.25;font-family:'Futurist Fixed-width';-inkscape-font-specification:'Futurist Fixed-width';white-space:pre;shape-inside:url(#rect12);fill:#000000;fill-opacity:1;stroke:none"
       id="text10"
       transform="matrix(3.2126523,0,0,3.063303,15.924494,-11.81807)"
       aria-label="WORD
CLOCK">
      <path
         id="path900"
         style="font-style:normal;font-variant:normal;font-weight:100;font-stretch:normal;font-family:'Futurist Fixed-width';-inkscape-font-specification:'Futurist Fixed-width Thin';fill:#000000;fill-opacity:1"
         d="M 32.053774,25.259374 29.1857,33.334431 h -0.285749 l -1.968494,-6.180647 -1.936744,6.180647 H 24.719548 L 21.71389,25.259374 h 1.05833 l 2.053161,6.244146 2.000243,-6.328813 h 0.232833 l 2.02141,6.328813 1.968494,-6.244146 z" />
      <path
         id="path902"
         style="font-style:normal;font-variant:normal;font-weight:100;font-stretch:normal;font-family:'Futurist Fixed-width';-inkscape-font-specification:'Futurist Fixed-width Thin';fill:#000000;fill-opacity:1"
         d="m 41.832723,29.122278 q 0,1.735661 -1.227663,2.963324 -1.217079,1.217079 -2.95274,1.217079 -1.756828,0 -3.026824,-1.174746 -1.259413,-1.185329 -1.259413,-2.899824 0,-1.735661 1.21708,-2.952741 1.227663,-1.227662 2.963324,-1.227662 1.756827,0 3.01624,1.185329 1.269996,1.174747 1.269996,2.889241 z m -0.973664,-0.02117 q 0,-1.344079 -0.973663,-2.275409 -0.973664,-0.93133 -2.338909,-0.93133 -1.344079,0 -2.27541,0.973663 -0.93133,0.973664 -0.93133,2.338909 0,1.34408 0.96308,2.27541 0.973664,0.920747 2.349493,0.920747 1.344079,0 2.275409,-0.973664 0.93133,-0.973663 0.93133,-2.328326 z" />
      <path
         id="path904"
         style="font-style:normal;font-variant:normal;font-weight:100;font-stretch:normal;font-family:'Futurist Fixed-width';-inkscape-font-specification:'Futurist Fixed-width Thin';fill:#000000;fill-opacity:1"
         d="m 51.177757,33.091015 h -1.269996 l -2.942158,-4.01107 v 4.01107 h -0.984247 v -7.831641 l 2.899825,0.02117 q 0.83608,0 1.365245,0.634998 0.539748,0.634998 0.539748,1.471079 0,0.444499 -0.158749,0.825497 -0.148166,0.380999 -0.497415,0.698498 -0.391582,0.317499 -0.857247,0.455082 h -1.037164 z m -2.14841,-6.900311 q -0.137583,-0.05292 -0.296333,-0.08467 -0.148166,-0.04233 -0.275165,-0.04233 h -1.492246 v 2.624659 h 1.746245 q 0.507998,0 0.783164,-0.349249 0.285749,-0.359832 0.285749,-0.867831 0,-0.423332 -0.190499,-0.772581 -0.1905,-0.349248 -0.560915,-0.507998 z" />
      <path
         id="path906"
         style="font-style:normal;font-variant:normal;font-weight:100;font-stretch:normal;font-family:'Futurist Fixed-width';-inkscape-font-specification:'Futurist Fixed-width Thin';fill:#000000;fill-opacity:1"
         d="m 60.395791,32.6571 q -0.412748,0.201083 -0.825497,0.317499 -0.412749,0.116416 -0.814914,0.116416 h -2.963324 v -7.831641 h 3.33374 q 1.492245,0.148166 2.360075,1.322912 0.867831,1.164163 0.867831,2.666992 0,1.111246 -0.486832,2.02141 -0.486832,0.910164 -1.471079,1.386412 z m 0.920748,-3.989904 q -0.08467,-0.920747 -0.719665,-1.629828 -0.624415,-0.709081 -1.534578,-0.910164 h -2.349493 v 6.117147 h 2.02141 q 1.195913,0 1.904994,-0.952497 0.709081,-0.952496 0.709081,-2.169576 0,-0.232833 -0.03175,-0.455082 z" />
      <path
         id="path908"
         style="font-style:normal;font-variant:normal;font-weight:100;font-stretch:normal;font-family:'Futurist Fixed-width';-inkscape-font-specification:'Futurist Fixed-width Thin';fill:#000000;fill-opacity:1"
         d="m 29.778365,45.970893 q -0.550332,0.232832 -1.12183,0.359832 -0.560915,0.126999 -1.142996,0.126999 -0.814914,0 -1.555745,-0.264582 -0.740831,-0.264583 -1.354663,-0.804331 -1.248829,-1.269996 -1.248829,-2.995074 0,-1.12183 0.486832,-1.92616 0.497415,-0.804331 0.96308,-1.227663 0.476248,-0.433915 0.89958,-0.603248 0.433916,-0.179916 0.698498,-0.243416 0.275166,-0.0635 0.550332,-0.09525 0.285749,-0.03175 0.550331,-0.03175 0.391582,0 0.825498,0.07408 0.433915,0.0635 0.86783,0.1905 l 0.582082,0.264582 v 1.037164 q -0.984247,-0.698498 -2.158993,-0.698498 -0.793748,0 -1.481662,0.328082 -0.687915,0.317499 -1.18533,0.984247 -0.285749,0.423332 -0.444498,0.920747 -0.148167,0.497415 -0.148167,1.015997 0,0.89958 0.444499,1.693328 0.455082,0.783164 1.238246,1.185329 0.793747,0.391583 1.608662,0.391583 0.878413,0 1.576911,-0.433916 l 0.550332,-0.349249 z" />
      <path
         id="path910"
         style="font-style:normal;font-variant:normal;font-weight:100;font-stretch:normal;font-family:'Futurist Fixed-width';-inkscape-font-specification:'Futurist Fixed-width Thin';fill:#000000;fill-opacity:1"
         d="M 39.282148,46.320141 H 35.419243 V 38.4885 h 0.973664 v 6.984977 h 2.889241 z" />
      <path
         id="path912"
         style="font-style:normal;font-variant:normal;font-weight:100;font-stretch:normal;font-family:'Futurist Fixed-width';-inkscape-font-specification:'Futurist Fixed-width Thin';fill:#000000;fill-opacity:1"
         d="m 52.416003,42.351404 q 0,1.735661 -1.227663,2.963324 -1.21708,1.217079 -2.952741,1.217079 -1.756827,0 -3.026823,-1.174746 -1.259413,-1.185329 -1.259413,-2.899824 0,-1.735661 1.217079,-2.952741 1.227663,-1.227662 2.963324,-1.227662 1.756828,0 3.016241,1.185329 1.269996,1.174747 1.269996,2.889241 z m -0.973664,-0.02117 q 0,-1.344079 -0.973664,-2.275409 -0.973663,-0.93133 -2.338909,-0.93133 -1.344079,0 -2.275409,0.973663 -0.931331,0.973664 -0.931331,2.338909 0,1.344079 0.963081,2.27541 0.973663,0.920747 2.349492,0.920747 1.344079,0 2.27541,-0.973664 0.93133,-0.973663 0.93133,-2.328326 z" />
      <path
         id="path914"
         style="font-style:normal;font-variant:normal;font-weight:100;font-stretch:normal;font-family:'Futurist Fixed-width';-inkscape-font-specification:'Futurist Fixed-width Thin';fill:#000000;fill-opacity:1"
         d="m 61.528205,45.970893 q -0.550332,0.232832 -1.12183,0.359832 -0.560915,0.126999 -1.142997,0.126999 -0.814914,0 -1.555745,-0.264582 -0.740831,-0.264583 -1.354662,-0.804331 -1.248829,-1.269996 -1.248829,-2.995074 0,-1.12183 0.486831,-1.92616 0.497416,-0.804331 0.963081,-1.227663 0.476248,-0.433915 0.89958,-0.603248 0.433915,-0.179916 0.698498,-0.243416 0.275166,-0.0635 0.550332,-0.09525 0.285749,-0.03175 0.550331,-0.03175 0.391582,0 0.825497,0.07408 0.433916,0.0635 0.867831,0.1905 l 0.582082,0.264582 v 1.037164 q -0.984247,-0.698498 -2.158994,-0.698498 -0.793747,0 -1.481662,0.328082 -0.687914,0.317499 -1.185329,0.984247 -0.285749,0.423332 -0.444499,0.920747 -0.148166,0.497415 -0.148166,1.015997 0,0.89958 0.444499,1.693328 0.455082,0.783164 1.238246,1.185329 0.793747,0.391583 1.608661,0.391583 0.878414,0 1.576912,-0.433916 l 0.550332,-0.349249 z" />
      <path
         id="path916"
         style="font-style:normal;font-variant:normal;font-weight:100;font-stretch:normal;font-family:'Futurist Fixed-width';-inkscape-font-specification:'Futurist Fixed-width Thin';fill:#000000;fill-opacity:1"
         d="m 72.587732,46.320141 h -1.333496 l -3.566572,-4.233319 v 4.233319 H 66.74575 V 38.4885 h 0.941914 v 3.450155 L 70.97907,38.4885 h 1.269996 l -3.481906,3.471322 z" />
    </g>
    <text
       style="font-style:normal;font-weight:normal;font-size:10.5833px;line-height:1.25;font-family:sans-serif;white-space:pre;shape-inside:url(#rect20);fill:#000000;fill-opacity:1;stroke:none;"
       id="text18"
       xml:space="preserve" />
    <rect
       style="fill:none;stroke:#000000;stroke-width:3.48281;stroke-linejoin:round;stroke-miterlimit:4;stroke-dasharray:none;stroke-dashoffset:0;stroke-opacity:1;paint-order:normal"
       id="rect24-6"
       width="259.29169"
       height="137.58334"
       x="37.75782"
       y="29.025133" />
  </g>
</svg>
