<?xml version="1.0" encoding="UTF-8" standalone="no"?>
<svg
   xmlns:dc="http://purl.org/dc/elements/1.1/"
   xmlns:cc="http://creativecommons.org/ns#"
   xmlns:rdf="http://www.w3.org/1999/02/22-rdf-syntax-ns#"
   xmlns:svg="http://www.w3.org/2000/svg"
   xmlns="http://www.w3.org/2000/svg"
   xmlns:sodipodi="http://sodipodi.sourceforge.net/DTD/sodipodi-0.dtd"
   xmlns:inkscape="http://www.inkscape.org/namespaces/inkscape"
   inkscape:version="1.0 (4035a4fb49, 2020-05-01)"
   sodipodi:docname="logoSquareWhite.svg"
   id="svg8"
   version="1.1"
   viewBox="0 0 370.41664 370.41664"
   height="1400"
   width="1400"
   inkscape:export-filename="/home/mguillos/Workspace/Wordclock/Logo/logoSquareWhite.png"
   inkscape:export-xdpi="96"
   inkscape:export-ydpi="96">
  <sodipodi:namedview
     inkscape:current-layer="layer1"
     inkscape:window-maximized="0"
     inkscape:window-y="44"
     inkscape:window-x="970"
     inkscape:cy="870.72794"
     inkscape:cx="204.9269"
     inkscape:zoom="0.74083333"
     inkscape:pagecheckerboard="true"
     showgrid="false"
     id="namedview979"
     inkscape:window-height="1011"
     inkscape:window-width="925"
     inkscape:pageshadow="2"
     inkscape:pageopacity="0"
     guidetolerance="10"
     gridtolerance="10"
     objecttolerance="10"
     borderopacity="1"
     bordercolor="#666666"
     pagecolor="#000000"
     inkscape:document-rotation="0" />
  <defs
     id="defs2">
    <rect
       id="rect20"
       height="15.399819"
       width="7.0251479"
       y="19.348921"
       x="88.062973" />
    <rect
       id="rect12"
       height="63.214684"
       width="87.060196"
       y="23.216837"
       x="21.650995" />
  </defs>
  <metadata
     id="metadata5">
    <rdf:RDF>
      <cc:Work
         rdf:about="">
        <dc:format>image/svg+xml</dc:format>
        <dc:type
           rdf:resource="http://purl.org/dc/dcmitype/StillImage" />
        <dc:title></dc:title>
      </cc:Work>
    </rdf:RDF>
  </metadata>
  <g
     transform="translate(1.9296791,-2.5668018)"
     id="layer1">
    <g
       style="font-style:normal;font-variant:normal;font-weight:normal;font-stretch:normal;font-size:10.5833px;line-height:1.25;font-family:'Futurist Fixed-width';-inkscape-font-specification:'Futurist Fixed-width';white-space:pre;shape-inside:url(#rect12);fill:#ffffff;fill-opacity:1;stroke:none"
       id="text10"
       transform="matrix(3.2126523,0,0,3.063303,31.493476,37.566799)"
       aria-label="EFWGA WORDJ CLOCK DWDRF">
      <path
         id="path34"
         style="fill:#333333"
         d="m 28.963451,33.091015 h -4.254487 v -7.831641 h 4.254487 v 0.846664 h -3.291407 v 2.317742 h 3.291407 v 0.804331 h -3.312573 v 3.01624 h 3.312573 z" />
      <path
         id="path36"
         style="fill:#333333"
         d="m 39.959479,29.249278 h -3.291406 v 3.841737 h -0.920747 v -7.831641 h 4.212153 v 0.825497 h -3.27024 v 2.360076 h 3.27024 z" />
      <path
         id="path38"
         style="fill:#333333"
         d="m 53.220333,25.259374 -2.868074,8.075057 H 50.06651 l -1.968494,-6.180647 -1.936743,6.180647 H 45.886107 L 42.88045,25.259374 h 1.05833 l 2.05316,6.244146 2.000243,-6.328813 h 0.232833 l 2.02141,6.328813 1.968494,-6.244146 z" />
      <path
         id="path40"
         style="fill:#333333"
         d="m 62.7982,29.101111 q 0,1.111247 -0.359832,1.989661 -0.359832,0.86783 -1.174746,1.502828 -0.507998,0.328083 -1.111246,0.486832 -0.603249,0.15875 -1.238246,0.15875 -0.730248,0 -1.439329,-0.211666 -0.698498,-0.211666 -1.269996,-0.613832 -0.719665,-0.613831 -1.100663,-1.449912 -0.370416,-0.83608 -0.370416,-1.788577 0,-0.254 0.01058,-0.391583 0.01058,-0.137582 0.148167,-0.920747 0.137583,-0.783164 1.100663,-1.703911 0.96308,-0.93133 2.285993,-1.09008 1.365245,0 2.370659,0.359832 1.015996,0.349249 1.576911,1.333496 l -0.719664,0.624415 q -0.486832,-0.719664 -1.18533,-1.111247 -0.698497,-0.391582 -1.534578,-0.391582 -0.380999,0 -0.783164,0.09525 -1.05833,0.338666 -1.672162,1.248829 -0.613831,0.899581 -0.613831,1.989661 0,1.111246 0.560915,1.841494 0.560915,0.730248 1.227663,1.047747 0.666748,0.306915 1.418162,0.306915 0.592665,0 1.111246,-0.190499 0.518582,-0.201083 0.899581,-0.571498 0.391582,-0.380999 0.592665,-0.814914 0.211666,-0.444499 0.275165,-0.931331 l -2.317742,-0.02117 v -0.783165 z" />
      <path
         id="path42"
         style="fill:#333333"
         d="m 72.778231,33.091015 h -1.100663 l -1.005414,-2.434158 h -3.11149 l -1.005413,2.434158 h -1.015997 l 3.439572,-8.043307 h 0.254 z m -2.412992,-3.14324 -1.301746,-3.365489 -1.269996,3.365489 z" />
      <path
         id="path44"
         style="font-style:normal;font-variant:normal;font-weight:100;font-stretch:normal;font-family:'Futurist Fixed-width';-inkscape-font-specification:'Futurist Fixed-width Thin';fill:#ffffff"
         d="M 32.053774,38.4885 29.1857,46.563557 H 28.899951 L 26.931457,40.38291 24.994713,46.563557 H 24.719548 L 21.71389,38.4885 h 1.05833 l 2.053161,6.244146 2.000243,-6.328813 h 0.232833 l 2.02141,6.328813 1.968494,-6.244146 z" />
      <path
         id="path46"
         style="font-style:normal;font-variant:normal;font-weight:100;font-stretch:normal;font-family:'Futurist Fixed-width';-inkscape-font-specification:'Futurist Fixed-width Thin';fill:#ffffff"
         d="m 41.832723,42.351404 q 0,1.735661 -1.227663,2.963324 -1.217079,1.217079 -2.95274,1.217079 -1.756828,0 -3.026824,-1.174746 -1.259413,-1.185329 -1.259413,-2.899824 0,-1.735661 1.21708,-2.952741 1.227663,-1.227662 2.963324,-1.227662 1.756827,0 3.01624,1.185329 1.269996,1.174747 1.269996,2.889241 z m -0.973664,-0.02117 q 0,-1.344079 -0.973663,-2.275409 -0.973664,-0.93133 -2.338909,-0.93133 -1.344079,0 -2.27541,0.973663 -0.93133,0.973664 -0.93133,2.338909 0,1.344079 0.96308,2.27541 0.973664,0.920747 2.349493,0.920747 1.344079,0 2.275409,-0.973664 0.93133,-0.973663 0.93133,-2.328326 z" />
      <path
         id="path48"
         style="font-style:normal;font-variant:normal;font-weight:100;font-stretch:normal;font-family:'Futurist Fixed-width';-inkscape-font-specification:'Futurist Fixed-width Thin';fill:#ffffff"
         d="m 51.177757,46.320141 h -1.269996 l -2.942158,-4.01107 v 4.01107 H 45.981356 V 38.4885 l 2.899825,0.02117 q 0.83608,0 1.365245,0.634998 0.539748,0.634998 0.539748,1.471079 0,0.444498 -0.158749,0.825497 -0.148166,0.380999 -0.497415,0.698498 -0.391582,0.317499 -0.857247,0.455082 h -1.037164 z m -2.14841,-6.900311 q -0.137583,-0.05292 -0.296333,-0.08467 -0.148166,-0.04233 -0.275165,-0.04233 h -1.492246 v 2.624659 h 1.746245 q 0.507998,0 0.783164,-0.349249 0.285749,-0.359832 0.285749,-0.867831 0,-0.423332 -0.190499,-0.772581 -0.1905,-0.349248 -0.560915,-0.507998 z" />
      <path
         id="path50"
         style="font-style:normal;font-variant:normal;font-weight:100;font-stretch:normal;font-family:'Futurist Fixed-width';-inkscape-font-specification:'Futurist Fixed-width Thin';fill:#ffffff"
         d="m 60.395791,45.886226 q -0.412748,0.201083 -0.825497,0.317499 -0.412749,0.116416 -0.814914,0.116416 H 55.792056 V 38.4885 h 3.33374 q 1.492245,0.148166 2.360075,1.322912 0.867831,1.164163 0.867831,2.666992 0,1.111246 -0.486832,2.02141 -0.486832,0.910164 -1.471079,1.386412 z m 0.920748,-3.989904 q -0.08467,-0.920747 -0.719665,-1.629828 -0.624415,-0.709081 -1.534578,-0.910164 h -2.349493 v 6.117147 h 2.02141 q 1.195913,0 1.904994,-0.952497 0.709081,-0.952496 0.709081,-2.169576 0,-0.232833 -0.03175,-0.455082 z" />
      <path
         id="path52"
         style="fill:#333333"
         d="m 70.492238,45.103062 q -0.169332,0.539748 -0.486831,0.888997 -0.306916,0.349249 -0.666748,0.402166 -0.349249,0.0635 -0.550332,0.0635 -1.05833,0 -1.693328,-0.761997 l 0.603248,-0.656165 q 0.169333,0.243416 0.476249,0.433915 0.306915,0.1905 0.592664,0.1905 0.338666,0 0.486832,-0.1905 0.148166,-0.190499 0.201083,-0.338665 0.0635,-0.15875 0.116416,-0.359832 V 38.4885 h 0.920747 z" />
      <path
         id="path54"
         style="font-style:normal;font-variant:normal;font-weight:100;font-stretch:normal;font-family:'Futurist Fixed-width';-inkscape-font-specification:'Futurist Fixed-width Thin';fill:#ffffff"
         d="m 29.778365,59.200019 q -0.550332,0.232832 -1.12183,0.359832 -0.560915,0.126999 -1.142996,0.126999 -0.814914,0 -1.555745,-0.264582 -0.740831,-0.264583 -1.354663,-0.804331 -1.248829,-1.269996 -1.248829,-2.995074 0,-1.12183 0.486832,-1.92616 0.497415,-0.804331 0.96308,-1.227663 0.476248,-0.433915 0.89958,-0.603248 0.433916,-0.179916 0.698498,-0.243416 0.275166,-0.0635 0.550332,-0.09525 0.285749,-0.03175 0.550331,-0.03175 0.391582,0 0.825498,0.07408 0.433915,0.0635 0.86783,0.1905 l 0.582082,0.264582 v 1.037164 q -0.984247,-0.698498 -2.158993,-0.698498 -0.793748,0 -1.481662,0.328082 -0.687915,0.317499 -1.18533,0.984247 -0.285749,0.423332 -0.444498,0.920747 -0.148167,0.497415 -0.148167,1.015997 0,0.89958 0.444499,1.693328 0.455082,0.783164 1.238246,1.185329 0.793747,0.391583 1.608662,0.391583 0.878413,0 1.576911,-0.433916 l 0.550332,-0.349249 z" />
      <path
         id="path56"
         style="font-style:normal;font-variant:normal;font-weight:100;font-stretch:normal;font-family:'Futurist Fixed-width';-inkscape-font-specification:'Futurist Fixed-width Thin';fill:#ffffff"
         d="m 39.282148,59.549267 h -3.862905 v -7.831641 h 0.973664 v 6.984977 h 2.889241 z" />
      <path
         id="path58"
         style="font-style:normal;font-variant:normal;font-weight:100;font-stretch:normal;font-family:'Futurist Fixed-width';-inkscape-font-specification:'Futurist Fixed-width Thin';fill:#ffffff"
         d="m 52.416003,55.58053 q 0,1.735661 -1.227663,2.963324 -1.21708,1.217079 -2.952741,1.217079 -1.756827,0 -3.026823,-1.174746 -1.259413,-1.185329 -1.259413,-2.899824 0,-1.735661 1.217079,-2.952741 1.227663,-1.227662 2.963324,-1.227662 1.756828,0 3.016241,1.185329 1.269996,1.174746 1.269996,2.889241 z m -0.973664,-0.02117 q 0,-1.344079 -0.973664,-2.275409 -0.973663,-0.93133 -2.338909,-0.93133 -1.344079,0 -2.275409,0.973663 -0.931331,0.973664 -0.931331,2.338909 0,1.344079 0.963081,2.27541 0.973663,0.920747 2.349492,0.920747 1.344079,0 2.27541,-0.973664 0.93133,-0.973663 0.93133,-2.328326 z" />
      <path
         id="path60"
         style="font-style:normal;font-variant:normal;font-weight:100;font-stretch:normal;font-family:'Futurist Fixed-width';-inkscape-font-specification:'Futurist Fixed-width Thin';fill:#ffffff"
         d="m 61.528205,59.200019 q -0.550332,0.232832 -1.12183,0.359832 -0.560915,0.126999 -1.142997,0.126999 -0.814914,0 -1.555745,-0.264582 -0.740831,-0.264583 -1.354662,-0.804331 -1.248829,-1.269996 -1.248829,-2.995074 0,-1.12183 0.486831,-1.92616 0.497416,-0.804331 0.963081,-1.227663 0.476248,-0.433915 0.89958,-0.603248 0.433915,-0.179916 0.698498,-0.243416 0.275166,-0.0635 0.550332,-0.09525 0.285749,-0.03175 0.550331,-0.03175 0.391582,0 0.825497,0.07408 0.433916,0.0635 0.867831,0.1905 l 0.582082,0.264582 v 1.037164 q -0.984247,-0.698498 -2.158994,-0.698498 -0.793747,0 -1.481662,0.328082 -0.687914,0.317499 -1.185329,0.984247 -0.285749,0.423332 -0.444499,0.920747 -0.148166,0.497415 -0.148166,1.015997 0,0.89958 0.444499,1.693328 0.455082,0.783164 1.238246,1.185329 0.793747,0.391583 1.608661,0.391583 0.878414,0 1.576912,-0.433916 l 0.550332,-0.349249 z" />
      <path
         id="path62"
         style="font-style:normal;font-variant:normal;font-weight:100;font-stretch:normal;font-family:'Futurist Fixed-width';-inkscape-font-specification:'Futurist Fixed-width Thin';fill:#ffffff"
         d="m 72.587732,59.549267 h -1.333496 l -3.566572,-4.233319 v 4.233319 H 66.74575 v -7.831641 h 0.941914 v 3.450155 l 3.291406,-3.450155 h 1.269996 l -3.481906,3.471322 z" />
      <path
         id="path64"
         style="fill:#333333"
         d="m 28.645952,72.344478 q -0.412749,0.201083 -0.825498,0.317499 -0.412748,0.116416 -0.814914,0.116416 h -2.963324 v -7.831641 h 3.33374 q 1.492245,0.148166 2.360076,1.322912 0.86783,1.164163 0.86783,2.666992 0,1.111246 -0.486832,2.02141 -0.486831,0.910164 -1.471078,1.386412 z m 0.920747,-3.989904 q -0.08467,-0.920747 -0.719665,-1.629828 -0.624414,-0.709081 -1.534578,-0.910164 h -2.349493 v 6.117147 h 2.021411 q 1.195913,0 1.904994,-0.952497 0.709081,-0.952497 0.709081,-2.169576 0,-0.232833 -0.03175,-0.455082 z" />
      <path
         id="path66"
         style="fill:#333333"
         d="m 42.637054,64.946752 -2.868074,8.075057 h -0.28575 l -1.968493,-6.180647 -1.936744,6.180647 H 35.302827 L 32.29717,64.946752 h 1.05833 l 2.05316,6.244146 2.000244,-6.328813 h 0.232832 l 2.021411,6.328813 1.968493,-6.244146 z" />
      <path
         id="path68"
         style="fill:#333333"
         d="m 49.812511,72.344478 q -0.412749,0.201083 -0.825497,0.317499 -0.412749,0.116416 -0.814915,0.116416 h -2.963323 v -7.831641 h 3.333739 q 1.492245,0.148166 2.360076,1.322912 0.86783,1.164163 0.86783,2.666992 0,1.111246 -0.486831,2.02141 -0.486832,0.910164 -1.471079,1.386412 z m 0.920747,-3.989904 q -0.08467,-0.920747 -0.719664,-1.629828 -0.624415,-0.709081 -1.534579,-0.910164 h -2.349492 v 6.117147 h 2.02141 q 1.195913,0 1.904994,-0.952497 0.709081,-0.952497 0.709081,-2.169576 0,-0.232833 -0.03175,-0.455082 z" />
      <path
         id="path70"
         style="fill:#333333"
         d="m 61.761037,72.778393 h -1.269996 l -2.942157,-4.01107 v 4.01107 h -0.984247 v -7.831641 l 2.899824,0.02117 q 0.836081,0 1.365246,0.634998 0.539748,0.634998 0.539748,1.471079 0,0.444498 -0.158749,0.825497 -0.148167,0.380999 -0.497416,0.698498 -0.391582,0.317499 -0.857247,0.455082 H 58.81888 Z m -2.14841,-6.900311 q -0.137583,-0.05292 -0.296332,-0.08467 -0.148166,-0.04233 -0.275166,-0.04233 h -1.492245 v 2.624659 h 1.746244 q 0.507999,0 0.783164,-0.349249 0.28575,-0.359832 0.28575,-0.867831 0,-0.423332 -0.1905,-0.772581 -0.190499,-0.349249 -0.560915,-0.507998 z" />
      <path
         id="path72"
         style="fill:#333333"
         d="m 71.709318,68.936656 h -3.291406 v 3.841737 h -0.920747 v -7.831641 h 4.212153 v 0.825497 h -3.27024 v 2.360076 h 3.27024 z" />
    </g>
    <text
       style="font-style:normal;font-weight:normal;font-size:10.5833px;line-height:1.25;font-family:sans-serif;white-space:pre;shape-inside:url(#rect20);fill:#000000;fill-opacity:1;stroke:none;"
       id="text18"
       xml:space="preserve" />
    <rect
       style="fill:none;stroke:#ffffff;stroke-width:4.79049;stroke-linejoin:round;stroke-miterlimit:4;stroke-dasharray:none;stroke-dashoffset:0;stroke-opacity:1;paint-order:normal"
       id="rect24-6"
       width="259.79285"
       height="259.79285"
       x="53.382217"
       y="57.8787" />
  </g>
</svg>
