G04 #@! TF.GenerationSoftware,KiCad,Pcbnew,5.1.4-3.fc31*
G04 #@! TF.CreationDate,2019-12-02T16:48:44+01:00*
G04 #@! TF.ProjectId,WordclockPCB,576f7264-636c-46f6-936b-5043422e6b69,rev?*
G04 #@! TF.SameCoordinates,Original*
G04 #@! TF.FileFunction,Legend,Bot*
G04 #@! TF.FilePolarity,Positive*
%FSLAX46Y46*%
G04 Gerber Fmt 4.6, Leading zero omitted, Abs format (unit mm)*
G04 Created by KiCad (PCBNEW 5.1.4-3.fc31) date 2019-12-02 16:48:44*
%MOMM*%
%LPD*%
G04 APERTURE LIST*
%ADD10C,0.010000*%
G04 APERTURE END LIST*
D10*
G36*
X246722954Y-119836075D02*
G01*
X246320726Y-120002011D01*
X246038958Y-120202601D01*
X245852232Y-120402450D01*
X245677887Y-120647258D01*
X245605918Y-120776251D01*
X245543459Y-120910444D01*
X245498331Y-121033419D01*
X245467080Y-121168967D01*
X245446247Y-121340877D01*
X245432377Y-121572939D01*
X245422014Y-121888942D01*
X245417351Y-122074056D01*
X245410708Y-122489311D01*
X245415522Y-122800158D01*
X245434702Y-123020853D01*
X245471163Y-123165651D01*
X245527816Y-123248807D01*
X245607573Y-123284576D01*
X245665606Y-123289227D01*
X245828154Y-123248059D01*
X245918535Y-123119378D01*
X245943091Y-122926298D01*
X245943091Y-122706132D01*
X246136417Y-122887890D01*
X246463245Y-123117926D01*
X246849656Y-123264111D01*
X247262706Y-123317380D01*
X247588217Y-123287399D01*
X248010702Y-123146474D01*
X248367804Y-122913445D01*
X248650238Y-122601124D01*
X248848721Y-122222319D01*
X248953970Y-121789839D01*
X248959867Y-121535397D01*
X248489047Y-121535397D01*
X248446863Y-121880560D01*
X248319444Y-122203309D01*
X248111184Y-122483757D01*
X247826477Y-122702017D01*
X247563216Y-122813604D01*
X247321971Y-122861806D01*
X247075254Y-122850975D01*
X246868883Y-122808095D01*
X246535546Y-122667951D01*
X246269122Y-122443639D01*
X246077367Y-122154207D01*
X245968037Y-121818707D01*
X245948890Y-121456189D01*
X246027682Y-121085704D01*
X246099115Y-120917521D01*
X246311072Y-120613288D01*
X246588147Y-120394649D01*
X246909034Y-120265444D01*
X247252422Y-120229508D01*
X247597005Y-120290681D01*
X247921474Y-120452801D01*
X248060239Y-120564290D01*
X248300128Y-120857375D01*
X248441600Y-121187706D01*
X248489047Y-121535397D01*
X248959867Y-121535397D01*
X248963233Y-121390173D01*
X248879624Y-120935509D01*
X248698513Y-120548945D01*
X248419138Y-120229336D01*
X248040738Y-119975539D01*
X248013174Y-119961531D01*
X247591460Y-119813114D01*
X247153959Y-119772202D01*
X246722954Y-119836075D01*
X246722954Y-119836075D01*
G37*
X246722954Y-119836075D02*
X246320726Y-120002011D01*
X246038958Y-120202601D01*
X245852232Y-120402450D01*
X245677887Y-120647258D01*
X245605918Y-120776251D01*
X245543459Y-120910444D01*
X245498331Y-121033419D01*
X245467080Y-121168967D01*
X245446247Y-121340877D01*
X245432377Y-121572939D01*
X245422014Y-121888942D01*
X245417351Y-122074056D01*
X245410708Y-122489311D01*
X245415522Y-122800158D01*
X245434702Y-123020853D01*
X245471163Y-123165651D01*
X245527816Y-123248807D01*
X245607573Y-123284576D01*
X245665606Y-123289227D01*
X245828154Y-123248059D01*
X245918535Y-123119378D01*
X245943091Y-122926298D01*
X245943091Y-122706132D01*
X246136417Y-122887890D01*
X246463245Y-123117926D01*
X246849656Y-123264111D01*
X247262706Y-123317380D01*
X247588217Y-123287399D01*
X248010702Y-123146474D01*
X248367804Y-122913445D01*
X248650238Y-122601124D01*
X248848721Y-122222319D01*
X248953970Y-121789839D01*
X248959867Y-121535397D01*
X248489047Y-121535397D01*
X248446863Y-121880560D01*
X248319444Y-122203309D01*
X248111184Y-122483757D01*
X247826477Y-122702017D01*
X247563216Y-122813604D01*
X247321971Y-122861806D01*
X247075254Y-122850975D01*
X246868883Y-122808095D01*
X246535546Y-122667951D01*
X246269122Y-122443639D01*
X246077367Y-122154207D01*
X245968037Y-121818707D01*
X245948890Y-121456189D01*
X246027682Y-121085704D01*
X246099115Y-120917521D01*
X246311072Y-120613288D01*
X246588147Y-120394649D01*
X246909034Y-120265444D01*
X247252422Y-120229508D01*
X247597005Y-120290681D01*
X247921474Y-120452801D01*
X248060239Y-120564290D01*
X248300128Y-120857375D01*
X248441600Y-121187706D01*
X248489047Y-121535397D01*
X248959867Y-121535397D01*
X248963233Y-121390173D01*
X248879624Y-120935509D01*
X248698513Y-120548945D01*
X248419138Y-120229336D01*
X248040738Y-119975539D01*
X248013174Y-119961531D01*
X247591460Y-119813114D01*
X247153959Y-119772202D01*
X246722954Y-119836075D01*
G36*
X242634087Y-119797544D02*
G01*
X242471098Y-119842868D01*
X242283276Y-119926468D01*
X242279171Y-119928475D01*
X241942900Y-120147990D01*
X241688334Y-120441744D01*
X241508804Y-120819339D01*
X241418562Y-121167658D01*
X241389504Y-121325513D01*
X241378242Y-121447342D01*
X241397545Y-121537808D01*
X241460181Y-121601576D01*
X241578920Y-121643307D01*
X241766530Y-121667666D01*
X242035781Y-121679316D01*
X242399441Y-121682919D01*
X242830017Y-121683138D01*
X244174114Y-121683138D01*
X244138975Y-121899673D01*
X244029282Y-122232222D01*
X243826012Y-122502281D01*
X243542419Y-122699713D01*
X243191758Y-122814383D01*
X242909368Y-122840000D01*
X242639901Y-122826565D01*
X242416230Y-122773597D01*
X242186468Y-122665246D01*
X242031762Y-122571915D01*
X241876387Y-122526740D01*
X241752651Y-122583308D01*
X241691804Y-122724391D01*
X241689930Y-122760347D01*
X241709762Y-122846799D01*
X241783717Y-122926774D01*
X241933484Y-123018843D01*
X242076581Y-123091444D01*
X242472128Y-123249137D01*
X242840041Y-123313333D01*
X243218841Y-123289414D01*
X243334453Y-123267150D01*
X243759189Y-123117899D01*
X244116354Y-122872159D01*
X244398846Y-122535897D01*
X244550041Y-122245830D01*
X244612187Y-122012289D01*
X244644593Y-121708947D01*
X244646112Y-121381486D01*
X244628543Y-121205349D01*
X244158548Y-121205349D01*
X244099681Y-121229465D01*
X243925280Y-121247746D01*
X243638648Y-121260011D01*
X243243085Y-121266081D01*
X243028337Y-121266744D01*
X241898126Y-121266744D01*
X241899105Y-121132904D01*
X241939622Y-120962717D01*
X242041618Y-120756861D01*
X242178776Y-120559951D01*
X242319253Y-120420634D01*
X242609211Y-120275206D01*
X242939840Y-120220517D01*
X243278602Y-120253528D01*
X243592959Y-120371201D01*
X243843414Y-120562958D01*
X243946032Y-120702921D01*
X244048051Y-120887565D01*
X244126533Y-121070128D01*
X244158539Y-121203852D01*
X244158548Y-121205349D01*
X244628543Y-121205349D01*
X244615599Y-121075585D01*
X244583105Y-120927208D01*
X244439900Y-120606769D01*
X244207804Y-120300168D01*
X243914957Y-120042642D01*
X243833996Y-119989096D01*
X243656555Y-119891072D01*
X243487476Y-119832518D01*
X243280268Y-119801105D01*
X243076344Y-119788140D01*
X242819938Y-119782100D01*
X242634087Y-119797544D01*
X242634087Y-119797544D01*
G37*
X242634087Y-119797544D02*
X242471098Y-119842868D01*
X242283276Y-119926468D01*
X242279171Y-119928475D01*
X241942900Y-120147990D01*
X241688334Y-120441744D01*
X241508804Y-120819339D01*
X241418562Y-121167658D01*
X241389504Y-121325513D01*
X241378242Y-121447342D01*
X241397545Y-121537808D01*
X241460181Y-121601576D01*
X241578920Y-121643307D01*
X241766530Y-121667666D01*
X242035781Y-121679316D01*
X242399441Y-121682919D01*
X242830017Y-121683138D01*
X244174114Y-121683138D01*
X244138975Y-121899673D01*
X244029282Y-122232222D01*
X243826012Y-122502281D01*
X243542419Y-122699713D01*
X243191758Y-122814383D01*
X242909368Y-122840000D01*
X242639901Y-122826565D01*
X242416230Y-122773597D01*
X242186468Y-122665246D01*
X242031762Y-122571915D01*
X241876387Y-122526740D01*
X241752651Y-122583308D01*
X241691804Y-122724391D01*
X241689930Y-122760347D01*
X241709762Y-122846799D01*
X241783717Y-122926774D01*
X241933484Y-123018843D01*
X242076581Y-123091444D01*
X242472128Y-123249137D01*
X242840041Y-123313333D01*
X243218841Y-123289414D01*
X243334453Y-123267150D01*
X243759189Y-123117899D01*
X244116354Y-122872159D01*
X244398846Y-122535897D01*
X244550041Y-122245830D01*
X244612187Y-122012289D01*
X244644593Y-121708947D01*
X244646112Y-121381486D01*
X244628543Y-121205349D01*
X244158548Y-121205349D01*
X244099681Y-121229465D01*
X243925280Y-121247746D01*
X243638648Y-121260011D01*
X243243085Y-121266081D01*
X243028337Y-121266744D01*
X241898126Y-121266744D01*
X241899105Y-121132904D01*
X241939622Y-120962717D01*
X242041618Y-120756861D01*
X242178776Y-120559951D01*
X242319253Y-120420634D01*
X242609211Y-120275206D01*
X242939840Y-120220517D01*
X243278602Y-120253528D01*
X243592959Y-120371201D01*
X243843414Y-120562958D01*
X243946032Y-120702921D01*
X244048051Y-120887565D01*
X244126533Y-121070128D01*
X244158539Y-121203852D01*
X244158548Y-121205349D01*
X244628543Y-121205349D01*
X244615599Y-121075585D01*
X244583105Y-120927208D01*
X244439900Y-120606769D01*
X244207804Y-120300168D01*
X243914957Y-120042642D01*
X243833996Y-119989096D01*
X243656555Y-119891072D01*
X243487476Y-119832518D01*
X243280268Y-119801105D01*
X243076344Y-119788140D01*
X242819938Y-119782100D01*
X242634087Y-119797544D01*
G36*
X234207012Y-118267366D02*
G01*
X233717576Y-118399078D01*
X233287705Y-118624318D01*
X233080735Y-118783909D01*
X232984930Y-118922097D01*
X232996234Y-119047114D01*
X233046792Y-119113395D01*
X233166581Y-119177575D01*
X233323035Y-119154342D01*
X233532192Y-119040446D01*
X233584827Y-119004341D01*
X233938356Y-118824870D01*
X234341894Y-118737925D01*
X234770961Y-118743270D01*
X235201074Y-118840669D01*
X235597608Y-119023763D01*
X235963601Y-119308179D01*
X236245498Y-119661152D01*
X236440843Y-120064706D01*
X236547185Y-120500863D01*
X236562069Y-120951646D01*
X236483041Y-121399079D01*
X236307649Y-121825184D01*
X236033437Y-122211985D01*
X236032860Y-122212628D01*
X235692720Y-122522900D01*
X235320277Y-122724599D01*
X234896671Y-122826081D01*
X234611520Y-122842340D01*
X234331863Y-122834573D01*
X234118879Y-122803527D01*
X233921008Y-122739150D01*
X233793326Y-122682799D01*
X233451288Y-122522507D01*
X233451288Y-121266744D01*
X233960819Y-121266744D01*
X234208671Y-121259771D01*
X234420960Y-121241216D01*
X234561675Y-121214631D01*
X234585409Y-121205167D01*
X234683669Y-121096525D01*
X234687212Y-120955735D01*
X234629087Y-120862248D01*
X234537976Y-120830096D01*
X234357657Y-120807044D01*
X234117542Y-120793093D01*
X233847044Y-120788243D01*
X233575575Y-120792493D01*
X233332549Y-120805843D01*
X233147376Y-120828294D01*
X233049471Y-120859845D01*
X233046792Y-120862248D01*
X233015104Y-120946546D01*
X232992952Y-121130420D01*
X232979876Y-121420163D01*
X232975416Y-121822067D01*
X232975410Y-121839416D01*
X232975410Y-122745202D01*
X233198478Y-122929750D01*
X233488871Y-123107616D01*
X233856938Y-123240280D01*
X234268165Y-123322135D01*
X234688039Y-123347577D01*
X235082046Y-123310998D01*
X235265574Y-123265503D01*
X235750974Y-123063140D01*
X236161523Y-122780571D01*
X236520211Y-122401259D01*
X236584374Y-122316919D01*
X236850100Y-121862616D01*
X237012763Y-121374547D01*
X237075327Y-120869574D01*
X237040755Y-120364560D01*
X236912011Y-119876366D01*
X236692056Y-119421854D01*
X236383856Y-119017887D01*
X235990373Y-118681326D01*
X235939513Y-118647527D01*
X235651792Y-118476622D01*
X235392753Y-118364435D01*
X235115166Y-118295532D01*
X234771802Y-118254478D01*
X234725489Y-118250809D01*
X234207012Y-118267366D01*
X234207012Y-118267366D01*
G37*
X234207012Y-118267366D02*
X233717576Y-118399078D01*
X233287705Y-118624318D01*
X233080735Y-118783909D01*
X232984930Y-118922097D01*
X232996234Y-119047114D01*
X233046792Y-119113395D01*
X233166581Y-119177575D01*
X233323035Y-119154342D01*
X233532192Y-119040446D01*
X233584827Y-119004341D01*
X233938356Y-118824870D01*
X234341894Y-118737925D01*
X234770961Y-118743270D01*
X235201074Y-118840669D01*
X235597608Y-119023763D01*
X235963601Y-119308179D01*
X236245498Y-119661152D01*
X236440843Y-120064706D01*
X236547185Y-120500863D01*
X236562069Y-120951646D01*
X236483041Y-121399079D01*
X236307649Y-121825184D01*
X236033437Y-122211985D01*
X236032860Y-122212628D01*
X235692720Y-122522900D01*
X235320277Y-122724599D01*
X234896671Y-122826081D01*
X234611520Y-122842340D01*
X234331863Y-122834573D01*
X234118879Y-122803527D01*
X233921008Y-122739150D01*
X233793326Y-122682799D01*
X233451288Y-122522507D01*
X233451288Y-121266744D01*
X233960819Y-121266744D01*
X234208671Y-121259771D01*
X234420960Y-121241216D01*
X234561675Y-121214631D01*
X234585409Y-121205167D01*
X234683669Y-121096525D01*
X234687212Y-120955735D01*
X234629087Y-120862248D01*
X234537976Y-120830096D01*
X234357657Y-120807044D01*
X234117542Y-120793093D01*
X233847044Y-120788243D01*
X233575575Y-120792493D01*
X233332549Y-120805843D01*
X233147376Y-120828294D01*
X233049471Y-120859845D01*
X233046792Y-120862248D01*
X233015104Y-120946546D01*
X232992952Y-121130420D01*
X232979876Y-121420163D01*
X232975416Y-121822067D01*
X232975410Y-121839416D01*
X232975410Y-122745202D01*
X233198478Y-122929750D01*
X233488871Y-123107616D01*
X233856938Y-123240280D01*
X234268165Y-123322135D01*
X234688039Y-123347577D01*
X235082046Y-123310998D01*
X235265574Y-123265503D01*
X235750974Y-123063140D01*
X236161523Y-122780571D01*
X236520211Y-122401259D01*
X236584374Y-122316919D01*
X236850100Y-121862616D01*
X237012763Y-121374547D01*
X237075327Y-120869574D01*
X237040755Y-120364560D01*
X236912011Y-119876366D01*
X236692056Y-119421854D01*
X236383856Y-119017887D01*
X235990373Y-118681326D01*
X235939513Y-118647527D01*
X235651792Y-118476622D01*
X235392753Y-118364435D01*
X235115166Y-118295532D01*
X234771802Y-118254478D01*
X234725489Y-118250809D01*
X234207012Y-118267366D01*
G36*
X231703475Y-119825102D02*
G01*
X231547775Y-119896044D01*
X231546469Y-120953174D01*
X231541544Y-121410648D01*
X231525376Y-121766906D01*
X231493963Y-122039478D01*
X231443308Y-122245897D01*
X231369411Y-122403696D01*
X231268272Y-122530405D01*
X231166183Y-122620287D01*
X230904186Y-122761804D01*
X230595989Y-122828560D01*
X230270757Y-122824676D01*
X229957653Y-122754272D01*
X229685840Y-122621467D01*
X229484483Y-122430383D01*
X229450816Y-122377947D01*
X229418128Y-122257692D01*
X229390243Y-122020853D01*
X229367348Y-121669726D01*
X229349630Y-121206609D01*
X229346838Y-121105126D01*
X229334946Y-120698913D01*
X229322192Y-120395141D01*
X229306831Y-120177286D01*
X229287114Y-120028821D01*
X229261294Y-119933223D01*
X229227623Y-119873965D01*
X229215195Y-119860267D01*
X229117046Y-119793417D01*
X229003733Y-119809661D01*
X228962385Y-119827285D01*
X228811475Y-119896044D01*
X228811475Y-121525867D01*
X228812179Y-122038291D01*
X228815732Y-122443572D01*
X228824301Y-122753533D01*
X228840051Y-122979998D01*
X228865146Y-123134790D01*
X228901751Y-123229734D01*
X228952032Y-123276653D01*
X229018154Y-123287371D01*
X229102281Y-123273712D01*
X229130279Y-123266899D01*
X229253702Y-123187223D01*
X229309138Y-123046462D01*
X229346103Y-122861639D01*
X229527746Y-123014481D01*
X229736083Y-123143682D01*
X230009831Y-123253652D01*
X230295437Y-123326233D01*
X230502717Y-123345078D01*
X230665598Y-123324503D01*
X230878759Y-123276047D01*
X230998933Y-123240979D01*
X231376450Y-123069761D01*
X231667289Y-122821428D01*
X231883073Y-122485874D01*
X231893689Y-122463178D01*
X231949907Y-122333159D01*
X231991249Y-122209462D01*
X232020615Y-122069712D01*
X232040909Y-121891532D01*
X232055034Y-121652547D01*
X232065892Y-121330378D01*
X232072036Y-121088290D01*
X232080225Y-120710332D01*
X232083010Y-120432415D01*
X232078898Y-120235677D01*
X232066396Y-120101253D01*
X232044012Y-120010281D01*
X232010253Y-119943897D01*
X231978063Y-119900734D01*
X231881893Y-119803321D01*
X231791593Y-119791573D01*
X231703475Y-119825102D01*
X231703475Y-119825102D01*
G37*
X231703475Y-119825102D02*
X231547775Y-119896044D01*
X231546469Y-120953174D01*
X231541544Y-121410648D01*
X231525376Y-121766906D01*
X231493963Y-122039478D01*
X231443308Y-122245897D01*
X231369411Y-122403696D01*
X231268272Y-122530405D01*
X231166183Y-122620287D01*
X230904186Y-122761804D01*
X230595989Y-122828560D01*
X230270757Y-122824676D01*
X229957653Y-122754272D01*
X229685840Y-122621467D01*
X229484483Y-122430383D01*
X229450816Y-122377947D01*
X229418128Y-122257692D01*
X229390243Y-122020853D01*
X229367348Y-121669726D01*
X229349630Y-121206609D01*
X229346838Y-121105126D01*
X229334946Y-120698913D01*
X229322192Y-120395141D01*
X229306831Y-120177286D01*
X229287114Y-120028821D01*
X229261294Y-119933223D01*
X229227623Y-119873965D01*
X229215195Y-119860267D01*
X229117046Y-119793417D01*
X229003733Y-119809661D01*
X228962385Y-119827285D01*
X228811475Y-119896044D01*
X228811475Y-121525867D01*
X228812179Y-122038291D01*
X228815732Y-122443572D01*
X228824301Y-122753533D01*
X228840051Y-122979998D01*
X228865146Y-123134790D01*
X228901751Y-123229734D01*
X228952032Y-123276653D01*
X229018154Y-123287371D01*
X229102281Y-123273712D01*
X229130279Y-123266899D01*
X229253702Y-123187223D01*
X229309138Y-123046462D01*
X229346103Y-122861639D01*
X229527746Y-123014481D01*
X229736083Y-123143682D01*
X230009831Y-123253652D01*
X230295437Y-123326233D01*
X230502717Y-123345078D01*
X230665598Y-123324503D01*
X230878759Y-123276047D01*
X230998933Y-123240979D01*
X231376450Y-123069761D01*
X231667289Y-122821428D01*
X231883073Y-122485874D01*
X231893689Y-122463178D01*
X231949907Y-122333159D01*
X231991249Y-122209462D01*
X232020615Y-122069712D01*
X232040909Y-121891532D01*
X232055034Y-121652547D01*
X232065892Y-121330378D01*
X232072036Y-121088290D01*
X232080225Y-120710332D01*
X232083010Y-120432415D01*
X232078898Y-120235677D01*
X232066396Y-120101253D01*
X232044012Y-120010281D01*
X232010253Y-119943897D01*
X231978063Y-119900734D01*
X231881893Y-119803321D01*
X231791593Y-119791573D01*
X231703475Y-119825102D01*
G36*
X220291001Y-119824841D02*
G01*
X220142407Y-119863635D01*
X219774290Y-120045370D01*
X219466547Y-120315144D01*
X219228092Y-120653728D01*
X219067839Y-121041896D01*
X218994702Y-121460420D01*
X219017595Y-121890073D01*
X219082577Y-122149570D01*
X219266910Y-122524835D01*
X219540113Y-122840196D01*
X219882634Y-123084729D01*
X220274923Y-123247508D01*
X220697428Y-123317606D01*
X221117491Y-123286744D01*
X221549062Y-123145400D01*
X221913048Y-122912000D01*
X222200066Y-122598246D01*
X222400734Y-122215840D01*
X222505670Y-121776485D01*
X222519308Y-121538163D01*
X222505557Y-121419265D01*
X222019693Y-121419265D01*
X222004854Y-121828124D01*
X221899956Y-122167205D01*
X221700047Y-122449866D01*
X221603882Y-122540371D01*
X221279472Y-122743936D01*
X220918072Y-122842272D01*
X220542037Y-122833260D01*
X220173719Y-122714783D01*
X220110310Y-122681858D01*
X219835389Y-122467398D01*
X219639717Y-122186114D01*
X219524132Y-121860654D01*
X219489470Y-121513666D01*
X219536568Y-121167799D01*
X219666263Y-120845700D01*
X219879391Y-120570018D01*
X220027823Y-120449541D01*
X220315944Y-120311775D01*
X220652028Y-120240346D01*
X220978276Y-120247112D01*
X220997838Y-120250554D01*
X221369868Y-120374092D01*
X221665818Y-120586094D01*
X221877800Y-120877541D01*
X221997927Y-121239412D01*
X222019693Y-121419265D01*
X222505557Y-121419265D01*
X222465595Y-121073743D01*
X222309237Y-120657725D01*
X222057401Y-120302334D01*
X221717257Y-120019797D01*
X221584075Y-119943184D01*
X221315855Y-119848856D01*
X220980656Y-119796019D01*
X220623897Y-119787178D01*
X220291001Y-119824841D01*
X220291001Y-119824841D01*
G37*
X220291001Y-119824841D02*
X220142407Y-119863635D01*
X219774290Y-120045370D01*
X219466547Y-120315144D01*
X219228092Y-120653728D01*
X219067839Y-121041896D01*
X218994702Y-121460420D01*
X219017595Y-121890073D01*
X219082577Y-122149570D01*
X219266910Y-122524835D01*
X219540113Y-122840196D01*
X219882634Y-123084729D01*
X220274923Y-123247508D01*
X220697428Y-123317606D01*
X221117491Y-123286744D01*
X221549062Y-123145400D01*
X221913048Y-122912000D01*
X222200066Y-122598246D01*
X222400734Y-122215840D01*
X222505670Y-121776485D01*
X222519308Y-121538163D01*
X222505557Y-121419265D01*
X222019693Y-121419265D01*
X222004854Y-121828124D01*
X221899956Y-122167205D01*
X221700047Y-122449866D01*
X221603882Y-122540371D01*
X221279472Y-122743936D01*
X220918072Y-122842272D01*
X220542037Y-122833260D01*
X220173719Y-122714783D01*
X220110310Y-122681858D01*
X219835389Y-122467398D01*
X219639717Y-122186114D01*
X219524132Y-121860654D01*
X219489470Y-121513666D01*
X219536568Y-121167799D01*
X219666263Y-120845700D01*
X219879391Y-120570018D01*
X220027823Y-120449541D01*
X220315944Y-120311775D01*
X220652028Y-120240346D01*
X220978276Y-120247112D01*
X220997838Y-120250554D01*
X221369868Y-120374092D01*
X221665818Y-120586094D01*
X221877800Y-120877541D01*
X221997927Y-121239412D01*
X222019693Y-121419265D01*
X222505557Y-121419265D01*
X222465595Y-121073743D01*
X222309237Y-120657725D01*
X222057401Y-120302334D01*
X221717257Y-120019797D01*
X221584075Y-119943184D01*
X221315855Y-119848856D01*
X220980656Y-119796019D01*
X220623897Y-119787178D01*
X220291001Y-119824841D01*
G36*
X216456400Y-119802867D02*
G01*
X216251767Y-119848660D01*
X216052635Y-119934806D01*
X215856891Y-120062663D01*
X215691609Y-120208758D01*
X215583864Y-120349616D01*
X215558067Y-120450106D01*
X215618834Y-120581692D01*
X215728471Y-120658118D01*
X215845675Y-120653564D01*
X215864799Y-120641850D01*
X216111706Y-120464009D01*
X216294356Y-120346756D01*
X216442187Y-120277359D01*
X216584634Y-120243090D01*
X216751134Y-120231218D01*
X216817084Y-120230038D01*
X217139221Y-120259713D01*
X217380428Y-120351933D01*
X217531910Y-120499032D01*
X217584873Y-120693339D01*
X217552632Y-120871313D01*
X217484377Y-120989736D01*
X217359793Y-121087169D01*
X217161397Y-121172013D01*
X216871704Y-121252668D01*
X216661614Y-121299444D01*
X216217819Y-121418558D01*
X215881802Y-121569952D01*
X215645258Y-121759859D01*
X215499884Y-121994512D01*
X215444388Y-122213003D01*
X215459664Y-122503607D01*
X215576583Y-122763479D01*
X215779853Y-122983781D01*
X216054179Y-123155677D01*
X216384266Y-123270328D01*
X216754822Y-123318895D01*
X217150552Y-123292541D01*
X217271429Y-123268809D01*
X217579122Y-123183057D01*
X217813156Y-123074581D01*
X218018841Y-122921269D01*
X218059602Y-122884178D01*
X218189893Y-122720340D01*
X218211848Y-122579349D01*
X218124830Y-122471457D01*
X218086498Y-122451095D01*
X217993276Y-122426452D01*
X217889039Y-122449529D01*
X217741049Y-122531025D01*
X217640832Y-122596743D01*
X217303961Y-122773877D01*
X217015788Y-122844160D01*
X216686704Y-122853918D01*
X216401056Y-122803647D01*
X216171843Y-122703892D01*
X216012066Y-122565203D01*
X215934725Y-122398124D01*
X215952820Y-122213204D01*
X216046314Y-122057641D01*
X216114872Y-121982806D01*
X216190899Y-121923318D01*
X216294862Y-121871263D01*
X216447228Y-121818728D01*
X216668463Y-121757800D01*
X216979035Y-121680566D01*
X217092974Y-121652963D01*
X217494262Y-121517831D01*
X217796718Y-121332371D01*
X217996305Y-121100829D01*
X218088985Y-120827446D01*
X218087360Y-120607899D01*
X218001210Y-120321278D01*
X217822168Y-120096206D01*
X217541583Y-119920437D01*
X217215466Y-119818609D01*
X216836795Y-119778475D01*
X216456400Y-119802867D01*
X216456400Y-119802867D01*
G37*
X216456400Y-119802867D02*
X216251767Y-119848660D01*
X216052635Y-119934806D01*
X215856891Y-120062663D01*
X215691609Y-120208758D01*
X215583864Y-120349616D01*
X215558067Y-120450106D01*
X215618834Y-120581692D01*
X215728471Y-120658118D01*
X215845675Y-120653564D01*
X215864799Y-120641850D01*
X216111706Y-120464009D01*
X216294356Y-120346756D01*
X216442187Y-120277359D01*
X216584634Y-120243090D01*
X216751134Y-120231218D01*
X216817084Y-120230038D01*
X217139221Y-120259713D01*
X217380428Y-120351933D01*
X217531910Y-120499032D01*
X217584873Y-120693339D01*
X217552632Y-120871313D01*
X217484377Y-120989736D01*
X217359793Y-121087169D01*
X217161397Y-121172013D01*
X216871704Y-121252668D01*
X216661614Y-121299444D01*
X216217819Y-121418558D01*
X215881802Y-121569952D01*
X215645258Y-121759859D01*
X215499884Y-121994512D01*
X215444388Y-122213003D01*
X215459664Y-122503607D01*
X215576583Y-122763479D01*
X215779853Y-122983781D01*
X216054179Y-123155677D01*
X216384266Y-123270328D01*
X216754822Y-123318895D01*
X217150552Y-123292541D01*
X217271429Y-123268809D01*
X217579122Y-123183057D01*
X217813156Y-123074581D01*
X218018841Y-122921269D01*
X218059602Y-122884178D01*
X218189893Y-122720340D01*
X218211848Y-122579349D01*
X218124830Y-122471457D01*
X218086498Y-122451095D01*
X217993276Y-122426452D01*
X217889039Y-122449529D01*
X217741049Y-122531025D01*
X217640832Y-122596743D01*
X217303961Y-122773877D01*
X217015788Y-122844160D01*
X216686704Y-122853918D01*
X216401056Y-122803647D01*
X216171843Y-122703892D01*
X216012066Y-122565203D01*
X215934725Y-122398124D01*
X215952820Y-122213204D01*
X216046314Y-122057641D01*
X216114872Y-121982806D01*
X216190899Y-121923318D01*
X216294862Y-121871263D01*
X216447228Y-121818728D01*
X216668463Y-121757800D01*
X216979035Y-121680566D01*
X217092974Y-121652963D01*
X217494262Y-121517831D01*
X217796718Y-121332371D01*
X217996305Y-121100829D01*
X218088985Y-120827446D01*
X218087360Y-120607899D01*
X218001210Y-120321278D01*
X217822168Y-120096206D01*
X217541583Y-119920437D01*
X217215466Y-119818609D01*
X216836795Y-119778475D01*
X216456400Y-119802867D01*
G36*
X213028410Y-119794327D02*
G01*
X212880913Y-119827222D01*
X212728637Y-119891152D01*
X212634654Y-119938645D01*
X212378262Y-120096843D01*
X212202027Y-120258796D01*
X212117029Y-120411190D01*
X212134027Y-120540199D01*
X212240849Y-120641335D01*
X212379235Y-120641868D01*
X212561465Y-120540698D01*
X212618576Y-120496769D01*
X212896373Y-120329853D01*
X213201086Y-120239465D01*
X213505802Y-120225487D01*
X213783608Y-120287802D01*
X214007589Y-120426293D01*
X214076189Y-120503135D01*
X214164538Y-120694858D01*
X214139277Y-120870894D01*
X214005301Y-121026062D01*
X213767504Y-121155180D01*
X213430782Y-121253066D01*
X213353545Y-121268158D01*
X212889533Y-121385850D01*
X212518141Y-121549875D01*
X212243725Y-121754398D01*
X212070639Y-121993583D01*
X212003239Y-122261593D01*
X212045880Y-122552592D01*
X212185013Y-122834030D01*
X212362316Y-123009763D01*
X212627021Y-123153215D01*
X212949982Y-123255983D01*
X213302055Y-123309668D01*
X213654092Y-123305870D01*
X213767599Y-123290166D01*
X214191967Y-123159704D01*
X214609485Y-122920274D01*
X214738761Y-122781151D01*
X214772728Y-122631867D01*
X214710108Y-122502213D01*
X214629712Y-122448057D01*
X214527847Y-122418594D01*
X214428025Y-122444494D01*
X214290023Y-122538228D01*
X214257933Y-122563340D01*
X213909111Y-122766384D01*
X213522336Y-122860347D01*
X213113620Y-122842172D01*
X212969791Y-122809154D01*
X212713137Y-122696753D01*
X212561444Y-122530131D01*
X212512646Y-122312045D01*
X212527211Y-122172292D01*
X212580613Y-122058546D01*
X212687412Y-121962294D01*
X212862168Y-121875026D01*
X213119442Y-121788232D01*
X213473794Y-121693400D01*
X213640934Y-121652522D01*
X213990262Y-121548960D01*
X214246763Y-121422919D01*
X214436333Y-121259618D01*
X214520055Y-121150633D01*
X214634827Y-120882691D01*
X214643726Y-120599037D01*
X214552748Y-120324442D01*
X214367891Y-120083674D01*
X214236658Y-119980068D01*
X214092707Y-119895661D01*
X213947608Y-119842805D01*
X213763209Y-119812154D01*
X213501357Y-119794360D01*
X213473544Y-119793108D01*
X213212247Y-119785334D01*
X213028410Y-119794327D01*
X213028410Y-119794327D01*
G37*
X213028410Y-119794327D02*
X212880913Y-119827222D01*
X212728637Y-119891152D01*
X212634654Y-119938645D01*
X212378262Y-120096843D01*
X212202027Y-120258796D01*
X212117029Y-120411190D01*
X212134027Y-120540199D01*
X212240849Y-120641335D01*
X212379235Y-120641868D01*
X212561465Y-120540698D01*
X212618576Y-120496769D01*
X212896373Y-120329853D01*
X213201086Y-120239465D01*
X213505802Y-120225487D01*
X213783608Y-120287802D01*
X214007589Y-120426293D01*
X214076189Y-120503135D01*
X214164538Y-120694858D01*
X214139277Y-120870894D01*
X214005301Y-121026062D01*
X213767504Y-121155180D01*
X213430782Y-121253066D01*
X213353545Y-121268158D01*
X212889533Y-121385850D01*
X212518141Y-121549875D01*
X212243725Y-121754398D01*
X212070639Y-121993583D01*
X212003239Y-122261593D01*
X212045880Y-122552592D01*
X212185013Y-122834030D01*
X212362316Y-123009763D01*
X212627021Y-123153215D01*
X212949982Y-123255983D01*
X213302055Y-123309668D01*
X213654092Y-123305870D01*
X213767599Y-123290166D01*
X214191967Y-123159704D01*
X214609485Y-122920274D01*
X214738761Y-122781151D01*
X214772728Y-122631867D01*
X214710108Y-122502213D01*
X214629712Y-122448057D01*
X214527847Y-122418594D01*
X214428025Y-122444494D01*
X214290023Y-122538228D01*
X214257933Y-122563340D01*
X213909111Y-122766384D01*
X213522336Y-122860347D01*
X213113620Y-122842172D01*
X212969791Y-122809154D01*
X212713137Y-122696753D01*
X212561444Y-122530131D01*
X212512646Y-122312045D01*
X212527211Y-122172292D01*
X212580613Y-122058546D01*
X212687412Y-121962294D01*
X212862168Y-121875026D01*
X213119442Y-121788232D01*
X213473794Y-121693400D01*
X213640934Y-121652522D01*
X213990262Y-121548960D01*
X214246763Y-121422919D01*
X214436333Y-121259618D01*
X214520055Y-121150633D01*
X214634827Y-120882691D01*
X214643726Y-120599037D01*
X214552748Y-120324442D01*
X214367891Y-120083674D01*
X214236658Y-119980068D01*
X214092707Y-119895661D01*
X213947608Y-119842805D01*
X213763209Y-119812154D01*
X213501357Y-119794360D01*
X213473544Y-119793108D01*
X213212247Y-119785334D01*
X213028410Y-119794327D01*
G36*
X209226098Y-119811005D02*
G01*
X208802061Y-119928799D01*
X208444740Y-120144904D01*
X208154712Y-120458991D01*
X207964711Y-120795630D01*
X207879902Y-120999533D01*
X207833283Y-121168667D01*
X207816974Y-121351303D01*
X207823095Y-121595714D01*
X207825793Y-121646751D01*
X207871168Y-122034597D01*
X207969317Y-122345288D01*
X208135497Y-122614569D01*
X208328800Y-122825284D01*
X208670273Y-123076208D01*
X209072601Y-123242670D01*
X209504721Y-123315744D01*
X209934353Y-123286744D01*
X210363993Y-123143746D01*
X210734567Y-122901848D01*
X211032034Y-122572050D01*
X211182707Y-122308974D01*
X211262037Y-122105437D01*
X211305116Y-121893630D01*
X211320533Y-121625473D01*
X211320774Y-121584006D01*
X210847073Y-121584006D01*
X210794081Y-121954303D01*
X210646705Y-122273928D01*
X210422344Y-122532931D01*
X210138396Y-122721365D01*
X209812261Y-122829279D01*
X209461336Y-122846726D01*
X209103021Y-122763754D01*
X208927172Y-122681858D01*
X208648931Y-122466179D01*
X208452272Y-122186123D01*
X208336863Y-121863595D01*
X208302373Y-121520496D01*
X208348470Y-121178730D01*
X208474824Y-120860199D01*
X208681103Y-120586807D01*
X208961935Y-120383036D01*
X209320384Y-120259131D01*
X209694006Y-120237735D01*
X210052036Y-120318477D01*
X210217591Y-120398203D01*
X210517463Y-120633114D01*
X210719641Y-120931530D01*
X210826911Y-121298700D01*
X210847073Y-121584006D01*
X211320774Y-121584006D01*
X211321063Y-121534426D01*
X211296477Y-121147523D01*
X211215041Y-120832955D01*
X211063245Y-120552262D01*
X210906224Y-120353439D01*
X210611944Y-120078824D01*
X210285981Y-119901674D01*
X209900348Y-119808781D01*
X209716277Y-119791853D01*
X209226098Y-119811005D01*
X209226098Y-119811005D01*
G37*
X209226098Y-119811005D02*
X208802061Y-119928799D01*
X208444740Y-120144904D01*
X208154712Y-120458991D01*
X207964711Y-120795630D01*
X207879902Y-120999533D01*
X207833283Y-121168667D01*
X207816974Y-121351303D01*
X207823095Y-121595714D01*
X207825793Y-121646751D01*
X207871168Y-122034597D01*
X207969317Y-122345288D01*
X208135497Y-122614569D01*
X208328800Y-122825284D01*
X208670273Y-123076208D01*
X209072601Y-123242670D01*
X209504721Y-123315744D01*
X209934353Y-123286744D01*
X210363993Y-123143746D01*
X210734567Y-122901848D01*
X211032034Y-122572050D01*
X211182707Y-122308974D01*
X211262037Y-122105437D01*
X211305116Y-121893630D01*
X211320533Y-121625473D01*
X211320774Y-121584006D01*
X210847073Y-121584006D01*
X210794081Y-121954303D01*
X210646705Y-122273928D01*
X210422344Y-122532931D01*
X210138396Y-122721365D01*
X209812261Y-122829279D01*
X209461336Y-122846726D01*
X209103021Y-122763754D01*
X208927172Y-122681858D01*
X208648931Y-122466179D01*
X208452272Y-122186123D01*
X208336863Y-121863595D01*
X208302373Y-121520496D01*
X208348470Y-121178730D01*
X208474824Y-120860199D01*
X208681103Y-120586807D01*
X208961935Y-120383036D01*
X209320384Y-120259131D01*
X209694006Y-120237735D01*
X210052036Y-120318477D01*
X210217591Y-120398203D01*
X210517463Y-120633114D01*
X210719641Y-120931530D01*
X210826911Y-121298700D01*
X210847073Y-121584006D01*
X211320774Y-121584006D01*
X211321063Y-121534426D01*
X211296477Y-121147523D01*
X211215041Y-120832955D01*
X211063245Y-120552262D01*
X210906224Y-120353439D01*
X210611944Y-120078824D01*
X210285981Y-119901674D01*
X209900348Y-119808781D01*
X209716277Y-119791853D01*
X209226098Y-119811005D01*
G36*
X203807441Y-119819834D02*
G01*
X203742891Y-119873101D01*
X203714004Y-119916117D01*
X203691611Y-119989559D01*
X203674925Y-120107207D01*
X203663163Y-120282839D01*
X203655537Y-120530234D01*
X203651263Y-120863169D01*
X203649556Y-121295424D01*
X203649415Y-121512843D01*
X203651832Y-122012140D01*
X203658841Y-122435742D01*
X203670071Y-122773710D01*
X203685154Y-123016107D01*
X203703723Y-123152995D01*
X203710992Y-123174168D01*
X203818276Y-123265598D01*
X203968417Y-123284687D01*
X204105467Y-123225362D01*
X204113396Y-123217845D01*
X204170964Y-123103959D01*
X204184777Y-123009275D01*
X204188948Y-122931122D01*
X204218039Y-122911710D01*
X204296916Y-122954895D01*
X204425729Y-123046631D01*
X204785818Y-123236128D01*
X205192254Y-123324901D01*
X205621910Y-123308805D01*
X205748186Y-123283779D01*
X206133847Y-123135216D01*
X206456603Y-122893348D01*
X206700678Y-122572967D01*
X206828493Y-122270734D01*
X206867405Y-122079466D01*
X206896796Y-121815350D01*
X206916675Y-121501697D01*
X206927049Y-121161820D01*
X206927928Y-120819032D01*
X206919321Y-120496644D01*
X206901236Y-120217969D01*
X206873681Y-120006320D01*
X206836666Y-119885008D01*
X206827601Y-119873101D01*
X206691981Y-119787805D01*
X206561513Y-119818929D01*
X206484161Y-119888407D01*
X206447400Y-119944952D01*
X206420861Y-120032798D01*
X206402983Y-120169791D01*
X206392208Y-120373774D01*
X206386974Y-120662593D01*
X206385714Y-121014746D01*
X206382005Y-121378372D01*
X206371664Y-121702196D01*
X206355868Y-121964213D01*
X206335796Y-122142420D01*
X206322267Y-122199757D01*
X206155719Y-122484091D01*
X205905694Y-122686351D01*
X205578159Y-122802908D01*
X205282706Y-122831927D01*
X205029818Y-122820384D01*
X204832254Y-122770174D01*
X204647796Y-122677675D01*
X204497946Y-122581465D01*
X204384237Y-122479955D01*
X204301742Y-122355717D01*
X204245539Y-122191322D01*
X204210703Y-121969344D01*
X204192309Y-121672353D01*
X204185435Y-121282924D01*
X204184777Y-121038936D01*
X204183251Y-120644572D01*
X204177777Y-120352423D01*
X204167014Y-120145759D01*
X204149622Y-120007854D01*
X204124258Y-119921981D01*
X204091301Y-119873101D01*
X203948680Y-119787102D01*
X203807441Y-119819834D01*
X203807441Y-119819834D01*
G37*
X203807441Y-119819834D02*
X203742891Y-119873101D01*
X203714004Y-119916117D01*
X203691611Y-119989559D01*
X203674925Y-120107207D01*
X203663163Y-120282839D01*
X203655537Y-120530234D01*
X203651263Y-120863169D01*
X203649556Y-121295424D01*
X203649415Y-121512843D01*
X203651832Y-122012140D01*
X203658841Y-122435742D01*
X203670071Y-122773710D01*
X203685154Y-123016107D01*
X203703723Y-123152995D01*
X203710992Y-123174168D01*
X203818276Y-123265598D01*
X203968417Y-123284687D01*
X204105467Y-123225362D01*
X204113396Y-123217845D01*
X204170964Y-123103959D01*
X204184777Y-123009275D01*
X204188948Y-122931122D01*
X204218039Y-122911710D01*
X204296916Y-122954895D01*
X204425729Y-123046631D01*
X204785818Y-123236128D01*
X205192254Y-123324901D01*
X205621910Y-123308805D01*
X205748186Y-123283779D01*
X206133847Y-123135216D01*
X206456603Y-122893348D01*
X206700678Y-122572967D01*
X206828493Y-122270734D01*
X206867405Y-122079466D01*
X206896796Y-121815350D01*
X206916675Y-121501697D01*
X206927049Y-121161820D01*
X206927928Y-120819032D01*
X206919321Y-120496644D01*
X206901236Y-120217969D01*
X206873681Y-120006320D01*
X206836666Y-119885008D01*
X206827601Y-119873101D01*
X206691981Y-119787805D01*
X206561513Y-119818929D01*
X206484161Y-119888407D01*
X206447400Y-119944952D01*
X206420861Y-120032798D01*
X206402983Y-120169791D01*
X206392208Y-120373774D01*
X206386974Y-120662593D01*
X206385714Y-121014746D01*
X206382005Y-121378372D01*
X206371664Y-121702196D01*
X206355868Y-121964213D01*
X206335796Y-122142420D01*
X206322267Y-122199757D01*
X206155719Y-122484091D01*
X205905694Y-122686351D01*
X205578159Y-122802908D01*
X205282706Y-122831927D01*
X205029818Y-122820384D01*
X204832254Y-122770174D01*
X204647796Y-122677675D01*
X204497946Y-122581465D01*
X204384237Y-122479955D01*
X204301742Y-122355717D01*
X204245539Y-122191322D01*
X204210703Y-121969344D01*
X204192309Y-121672353D01*
X204185435Y-121282924D01*
X204184777Y-121038936D01*
X204183251Y-120644572D01*
X204177777Y-120352423D01*
X204167014Y-120145759D01*
X204149622Y-120007854D01*
X204124258Y-119921981D01*
X204091301Y-119873101D01*
X203948680Y-119787102D01*
X203807441Y-119819834D01*
G36*
X254642740Y-118324926D02*
G01*
X254593415Y-118390365D01*
X254497639Y-118550378D01*
X254361871Y-118792983D01*
X254192575Y-119106197D01*
X253996210Y-119478040D01*
X253779237Y-119896530D01*
X253548119Y-120349685D01*
X253507132Y-120430803D01*
X252475621Y-122475127D01*
X251467429Y-120430489D01*
X251240353Y-119972513D01*
X251027430Y-119547937D01*
X250834819Y-119168682D01*
X250668682Y-118846672D01*
X250535181Y-118593830D01*
X250440476Y-118422078D01*
X250390728Y-118343339D01*
X250387230Y-118340089D01*
X250239649Y-118297186D01*
X250098716Y-118369548D01*
X250081532Y-118385982D01*
X250057445Y-118421902D01*
X250037809Y-118484211D01*
X250022184Y-118584105D01*
X250010132Y-118732781D01*
X250001213Y-118941438D01*
X249994988Y-119221271D01*
X249991018Y-119583478D01*
X249988864Y-120039256D01*
X249988087Y-120599803D01*
X249988056Y-120769283D01*
X249989701Y-121418390D01*
X249994555Y-121973171D01*
X250002500Y-122429004D01*
X250013419Y-122781265D01*
X250027192Y-123025331D01*
X250043702Y-123156580D01*
X250049634Y-123174168D01*
X250156187Y-123266801D01*
X250255738Y-123289227D01*
X250396371Y-123243867D01*
X250461842Y-123174168D01*
X250480683Y-123078401D01*
X250496692Y-122871974D01*
X250509583Y-122563170D01*
X250519072Y-122160270D01*
X250524877Y-121671559D01*
X250526591Y-121285526D01*
X250529762Y-119511943D01*
X251414270Y-121311463D01*
X251644427Y-121774808D01*
X251854633Y-122188396D01*
X252039218Y-122541657D01*
X252192511Y-122824021D01*
X252308841Y-123024918D01*
X252382539Y-123133779D01*
X252400682Y-123150086D01*
X252536950Y-123155619D01*
X252598601Y-123132638D01*
X252647992Y-123067402D01*
X252743294Y-122908761D01*
X252877379Y-122669803D01*
X253043119Y-122363616D01*
X253233384Y-122003287D01*
X253441047Y-121601903D01*
X253567641Y-121353499D01*
X254440669Y-119630913D01*
X254459913Y-121402814D01*
X254466303Y-121919588D01*
X254473483Y-122329633D01*
X254482180Y-122645189D01*
X254493120Y-122878497D01*
X254507029Y-123041797D01*
X254524634Y-123147329D01*
X254546660Y-123207335D01*
X254568384Y-123231060D01*
X254735560Y-123285477D01*
X254881854Y-123242765D01*
X254918699Y-123207945D01*
X254937111Y-123144864D01*
X254951664Y-123000630D01*
X254962491Y-122769071D01*
X254969721Y-122444014D01*
X254973485Y-122019289D01*
X254973915Y-121488723D01*
X254971141Y-120846144D01*
X254970596Y-120760664D01*
X254966355Y-120165246D01*
X254961859Y-119677701D01*
X254956562Y-119286932D01*
X254949918Y-118981842D01*
X254941381Y-118751336D01*
X254930403Y-118584316D01*
X254916441Y-118469686D01*
X254898947Y-118396350D01*
X254877376Y-118353211D01*
X254851180Y-118329173D01*
X254850937Y-118329019D01*
X254714319Y-118296446D01*
X254642740Y-118324926D01*
X254642740Y-118324926D01*
G37*
X254642740Y-118324926D02*
X254593415Y-118390365D01*
X254497639Y-118550378D01*
X254361871Y-118792983D01*
X254192575Y-119106197D01*
X253996210Y-119478040D01*
X253779237Y-119896530D01*
X253548119Y-120349685D01*
X253507132Y-120430803D01*
X252475621Y-122475127D01*
X251467429Y-120430489D01*
X251240353Y-119972513D01*
X251027430Y-119547937D01*
X250834819Y-119168682D01*
X250668682Y-118846672D01*
X250535181Y-118593830D01*
X250440476Y-118422078D01*
X250390728Y-118343339D01*
X250387230Y-118340089D01*
X250239649Y-118297186D01*
X250098716Y-118369548D01*
X250081532Y-118385982D01*
X250057445Y-118421902D01*
X250037809Y-118484211D01*
X250022184Y-118584105D01*
X250010132Y-118732781D01*
X250001213Y-118941438D01*
X249994988Y-119221271D01*
X249991018Y-119583478D01*
X249988864Y-120039256D01*
X249988087Y-120599803D01*
X249988056Y-120769283D01*
X249989701Y-121418390D01*
X249994555Y-121973171D01*
X250002500Y-122429004D01*
X250013419Y-122781265D01*
X250027192Y-123025331D01*
X250043702Y-123156580D01*
X250049634Y-123174168D01*
X250156187Y-123266801D01*
X250255738Y-123289227D01*
X250396371Y-123243867D01*
X250461842Y-123174168D01*
X250480683Y-123078401D01*
X250496692Y-122871974D01*
X250509583Y-122563170D01*
X250519072Y-122160270D01*
X250524877Y-121671559D01*
X250526591Y-121285526D01*
X250529762Y-119511943D01*
X251414270Y-121311463D01*
X251644427Y-121774808D01*
X251854633Y-122188396D01*
X252039218Y-122541657D01*
X252192511Y-122824021D01*
X252308841Y-123024918D01*
X252382539Y-123133779D01*
X252400682Y-123150086D01*
X252536950Y-123155619D01*
X252598601Y-123132638D01*
X252647992Y-123067402D01*
X252743294Y-122908761D01*
X252877379Y-122669803D01*
X253043119Y-122363616D01*
X253233384Y-122003287D01*
X253441047Y-121601903D01*
X253567641Y-121353499D01*
X254440669Y-119630913D01*
X254459913Y-121402814D01*
X254466303Y-121919588D01*
X254473483Y-122329633D01*
X254482180Y-122645189D01*
X254493120Y-122878497D01*
X254507029Y-123041797D01*
X254524634Y-123147329D01*
X254546660Y-123207335D01*
X254568384Y-123231060D01*
X254735560Y-123285477D01*
X254881854Y-123242765D01*
X254918699Y-123207945D01*
X254937111Y-123144864D01*
X254951664Y-123000630D01*
X254962491Y-122769071D01*
X254969721Y-122444014D01*
X254973485Y-122019289D01*
X254973915Y-121488723D01*
X254971141Y-120846144D01*
X254970596Y-120760664D01*
X254966355Y-120165246D01*
X254961859Y-119677701D01*
X254956562Y-119286932D01*
X254949918Y-118981842D01*
X254941381Y-118751336D01*
X254930403Y-118584316D01*
X254916441Y-118469686D01*
X254898947Y-118396350D01*
X254877376Y-118353211D01*
X254851180Y-118329173D01*
X254850937Y-118329019D01*
X254714319Y-118296446D01*
X254642740Y-118324926D01*
G36*
X240373521Y-118325105D02*
G01*
X240265668Y-118424711D01*
X240239965Y-118475487D01*
X240219383Y-118554787D01*
X240203379Y-118674895D01*
X240191416Y-118848092D01*
X240182951Y-119086661D01*
X240177445Y-119402885D01*
X240174357Y-119809045D01*
X240173148Y-120317425D01*
X240173068Y-120529830D01*
X240172816Y-121099398D01*
X240170526Y-121561644D01*
X240163897Y-121928216D01*
X240150628Y-122210760D01*
X240128419Y-122420925D01*
X240094967Y-122570358D01*
X240047973Y-122670705D01*
X239985135Y-122733616D01*
X239904153Y-122770736D01*
X239802725Y-122793713D01*
X239723249Y-122806824D01*
X239561915Y-122848439D01*
X239486638Y-122918672D01*
X239469555Y-122981007D01*
X239483154Y-123126198D01*
X239521453Y-123203274D01*
X239648319Y-123272872D01*
X239837641Y-123285510D01*
X240048962Y-123243911D01*
X240235411Y-123155184D01*
X240403343Y-123008331D01*
X240546276Y-122829924D01*
X240556503Y-122813146D01*
X240589147Y-122752286D01*
X240615584Y-122683735D01*
X240636603Y-122594639D01*
X240652992Y-122472144D01*
X240665541Y-122303394D01*
X240675039Y-122075536D01*
X240682274Y-121775714D01*
X240688035Y-121391074D01*
X240693111Y-120908760D01*
X240696452Y-120532764D01*
X240700388Y-119930310D01*
X240700746Y-119438940D01*
X240697337Y-119050817D01*
X240689973Y-118758103D01*
X240678465Y-118552961D01*
X240662624Y-118427555D01*
X240644555Y-118376441D01*
X240516850Y-118299079D01*
X240373521Y-118325105D01*
X240373521Y-118325105D01*
G37*
X240373521Y-118325105D02*
X240265668Y-118424711D01*
X240239965Y-118475487D01*
X240219383Y-118554787D01*
X240203379Y-118674895D01*
X240191416Y-118848092D01*
X240182951Y-119086661D01*
X240177445Y-119402885D01*
X240174357Y-119809045D01*
X240173148Y-120317425D01*
X240173068Y-120529830D01*
X240172816Y-121099398D01*
X240170526Y-121561644D01*
X240163897Y-121928216D01*
X240150628Y-122210760D01*
X240128419Y-122420925D01*
X240094967Y-122570358D01*
X240047973Y-122670705D01*
X239985135Y-122733616D01*
X239904153Y-122770736D01*
X239802725Y-122793713D01*
X239723249Y-122806824D01*
X239561915Y-122848439D01*
X239486638Y-122918672D01*
X239469555Y-122981007D01*
X239483154Y-123126198D01*
X239521453Y-123203274D01*
X239648319Y-123272872D01*
X239837641Y-123285510D01*
X240048962Y-123243911D01*
X240235411Y-123155184D01*
X240403343Y-123008331D01*
X240546276Y-122829924D01*
X240556503Y-122813146D01*
X240589147Y-122752286D01*
X240615584Y-122683735D01*
X240636603Y-122594639D01*
X240652992Y-122472144D01*
X240665541Y-122303394D01*
X240675039Y-122075536D01*
X240682274Y-121775714D01*
X240688035Y-121391074D01*
X240693111Y-120908760D01*
X240696452Y-120532764D01*
X240700388Y-119930310D01*
X240700746Y-119438940D01*
X240697337Y-119050817D01*
X240689973Y-118758103D01*
X240678465Y-118552961D01*
X240662624Y-118427555D01*
X240644555Y-118376441D01*
X240516850Y-118299079D01*
X240373521Y-118325105D01*
G36*
X227220258Y-119816122D02*
G01*
X227189070Y-119844799D01*
X227164457Y-119895970D01*
X227145457Y-119983162D01*
X227131109Y-120119899D01*
X227120453Y-120319707D01*
X227112527Y-120596109D01*
X227106370Y-120962632D01*
X227101020Y-121432800D01*
X227100318Y-121503870D01*
X227096202Y-122012093D01*
X227095941Y-122413814D01*
X227101097Y-122721477D01*
X227113233Y-122947528D01*
X227133909Y-123104411D01*
X227164688Y-123204573D01*
X227207130Y-123260457D01*
X227262799Y-123284509D01*
X227324356Y-123289227D01*
X227451781Y-123246330D01*
X227496497Y-123207607D01*
X227518657Y-123135740D01*
X227535022Y-122976270D01*
X227545791Y-122722572D01*
X227551168Y-122368018D01*
X227551353Y-121905982D01*
X227548394Y-121503870D01*
X227543079Y-121018897D01*
X227537085Y-120639369D01*
X227529449Y-120351760D01*
X227519212Y-120142544D01*
X227505411Y-119998198D01*
X227487085Y-119905196D01*
X227463274Y-119850013D01*
X227433016Y-119819124D01*
X227428454Y-119816122D01*
X227300581Y-119782282D01*
X227220258Y-119816122D01*
X227220258Y-119816122D01*
G37*
X227220258Y-119816122D02*
X227189070Y-119844799D01*
X227164457Y-119895970D01*
X227145457Y-119983162D01*
X227131109Y-120119899D01*
X227120453Y-120319707D01*
X227112527Y-120596109D01*
X227106370Y-120962632D01*
X227101020Y-121432800D01*
X227100318Y-121503870D01*
X227096202Y-122012093D01*
X227095941Y-122413814D01*
X227101097Y-122721477D01*
X227113233Y-122947528D01*
X227133909Y-123104411D01*
X227164688Y-123204573D01*
X227207130Y-123260457D01*
X227262799Y-123284509D01*
X227324356Y-123289227D01*
X227451781Y-123246330D01*
X227496497Y-123207607D01*
X227518657Y-123135740D01*
X227535022Y-122976270D01*
X227545791Y-122722572D01*
X227551168Y-122368018D01*
X227551353Y-121905982D01*
X227548394Y-121503870D01*
X227543079Y-121018897D01*
X227537085Y-120639369D01*
X227529449Y-120351760D01*
X227519212Y-120142544D01*
X227505411Y-119998198D01*
X227487085Y-119905196D01*
X227463274Y-119850013D01*
X227433016Y-119819124D01*
X227428454Y-119816122D01*
X227300581Y-119782282D01*
X227220258Y-119816122D01*
G36*
X225614169Y-118328956D02*
G01*
X225586126Y-118354876D01*
X225563183Y-118401717D01*
X225544589Y-118481390D01*
X225529593Y-118605807D01*
X225517446Y-118786879D01*
X225507397Y-119036518D01*
X225498696Y-119366636D01*
X225490592Y-119789145D01*
X225482335Y-120315957D01*
X225480328Y-120453667D01*
X225472190Y-121002994D01*
X225464701Y-121445783D01*
X225456960Y-121794457D01*
X225448063Y-122061438D01*
X225437109Y-122259148D01*
X225423194Y-122400009D01*
X225405416Y-122496443D01*
X225382874Y-122560873D01*
X225354663Y-122605721D01*
X225321348Y-122641945D01*
X225174603Y-122738563D01*
X224987011Y-122803742D01*
X224964439Y-122807894D01*
X224805362Y-122850228D01*
X224732193Y-122923698D01*
X224717331Y-122981007D01*
X224730930Y-123126198D01*
X224769228Y-123203274D01*
X224879870Y-123260578D01*
X225057874Y-123283451D01*
X225256087Y-123269709D01*
X225394353Y-123232187D01*
X225577631Y-123107877D01*
X225748474Y-122908315D01*
X225876076Y-122675789D01*
X225925106Y-122503564D01*
X225933492Y-122382183D01*
X225940105Y-122158416D01*
X225944801Y-121848833D01*
X225947435Y-121470006D01*
X225947866Y-121038507D01*
X225945948Y-120570907D01*
X225943998Y-120321447D01*
X225938706Y-119788746D01*
X225933065Y-119362663D01*
X225926324Y-119030847D01*
X225917727Y-118780945D01*
X225906520Y-118600607D01*
X225891950Y-118477482D01*
X225873263Y-118399217D01*
X225849704Y-118353463D01*
X225822365Y-118329011D01*
X225694404Y-118295177D01*
X225614169Y-118328956D01*
X225614169Y-118328956D01*
G37*
X225614169Y-118328956D02*
X225586126Y-118354876D01*
X225563183Y-118401717D01*
X225544589Y-118481390D01*
X225529593Y-118605807D01*
X225517446Y-118786879D01*
X225507397Y-119036518D01*
X225498696Y-119366636D01*
X225490592Y-119789145D01*
X225482335Y-120315957D01*
X225480328Y-120453667D01*
X225472190Y-121002994D01*
X225464701Y-121445783D01*
X225456960Y-121794457D01*
X225448063Y-122061438D01*
X225437109Y-122259148D01*
X225423194Y-122400009D01*
X225405416Y-122496443D01*
X225382874Y-122560873D01*
X225354663Y-122605721D01*
X225321348Y-122641945D01*
X225174603Y-122738563D01*
X224987011Y-122803742D01*
X224964439Y-122807894D01*
X224805362Y-122850228D01*
X224732193Y-122923698D01*
X224717331Y-122981007D01*
X224730930Y-123126198D01*
X224769228Y-123203274D01*
X224879870Y-123260578D01*
X225057874Y-123283451D01*
X225256087Y-123269709D01*
X225394353Y-123232187D01*
X225577631Y-123107877D01*
X225748474Y-122908315D01*
X225876076Y-122675789D01*
X225925106Y-122503564D01*
X225933492Y-122382183D01*
X225940105Y-122158416D01*
X225944801Y-121848833D01*
X225947435Y-121470006D01*
X225947866Y-121038507D01*
X225945948Y-120570907D01*
X225943998Y-120321447D01*
X225938706Y-119788746D01*
X225933065Y-119362663D01*
X225926324Y-119030847D01*
X225917727Y-118780945D01*
X225906520Y-118600607D01*
X225891950Y-118477482D01*
X225873263Y-118399217D01*
X225849704Y-118353463D01*
X225822365Y-118329011D01*
X225694404Y-118295177D01*
X225614169Y-118328956D01*
G36*
X223836753Y-118325105D02*
G01*
X223728900Y-118424711D01*
X223703197Y-118475487D01*
X223682614Y-118554787D01*
X223666611Y-118674895D01*
X223654647Y-118848092D01*
X223646183Y-119086661D01*
X223640676Y-119402885D01*
X223637589Y-119809045D01*
X223636379Y-120317425D01*
X223636300Y-120529830D01*
X223636048Y-121099398D01*
X223633758Y-121561644D01*
X223627129Y-121928216D01*
X223613860Y-122210760D01*
X223591650Y-122420925D01*
X223558199Y-122570358D01*
X223511205Y-122670705D01*
X223448367Y-122733616D01*
X223367385Y-122770736D01*
X223265957Y-122793713D01*
X223186480Y-122806824D01*
X223025147Y-122848439D01*
X222949870Y-122918672D01*
X222932787Y-122981007D01*
X222946386Y-123126198D01*
X222984685Y-123203274D01*
X223111551Y-123272872D01*
X223300873Y-123285510D01*
X223512194Y-123243911D01*
X223698643Y-123155184D01*
X223866575Y-123008331D01*
X224009508Y-122829924D01*
X224019735Y-122813146D01*
X224052379Y-122752286D01*
X224078816Y-122683735D01*
X224099835Y-122594639D01*
X224116224Y-122472144D01*
X224128773Y-122303394D01*
X224138271Y-122075536D01*
X224145506Y-121775714D01*
X224151267Y-121391074D01*
X224156343Y-120908760D01*
X224159684Y-120532764D01*
X224163620Y-119930310D01*
X224163978Y-119438940D01*
X224160569Y-119050817D01*
X224153205Y-118758103D01*
X224141697Y-118552961D01*
X224125856Y-118427555D01*
X224107786Y-118376441D01*
X223980082Y-118299079D01*
X223836753Y-118325105D01*
X223836753Y-118325105D01*
G37*
X223836753Y-118325105D02*
X223728900Y-118424711D01*
X223703197Y-118475487D01*
X223682614Y-118554787D01*
X223666611Y-118674895D01*
X223654647Y-118848092D01*
X223646183Y-119086661D01*
X223640676Y-119402885D01*
X223637589Y-119809045D01*
X223636379Y-120317425D01*
X223636300Y-120529830D01*
X223636048Y-121099398D01*
X223633758Y-121561644D01*
X223627129Y-121928216D01*
X223613860Y-122210760D01*
X223591650Y-122420925D01*
X223558199Y-122570358D01*
X223511205Y-122670705D01*
X223448367Y-122733616D01*
X223367385Y-122770736D01*
X223265957Y-122793713D01*
X223186480Y-122806824D01*
X223025147Y-122848439D01*
X222949870Y-122918672D01*
X222932787Y-122981007D01*
X222946386Y-123126198D01*
X222984685Y-123203274D01*
X223111551Y-123272872D01*
X223300873Y-123285510D01*
X223512194Y-123243911D01*
X223698643Y-123155184D01*
X223866575Y-123008331D01*
X224009508Y-122829924D01*
X224019735Y-122813146D01*
X224052379Y-122752286D01*
X224078816Y-122683735D01*
X224099835Y-122594639D01*
X224116224Y-122472144D01*
X224128773Y-122303394D01*
X224138271Y-122075536D01*
X224145506Y-121775714D01*
X224151267Y-121391074D01*
X224156343Y-120908760D01*
X224159684Y-120532764D01*
X224163620Y-119930310D01*
X224163978Y-119438940D01*
X224160569Y-119050817D01*
X224153205Y-118758103D01*
X224141697Y-118552961D01*
X224125856Y-118427555D01*
X224107786Y-118376441D01*
X223980082Y-118299079D01*
X223836753Y-118325105D01*
G36*
X227203389Y-118448248D02*
G01*
X227069644Y-118541869D01*
X226989366Y-118687687D01*
X226979031Y-118853207D01*
X227055116Y-119005932D01*
X227076230Y-119026846D01*
X227245558Y-119112351D01*
X227431575Y-119107554D01*
X227582818Y-119016510D01*
X227672668Y-118844869D01*
X227658790Y-118671072D01*
X227552015Y-118525067D01*
X227374124Y-118439318D01*
X227203389Y-118448248D01*
X227203389Y-118448248D01*
G37*
X227203389Y-118448248D02*
X227069644Y-118541869D01*
X226989366Y-118687687D01*
X226979031Y-118853207D01*
X227055116Y-119005932D01*
X227076230Y-119026846D01*
X227245558Y-119112351D01*
X227431575Y-119107554D01*
X227582818Y-119016510D01*
X227672668Y-118844869D01*
X227658790Y-118671072D01*
X227552015Y-118525067D01*
X227374124Y-118439318D01*
X227203389Y-118448248D01*
G36*
X227952748Y-102958011D02*
G01*
X227829977Y-102975243D01*
X226977928Y-103158747D01*
X226181682Y-103444966D01*
X225446857Y-103829793D01*
X224779074Y-104309118D01*
X224183951Y-104878835D01*
X223667109Y-105534833D01*
X223234165Y-106273005D01*
X223186617Y-106370035D01*
X222968035Y-106864393D01*
X222806840Y-107329290D01*
X222694855Y-107800118D01*
X222623904Y-108312268D01*
X222585809Y-108901132D01*
X222582910Y-108983138D01*
X222575674Y-109552353D01*
X222597991Y-110041251D01*
X222655070Y-110485969D01*
X222752116Y-110922641D01*
X222894336Y-111387403D01*
X222954014Y-111558539D01*
X223281394Y-112301404D01*
X223707805Y-112987918D01*
X224223364Y-113609593D01*
X224818184Y-114157945D01*
X225482382Y-114624484D01*
X226206073Y-115000726D01*
X226979371Y-115278183D01*
X227408159Y-115382734D01*
X227888117Y-115459352D01*
X228421021Y-115508340D01*
X228958773Y-115527270D01*
X229453273Y-115513714D01*
X229652187Y-115495991D01*
X230509481Y-115341952D01*
X231316054Y-115084154D01*
X232065308Y-114727178D01*
X232750643Y-114275603D01*
X233365461Y-113734008D01*
X233903163Y-113106973D01*
X234357151Y-112399079D01*
X234493693Y-112135831D01*
X234819472Y-111339255D01*
X235036469Y-110513144D01*
X235145828Y-109669955D01*
X235147529Y-109166437D01*
X233420109Y-109166437D01*
X233411284Y-109623381D01*
X233379326Y-110047338D01*
X233324237Y-110400884D01*
X233307792Y-110470257D01*
X233065770Y-111183101D01*
X232728875Y-111828865D01*
X232304107Y-112401179D01*
X231798465Y-112893671D01*
X231218949Y-113299972D01*
X230572559Y-113613710D01*
X229866295Y-113828514D01*
X229552720Y-113887819D01*
X229224937Y-113917162D01*
X228826639Y-113919740D01*
X228402698Y-113897778D01*
X227997982Y-113853502D01*
X227681265Y-113794990D01*
X227451191Y-113725672D01*
X227164395Y-113618809D01*
X226869077Y-113492938D01*
X226749769Y-113436755D01*
X226150539Y-113080155D01*
X225625440Y-112635493D01*
X225179661Y-112111667D01*
X224818393Y-111517573D01*
X224546825Y-110862108D01*
X224370147Y-110154170D01*
X224293549Y-109402654D01*
X224290632Y-109221077D01*
X224343948Y-108452224D01*
X224499641Y-107730651D01*
X224751328Y-107063423D01*
X225092628Y-106457607D01*
X225517158Y-105920267D01*
X226018536Y-105458471D01*
X226590380Y-105079282D01*
X227226307Y-104789767D01*
X227919936Y-104596992D01*
X228541441Y-104515064D01*
X229285787Y-104519872D01*
X229996594Y-104634799D01*
X230665319Y-104853647D01*
X231283417Y-105170220D01*
X231842346Y-105578322D01*
X232333562Y-106071757D01*
X232748521Y-106644329D01*
X233078680Y-107289841D01*
X233307792Y-107971897D01*
X233368363Y-108303273D01*
X233405802Y-108713928D01*
X233420109Y-109166437D01*
X235147529Y-109166437D01*
X235148693Y-108822146D01*
X235046208Y-107982175D01*
X234839518Y-107162500D01*
X234529767Y-106375578D01*
X234118101Y-105633868D01*
X233862833Y-105268451D01*
X233326740Y-104653658D01*
X232714269Y-104124982D01*
X232034656Y-103685935D01*
X231297138Y-103340027D01*
X230510952Y-103090769D01*
X229685334Y-102941674D01*
X228829520Y-102896251D01*
X227952748Y-102958011D01*
X227952748Y-102958011D01*
G37*
X227952748Y-102958011D02*
X227829977Y-102975243D01*
X226977928Y-103158747D01*
X226181682Y-103444966D01*
X225446857Y-103829793D01*
X224779074Y-104309118D01*
X224183951Y-104878835D01*
X223667109Y-105534833D01*
X223234165Y-106273005D01*
X223186617Y-106370035D01*
X222968035Y-106864393D01*
X222806840Y-107329290D01*
X222694855Y-107800118D01*
X222623904Y-108312268D01*
X222585809Y-108901132D01*
X222582910Y-108983138D01*
X222575674Y-109552353D01*
X222597991Y-110041251D01*
X222655070Y-110485969D01*
X222752116Y-110922641D01*
X222894336Y-111387403D01*
X222954014Y-111558539D01*
X223281394Y-112301404D01*
X223707805Y-112987918D01*
X224223364Y-113609593D01*
X224818184Y-114157945D01*
X225482382Y-114624484D01*
X226206073Y-115000726D01*
X226979371Y-115278183D01*
X227408159Y-115382734D01*
X227888117Y-115459352D01*
X228421021Y-115508340D01*
X228958773Y-115527270D01*
X229453273Y-115513714D01*
X229652187Y-115495991D01*
X230509481Y-115341952D01*
X231316054Y-115084154D01*
X232065308Y-114727178D01*
X232750643Y-114275603D01*
X233365461Y-113734008D01*
X233903163Y-113106973D01*
X234357151Y-112399079D01*
X234493693Y-112135831D01*
X234819472Y-111339255D01*
X235036469Y-110513144D01*
X235145828Y-109669955D01*
X235147529Y-109166437D01*
X233420109Y-109166437D01*
X233411284Y-109623381D01*
X233379326Y-110047338D01*
X233324237Y-110400884D01*
X233307792Y-110470257D01*
X233065770Y-111183101D01*
X232728875Y-111828865D01*
X232304107Y-112401179D01*
X231798465Y-112893671D01*
X231218949Y-113299972D01*
X230572559Y-113613710D01*
X229866295Y-113828514D01*
X229552720Y-113887819D01*
X229224937Y-113917162D01*
X228826639Y-113919740D01*
X228402698Y-113897778D01*
X227997982Y-113853502D01*
X227681265Y-113794990D01*
X227451191Y-113725672D01*
X227164395Y-113618809D01*
X226869077Y-113492938D01*
X226749769Y-113436755D01*
X226150539Y-113080155D01*
X225625440Y-112635493D01*
X225179661Y-112111667D01*
X224818393Y-111517573D01*
X224546825Y-110862108D01*
X224370147Y-110154170D01*
X224293549Y-109402654D01*
X224290632Y-109221077D01*
X224343948Y-108452224D01*
X224499641Y-107730651D01*
X224751328Y-107063423D01*
X225092628Y-106457607D01*
X225517158Y-105920267D01*
X226018536Y-105458471D01*
X226590380Y-105079282D01*
X227226307Y-104789767D01*
X227919936Y-104596992D01*
X228541441Y-104515064D01*
X229285787Y-104519872D01*
X229996594Y-104634799D01*
X230665319Y-104853647D01*
X231283417Y-105170220D01*
X231842346Y-105578322D01*
X232333562Y-106071757D01*
X232748521Y-106644329D01*
X233078680Y-107289841D01*
X233307792Y-107971897D01*
X233368363Y-108303273D01*
X233405802Y-108713928D01*
X233420109Y-109166437D01*
X235147529Y-109166437D01*
X235148693Y-108822146D01*
X235046208Y-107982175D01*
X234839518Y-107162500D01*
X234529767Y-106375578D01*
X234118101Y-105633868D01*
X233862833Y-105268451D01*
X233326740Y-104653658D01*
X232714269Y-104124982D01*
X232034656Y-103685935D01*
X231297138Y-103340027D01*
X230510952Y-103090769D01*
X229685334Y-102941674D01*
X228829520Y-102896251D01*
X227952748Y-102958011D01*
G36*
X198615168Y-97750209D02*
G01*
X198357180Y-97872378D01*
X198160312Y-98095701D01*
X198135089Y-98139407D01*
X198117432Y-98176695D01*
X198101826Y-98224724D01*
X198088144Y-98290626D01*
X198076262Y-98381536D01*
X198066052Y-98504585D01*
X198057389Y-98666907D01*
X198050147Y-98875637D01*
X198044200Y-99137906D01*
X198039421Y-99460848D01*
X198035685Y-99851596D01*
X198032865Y-100317284D01*
X198030836Y-100865044D01*
X198029472Y-101502011D01*
X198028646Y-102235316D01*
X198028232Y-103072095D01*
X198028105Y-104019479D01*
X198028103Y-104194613D01*
X198028431Y-105215524D01*
X198029466Y-106123710D01*
X198031286Y-106925412D01*
X198033968Y-107626873D01*
X198037590Y-108234335D01*
X198042229Y-108754041D01*
X198047962Y-109192233D01*
X198054867Y-109555152D01*
X198063021Y-109849043D01*
X198072502Y-110080146D01*
X198083387Y-110254704D01*
X198095754Y-110378959D01*
X198105566Y-110440515D01*
X198328378Y-111270606D01*
X198650713Y-112051699D01*
X199065282Y-112774977D01*
X199564796Y-113431627D01*
X200141968Y-114012834D01*
X200789509Y-114509783D01*
X201500130Y-114913661D01*
X201969449Y-115113552D01*
X202269259Y-115216692D01*
X202594368Y-115314213D01*
X202883763Y-115388077D01*
X202935597Y-115399162D01*
X203319622Y-115459289D01*
X203769314Y-115501335D01*
X204240831Y-115523391D01*
X204690333Y-115523549D01*
X205073981Y-115499899D01*
X205121849Y-115494342D01*
X205981134Y-115333428D01*
X206777786Y-115072126D01*
X207516826Y-114707910D01*
X208203274Y-114238253D01*
X208842149Y-113660631D01*
X208913817Y-113586091D01*
X209454585Y-112934443D01*
X209893066Y-112226186D01*
X210233268Y-111454094D01*
X210411122Y-110886651D01*
X210468653Y-110661933D01*
X210510440Y-110465686D01*
X210538961Y-110271474D01*
X210556698Y-110052859D01*
X210566128Y-109783407D01*
X210569687Y-109441007D01*
X208872534Y-109441007D01*
X208853700Y-109837306D01*
X208826527Y-110065884D01*
X208726784Y-110530284D01*
X208581977Y-111000489D01*
X208408359Y-111427780D01*
X208304579Y-111630210D01*
X207969835Y-112128686D01*
X207555581Y-112595915D01*
X207086446Y-113010024D01*
X206587059Y-113349137D01*
X206107416Y-113581764D01*
X205889181Y-113662007D01*
X205685875Y-113726301D01*
X205465653Y-113782649D01*
X205196669Y-113839053D01*
X204847078Y-113903517D01*
X204779625Y-113915451D01*
X204575783Y-113930928D01*
X204290752Y-113925986D01*
X203959988Y-113903614D01*
X203618946Y-113866805D01*
X203303080Y-113818549D01*
X203088773Y-113772804D01*
X202463754Y-113554199D01*
X201866733Y-113231364D01*
X201318665Y-112818832D01*
X200840508Y-112331134D01*
X200644120Y-112077612D01*
X200274184Y-111463253D01*
X200001639Y-110803656D01*
X199826057Y-110113465D01*
X199747013Y-109407323D01*
X199764080Y-108699875D01*
X199876831Y-108005765D01*
X200084841Y-107339635D01*
X200387682Y-106716131D01*
X200784929Y-106149896D01*
X200817877Y-106110892D01*
X201330658Y-105595637D01*
X201908066Y-105167160D01*
X202533376Y-104836222D01*
X203114052Y-104633137D01*
X203422181Y-104575271D01*
X203809080Y-104539300D01*
X204237875Y-104525208D01*
X204671694Y-104532977D01*
X205073663Y-104562590D01*
X205406909Y-104614028D01*
X205490001Y-104634267D01*
X206193094Y-104885274D01*
X206831834Y-105232273D01*
X207398895Y-105667985D01*
X207886947Y-106185131D01*
X208288662Y-106776432D01*
X208596713Y-107434610D01*
X208732578Y-107855072D01*
X208796521Y-108173073D01*
X208842275Y-108569594D01*
X208868169Y-109005338D01*
X208872534Y-109441007D01*
X210569687Y-109441007D01*
X210569732Y-109436678D01*
X210570130Y-109191335D01*
X210568707Y-108786957D01*
X210562826Y-108475309D01*
X210550067Y-108230169D01*
X210528008Y-108025314D01*
X210494230Y-107834521D01*
X210446312Y-107631569D01*
X210415270Y-107513518D01*
X210139170Y-106700434D01*
X209765458Y-105943367D01*
X209301488Y-105250794D01*
X208754611Y-104631190D01*
X208132180Y-104093031D01*
X207441547Y-103644792D01*
X206789919Y-103334154D01*
X206305909Y-103158792D01*
X205841793Y-103036707D01*
X205360708Y-102961494D01*
X204825793Y-102926748D01*
X204422717Y-102922892D01*
X204040474Y-102929119D01*
X203740991Y-102944269D01*
X203488160Y-102972327D01*
X203245876Y-103017281D01*
X202982713Y-103081876D01*
X202269896Y-103321857D01*
X201583008Y-103652103D01*
X200946587Y-104057920D01*
X200385167Y-104524615D01*
X200124981Y-104793228D01*
X199783439Y-105176112D01*
X199783079Y-101785480D01*
X199782774Y-101059981D01*
X199781839Y-100443854D01*
X199779995Y-99927502D01*
X199776965Y-99501328D01*
X199772469Y-99155734D01*
X199766228Y-98881124D01*
X199757964Y-98667900D01*
X199747399Y-98506466D01*
X199734253Y-98387224D01*
X199718249Y-98300577D01*
X199699106Y-98236928D01*
X199678713Y-98190879D01*
X199502095Y-97946508D01*
X199262314Y-97795243D01*
X198944796Y-97727970D01*
X198937713Y-97727431D01*
X198615168Y-97750209D01*
X198615168Y-97750209D01*
G37*
X198615168Y-97750209D02*
X198357180Y-97872378D01*
X198160312Y-98095701D01*
X198135089Y-98139407D01*
X198117432Y-98176695D01*
X198101826Y-98224724D01*
X198088144Y-98290626D01*
X198076262Y-98381536D01*
X198066052Y-98504585D01*
X198057389Y-98666907D01*
X198050147Y-98875637D01*
X198044200Y-99137906D01*
X198039421Y-99460848D01*
X198035685Y-99851596D01*
X198032865Y-100317284D01*
X198030836Y-100865044D01*
X198029472Y-101502011D01*
X198028646Y-102235316D01*
X198028232Y-103072095D01*
X198028105Y-104019479D01*
X198028103Y-104194613D01*
X198028431Y-105215524D01*
X198029466Y-106123710D01*
X198031286Y-106925412D01*
X198033968Y-107626873D01*
X198037590Y-108234335D01*
X198042229Y-108754041D01*
X198047962Y-109192233D01*
X198054867Y-109555152D01*
X198063021Y-109849043D01*
X198072502Y-110080146D01*
X198083387Y-110254704D01*
X198095754Y-110378959D01*
X198105566Y-110440515D01*
X198328378Y-111270606D01*
X198650713Y-112051699D01*
X199065282Y-112774977D01*
X199564796Y-113431627D01*
X200141968Y-114012834D01*
X200789509Y-114509783D01*
X201500130Y-114913661D01*
X201969449Y-115113552D01*
X202269259Y-115216692D01*
X202594368Y-115314213D01*
X202883763Y-115388077D01*
X202935597Y-115399162D01*
X203319622Y-115459289D01*
X203769314Y-115501335D01*
X204240831Y-115523391D01*
X204690333Y-115523549D01*
X205073981Y-115499899D01*
X205121849Y-115494342D01*
X205981134Y-115333428D01*
X206777786Y-115072126D01*
X207516826Y-114707910D01*
X208203274Y-114238253D01*
X208842149Y-113660631D01*
X208913817Y-113586091D01*
X209454585Y-112934443D01*
X209893066Y-112226186D01*
X210233268Y-111454094D01*
X210411122Y-110886651D01*
X210468653Y-110661933D01*
X210510440Y-110465686D01*
X210538961Y-110271474D01*
X210556698Y-110052859D01*
X210566128Y-109783407D01*
X210569687Y-109441007D01*
X208872534Y-109441007D01*
X208853700Y-109837306D01*
X208826527Y-110065884D01*
X208726784Y-110530284D01*
X208581977Y-111000489D01*
X208408359Y-111427780D01*
X208304579Y-111630210D01*
X207969835Y-112128686D01*
X207555581Y-112595915D01*
X207086446Y-113010024D01*
X206587059Y-113349137D01*
X206107416Y-113581764D01*
X205889181Y-113662007D01*
X205685875Y-113726301D01*
X205465653Y-113782649D01*
X205196669Y-113839053D01*
X204847078Y-113903517D01*
X204779625Y-113915451D01*
X204575783Y-113930928D01*
X204290752Y-113925986D01*
X203959988Y-113903614D01*
X203618946Y-113866805D01*
X203303080Y-113818549D01*
X203088773Y-113772804D01*
X202463754Y-113554199D01*
X201866733Y-113231364D01*
X201318665Y-112818832D01*
X200840508Y-112331134D01*
X200644120Y-112077612D01*
X200274184Y-111463253D01*
X200001639Y-110803656D01*
X199826057Y-110113465D01*
X199747013Y-109407323D01*
X199764080Y-108699875D01*
X199876831Y-108005765D01*
X200084841Y-107339635D01*
X200387682Y-106716131D01*
X200784929Y-106149896D01*
X200817877Y-106110892D01*
X201330658Y-105595637D01*
X201908066Y-105167160D01*
X202533376Y-104836222D01*
X203114052Y-104633137D01*
X203422181Y-104575271D01*
X203809080Y-104539300D01*
X204237875Y-104525208D01*
X204671694Y-104532977D01*
X205073663Y-104562590D01*
X205406909Y-104614028D01*
X205490001Y-104634267D01*
X206193094Y-104885274D01*
X206831834Y-105232273D01*
X207398895Y-105667985D01*
X207886947Y-106185131D01*
X208288662Y-106776432D01*
X208596713Y-107434610D01*
X208732578Y-107855072D01*
X208796521Y-108173073D01*
X208842275Y-108569594D01*
X208868169Y-109005338D01*
X208872534Y-109441007D01*
X210569687Y-109441007D01*
X210569732Y-109436678D01*
X210570130Y-109191335D01*
X210568707Y-108786957D01*
X210562826Y-108475309D01*
X210550067Y-108230169D01*
X210528008Y-108025314D01*
X210494230Y-107834521D01*
X210446312Y-107631569D01*
X210415270Y-107513518D01*
X210139170Y-106700434D01*
X209765458Y-105943367D01*
X209301488Y-105250794D01*
X208754611Y-104631190D01*
X208132180Y-104093031D01*
X207441547Y-103644792D01*
X206789919Y-103334154D01*
X206305909Y-103158792D01*
X205841793Y-103036707D01*
X205360708Y-102961494D01*
X204825793Y-102926748D01*
X204422717Y-102922892D01*
X204040474Y-102929119D01*
X203740991Y-102944269D01*
X203488160Y-102972327D01*
X203245876Y-103017281D01*
X202982713Y-103081876D01*
X202269896Y-103321857D01*
X201583008Y-103652103D01*
X200946587Y-104057920D01*
X200385167Y-104524615D01*
X200124981Y-104793228D01*
X199783439Y-105176112D01*
X199783079Y-101785480D01*
X199782774Y-101059981D01*
X199781839Y-100443854D01*
X199779995Y-99927502D01*
X199776965Y-99501328D01*
X199772469Y-99155734D01*
X199766228Y-98881124D01*
X199757964Y-98667900D01*
X199747399Y-98506466D01*
X199734253Y-98387224D01*
X199718249Y-98300577D01*
X199699106Y-98236928D01*
X199678713Y-98190879D01*
X199502095Y-97946508D01*
X199262314Y-97795243D01*
X198944796Y-97727970D01*
X198937713Y-97727431D01*
X198615168Y-97750209D01*
G36*
X188074638Y-102918885D02*
G01*
X187257771Y-103039209D01*
X186481844Y-103268791D01*
X185752369Y-103605521D01*
X185074858Y-104047294D01*
X184454823Y-104592003D01*
X184411922Y-104635781D01*
X184162266Y-104905474D01*
X183993267Y-105121859D01*
X183892370Y-105305556D01*
X183847020Y-105477185D01*
X183841206Y-105573070D01*
X183895618Y-105809341D01*
X184040732Y-106028832D01*
X184248641Y-106205482D01*
X184491440Y-106313229D01*
X184655945Y-106333957D01*
X184771695Y-106323130D01*
X184884711Y-106285309D01*
X185014658Y-106207787D01*
X185181201Y-106077859D01*
X185404003Y-105882819D01*
X185527270Y-105770960D01*
X186133141Y-105285577D01*
X186760234Y-104916973D01*
X187409922Y-104664624D01*
X188083583Y-104528008D01*
X188782593Y-104506600D01*
X188841080Y-104509940D01*
X189559890Y-104610225D01*
X190226413Y-104814143D01*
X190834415Y-105118005D01*
X191377663Y-105518123D01*
X191849925Y-106010808D01*
X192183892Y-106488002D01*
X192462491Y-107050973D01*
X192670785Y-107686958D01*
X192805549Y-108370716D01*
X192863557Y-109077003D01*
X192841583Y-109780579D01*
X192736404Y-110456203D01*
X192706700Y-110579513D01*
X192470024Y-111282111D01*
X192141827Y-111914091D01*
X191730040Y-112470124D01*
X191242597Y-112944879D01*
X190687432Y-113333027D01*
X190072476Y-113629237D01*
X189405663Y-113828180D01*
X188694926Y-113924525D01*
X187948197Y-113912943D01*
X187772745Y-113894520D01*
X187305050Y-113822864D01*
X186893901Y-113722767D01*
X186509635Y-113581995D01*
X186122594Y-113388310D01*
X185703116Y-113129477D01*
X185381310Y-112907957D01*
X185084406Y-112754698D01*
X184792944Y-112719201D01*
X184531727Y-112790986D01*
X184276930Y-112969682D01*
X184111803Y-113212405D01*
X184049459Y-113499441D01*
X184049273Y-113516319D01*
X184061027Y-113669818D01*
X184110125Y-113795877D01*
X184217120Y-113934727D01*
X184316862Y-114040099D01*
X184580290Y-114273764D01*
X184918023Y-114521640D01*
X185292024Y-114758778D01*
X185664259Y-114960230D01*
X185846568Y-115043473D01*
X186639585Y-115313855D01*
X187476987Y-115478898D01*
X188344355Y-115536680D01*
X189194510Y-115489151D01*
X190018172Y-115336293D01*
X190809344Y-115075026D01*
X191552557Y-114711489D01*
X192147828Y-114317005D01*
X192783537Y-113763946D01*
X193328034Y-113138973D01*
X193778638Y-112449641D01*
X194132668Y-111703509D01*
X194387445Y-110908135D01*
X194540288Y-110071074D01*
X194588516Y-109199886D01*
X194529449Y-108302127D01*
X194453443Y-107816635D01*
X194238670Y-106982321D01*
X193919220Y-106198278D01*
X193499285Y-105472379D01*
X192983057Y-104812497D01*
X192695837Y-104515266D01*
X192071504Y-103985818D01*
X191403876Y-103564185D01*
X190686753Y-103247727D01*
X189913936Y-103033803D01*
X189079225Y-102919772D01*
X188926932Y-102909923D01*
X188074638Y-102918885D01*
X188074638Y-102918885D01*
G37*
X188074638Y-102918885D02*
X187257771Y-103039209D01*
X186481844Y-103268791D01*
X185752369Y-103605521D01*
X185074858Y-104047294D01*
X184454823Y-104592003D01*
X184411922Y-104635781D01*
X184162266Y-104905474D01*
X183993267Y-105121859D01*
X183892370Y-105305556D01*
X183847020Y-105477185D01*
X183841206Y-105573070D01*
X183895618Y-105809341D01*
X184040732Y-106028832D01*
X184248641Y-106205482D01*
X184491440Y-106313229D01*
X184655945Y-106333957D01*
X184771695Y-106323130D01*
X184884711Y-106285309D01*
X185014658Y-106207787D01*
X185181201Y-106077859D01*
X185404003Y-105882819D01*
X185527270Y-105770960D01*
X186133141Y-105285577D01*
X186760234Y-104916973D01*
X187409922Y-104664624D01*
X188083583Y-104528008D01*
X188782593Y-104506600D01*
X188841080Y-104509940D01*
X189559890Y-104610225D01*
X190226413Y-104814143D01*
X190834415Y-105118005D01*
X191377663Y-105518123D01*
X191849925Y-106010808D01*
X192183892Y-106488002D01*
X192462491Y-107050973D01*
X192670785Y-107686958D01*
X192805549Y-108370716D01*
X192863557Y-109077003D01*
X192841583Y-109780579D01*
X192736404Y-110456203D01*
X192706700Y-110579513D01*
X192470024Y-111282111D01*
X192141827Y-111914091D01*
X191730040Y-112470124D01*
X191242597Y-112944879D01*
X190687432Y-113333027D01*
X190072476Y-113629237D01*
X189405663Y-113828180D01*
X188694926Y-113924525D01*
X187948197Y-113912943D01*
X187772745Y-113894520D01*
X187305050Y-113822864D01*
X186893901Y-113722767D01*
X186509635Y-113581995D01*
X186122594Y-113388310D01*
X185703116Y-113129477D01*
X185381310Y-112907957D01*
X185084406Y-112754698D01*
X184792944Y-112719201D01*
X184531727Y-112790986D01*
X184276930Y-112969682D01*
X184111803Y-113212405D01*
X184049459Y-113499441D01*
X184049273Y-113516319D01*
X184061027Y-113669818D01*
X184110125Y-113795877D01*
X184217120Y-113934727D01*
X184316862Y-114040099D01*
X184580290Y-114273764D01*
X184918023Y-114521640D01*
X185292024Y-114758778D01*
X185664259Y-114960230D01*
X185846568Y-115043473D01*
X186639585Y-115313855D01*
X187476987Y-115478898D01*
X188344355Y-115536680D01*
X189194510Y-115489151D01*
X190018172Y-115336293D01*
X190809344Y-115075026D01*
X191552557Y-114711489D01*
X192147828Y-114317005D01*
X192783537Y-113763946D01*
X193328034Y-113138973D01*
X193778638Y-112449641D01*
X194132668Y-111703509D01*
X194387445Y-110908135D01*
X194540288Y-110071074D01*
X194588516Y-109199886D01*
X194529449Y-108302127D01*
X194453443Y-107816635D01*
X194238670Y-106982321D01*
X193919220Y-106198278D01*
X193499285Y-105472379D01*
X192983057Y-104812497D01*
X192695837Y-104515266D01*
X192071504Y-103985818D01*
X191403876Y-103564185D01*
X190686753Y-103247727D01*
X189913936Y-103033803D01*
X189079225Y-102919772D01*
X188926932Y-102909923D01*
X188074638Y-102918885D01*
G36*
X167755309Y-102971513D02*
G01*
X166939413Y-103148193D01*
X166164151Y-103424984D01*
X165439364Y-103797827D01*
X164774894Y-104262662D01*
X164180579Y-104815429D01*
X163793404Y-105276491D01*
X163442577Y-105803804D01*
X163122670Y-106402297D01*
X162856784Y-107024439D01*
X162684997Y-107556900D01*
X162624615Y-107796480D01*
X162581487Y-108008416D01*
X162552621Y-108222105D01*
X162535026Y-108466944D01*
X162525710Y-108772332D01*
X162521715Y-109161592D01*
X162523406Y-109624263D01*
X162536979Y-110000415D01*
X162566850Y-110322266D01*
X162617436Y-110622033D01*
X162693151Y-110931932D01*
X162798412Y-111284180D01*
X162823393Y-111362529D01*
X163107856Y-112092853D01*
X163473592Y-112751452D01*
X163934876Y-113361624D01*
X164265971Y-113716698D01*
X164903422Y-114271636D01*
X165605286Y-114729795D01*
X166362961Y-115088324D01*
X167167845Y-115344372D01*
X168011337Y-115495091D01*
X168884836Y-115537629D01*
X169616973Y-115489844D01*
X170473568Y-115334691D01*
X171274096Y-115078333D01*
X172013275Y-114727146D01*
X172685827Y-114287509D01*
X173286472Y-113765799D01*
X173809930Y-113168395D01*
X174250921Y-112501673D01*
X174604166Y-111772013D01*
X174864385Y-110985791D01*
X175026299Y-110149385D01*
X175066369Y-109544697D01*
X173362115Y-109544697D01*
X173270879Y-110273443D01*
X173084610Y-110972589D01*
X172804882Y-111621740D01*
X172710024Y-111791767D01*
X172500392Y-112091665D01*
X172217425Y-112418735D01*
X171891911Y-112742604D01*
X171554641Y-113032896D01*
X171236404Y-113259238D01*
X171200468Y-113280948D01*
X170554067Y-113594977D01*
X169861977Y-113805998D01*
X169141513Y-113911920D01*
X168409987Y-113910654D01*
X167684714Y-113800110D01*
X167436056Y-113735363D01*
X166752762Y-113479650D01*
X166142844Y-113130845D01*
X165608445Y-112691147D01*
X165151711Y-112162751D01*
X164774784Y-111547854D01*
X164479810Y-110848653D01*
X164411756Y-110636612D01*
X164347236Y-110408267D01*
X164302947Y-110206522D01*
X164275185Y-109998861D01*
X164260240Y-109752768D01*
X164254406Y-109435727D01*
X164253755Y-109250819D01*
X164267259Y-108706857D01*
X164313792Y-108244133D01*
X164400812Y-107827697D01*
X164535775Y-107422600D01*
X164726140Y-106993892D01*
X164742443Y-106960655D01*
X165113640Y-106335782D01*
X165566364Y-105795218D01*
X166094207Y-105343144D01*
X166690760Y-104983738D01*
X167349614Y-104721180D01*
X168064359Y-104559648D01*
X168493911Y-104514406D01*
X169230566Y-104522866D01*
X169937555Y-104639686D01*
X170605011Y-104858649D01*
X171223070Y-105173541D01*
X171781866Y-105578145D01*
X172271532Y-106066246D01*
X172682204Y-106631629D01*
X173004015Y-107268076D01*
X173049903Y-107384818D01*
X173253200Y-108079989D01*
X173356747Y-108806747D01*
X173362115Y-109544697D01*
X175066369Y-109544697D01*
X175084627Y-109269174D01*
X175077232Y-108893911D01*
X174983623Y-108001244D01*
X174784797Y-107163532D01*
X174481012Y-106381380D01*
X174072525Y-105655393D01*
X173559595Y-104986175D01*
X173286613Y-104695528D01*
X172667268Y-104148396D01*
X172002628Y-103704782D01*
X171284152Y-103360746D01*
X170503298Y-103112347D01*
X169651526Y-102955646D01*
X169469642Y-102934726D01*
X168601999Y-102899004D01*
X167755309Y-102971513D01*
X167755309Y-102971513D01*
G37*
X167755309Y-102971513D02*
X166939413Y-103148193D01*
X166164151Y-103424984D01*
X165439364Y-103797827D01*
X164774894Y-104262662D01*
X164180579Y-104815429D01*
X163793404Y-105276491D01*
X163442577Y-105803804D01*
X163122670Y-106402297D01*
X162856784Y-107024439D01*
X162684997Y-107556900D01*
X162624615Y-107796480D01*
X162581487Y-108008416D01*
X162552621Y-108222105D01*
X162535026Y-108466944D01*
X162525710Y-108772332D01*
X162521715Y-109161592D01*
X162523406Y-109624263D01*
X162536979Y-110000415D01*
X162566850Y-110322266D01*
X162617436Y-110622033D01*
X162693151Y-110931932D01*
X162798412Y-111284180D01*
X162823393Y-111362529D01*
X163107856Y-112092853D01*
X163473592Y-112751452D01*
X163934876Y-113361624D01*
X164265971Y-113716698D01*
X164903422Y-114271636D01*
X165605286Y-114729795D01*
X166362961Y-115088324D01*
X167167845Y-115344372D01*
X168011337Y-115495091D01*
X168884836Y-115537629D01*
X169616973Y-115489844D01*
X170473568Y-115334691D01*
X171274096Y-115078333D01*
X172013275Y-114727146D01*
X172685827Y-114287509D01*
X173286472Y-113765799D01*
X173809930Y-113168395D01*
X174250921Y-112501673D01*
X174604166Y-111772013D01*
X174864385Y-110985791D01*
X175026299Y-110149385D01*
X175066369Y-109544697D01*
X173362115Y-109544697D01*
X173270879Y-110273443D01*
X173084610Y-110972589D01*
X172804882Y-111621740D01*
X172710024Y-111791767D01*
X172500392Y-112091665D01*
X172217425Y-112418735D01*
X171891911Y-112742604D01*
X171554641Y-113032896D01*
X171236404Y-113259238D01*
X171200468Y-113280948D01*
X170554067Y-113594977D01*
X169861977Y-113805998D01*
X169141513Y-113911920D01*
X168409987Y-113910654D01*
X167684714Y-113800110D01*
X167436056Y-113735363D01*
X166752762Y-113479650D01*
X166142844Y-113130845D01*
X165608445Y-112691147D01*
X165151711Y-112162751D01*
X164774784Y-111547854D01*
X164479810Y-110848653D01*
X164411756Y-110636612D01*
X164347236Y-110408267D01*
X164302947Y-110206522D01*
X164275185Y-109998861D01*
X164260240Y-109752768D01*
X164254406Y-109435727D01*
X164253755Y-109250819D01*
X164267259Y-108706857D01*
X164313792Y-108244133D01*
X164400812Y-107827697D01*
X164535775Y-107422600D01*
X164726140Y-106993892D01*
X164742443Y-106960655D01*
X165113640Y-106335782D01*
X165566364Y-105795218D01*
X166094207Y-105343144D01*
X166690760Y-104983738D01*
X167349614Y-104721180D01*
X168064359Y-104559648D01*
X168493911Y-104514406D01*
X169230566Y-104522866D01*
X169937555Y-104639686D01*
X170605011Y-104858649D01*
X171223070Y-105173541D01*
X171781866Y-105578145D01*
X172271532Y-106066246D01*
X172682204Y-106631629D01*
X173004015Y-107268076D01*
X173049903Y-107384818D01*
X173253200Y-108079989D01*
X173356747Y-108806747D01*
X173362115Y-109544697D01*
X175066369Y-109544697D01*
X175084627Y-109269174D01*
X175077232Y-108893911D01*
X174983623Y-108001244D01*
X174784797Y-107163532D01*
X174481012Y-106381380D01*
X174072525Y-105655393D01*
X173559595Y-104986175D01*
X173286613Y-104695528D01*
X172667268Y-104148396D01*
X172002628Y-103704782D01*
X171284152Y-103360746D01*
X170503298Y-103112347D01*
X169651526Y-102955646D01*
X169469642Y-102934726D01*
X168601999Y-102899004D01*
X167755309Y-102971513D01*
G36*
X153741686Y-102923251D02*
G01*
X152990064Y-102959497D01*
X152317112Y-103062767D01*
X151698864Y-103239926D01*
X151111350Y-103497841D01*
X150531303Y-103842909D01*
X150261166Y-104040262D01*
X149979491Y-104274600D01*
X149703896Y-104528055D01*
X149452000Y-104782758D01*
X149241421Y-105020843D01*
X149089777Y-105224440D01*
X149014686Y-105375683D01*
X149012989Y-105382748D01*
X149011945Y-105642672D01*
X149106283Y-105898048D01*
X149279032Y-106105194D01*
X149300029Y-106121621D01*
X149518254Y-106261615D01*
X149718137Y-106329077D01*
X149917787Y-106319632D01*
X150135314Y-106228905D01*
X150388826Y-106052521D01*
X150696434Y-105786105D01*
X150699156Y-105783604D01*
X151100016Y-105435046D01*
X151462467Y-105166727D01*
X151814876Y-104960425D01*
X152185611Y-104797919D01*
X152295542Y-104758138D01*
X152995109Y-104572394D01*
X153687300Y-104499066D01*
X154362163Y-104533766D01*
X155009744Y-104672107D01*
X155620094Y-104909702D01*
X156183260Y-105242164D01*
X156689289Y-105665106D01*
X157128230Y-106174140D01*
X157490131Y-106764879D01*
X157651149Y-107119100D01*
X157827895Y-107668087D01*
X157950488Y-108286923D01*
X158015035Y-108937629D01*
X158017644Y-109582222D01*
X157961045Y-110143091D01*
X157788869Y-110862788D01*
X157518403Y-111526967D01*
X157156736Y-112127544D01*
X156710955Y-112656438D01*
X156188148Y-113105567D01*
X155595404Y-113466847D01*
X154939811Y-113732197D01*
X154769983Y-113781771D01*
X154368158Y-113859739D01*
X153893557Y-113903290D01*
X153387289Y-113912410D01*
X152890465Y-113887086D01*
X152444194Y-113827301D01*
X152246029Y-113782663D01*
X151573374Y-113542446D01*
X150954814Y-113196406D01*
X150767304Y-113062711D01*
X150427410Y-112844837D01*
X150126348Y-112736177D01*
X149856161Y-112736563D01*
X149608894Y-112845827D01*
X149402271Y-113033804D01*
X149279571Y-113202689D01*
X149228122Y-113374783D01*
X149220843Y-113519613D01*
X149226587Y-113664401D01*
X149255949Y-113774994D01*
X149327127Y-113882852D01*
X149458320Y-114019431D01*
X149572354Y-114127262D01*
X150108456Y-114550925D01*
X150728264Y-114905122D01*
X151415778Y-115185289D01*
X152154998Y-115386866D01*
X152929925Y-115505287D01*
X153724559Y-115535992D01*
X154365535Y-115494126D01*
X155185392Y-115342988D01*
X155966744Y-115083237D01*
X156700318Y-114721585D01*
X157376842Y-114264743D01*
X157987045Y-113719420D01*
X158521654Y-113092328D01*
X158971396Y-112390177D01*
X159154498Y-112028254D01*
X159441190Y-111278186D01*
X159634415Y-110474002D01*
X159733231Y-109636376D01*
X159736694Y-108785980D01*
X159643862Y-107943486D01*
X159453790Y-107129568D01*
X159387475Y-106922674D01*
X159078867Y-106184131D01*
X158676825Y-105494781D01*
X158192430Y-104865842D01*
X157636765Y-104308531D01*
X157020909Y-103834066D01*
X156355945Y-103453664D01*
X155704684Y-103194619D01*
X155318657Y-103080999D01*
X154973151Y-103002382D01*
X154629429Y-102953411D01*
X154248757Y-102928733D01*
X153792399Y-102922993D01*
X153741686Y-102923251D01*
X153741686Y-102923251D01*
G37*
X153741686Y-102923251D02*
X152990064Y-102959497D01*
X152317112Y-103062767D01*
X151698864Y-103239926D01*
X151111350Y-103497841D01*
X150531303Y-103842909D01*
X150261166Y-104040262D01*
X149979491Y-104274600D01*
X149703896Y-104528055D01*
X149452000Y-104782758D01*
X149241421Y-105020843D01*
X149089777Y-105224440D01*
X149014686Y-105375683D01*
X149012989Y-105382748D01*
X149011945Y-105642672D01*
X149106283Y-105898048D01*
X149279032Y-106105194D01*
X149300029Y-106121621D01*
X149518254Y-106261615D01*
X149718137Y-106329077D01*
X149917787Y-106319632D01*
X150135314Y-106228905D01*
X150388826Y-106052521D01*
X150696434Y-105786105D01*
X150699156Y-105783604D01*
X151100016Y-105435046D01*
X151462467Y-105166727D01*
X151814876Y-104960425D01*
X152185611Y-104797919D01*
X152295542Y-104758138D01*
X152995109Y-104572394D01*
X153687300Y-104499066D01*
X154362163Y-104533766D01*
X155009744Y-104672107D01*
X155620094Y-104909702D01*
X156183260Y-105242164D01*
X156689289Y-105665106D01*
X157128230Y-106174140D01*
X157490131Y-106764879D01*
X157651149Y-107119100D01*
X157827895Y-107668087D01*
X157950488Y-108286923D01*
X158015035Y-108937629D01*
X158017644Y-109582222D01*
X157961045Y-110143091D01*
X157788869Y-110862788D01*
X157518403Y-111526967D01*
X157156736Y-112127544D01*
X156710955Y-112656438D01*
X156188148Y-113105567D01*
X155595404Y-113466847D01*
X154939811Y-113732197D01*
X154769983Y-113781771D01*
X154368158Y-113859739D01*
X153893557Y-113903290D01*
X153387289Y-113912410D01*
X152890465Y-113887086D01*
X152444194Y-113827301D01*
X152246029Y-113782663D01*
X151573374Y-113542446D01*
X150954814Y-113196406D01*
X150767304Y-113062711D01*
X150427410Y-112844837D01*
X150126348Y-112736177D01*
X149856161Y-112736563D01*
X149608894Y-112845827D01*
X149402271Y-113033804D01*
X149279571Y-113202689D01*
X149228122Y-113374783D01*
X149220843Y-113519613D01*
X149226587Y-113664401D01*
X149255949Y-113774994D01*
X149327127Y-113882852D01*
X149458320Y-114019431D01*
X149572354Y-114127262D01*
X150108456Y-114550925D01*
X150728264Y-114905122D01*
X151415778Y-115185289D01*
X152154998Y-115386866D01*
X152929925Y-115505287D01*
X153724559Y-115535992D01*
X154365535Y-115494126D01*
X155185392Y-115342988D01*
X155966744Y-115083237D01*
X156700318Y-114721585D01*
X157376842Y-114264743D01*
X157987045Y-113719420D01*
X158521654Y-113092328D01*
X158971396Y-112390177D01*
X159154498Y-112028254D01*
X159441190Y-111278186D01*
X159634415Y-110474002D01*
X159733231Y-109636376D01*
X159736694Y-108785980D01*
X159643862Y-107943486D01*
X159453790Y-107129568D01*
X159387475Y-106922674D01*
X159078867Y-106184131D01*
X158676825Y-105494781D01*
X158192430Y-104865842D01*
X157636765Y-104308531D01*
X157020909Y-103834066D01*
X156355945Y-103453664D01*
X155704684Y-103194619D01*
X155318657Y-103080999D01*
X154973151Y-103002382D01*
X154629429Y-102953411D01*
X154248757Y-102928733D01*
X153792399Y-102922993D01*
X153741686Y-102923251D01*
G36*
X144508252Y-97744458D02*
G01*
X144370565Y-97768200D01*
X144263407Y-97829611D01*
X144142567Y-97946560D01*
X144100883Y-97991022D01*
X143867213Y-98241529D01*
X143867213Y-103537977D01*
X143866886Y-104320451D01*
X143865937Y-105068047D01*
X143864413Y-105772325D01*
X143862362Y-106424846D01*
X143859831Y-107017171D01*
X143856868Y-107540858D01*
X143853520Y-107987469D01*
X143849835Y-108348563D01*
X143845861Y-108615701D01*
X143841644Y-108780442D01*
X143837396Y-108834426D01*
X143789548Y-108795502D01*
X143660564Y-108682901D01*
X143457419Y-108502884D01*
X143187091Y-108261707D01*
X142856557Y-107965631D01*
X142472794Y-107620913D01*
X142042780Y-107233813D01*
X141573492Y-106810588D01*
X141071907Y-106357498D01*
X140580604Y-105913033D01*
X140052195Y-105435625D01*
X139547007Y-104981060D01*
X139072310Y-104555767D01*
X138635379Y-104166173D01*
X138243486Y-103818708D01*
X137903903Y-103519801D01*
X137623903Y-103275880D01*
X137410758Y-103093373D01*
X137271741Y-102978710D01*
X137215917Y-102938794D01*
X136934188Y-102880939D01*
X136674066Y-102936882D01*
X136432966Y-103100002D01*
X136216995Y-103350170D01*
X136119698Y-103603029D01*
X136141193Y-103858177D01*
X136180050Y-103954662D01*
X136251783Y-104048712D01*
X136410655Y-104217823D01*
X136653798Y-104459258D01*
X136978346Y-104770279D01*
X137381431Y-105148148D01*
X137860187Y-105590127D01*
X138411747Y-106093479D01*
X138573068Y-106239813D01*
X139013666Y-106640479D01*
X139426145Y-107018425D01*
X139802304Y-107365939D01*
X140133939Y-107675305D01*
X140412849Y-107938811D01*
X140630832Y-108148740D01*
X140779684Y-108297379D01*
X140851204Y-108377015D01*
X140856438Y-108387327D01*
X140818643Y-108445129D01*
X140711987Y-108586978D01*
X140542892Y-108804802D01*
X140317780Y-109090528D01*
X140043073Y-109436083D01*
X139725191Y-109833392D01*
X139370558Y-110274383D01*
X138985594Y-110750982D01*
X138576721Y-111255116D01*
X138513527Y-111332855D01*
X138099105Y-111843385D01*
X137705606Y-112329831D01*
X137339720Y-112783809D01*
X137008138Y-113196940D01*
X136717552Y-113560839D01*
X136474651Y-113867127D01*
X136286128Y-114107420D01*
X136158672Y-114273338D01*
X136098975Y-114356497D01*
X136096682Y-114360517D01*
X136021872Y-114613276D01*
X136046656Y-114860484D01*
X136152624Y-115087214D01*
X136321366Y-115278540D01*
X136534471Y-115419534D01*
X136773529Y-115495271D01*
X137020129Y-115490824D01*
X137255860Y-115391265D01*
X137313833Y-115347341D01*
X137382540Y-115275213D01*
X137519034Y-115119108D01*
X137716244Y-114887518D01*
X137967098Y-114588932D01*
X138264525Y-114231842D01*
X138601454Y-113824738D01*
X138970814Y-113376109D01*
X139365533Y-112894448D01*
X139778541Y-112388243D01*
X139789014Y-112375377D01*
X140198184Y-111873205D01*
X140585621Y-111398630D01*
X140944727Y-110959673D01*
X141268905Y-110564355D01*
X141551557Y-110220696D01*
X141786085Y-109936718D01*
X141965891Y-109720443D01*
X142084377Y-109579889D01*
X142134945Y-109523080D01*
X142135800Y-109522428D01*
X142193266Y-109550782D01*
X142323642Y-109647892D01*
X142512367Y-109801873D01*
X142744882Y-110000842D01*
X143006629Y-110232913D01*
X143011201Y-110237034D01*
X143837471Y-110982005D01*
X143867213Y-112967867D01*
X143896955Y-114953728D01*
X144072940Y-115137325D01*
X144320639Y-115322579D01*
X144598685Y-115412770D01*
X144882416Y-115411565D01*
X145147169Y-115322632D01*
X145368285Y-115149641D01*
X145510253Y-114923539D01*
X145522082Y-114879359D01*
X145532762Y-114802567D01*
X145542347Y-114687593D01*
X145550892Y-114528869D01*
X145558452Y-114320826D01*
X145565081Y-114057894D01*
X145570835Y-113734505D01*
X145575767Y-113345089D01*
X145579933Y-112884078D01*
X145583387Y-112345903D01*
X145586185Y-111724994D01*
X145588380Y-111015782D01*
X145590028Y-110212700D01*
X145591182Y-109310176D01*
X145591899Y-108302644D01*
X145592232Y-107184533D01*
X145592272Y-106574004D01*
X145592347Y-105408649D01*
X145592426Y-104356310D01*
X145592284Y-103411033D01*
X145591702Y-102566864D01*
X145590455Y-101817851D01*
X145588321Y-101158039D01*
X145585079Y-100581475D01*
X145580506Y-100082206D01*
X145574380Y-99654277D01*
X145566478Y-99291736D01*
X145556579Y-98988628D01*
X145544458Y-98739001D01*
X145529896Y-98536901D01*
X145512668Y-98376373D01*
X145492554Y-98251465D01*
X145469330Y-98156223D01*
X145442774Y-98084693D01*
X145412664Y-98030923D01*
X145378778Y-97988957D01*
X145340893Y-97952843D01*
X145298787Y-97916628D01*
X145267979Y-97889227D01*
X145158466Y-97805144D01*
X145034987Y-97759914D01*
X144856507Y-97742387D01*
X144720681Y-97740515D01*
X144508252Y-97744458D01*
X144508252Y-97744458D01*
G37*
X144508252Y-97744458D02*
X144370565Y-97768200D01*
X144263407Y-97829611D01*
X144142567Y-97946560D01*
X144100883Y-97991022D01*
X143867213Y-98241529D01*
X143867213Y-103537977D01*
X143866886Y-104320451D01*
X143865937Y-105068047D01*
X143864413Y-105772325D01*
X143862362Y-106424846D01*
X143859831Y-107017171D01*
X143856868Y-107540858D01*
X143853520Y-107987469D01*
X143849835Y-108348563D01*
X143845861Y-108615701D01*
X143841644Y-108780442D01*
X143837396Y-108834426D01*
X143789548Y-108795502D01*
X143660564Y-108682901D01*
X143457419Y-108502884D01*
X143187091Y-108261707D01*
X142856557Y-107965631D01*
X142472794Y-107620913D01*
X142042780Y-107233813D01*
X141573492Y-106810588D01*
X141071907Y-106357498D01*
X140580604Y-105913033D01*
X140052195Y-105435625D01*
X139547007Y-104981060D01*
X139072310Y-104555767D01*
X138635379Y-104166173D01*
X138243486Y-103818708D01*
X137903903Y-103519801D01*
X137623903Y-103275880D01*
X137410758Y-103093373D01*
X137271741Y-102978710D01*
X137215917Y-102938794D01*
X136934188Y-102880939D01*
X136674066Y-102936882D01*
X136432966Y-103100002D01*
X136216995Y-103350170D01*
X136119698Y-103603029D01*
X136141193Y-103858177D01*
X136180050Y-103954662D01*
X136251783Y-104048712D01*
X136410655Y-104217823D01*
X136653798Y-104459258D01*
X136978346Y-104770279D01*
X137381431Y-105148148D01*
X137860187Y-105590127D01*
X138411747Y-106093479D01*
X138573068Y-106239813D01*
X139013666Y-106640479D01*
X139426145Y-107018425D01*
X139802304Y-107365939D01*
X140133939Y-107675305D01*
X140412849Y-107938811D01*
X140630832Y-108148740D01*
X140779684Y-108297379D01*
X140851204Y-108377015D01*
X140856438Y-108387327D01*
X140818643Y-108445129D01*
X140711987Y-108586978D01*
X140542892Y-108804802D01*
X140317780Y-109090528D01*
X140043073Y-109436083D01*
X139725191Y-109833392D01*
X139370558Y-110274383D01*
X138985594Y-110750982D01*
X138576721Y-111255116D01*
X138513527Y-111332855D01*
X138099105Y-111843385D01*
X137705606Y-112329831D01*
X137339720Y-112783809D01*
X137008138Y-113196940D01*
X136717552Y-113560839D01*
X136474651Y-113867127D01*
X136286128Y-114107420D01*
X136158672Y-114273338D01*
X136098975Y-114356497D01*
X136096682Y-114360517D01*
X136021872Y-114613276D01*
X136046656Y-114860484D01*
X136152624Y-115087214D01*
X136321366Y-115278540D01*
X136534471Y-115419534D01*
X136773529Y-115495271D01*
X137020129Y-115490824D01*
X137255860Y-115391265D01*
X137313833Y-115347341D01*
X137382540Y-115275213D01*
X137519034Y-115119108D01*
X137716244Y-114887518D01*
X137967098Y-114588932D01*
X138264525Y-114231842D01*
X138601454Y-113824738D01*
X138970814Y-113376109D01*
X139365533Y-112894448D01*
X139778541Y-112388243D01*
X139789014Y-112375377D01*
X140198184Y-111873205D01*
X140585621Y-111398630D01*
X140944727Y-110959673D01*
X141268905Y-110564355D01*
X141551557Y-110220696D01*
X141786085Y-109936718D01*
X141965891Y-109720443D01*
X142084377Y-109579889D01*
X142134945Y-109523080D01*
X142135800Y-109522428D01*
X142193266Y-109550782D01*
X142323642Y-109647892D01*
X142512367Y-109801873D01*
X142744882Y-110000842D01*
X143006629Y-110232913D01*
X143011201Y-110237034D01*
X143837471Y-110982005D01*
X143867213Y-112967867D01*
X143896955Y-114953728D01*
X144072940Y-115137325D01*
X144320639Y-115322579D01*
X144598685Y-115412770D01*
X144882416Y-115411565D01*
X145147169Y-115322632D01*
X145368285Y-115149641D01*
X145510253Y-114923539D01*
X145522082Y-114879359D01*
X145532762Y-114802567D01*
X145542347Y-114687593D01*
X145550892Y-114528869D01*
X145558452Y-114320826D01*
X145565081Y-114057894D01*
X145570835Y-113734505D01*
X145575767Y-113345089D01*
X145579933Y-112884078D01*
X145583387Y-112345903D01*
X145586185Y-111724994D01*
X145588380Y-111015782D01*
X145590028Y-110212700D01*
X145591182Y-109310176D01*
X145591899Y-108302644D01*
X145592232Y-107184533D01*
X145592272Y-106574004D01*
X145592347Y-105408649D01*
X145592426Y-104356310D01*
X145592284Y-103411033D01*
X145591702Y-102566864D01*
X145590455Y-101817851D01*
X145588321Y-101158039D01*
X145585079Y-100581475D01*
X145580506Y-100082206D01*
X145574380Y-99654277D01*
X145566478Y-99291736D01*
X145556579Y-98988628D01*
X145544458Y-98739001D01*
X145529896Y-98536901D01*
X145512668Y-98376373D01*
X145492554Y-98251465D01*
X145469330Y-98156223D01*
X145442774Y-98084693D01*
X145412664Y-98030923D01*
X145378778Y-97988957D01*
X145340893Y-97952843D01*
X145298787Y-97916628D01*
X145267979Y-97889227D01*
X145158466Y-97805144D01*
X145034987Y-97759914D01*
X144856507Y-97742387D01*
X144720681Y-97740515D01*
X144508252Y-97744458D01*
G36*
X235172934Y-97763434D02*
G01*
X234942444Y-97909993D01*
X234778304Y-98133807D01*
X234692265Y-98418010D01*
X234696078Y-98745738D01*
X234704220Y-98792937D01*
X234732493Y-98909217D01*
X234791945Y-99128753D01*
X234880206Y-99443582D01*
X234994907Y-99845741D01*
X235133681Y-100327266D01*
X235294158Y-100880195D01*
X235473969Y-101496563D01*
X235670746Y-102168409D01*
X235882119Y-102887768D01*
X236105720Y-103646678D01*
X236339180Y-104437175D01*
X236580131Y-105251295D01*
X236826203Y-106081077D01*
X237075027Y-106918557D01*
X237324235Y-107755770D01*
X237571458Y-108584755D01*
X237814327Y-109397548D01*
X238050473Y-110186186D01*
X238277528Y-110942705D01*
X238493123Y-111659143D01*
X238694888Y-112327536D01*
X238880455Y-112939921D01*
X239047456Y-113488334D01*
X239193520Y-113964814D01*
X239316281Y-114361395D01*
X239413368Y-114670116D01*
X239482413Y-114883012D01*
X239521047Y-114992121D01*
X239526380Y-115003470D01*
X239690062Y-115182845D01*
X239919164Y-115331927D01*
X240163670Y-115421980D01*
X240279077Y-115435930D01*
X240528267Y-115387207D01*
X240775439Y-115253115D01*
X240965149Y-115070246D01*
X240995162Y-115017716D01*
X241034862Y-114923825D01*
X241085845Y-114783042D01*
X241149707Y-114589836D01*
X241228041Y-114338673D01*
X241322443Y-114024023D01*
X241434507Y-113640354D01*
X241565829Y-113182133D01*
X241718004Y-112643828D01*
X241892627Y-112019908D01*
X242091292Y-111304841D01*
X242315595Y-110493095D01*
X242567130Y-109579138D01*
X242847493Y-108557438D01*
X242935005Y-108238056D01*
X243171991Y-107373472D01*
X243400791Y-106539841D01*
X243619382Y-105744470D01*
X243825743Y-104994669D01*
X244017853Y-104297747D01*
X244193690Y-103661011D01*
X244351232Y-103091772D01*
X244488459Y-102597337D01*
X244603349Y-102185016D01*
X244693880Y-101862116D01*
X244758031Y-101635948D01*
X244793781Y-101513818D01*
X244800176Y-101494483D01*
X244819807Y-101517738D01*
X244862045Y-101628699D01*
X244927597Y-101829850D01*
X245017169Y-102123674D01*
X245131469Y-102512654D01*
X245271205Y-102999274D01*
X245437082Y-103586016D01*
X245629808Y-104275365D01*
X245850091Y-105069804D01*
X246098637Y-105971816D01*
X246376153Y-106983884D01*
X246683347Y-108108492D01*
X246683481Y-108108986D01*
X246964491Y-109138837D01*
X247216255Y-110060055D01*
X247440577Y-110878850D01*
X247639258Y-111601437D01*
X247814101Y-112234028D01*
X247966907Y-112782836D01*
X248099480Y-113254073D01*
X248213621Y-113653952D01*
X248311133Y-113988687D01*
X248393818Y-114264489D01*
X248463477Y-114487571D01*
X248521914Y-114664146D01*
X248570931Y-114800428D01*
X248612329Y-114902628D01*
X248647912Y-114976959D01*
X248679480Y-115029635D01*
X248698365Y-115054797D01*
X248951136Y-115287647D01*
X249228732Y-115408536D01*
X249522154Y-115414840D01*
X249723324Y-115353565D01*
X249939636Y-115208582D01*
X250132327Y-114991602D01*
X250262173Y-114748570D01*
X250275535Y-114706700D01*
X250298686Y-114627462D01*
X250353625Y-114440900D01*
X250438354Y-114153763D01*
X250550879Y-113772800D01*
X250689203Y-113304758D01*
X250851330Y-112756388D01*
X251035264Y-112134438D01*
X251239010Y-111445655D01*
X251460571Y-110696789D01*
X251697952Y-109894588D01*
X251949157Y-109045801D01*
X252212188Y-108157177D01*
X252485052Y-107235464D01*
X252636861Y-106722716D01*
X252914366Y-105783892D01*
X253182681Y-104873097D01*
X253439828Y-103997196D01*
X253683829Y-103163053D01*
X253912706Y-102377533D01*
X254124481Y-101647500D01*
X254317175Y-100979818D01*
X254488811Y-100381353D01*
X254637411Y-99858969D01*
X254760996Y-99419529D01*
X254857589Y-99069899D01*
X254925211Y-98816943D01*
X254961884Y-98667525D01*
X254968087Y-98632787D01*
X254945175Y-98308637D01*
X254823464Y-98042359D01*
X254608157Y-97844440D01*
X254564716Y-97819467D01*
X254277081Y-97725899D01*
X253981764Y-97734173D01*
X253708645Y-97837175D01*
X253487603Y-98027795D01*
X253445600Y-98085825D01*
X253415459Y-98163574D01*
X253354932Y-98348523D01*
X253266153Y-98633434D01*
X253151257Y-99011069D01*
X253012379Y-99474190D01*
X252851654Y-100015559D01*
X252671218Y-100627938D01*
X252473205Y-101304089D01*
X252259751Y-102036774D01*
X252032990Y-102818755D01*
X251795059Y-103642794D01*
X251548091Y-104501653D01*
X251379639Y-105089443D01*
X251129166Y-105963672D01*
X250887460Y-106805481D01*
X250656560Y-107607864D01*
X250438502Y-108363814D01*
X250235327Y-109066326D01*
X250049073Y-109708392D01*
X249881779Y-110283006D01*
X249735483Y-110783162D01*
X249612224Y-111201853D01*
X249514041Y-111532072D01*
X249442972Y-111766813D01*
X249401057Y-111899070D01*
X249390145Y-111926920D01*
X249370211Y-111870894D01*
X249320411Y-111707375D01*
X249242770Y-111443486D01*
X249139313Y-111086350D01*
X249012066Y-110643089D01*
X248863052Y-110120827D01*
X248694298Y-109526687D01*
X248507828Y-108867790D01*
X248305668Y-108151260D01*
X248089843Y-107384220D01*
X247862377Y-106573792D01*
X247625296Y-105727099D01*
X247500384Y-105280210D01*
X247217172Y-104266600D01*
X246964000Y-103361277D01*
X246738968Y-102557925D01*
X246540175Y-101850228D01*
X246365722Y-101231872D01*
X246213709Y-100696541D01*
X246082235Y-100237919D01*
X245969402Y-99849692D01*
X245873308Y-99525543D01*
X245792055Y-99259158D01*
X245723742Y-99044220D01*
X245666470Y-98874415D01*
X245618338Y-98743427D01*
X245577446Y-98644941D01*
X245541895Y-98572640D01*
X245509785Y-98520211D01*
X245479215Y-98481337D01*
X245448287Y-98449703D01*
X245444417Y-98446052D01*
X245182351Y-98276395D01*
X244879751Y-98204227D01*
X244572272Y-98237571D01*
X244549406Y-98244747D01*
X244481749Y-98266057D01*
X244420712Y-98286761D01*
X244364222Y-98312966D01*
X244310205Y-98350779D01*
X244256588Y-98406307D01*
X244201297Y-98485658D01*
X244142260Y-98594939D01*
X244077402Y-98740258D01*
X244004651Y-98927722D01*
X243921934Y-99163438D01*
X243827176Y-99453513D01*
X243718305Y-99804056D01*
X243593247Y-100221172D01*
X243449929Y-100710970D01*
X243286277Y-101279556D01*
X243100219Y-101933039D01*
X242889681Y-102677525D01*
X242652589Y-103519121D01*
X242386871Y-104463936D01*
X242139783Y-105342689D01*
X241897142Y-106203555D01*
X241662974Y-107030691D01*
X241439319Y-107817086D01*
X241228214Y-108555729D01*
X241031699Y-109239609D01*
X240851813Y-109861714D01*
X240690594Y-110415035D01*
X240550081Y-110892559D01*
X240432313Y-111287275D01*
X240339330Y-111592173D01*
X240273169Y-111800241D01*
X240235870Y-111904468D01*
X240228484Y-111915180D01*
X240207158Y-111849153D01*
X240155300Y-111675832D01*
X240074963Y-111402342D01*
X239968201Y-111035810D01*
X239837068Y-110583360D01*
X239683618Y-110052118D01*
X239509905Y-109449210D01*
X239317983Y-108781762D01*
X239109904Y-108056898D01*
X238887724Y-107281746D01*
X238653497Y-106463429D01*
X238409275Y-105609074D01*
X238243178Y-105027400D01*
X237992806Y-104151664D01*
X237750339Y-103306380D01*
X237517885Y-102498759D01*
X237297556Y-101736014D01*
X237091461Y-101025354D01*
X236901710Y-100373993D01*
X236730413Y-99789142D01*
X236579680Y-99278012D01*
X236451622Y-98847815D01*
X236348348Y-98505762D01*
X236271968Y-98259065D01*
X236224592Y-98114937D01*
X236210378Y-98079713D01*
X236014087Y-97880545D01*
X235744578Y-97752490D01*
X235458026Y-97710995D01*
X235172934Y-97763434D01*
X235172934Y-97763434D01*
G37*
X235172934Y-97763434D02*
X234942444Y-97909993D01*
X234778304Y-98133807D01*
X234692265Y-98418010D01*
X234696078Y-98745738D01*
X234704220Y-98792937D01*
X234732493Y-98909217D01*
X234791945Y-99128753D01*
X234880206Y-99443582D01*
X234994907Y-99845741D01*
X235133681Y-100327266D01*
X235294158Y-100880195D01*
X235473969Y-101496563D01*
X235670746Y-102168409D01*
X235882119Y-102887768D01*
X236105720Y-103646678D01*
X236339180Y-104437175D01*
X236580131Y-105251295D01*
X236826203Y-106081077D01*
X237075027Y-106918557D01*
X237324235Y-107755770D01*
X237571458Y-108584755D01*
X237814327Y-109397548D01*
X238050473Y-110186186D01*
X238277528Y-110942705D01*
X238493123Y-111659143D01*
X238694888Y-112327536D01*
X238880455Y-112939921D01*
X239047456Y-113488334D01*
X239193520Y-113964814D01*
X239316281Y-114361395D01*
X239413368Y-114670116D01*
X239482413Y-114883012D01*
X239521047Y-114992121D01*
X239526380Y-115003470D01*
X239690062Y-115182845D01*
X239919164Y-115331927D01*
X240163670Y-115421980D01*
X240279077Y-115435930D01*
X240528267Y-115387207D01*
X240775439Y-115253115D01*
X240965149Y-115070246D01*
X240995162Y-115017716D01*
X241034862Y-114923825D01*
X241085845Y-114783042D01*
X241149707Y-114589836D01*
X241228041Y-114338673D01*
X241322443Y-114024023D01*
X241434507Y-113640354D01*
X241565829Y-113182133D01*
X241718004Y-112643828D01*
X241892627Y-112019908D01*
X242091292Y-111304841D01*
X242315595Y-110493095D01*
X242567130Y-109579138D01*
X242847493Y-108557438D01*
X242935005Y-108238056D01*
X243171991Y-107373472D01*
X243400791Y-106539841D01*
X243619382Y-105744470D01*
X243825743Y-104994669D01*
X244017853Y-104297747D01*
X244193690Y-103661011D01*
X244351232Y-103091772D01*
X244488459Y-102597337D01*
X244603349Y-102185016D01*
X244693880Y-101862116D01*
X244758031Y-101635948D01*
X244793781Y-101513818D01*
X244800176Y-101494483D01*
X244819807Y-101517738D01*
X244862045Y-101628699D01*
X244927597Y-101829850D01*
X245017169Y-102123674D01*
X245131469Y-102512654D01*
X245271205Y-102999274D01*
X245437082Y-103586016D01*
X245629808Y-104275365D01*
X245850091Y-105069804D01*
X246098637Y-105971816D01*
X246376153Y-106983884D01*
X246683347Y-108108492D01*
X246683481Y-108108986D01*
X246964491Y-109138837D01*
X247216255Y-110060055D01*
X247440577Y-110878850D01*
X247639258Y-111601437D01*
X247814101Y-112234028D01*
X247966907Y-112782836D01*
X248099480Y-113254073D01*
X248213621Y-113653952D01*
X248311133Y-113988687D01*
X248393818Y-114264489D01*
X248463477Y-114487571D01*
X248521914Y-114664146D01*
X248570931Y-114800428D01*
X248612329Y-114902628D01*
X248647912Y-114976959D01*
X248679480Y-115029635D01*
X248698365Y-115054797D01*
X248951136Y-115287647D01*
X249228732Y-115408536D01*
X249522154Y-115414840D01*
X249723324Y-115353565D01*
X249939636Y-115208582D01*
X250132327Y-114991602D01*
X250262173Y-114748570D01*
X250275535Y-114706700D01*
X250298686Y-114627462D01*
X250353625Y-114440900D01*
X250438354Y-114153763D01*
X250550879Y-113772800D01*
X250689203Y-113304758D01*
X250851330Y-112756388D01*
X251035264Y-112134438D01*
X251239010Y-111445655D01*
X251460571Y-110696789D01*
X251697952Y-109894588D01*
X251949157Y-109045801D01*
X252212188Y-108157177D01*
X252485052Y-107235464D01*
X252636861Y-106722716D01*
X252914366Y-105783892D01*
X253182681Y-104873097D01*
X253439828Y-103997196D01*
X253683829Y-103163053D01*
X253912706Y-102377533D01*
X254124481Y-101647500D01*
X254317175Y-100979818D01*
X254488811Y-100381353D01*
X254637411Y-99858969D01*
X254760996Y-99419529D01*
X254857589Y-99069899D01*
X254925211Y-98816943D01*
X254961884Y-98667525D01*
X254968087Y-98632787D01*
X254945175Y-98308637D01*
X254823464Y-98042359D01*
X254608157Y-97844440D01*
X254564716Y-97819467D01*
X254277081Y-97725899D01*
X253981764Y-97734173D01*
X253708645Y-97837175D01*
X253487603Y-98027795D01*
X253445600Y-98085825D01*
X253415459Y-98163574D01*
X253354932Y-98348523D01*
X253266153Y-98633434D01*
X253151257Y-99011069D01*
X253012379Y-99474190D01*
X252851654Y-100015559D01*
X252671218Y-100627938D01*
X252473205Y-101304089D01*
X252259751Y-102036774D01*
X252032990Y-102818755D01*
X251795059Y-103642794D01*
X251548091Y-104501653D01*
X251379639Y-105089443D01*
X251129166Y-105963672D01*
X250887460Y-106805481D01*
X250656560Y-107607864D01*
X250438502Y-108363814D01*
X250235327Y-109066326D01*
X250049073Y-109708392D01*
X249881779Y-110283006D01*
X249735483Y-110783162D01*
X249612224Y-111201853D01*
X249514041Y-111532072D01*
X249442972Y-111766813D01*
X249401057Y-111899070D01*
X249390145Y-111926920D01*
X249370211Y-111870894D01*
X249320411Y-111707375D01*
X249242770Y-111443486D01*
X249139313Y-111086350D01*
X249012066Y-110643089D01*
X248863052Y-110120827D01*
X248694298Y-109526687D01*
X248507828Y-108867790D01*
X248305668Y-108151260D01*
X248089843Y-107384220D01*
X247862377Y-106573792D01*
X247625296Y-105727099D01*
X247500384Y-105280210D01*
X247217172Y-104266600D01*
X246964000Y-103361277D01*
X246738968Y-102557925D01*
X246540175Y-101850228D01*
X246365722Y-101231872D01*
X246213709Y-100696541D01*
X246082235Y-100237919D01*
X245969402Y-99849692D01*
X245873308Y-99525543D01*
X245792055Y-99259158D01*
X245723742Y-99044220D01*
X245666470Y-98874415D01*
X245618338Y-98743427D01*
X245577446Y-98644941D01*
X245541895Y-98572640D01*
X245509785Y-98520211D01*
X245479215Y-98481337D01*
X245448287Y-98449703D01*
X245444417Y-98446052D01*
X245182351Y-98276395D01*
X244879751Y-98204227D01*
X244572272Y-98237571D01*
X244549406Y-98244747D01*
X244481749Y-98266057D01*
X244420712Y-98286761D01*
X244364222Y-98312966D01*
X244310205Y-98350779D01*
X244256588Y-98406307D01*
X244201297Y-98485658D01*
X244142260Y-98594939D01*
X244077402Y-98740258D01*
X244004651Y-98927722D01*
X243921934Y-99163438D01*
X243827176Y-99453513D01*
X243718305Y-99804056D01*
X243593247Y-100221172D01*
X243449929Y-100710970D01*
X243286277Y-101279556D01*
X243100219Y-101933039D01*
X242889681Y-102677525D01*
X242652589Y-103519121D01*
X242386871Y-104463936D01*
X242139783Y-105342689D01*
X241897142Y-106203555D01*
X241662974Y-107030691D01*
X241439319Y-107817086D01*
X241228214Y-108555729D01*
X241031699Y-109239609D01*
X240851813Y-109861714D01*
X240690594Y-110415035D01*
X240550081Y-110892559D01*
X240432313Y-111287275D01*
X240339330Y-111592173D01*
X240273169Y-111800241D01*
X240235870Y-111904468D01*
X240228484Y-111915180D01*
X240207158Y-111849153D01*
X240155300Y-111675832D01*
X240074963Y-111402342D01*
X239968201Y-111035810D01*
X239837068Y-110583360D01*
X239683618Y-110052118D01*
X239509905Y-109449210D01*
X239317983Y-108781762D01*
X239109904Y-108056898D01*
X238887724Y-107281746D01*
X238653497Y-106463429D01*
X238409275Y-105609074D01*
X238243178Y-105027400D01*
X237992806Y-104151664D01*
X237750339Y-103306380D01*
X237517885Y-102498759D01*
X237297556Y-101736014D01*
X237091461Y-101025354D01*
X236901710Y-100373993D01*
X236730413Y-99789142D01*
X236579680Y-99278012D01*
X236451622Y-98847815D01*
X236348348Y-98505762D01*
X236271968Y-98259065D01*
X236224592Y-98114937D01*
X236210378Y-98079713D01*
X236014087Y-97880545D01*
X235744578Y-97752490D01*
X235458026Y-97710995D01*
X235172934Y-97763434D01*
G36*
X213061414Y-102924545D02*
G01*
X212668452Y-102954126D01*
X212356137Y-103008960D01*
X212105863Y-103093574D01*
X211899022Y-103212495D01*
X211727135Y-103360039D01*
X211589564Y-103512815D01*
X211522370Y-103644443D01*
X211501962Y-103806742D01*
X211501405Y-103855885D01*
X211554779Y-104138129D01*
X211704624Y-104365216D01*
X211935528Y-104516858D01*
X212026239Y-104546717D01*
X212190868Y-104568482D01*
X212442214Y-104575796D01*
X212748852Y-104568195D01*
X212899297Y-104559598D01*
X213676630Y-104540083D01*
X214369923Y-104593959D01*
X214990605Y-104723630D01*
X215550107Y-104931501D01*
X216059859Y-105219975D01*
X216069352Y-105226398D01*
X216528977Y-105601693D01*
X216905917Y-106042054D01*
X217184607Y-106528722D01*
X217220889Y-106614203D01*
X217360656Y-106960655D01*
X217390398Y-110886651D01*
X217396527Y-111670847D01*
X217402347Y-112344892D01*
X217408147Y-112917603D01*
X217414215Y-113397797D01*
X217420841Y-113794291D01*
X217428314Y-114115902D01*
X217436924Y-114371447D01*
X217446959Y-114569744D01*
X217458709Y-114719609D01*
X217472463Y-114829859D01*
X217488509Y-114909312D01*
X217507138Y-114966783D01*
X217525477Y-115005411D01*
X217685196Y-115216851D01*
X217900711Y-115347329D01*
X218198164Y-115412619D01*
X218200790Y-115412904D01*
X218455923Y-115415114D01*
X218665639Y-115351389D01*
X218694835Y-115336637D01*
X218868469Y-115216847D01*
X219014155Y-115071499D01*
X219022001Y-115061117D01*
X219042714Y-115031260D01*
X219060989Y-114996777D01*
X219076999Y-114950378D01*
X219090920Y-114884770D01*
X219102928Y-114792662D01*
X219113197Y-114666760D01*
X219121902Y-114499775D01*
X219129220Y-114284413D01*
X219135325Y-114013383D01*
X219140392Y-113679393D01*
X219144597Y-113275151D01*
X219148114Y-112793365D01*
X219151119Y-112226744D01*
X219153787Y-111567996D01*
X219156293Y-110809828D01*
X219158813Y-109944949D01*
X219160626Y-109291093D01*
X219163126Y-108345888D01*
X219165023Y-107512343D01*
X219166206Y-106783148D01*
X219166562Y-106150993D01*
X219165978Y-105608571D01*
X219164343Y-105148571D01*
X219161544Y-104763685D01*
X219157469Y-104446603D01*
X219152005Y-104190016D01*
X219145040Y-103986615D01*
X219136462Y-103829091D01*
X219126158Y-103710134D01*
X219114016Y-103622436D01*
X219099924Y-103558686D01*
X219083770Y-103511577D01*
X219071399Y-103485024D01*
X218956388Y-103313629D01*
X218818113Y-103172398D01*
X218807593Y-103164423D01*
X218581268Y-103060577D01*
X218304531Y-103020597D01*
X218029341Y-103047738D01*
X217870505Y-103105722D01*
X217698129Y-103212074D01*
X217577035Y-103334849D01*
X217496615Y-103497984D01*
X217446264Y-103725416D01*
X217415374Y-104041082D01*
X217408816Y-104147682D01*
X217373061Y-104779083D01*
X217116213Y-104463775D01*
X216728010Y-104065712D01*
X216245630Y-103699689D01*
X215692623Y-103380605D01*
X215092541Y-103123361D01*
X214889475Y-103054982D01*
X214693731Y-102998441D01*
X214509096Y-102959337D01*
X214306280Y-102934616D01*
X214055994Y-102921224D01*
X213728947Y-102916107D01*
X213553630Y-102915691D01*
X213061414Y-102924545D01*
X213061414Y-102924545D01*
G37*
X213061414Y-102924545D02*
X212668452Y-102954126D01*
X212356137Y-103008960D01*
X212105863Y-103093574D01*
X211899022Y-103212495D01*
X211727135Y-103360039D01*
X211589564Y-103512815D01*
X211522370Y-103644443D01*
X211501962Y-103806742D01*
X211501405Y-103855885D01*
X211554779Y-104138129D01*
X211704624Y-104365216D01*
X211935528Y-104516858D01*
X212026239Y-104546717D01*
X212190868Y-104568482D01*
X212442214Y-104575796D01*
X212748852Y-104568195D01*
X212899297Y-104559598D01*
X213676630Y-104540083D01*
X214369923Y-104593959D01*
X214990605Y-104723630D01*
X215550107Y-104931501D01*
X216059859Y-105219975D01*
X216069352Y-105226398D01*
X216528977Y-105601693D01*
X216905917Y-106042054D01*
X217184607Y-106528722D01*
X217220889Y-106614203D01*
X217360656Y-106960655D01*
X217390398Y-110886651D01*
X217396527Y-111670847D01*
X217402347Y-112344892D01*
X217408147Y-112917603D01*
X217414215Y-113397797D01*
X217420841Y-113794291D01*
X217428314Y-114115902D01*
X217436924Y-114371447D01*
X217446959Y-114569744D01*
X217458709Y-114719609D01*
X217472463Y-114829859D01*
X217488509Y-114909312D01*
X217507138Y-114966783D01*
X217525477Y-115005411D01*
X217685196Y-115216851D01*
X217900711Y-115347329D01*
X218198164Y-115412619D01*
X218200790Y-115412904D01*
X218455923Y-115415114D01*
X218665639Y-115351389D01*
X218694835Y-115336637D01*
X218868469Y-115216847D01*
X219014155Y-115071499D01*
X219022001Y-115061117D01*
X219042714Y-115031260D01*
X219060989Y-114996777D01*
X219076999Y-114950378D01*
X219090920Y-114884770D01*
X219102928Y-114792662D01*
X219113197Y-114666760D01*
X219121902Y-114499775D01*
X219129220Y-114284413D01*
X219135325Y-114013383D01*
X219140392Y-113679393D01*
X219144597Y-113275151D01*
X219148114Y-112793365D01*
X219151119Y-112226744D01*
X219153787Y-111567996D01*
X219156293Y-110809828D01*
X219158813Y-109944949D01*
X219160626Y-109291093D01*
X219163126Y-108345888D01*
X219165023Y-107512343D01*
X219166206Y-106783148D01*
X219166562Y-106150993D01*
X219165978Y-105608571D01*
X219164343Y-105148571D01*
X219161544Y-104763685D01*
X219157469Y-104446603D01*
X219152005Y-104190016D01*
X219145040Y-103986615D01*
X219136462Y-103829091D01*
X219126158Y-103710134D01*
X219114016Y-103622436D01*
X219099924Y-103558686D01*
X219083770Y-103511577D01*
X219071399Y-103485024D01*
X218956388Y-103313629D01*
X218818113Y-103172398D01*
X218807593Y-103164423D01*
X218581268Y-103060577D01*
X218304531Y-103020597D01*
X218029341Y-103047738D01*
X217870505Y-103105722D01*
X217698129Y-103212074D01*
X217577035Y-103334849D01*
X217496615Y-103497984D01*
X217446264Y-103725416D01*
X217415374Y-104041082D01*
X217408816Y-104147682D01*
X217373061Y-104779083D01*
X217116213Y-104463775D01*
X216728010Y-104065712D01*
X216245630Y-103699689D01*
X215692623Y-103380605D01*
X215092541Y-103123361D01*
X214889475Y-103054982D01*
X214693731Y-102998441D01*
X214509096Y-102959337D01*
X214306280Y-102934616D01*
X214055994Y-102921224D01*
X213728947Y-102916107D01*
X213553630Y-102915691D01*
X213061414Y-102924545D01*
G36*
X179581054Y-97819735D02*
G01*
X179348707Y-98013052D01*
X179278759Y-98106805D01*
X179262449Y-98136366D01*
X179247812Y-98176905D01*
X179234725Y-98234884D01*
X179223062Y-98316766D01*
X179212699Y-98429013D01*
X179203513Y-98578088D01*
X179195379Y-98770453D01*
X179188173Y-99012571D01*
X179181771Y-99310904D01*
X179176049Y-99671915D01*
X179170882Y-100102065D01*
X179166146Y-100607819D01*
X179161718Y-101195637D01*
X179157472Y-101871983D01*
X179153285Y-102643319D01*
X179149033Y-103516108D01*
X179144591Y-104496811D01*
X179141252Y-105262689D01*
X179111075Y-112254801D01*
X178969160Y-112635605D01*
X178752724Y-113055044D01*
X178553201Y-113298043D01*
X178343591Y-113479107D01*
X178111334Y-113602206D01*
X177829848Y-113675847D01*
X177472554Y-113708533D01*
X177259039Y-113712178D01*
X177041057Y-113717227D01*
X176899435Y-113741812D01*
X176791685Y-113800092D01*
X176675320Y-113906226D01*
X176674620Y-113906925D01*
X176496245Y-114158626D01*
X176420764Y-114435045D01*
X176441691Y-114714108D01*
X176552537Y-114973744D01*
X176746815Y-115191881D01*
X177018038Y-115346448D01*
X177106180Y-115375134D01*
X177393939Y-115421248D01*
X177751694Y-115427529D01*
X178137660Y-115394874D01*
X178412929Y-115347030D01*
X178928929Y-115175268D01*
X179403463Y-114897755D01*
X179825332Y-114523798D01*
X180183334Y-114062700D01*
X180380653Y-113712178D01*
X180447546Y-113578256D01*
X180507591Y-113459727D01*
X180561157Y-113349817D01*
X180608612Y-113241751D01*
X180650323Y-113128756D01*
X180686659Y-113004058D01*
X180717989Y-112860882D01*
X180744679Y-112692455D01*
X180767098Y-112492002D01*
X180785615Y-112252751D01*
X180800597Y-111967926D01*
X180812413Y-111630754D01*
X180821431Y-111234460D01*
X180828018Y-110772271D01*
X180832544Y-110237413D01*
X180835375Y-109623112D01*
X180836881Y-108922594D01*
X180837429Y-108129084D01*
X180837388Y-107235809D01*
X180837125Y-106235995D01*
X180837002Y-105314751D01*
X180837002Y-98196248D01*
X180688290Y-98037085D01*
X180428673Y-97831985D01*
X180142971Y-97728116D01*
X179853120Y-97724395D01*
X179581054Y-97819735D01*
X179581054Y-97819735D01*
G37*
X179581054Y-97819735D02*
X179348707Y-98013052D01*
X179278759Y-98106805D01*
X179262449Y-98136366D01*
X179247812Y-98176905D01*
X179234725Y-98234884D01*
X179223062Y-98316766D01*
X179212699Y-98429013D01*
X179203513Y-98578088D01*
X179195379Y-98770453D01*
X179188173Y-99012571D01*
X179181771Y-99310904D01*
X179176049Y-99671915D01*
X179170882Y-100102065D01*
X179166146Y-100607819D01*
X179161718Y-101195637D01*
X179157472Y-101871983D01*
X179153285Y-102643319D01*
X179149033Y-103516108D01*
X179144591Y-104496811D01*
X179141252Y-105262689D01*
X179111075Y-112254801D01*
X178969160Y-112635605D01*
X178752724Y-113055044D01*
X178553201Y-113298043D01*
X178343591Y-113479107D01*
X178111334Y-113602206D01*
X177829848Y-113675847D01*
X177472554Y-113708533D01*
X177259039Y-113712178D01*
X177041057Y-113717227D01*
X176899435Y-113741812D01*
X176791685Y-113800092D01*
X176675320Y-113906226D01*
X176674620Y-113906925D01*
X176496245Y-114158626D01*
X176420764Y-114435045D01*
X176441691Y-114714108D01*
X176552537Y-114973744D01*
X176746815Y-115191881D01*
X177018038Y-115346448D01*
X177106180Y-115375134D01*
X177393939Y-115421248D01*
X177751694Y-115427529D01*
X178137660Y-115394874D01*
X178412929Y-115347030D01*
X178928929Y-115175268D01*
X179403463Y-114897755D01*
X179825332Y-114523798D01*
X180183334Y-114062700D01*
X180380653Y-113712178D01*
X180447546Y-113578256D01*
X180507591Y-113459727D01*
X180561157Y-113349817D01*
X180608612Y-113241751D01*
X180650323Y-113128756D01*
X180686659Y-113004058D01*
X180717989Y-112860882D01*
X180744679Y-112692455D01*
X180767098Y-112492002D01*
X180785615Y-112252751D01*
X180800597Y-111967926D01*
X180812413Y-111630754D01*
X180821431Y-111234460D01*
X180828018Y-110772271D01*
X180832544Y-110237413D01*
X180835375Y-109623112D01*
X180836881Y-108922594D01*
X180837429Y-108129084D01*
X180837388Y-107235809D01*
X180837125Y-106235995D01*
X180837002Y-105314751D01*
X180837002Y-98196248D01*
X180688290Y-98037085D01*
X180428673Y-97831985D01*
X180142971Y-97728116D01*
X179853120Y-97724395D01*
X179581054Y-97819735D01*
M02*
