G04 #@! TF.GenerationSoftware,KiCad,Pcbnew,5.1.4-3.fc31*
G04 #@! TF.CreationDate,2019-12-02T16:48:44+01:00*
G04 #@! TF.ProjectId,WordclockPCB,576f7264-636c-46f6-936b-5043422e6b69,rev?*
G04 #@! TF.SameCoordinates,Original*
G04 #@! TF.FileFunction,Soldermask,Bot*
G04 #@! TF.FilePolarity,Negative*
%FSLAX46Y46*%
G04 Gerber Fmt 4.6, Leading zero omitted, Abs format (unit mm)*
G04 Created by KiCad (PCBNEW 5.1.4-3.fc31) date 2019-12-02 16:48:44*
%MOMM*%
%LPD*%
G04 APERTURE LIST*
%ADD10C,0.100000*%
G04 APERTURE END LIST*
D10*
G36*
X87951213Y-216957502D02*
G01*
X88022321Y-216964505D01*
X88159172Y-217006019D01*
X88159175Y-217006020D01*
X88285294Y-217073432D01*
X88395843Y-217164157D01*
X88486568Y-217274706D01*
X88553980Y-217400825D01*
X88553981Y-217400828D01*
X88595495Y-217537679D01*
X88609512Y-217680000D01*
X88595495Y-217822321D01*
X88580385Y-217872130D01*
X88553980Y-217959175D01*
X88486568Y-218085294D01*
X88395843Y-218195843D01*
X88285294Y-218286568D01*
X88159175Y-218353980D01*
X88159172Y-218353981D01*
X88022321Y-218395495D01*
X87951213Y-218402498D01*
X87915660Y-218406000D01*
X87494340Y-218406000D01*
X87458787Y-218402498D01*
X87387679Y-218395495D01*
X87250828Y-218353981D01*
X87250825Y-218353980D01*
X87124706Y-218286568D01*
X87014157Y-218195843D01*
X86923432Y-218085294D01*
X86856020Y-217959175D01*
X86829615Y-217872130D01*
X86814505Y-217822321D01*
X86800488Y-217680000D01*
X86814505Y-217537679D01*
X86856019Y-217400828D01*
X86856020Y-217400825D01*
X86923432Y-217274706D01*
X87014157Y-217164157D01*
X87124706Y-217073432D01*
X87250825Y-217006020D01*
X87250828Y-217006019D01*
X87387679Y-216964505D01*
X87458787Y-216957502D01*
X87494340Y-216954000D01*
X87915660Y-216954000D01*
X87951213Y-216957502D01*
X87951213Y-216957502D01*
G37*
G36*
X91022818Y-216777696D02*
G01*
X91136105Y-216812062D01*
X91240512Y-216867869D01*
X91332027Y-216942973D01*
X91407131Y-217034488D01*
X91462938Y-217138895D01*
X91497304Y-217252182D01*
X91508907Y-217370000D01*
X91497304Y-217487818D01*
X91462938Y-217601105D01*
X91407131Y-217705512D01*
X91332027Y-217797027D01*
X91240512Y-217872131D01*
X91136105Y-217927938D01*
X91022818Y-217962304D01*
X90934519Y-217971000D01*
X90475481Y-217971000D01*
X90387182Y-217962304D01*
X90273895Y-217927938D01*
X90169488Y-217872131D01*
X90077973Y-217797027D01*
X90002869Y-217705512D01*
X89947062Y-217601105D01*
X89912696Y-217487818D01*
X89901093Y-217370000D01*
X89912696Y-217252182D01*
X89947062Y-217138895D01*
X90002869Y-217034488D01*
X90077973Y-216942973D01*
X90169488Y-216867869D01*
X90273895Y-216812062D01*
X90387182Y-216777696D01*
X90475481Y-216769000D01*
X90934519Y-216769000D01*
X91022818Y-216777696D01*
X91022818Y-216777696D01*
G37*
G36*
X91022818Y-211937696D02*
G01*
X91136105Y-211972062D01*
X91240512Y-212027869D01*
X91332027Y-212102973D01*
X91407131Y-212194488D01*
X91462938Y-212298895D01*
X91497304Y-212412182D01*
X91508907Y-212530000D01*
X91497304Y-212647818D01*
X91462938Y-212761105D01*
X91407131Y-212865512D01*
X91332027Y-212957027D01*
X91240512Y-213032131D01*
X91136105Y-213087938D01*
X91022818Y-213122304D01*
X90934519Y-213131000D01*
X90475481Y-213131000D01*
X90387182Y-213122304D01*
X90273895Y-213087938D01*
X90169488Y-213032131D01*
X90077973Y-212957027D01*
X90002869Y-212865512D01*
X89947062Y-212761105D01*
X89912696Y-212647818D01*
X89901093Y-212530000D01*
X89912696Y-212412182D01*
X89947062Y-212298895D01*
X90002869Y-212194488D01*
X90077973Y-212102973D01*
X90169488Y-212027869D01*
X90273895Y-211972062D01*
X90387182Y-211937696D01*
X90475481Y-211929000D01*
X90934519Y-211929000D01*
X91022818Y-211937696D01*
X91022818Y-211937696D01*
G37*
G36*
X87951213Y-211497502D02*
G01*
X88022321Y-211504505D01*
X88159172Y-211546019D01*
X88159175Y-211546020D01*
X88285294Y-211613432D01*
X88395843Y-211704157D01*
X88486568Y-211814706D01*
X88553980Y-211940825D01*
X88553981Y-211940828D01*
X88595495Y-212077679D01*
X88609512Y-212220000D01*
X88595495Y-212362321D01*
X88580369Y-212412184D01*
X88553980Y-212499175D01*
X88486568Y-212625294D01*
X88395843Y-212735843D01*
X88285294Y-212826568D01*
X88159175Y-212893980D01*
X88159172Y-212893981D01*
X88022321Y-212935495D01*
X87951213Y-212942498D01*
X87915660Y-212946000D01*
X87494340Y-212946000D01*
X87458787Y-212942498D01*
X87387679Y-212935495D01*
X87250828Y-212893981D01*
X87250825Y-212893980D01*
X87124706Y-212826568D01*
X87014157Y-212735843D01*
X86923432Y-212625294D01*
X86856020Y-212499175D01*
X86829631Y-212412184D01*
X86814505Y-212362321D01*
X86800488Y-212220000D01*
X86814505Y-212077679D01*
X86856019Y-211940828D01*
X86856020Y-211940825D01*
X86923432Y-211814706D01*
X87014157Y-211704157D01*
X87124706Y-211613432D01*
X87250825Y-211546020D01*
X87250828Y-211546019D01*
X87387679Y-211504505D01*
X87458787Y-211497502D01*
X87494340Y-211494000D01*
X87915660Y-211494000D01*
X87951213Y-211497502D01*
X87951213Y-211497502D01*
G37*
G36*
X198347320Y-198354505D02*
G01*
X198484171Y-198396019D01*
X198484174Y-198396020D01*
X198610293Y-198463432D01*
X198720843Y-198554158D01*
X198811568Y-198664706D01*
X198878980Y-198790825D01*
X198878980Y-198790826D01*
X198878981Y-198790828D01*
X198920495Y-198927679D01*
X198931000Y-199034341D01*
X198931000Y-199455658D01*
X198920495Y-199562320D01*
X198889783Y-199663564D01*
X198878980Y-199699176D01*
X198811568Y-199825294D01*
X198720843Y-199935843D01*
X198610294Y-200026568D01*
X198484175Y-200093980D01*
X198484172Y-200093981D01*
X198347321Y-200135495D01*
X198205000Y-200149512D01*
X198062680Y-200135495D01*
X197925829Y-200093981D01*
X197925826Y-200093980D01*
X197799707Y-200026568D01*
X197689158Y-199935843D01*
X197598432Y-199825294D01*
X197531020Y-199699175D01*
X197531019Y-199699172D01*
X197489505Y-199562321D01*
X197479000Y-199455659D01*
X197479000Y-199034342D01*
X197489505Y-198927680D01*
X197531019Y-198790829D01*
X197531020Y-198790826D01*
X197598432Y-198664707D01*
X197689158Y-198554157D01*
X197799706Y-198463432D01*
X197925825Y-198396020D01*
X197925828Y-198396019D01*
X198062679Y-198354505D01*
X198205000Y-198340488D01*
X198347320Y-198354505D01*
X198347320Y-198354505D01*
G37*
G36*
X192887320Y-198354505D02*
G01*
X193024171Y-198396019D01*
X193024174Y-198396020D01*
X193150293Y-198463432D01*
X193260843Y-198554158D01*
X193351568Y-198664706D01*
X193418980Y-198790825D01*
X193418980Y-198790826D01*
X193418981Y-198790828D01*
X193460495Y-198927679D01*
X193471000Y-199034341D01*
X193471000Y-199455658D01*
X193460495Y-199562320D01*
X193429783Y-199663564D01*
X193418980Y-199699176D01*
X193351568Y-199825294D01*
X193260843Y-199935843D01*
X193150294Y-200026568D01*
X193024175Y-200093980D01*
X193024172Y-200093981D01*
X192887321Y-200135495D01*
X192745000Y-200149512D01*
X192602680Y-200135495D01*
X192465829Y-200093981D01*
X192465826Y-200093980D01*
X192339707Y-200026568D01*
X192229158Y-199935843D01*
X192138432Y-199825294D01*
X192071020Y-199699175D01*
X192071019Y-199699172D01*
X192029505Y-199562321D01*
X192019000Y-199455659D01*
X192019000Y-199034342D01*
X192029505Y-198927680D01*
X192071019Y-198790829D01*
X192071020Y-198790826D01*
X192138432Y-198664707D01*
X192229158Y-198554157D01*
X192339706Y-198463432D01*
X192465825Y-198396020D01*
X192465828Y-198396019D01*
X192602679Y-198354505D01*
X192745000Y-198340488D01*
X192887320Y-198354505D01*
X192887320Y-198354505D01*
G37*
G36*
X281346189Y-192710483D02*
G01*
X281346192Y-192710484D01*
X281346191Y-192710484D01*
X281874139Y-192929167D01*
X282349280Y-193246646D01*
X282753354Y-193650720D01*
X283070833Y-194125861D01*
X283070834Y-194125863D01*
X283289517Y-194653811D01*
X283401000Y-195214275D01*
X283401000Y-195785725D01*
X283289517Y-196346189D01*
X283199787Y-196562816D01*
X283070833Y-196874139D01*
X282753354Y-197349280D01*
X282349280Y-197753354D01*
X281874139Y-198070833D01*
X281874138Y-198070834D01*
X281874137Y-198070834D01*
X281346189Y-198289517D01*
X280785725Y-198401000D01*
X280214275Y-198401000D01*
X279653811Y-198289517D01*
X279125863Y-198070834D01*
X279125862Y-198070834D01*
X279125861Y-198070833D01*
X278650720Y-197753354D01*
X278246646Y-197349280D01*
X277929167Y-196874139D01*
X277800213Y-196562816D01*
X277710483Y-196346189D01*
X277599000Y-195785725D01*
X277599000Y-195214275D01*
X277710483Y-194653811D01*
X277929166Y-194125863D01*
X277929167Y-194125861D01*
X278246646Y-193650720D01*
X278650720Y-193246646D01*
X279125861Y-192929167D01*
X279653809Y-192710484D01*
X279653808Y-192710484D01*
X279653811Y-192710483D01*
X280214275Y-192599000D01*
X280785725Y-192599000D01*
X281346189Y-192710483D01*
X281346189Y-192710483D01*
G37*
G36*
X111346189Y-192710483D02*
G01*
X111346192Y-192710484D01*
X111346191Y-192710484D01*
X111874139Y-192929167D01*
X112349280Y-193246646D01*
X112753354Y-193650720D01*
X113070833Y-194125861D01*
X113070834Y-194125863D01*
X113289517Y-194653811D01*
X113401000Y-195214275D01*
X113401000Y-195785725D01*
X113289517Y-196346189D01*
X113199787Y-196562816D01*
X113070833Y-196874139D01*
X112753354Y-197349280D01*
X112349280Y-197753354D01*
X111874139Y-198070833D01*
X111874138Y-198070834D01*
X111874137Y-198070834D01*
X111346189Y-198289517D01*
X110785725Y-198401000D01*
X110214275Y-198401000D01*
X109653811Y-198289517D01*
X109125863Y-198070834D01*
X109125862Y-198070834D01*
X109125861Y-198070833D01*
X108650720Y-197753354D01*
X108246646Y-197349280D01*
X107929167Y-196874139D01*
X107800213Y-196562816D01*
X107710483Y-196346189D01*
X107599000Y-195785725D01*
X107599000Y-195214275D01*
X107710483Y-194653811D01*
X107929166Y-194125863D01*
X107929167Y-194125861D01*
X108246646Y-193650720D01*
X108650720Y-193246646D01*
X109125861Y-192929167D01*
X109653809Y-192710484D01*
X109653808Y-192710484D01*
X109653811Y-192710483D01*
X110214275Y-192599000D01*
X110785725Y-192599000D01*
X111346189Y-192710483D01*
X111346189Y-192710483D01*
G37*
G36*
X89425740Y-197228626D02*
G01*
X89474136Y-197238253D01*
X89511902Y-197253896D01*
X89565311Y-197276019D01*
X89565312Y-197276020D01*
X89647369Y-197330848D01*
X89717152Y-197400631D01*
X89717153Y-197400633D01*
X89771981Y-197482689D01*
X89809747Y-197573865D01*
X89829000Y-197670655D01*
X89829000Y-197769345D01*
X89809747Y-197866135D01*
X89771981Y-197957311D01*
X89771980Y-197957312D01*
X89717152Y-198039369D01*
X89647369Y-198109152D01*
X89606062Y-198136752D01*
X89565311Y-198163981D01*
X89511902Y-198186104D01*
X89474136Y-198201747D01*
X89425740Y-198211373D01*
X89377345Y-198221000D01*
X89278655Y-198221000D01*
X89230260Y-198211373D01*
X89181864Y-198201747D01*
X89144098Y-198186104D01*
X89090689Y-198163981D01*
X89049938Y-198136752D01*
X89008631Y-198109152D01*
X88938848Y-198039369D01*
X88884020Y-197957312D01*
X88884019Y-197957311D01*
X88846253Y-197866135D01*
X88827000Y-197769345D01*
X88827000Y-197670655D01*
X88846253Y-197573865D01*
X88884019Y-197482689D01*
X88938847Y-197400633D01*
X88938848Y-197400631D01*
X89008631Y-197330848D01*
X89090688Y-197276020D01*
X89090689Y-197276019D01*
X89144098Y-197253896D01*
X89181864Y-197238253D01*
X89230260Y-197228627D01*
X89278655Y-197219000D01*
X89377345Y-197219000D01*
X89425740Y-197228626D01*
X89425740Y-197228626D01*
G37*
G36*
X198012817Y-195452696D02*
G01*
X198126104Y-195487062D01*
X198230511Y-195542869D01*
X198230513Y-195542870D01*
X198230512Y-195542870D01*
X198322027Y-195617973D01*
X198385711Y-195695572D01*
X198397131Y-195709488D01*
X198452938Y-195813895D01*
X198487304Y-195927182D01*
X198496000Y-196015481D01*
X198496000Y-196474518D01*
X198487304Y-196562818D01*
X198452938Y-196676105D01*
X198397131Y-196780512D01*
X198322027Y-196872027D01*
X198230512Y-196947131D01*
X198126105Y-197002938D01*
X198012818Y-197037304D01*
X197895000Y-197048907D01*
X197777183Y-197037304D01*
X197663896Y-197002938D01*
X197559489Y-196947131D01*
X197467974Y-196872027D01*
X197392869Y-196780512D01*
X197337062Y-196676105D01*
X197302696Y-196562818D01*
X197294000Y-196474519D01*
X197294000Y-196015482D01*
X197302696Y-195927183D01*
X197337062Y-195813896D01*
X197392869Y-195709489D01*
X197406338Y-195693077D01*
X197467973Y-195617973D01*
X197559487Y-195542870D01*
X197559486Y-195542870D01*
X197559488Y-195542869D01*
X197663895Y-195487062D01*
X197777182Y-195452696D01*
X197895000Y-195441093D01*
X198012817Y-195452696D01*
X198012817Y-195452696D01*
G37*
G36*
X193172817Y-195452696D02*
G01*
X193286104Y-195487062D01*
X193390511Y-195542869D01*
X193390513Y-195542870D01*
X193390512Y-195542870D01*
X193482027Y-195617973D01*
X193545711Y-195695572D01*
X193557131Y-195709488D01*
X193612938Y-195813895D01*
X193647304Y-195927182D01*
X193656000Y-196015481D01*
X193656000Y-196474518D01*
X193647304Y-196562818D01*
X193612938Y-196676105D01*
X193557131Y-196780512D01*
X193482027Y-196872027D01*
X193390512Y-196947131D01*
X193286105Y-197002938D01*
X193172818Y-197037304D01*
X193055000Y-197048907D01*
X192937183Y-197037304D01*
X192823896Y-197002938D01*
X192719489Y-196947131D01*
X192627974Y-196872027D01*
X192552869Y-196780512D01*
X192497062Y-196676105D01*
X192462696Y-196562818D01*
X192454000Y-196474519D01*
X192454000Y-196015482D01*
X192462696Y-195927183D01*
X192497062Y-195813896D01*
X192552869Y-195709489D01*
X192566338Y-195693077D01*
X192627973Y-195617973D01*
X192719487Y-195542870D01*
X192719486Y-195542870D01*
X192719488Y-195542869D01*
X192823895Y-195487062D01*
X192937182Y-195452696D01*
X193055000Y-195441093D01*
X193172817Y-195452696D01*
X193172817Y-195452696D01*
G37*
G36*
X89425740Y-190428627D02*
G01*
X89474136Y-190438253D01*
X89511902Y-190453896D01*
X89565311Y-190476019D01*
X89565312Y-190476020D01*
X89647369Y-190530848D01*
X89717152Y-190600631D01*
X89717153Y-190600633D01*
X89771981Y-190682689D01*
X89809747Y-190773865D01*
X89829000Y-190870655D01*
X89829000Y-190969345D01*
X89809747Y-191066135D01*
X89771981Y-191157311D01*
X89771980Y-191157312D01*
X89717152Y-191239369D01*
X89647369Y-191309152D01*
X89606062Y-191336752D01*
X89565311Y-191363981D01*
X89511902Y-191386104D01*
X89474136Y-191401747D01*
X89425740Y-191411373D01*
X89377345Y-191421000D01*
X89278655Y-191421000D01*
X89230260Y-191411373D01*
X89181864Y-191401747D01*
X89144098Y-191386104D01*
X89090689Y-191363981D01*
X89049938Y-191336752D01*
X89008631Y-191309152D01*
X88938848Y-191239369D01*
X88884020Y-191157312D01*
X88884019Y-191157311D01*
X88846253Y-191066135D01*
X88827000Y-190969345D01*
X88827000Y-190870655D01*
X88846253Y-190773865D01*
X88884019Y-190682689D01*
X88938847Y-190600633D01*
X88938848Y-190600631D01*
X89008631Y-190530848D01*
X89090688Y-190476020D01*
X89090689Y-190476019D01*
X89144098Y-190453896D01*
X89181864Y-190438253D01*
X89230260Y-190428627D01*
X89278655Y-190419000D01*
X89377345Y-190419000D01*
X89425740Y-190428627D01*
X89425740Y-190428627D01*
G37*
G36*
X96550442Y-183265518D02*
G01*
X96616627Y-183272037D01*
X96786466Y-183323557D01*
X96942991Y-183407222D01*
X96978729Y-183436552D01*
X97080186Y-183519814D01*
X97163448Y-183621271D01*
X97192778Y-183657009D01*
X97276443Y-183813534D01*
X97327963Y-183983373D01*
X97345359Y-184160000D01*
X97327963Y-184336627D01*
X97276443Y-184506466D01*
X97192778Y-184662991D01*
X97163448Y-184698729D01*
X97080186Y-184800186D01*
X96978729Y-184883448D01*
X96942991Y-184912778D01*
X96786466Y-184996443D01*
X96616627Y-185047963D01*
X96550443Y-185054481D01*
X96484260Y-185061000D01*
X96395740Y-185061000D01*
X96329557Y-185054481D01*
X96263373Y-185047963D01*
X96093534Y-184996443D01*
X95937009Y-184912778D01*
X95901271Y-184883448D01*
X95799814Y-184800186D01*
X95716552Y-184698729D01*
X95687222Y-184662991D01*
X95603557Y-184506466D01*
X95552037Y-184336627D01*
X95534641Y-184160000D01*
X95552037Y-183983373D01*
X95603557Y-183813534D01*
X95687222Y-183657009D01*
X95716552Y-183621271D01*
X95799814Y-183519814D01*
X95901271Y-183436552D01*
X95937009Y-183407222D01*
X96093534Y-183323557D01*
X96263373Y-183272037D01*
X96329558Y-183265518D01*
X96395740Y-183259000D01*
X96484260Y-183259000D01*
X96550442Y-183265518D01*
X96550442Y-183265518D01*
G37*
G36*
X104170442Y-183265518D02*
G01*
X104236627Y-183272037D01*
X104406466Y-183323557D01*
X104562991Y-183407222D01*
X104598729Y-183436552D01*
X104700186Y-183519814D01*
X104783448Y-183621271D01*
X104812778Y-183657009D01*
X104896443Y-183813534D01*
X104947963Y-183983373D01*
X104965359Y-184160000D01*
X104947963Y-184336627D01*
X104896443Y-184506466D01*
X104812778Y-184662991D01*
X104783448Y-184698729D01*
X104700186Y-184800186D01*
X104598729Y-184883448D01*
X104562991Y-184912778D01*
X104406466Y-184996443D01*
X104236627Y-185047963D01*
X104170443Y-185054481D01*
X104104260Y-185061000D01*
X104015740Y-185061000D01*
X103949557Y-185054481D01*
X103883373Y-185047963D01*
X103713534Y-184996443D01*
X103557009Y-184912778D01*
X103521271Y-184883448D01*
X103419814Y-184800186D01*
X103336552Y-184698729D01*
X103307222Y-184662991D01*
X103223557Y-184506466D01*
X103172037Y-184336627D01*
X103154641Y-184160000D01*
X103172037Y-183983373D01*
X103223557Y-183813534D01*
X103307222Y-183657009D01*
X103336552Y-183621271D01*
X103419814Y-183519814D01*
X103521271Y-183436552D01*
X103557009Y-183407222D01*
X103713534Y-183323557D01*
X103883373Y-183272037D01*
X103949558Y-183265518D01*
X104015740Y-183259000D01*
X104104260Y-183259000D01*
X104170442Y-183265518D01*
X104170442Y-183265518D01*
G37*
G36*
X101630442Y-183265518D02*
G01*
X101696627Y-183272037D01*
X101866466Y-183323557D01*
X102022991Y-183407222D01*
X102058729Y-183436552D01*
X102160186Y-183519814D01*
X102243448Y-183621271D01*
X102272778Y-183657009D01*
X102356443Y-183813534D01*
X102407963Y-183983373D01*
X102425359Y-184160000D01*
X102407963Y-184336627D01*
X102356443Y-184506466D01*
X102272778Y-184662991D01*
X102243448Y-184698729D01*
X102160186Y-184800186D01*
X102058729Y-184883448D01*
X102022991Y-184912778D01*
X101866466Y-184996443D01*
X101696627Y-185047963D01*
X101630443Y-185054481D01*
X101564260Y-185061000D01*
X101475740Y-185061000D01*
X101409557Y-185054481D01*
X101343373Y-185047963D01*
X101173534Y-184996443D01*
X101017009Y-184912778D01*
X100981271Y-184883448D01*
X100879814Y-184800186D01*
X100796552Y-184698729D01*
X100767222Y-184662991D01*
X100683557Y-184506466D01*
X100632037Y-184336627D01*
X100614641Y-184160000D01*
X100632037Y-183983373D01*
X100683557Y-183813534D01*
X100767222Y-183657009D01*
X100796552Y-183621271D01*
X100879814Y-183519814D01*
X100981271Y-183436552D01*
X101017009Y-183407222D01*
X101173534Y-183323557D01*
X101343373Y-183272037D01*
X101409558Y-183265518D01*
X101475740Y-183259000D01*
X101564260Y-183259000D01*
X101630442Y-183265518D01*
X101630442Y-183265518D01*
G37*
G36*
X99090442Y-183265518D02*
G01*
X99156627Y-183272037D01*
X99326466Y-183323557D01*
X99482991Y-183407222D01*
X99518729Y-183436552D01*
X99620186Y-183519814D01*
X99703448Y-183621271D01*
X99732778Y-183657009D01*
X99816443Y-183813534D01*
X99867963Y-183983373D01*
X99885359Y-184160000D01*
X99867963Y-184336627D01*
X99816443Y-184506466D01*
X99732778Y-184662991D01*
X99703448Y-184698729D01*
X99620186Y-184800186D01*
X99518729Y-184883448D01*
X99482991Y-184912778D01*
X99326466Y-184996443D01*
X99156627Y-185047963D01*
X99090443Y-185054481D01*
X99024260Y-185061000D01*
X98935740Y-185061000D01*
X98869557Y-185054481D01*
X98803373Y-185047963D01*
X98633534Y-184996443D01*
X98477009Y-184912778D01*
X98441271Y-184883448D01*
X98339814Y-184800186D01*
X98256552Y-184698729D01*
X98227222Y-184662991D01*
X98143557Y-184506466D01*
X98092037Y-184336627D01*
X98074641Y-184160000D01*
X98092037Y-183983373D01*
X98143557Y-183813534D01*
X98227222Y-183657009D01*
X98256552Y-183621271D01*
X98339814Y-183519814D01*
X98441271Y-183436552D01*
X98477009Y-183407222D01*
X98633534Y-183323557D01*
X98803373Y-183272037D01*
X98869558Y-183265518D01*
X98935740Y-183259000D01*
X99024260Y-183259000D01*
X99090442Y-183265518D01*
X99090442Y-183265518D01*
G37*
G36*
X94010442Y-183265518D02*
G01*
X94076627Y-183272037D01*
X94246466Y-183323557D01*
X94402991Y-183407222D01*
X94438729Y-183436552D01*
X94540186Y-183519814D01*
X94623448Y-183621271D01*
X94652778Y-183657009D01*
X94736443Y-183813534D01*
X94787963Y-183983373D01*
X94805359Y-184160000D01*
X94787963Y-184336627D01*
X94736443Y-184506466D01*
X94652778Y-184662991D01*
X94623448Y-184698729D01*
X94540186Y-184800186D01*
X94438729Y-184883448D01*
X94402991Y-184912778D01*
X94246466Y-184996443D01*
X94076627Y-185047963D01*
X94010443Y-185054481D01*
X93944260Y-185061000D01*
X93855740Y-185061000D01*
X93789557Y-185054481D01*
X93723373Y-185047963D01*
X93553534Y-184996443D01*
X93397009Y-184912778D01*
X93361271Y-184883448D01*
X93259814Y-184800186D01*
X93176552Y-184698729D01*
X93147222Y-184662991D01*
X93063557Y-184506466D01*
X93012037Y-184336627D01*
X92994641Y-184160000D01*
X93012037Y-183983373D01*
X93063557Y-183813534D01*
X93147222Y-183657009D01*
X93176552Y-183621271D01*
X93259814Y-183519814D01*
X93361271Y-183436552D01*
X93397009Y-183407222D01*
X93553534Y-183323557D01*
X93723373Y-183272037D01*
X93789558Y-183265518D01*
X93855740Y-183259000D01*
X93944260Y-183259000D01*
X94010442Y-183265518D01*
X94010442Y-183265518D01*
G37*
G36*
X92261000Y-185061000D02*
G01*
X90459000Y-185061000D01*
X90459000Y-183259000D01*
X92261000Y-183259000D01*
X92261000Y-185061000D01*
X92261000Y-185061000D01*
G37*
G36*
X93513228Y-90631703D02*
G01*
X93668100Y-90695853D01*
X93807481Y-90788985D01*
X93926015Y-90907519D01*
X94019147Y-91046900D01*
X94083297Y-91201772D01*
X94116000Y-91366184D01*
X94116000Y-91533816D01*
X94083297Y-91698228D01*
X94019147Y-91853100D01*
X93926015Y-91992481D01*
X93807481Y-92111015D01*
X93668100Y-92204147D01*
X93513228Y-92268297D01*
X93348816Y-92301000D01*
X93181184Y-92301000D01*
X93016772Y-92268297D01*
X92861900Y-92204147D01*
X92722519Y-92111015D01*
X92603985Y-91992481D01*
X92510853Y-91853100D01*
X92446703Y-91698228D01*
X92414000Y-91533816D01*
X92414000Y-91366184D01*
X92446703Y-91201772D01*
X92510853Y-91046900D01*
X92603985Y-90907519D01*
X92722519Y-90788985D01*
X92861900Y-90695853D01*
X93016772Y-90631703D01*
X93181184Y-90599000D01*
X93348816Y-90599000D01*
X93513228Y-90631703D01*
X93513228Y-90631703D01*
G37*
G36*
X90973228Y-90631703D02*
G01*
X91128100Y-90695853D01*
X91267481Y-90788985D01*
X91386015Y-90907519D01*
X91479147Y-91046900D01*
X91543297Y-91201772D01*
X91576000Y-91366184D01*
X91576000Y-91533816D01*
X91543297Y-91698228D01*
X91479147Y-91853100D01*
X91386015Y-91992481D01*
X91267481Y-92111015D01*
X91128100Y-92204147D01*
X90973228Y-92268297D01*
X90808816Y-92301000D01*
X90641184Y-92301000D01*
X90476772Y-92268297D01*
X90321900Y-92204147D01*
X90182519Y-92111015D01*
X90063985Y-91992481D01*
X89970853Y-91853100D01*
X89906703Y-91698228D01*
X89874000Y-91533816D01*
X89874000Y-91366184D01*
X89906703Y-91201772D01*
X89970853Y-91046900D01*
X90063985Y-90907519D01*
X90182519Y-90788985D01*
X90321900Y-90695853D01*
X90476772Y-90631703D01*
X90641184Y-90599000D01*
X90808816Y-90599000D01*
X90973228Y-90631703D01*
X90973228Y-90631703D01*
G37*
G36*
X92228642Y-80519781D02*
G01*
X92374414Y-80580162D01*
X92374416Y-80580163D01*
X92505608Y-80667822D01*
X92617178Y-80779392D01*
X92704837Y-80910584D01*
X92704838Y-80910586D01*
X92765219Y-81056358D01*
X92796000Y-81211107D01*
X92796000Y-81368893D01*
X92765219Y-81523642D01*
X92704838Y-81669414D01*
X92704837Y-81669416D01*
X92617178Y-81800608D01*
X92505608Y-81912178D01*
X92374416Y-81999837D01*
X92374415Y-81999838D01*
X92374414Y-81999838D01*
X92228642Y-82060219D01*
X92073893Y-82091000D01*
X91916107Y-82091000D01*
X91761358Y-82060219D01*
X91615586Y-81999838D01*
X91615585Y-81999838D01*
X91615584Y-81999837D01*
X91484392Y-81912178D01*
X91372822Y-81800608D01*
X91285163Y-81669416D01*
X91285162Y-81669414D01*
X91224781Y-81523642D01*
X91194000Y-81368893D01*
X91194000Y-81211107D01*
X91224781Y-81056358D01*
X91285162Y-80910586D01*
X91285163Y-80910584D01*
X91372822Y-80779392D01*
X91484392Y-80667822D01*
X91615584Y-80580163D01*
X91615586Y-80580162D01*
X91761358Y-80519781D01*
X91916107Y-80489000D01*
X92073893Y-80489000D01*
X92228642Y-80519781D01*
X92228642Y-80519781D01*
G37*
G36*
X92228642Y-77979781D02*
G01*
X92374414Y-78040162D01*
X92374416Y-78040163D01*
X92505608Y-78127822D01*
X92617178Y-78239392D01*
X92704837Y-78370584D01*
X92704838Y-78370586D01*
X92765219Y-78516358D01*
X92796000Y-78671107D01*
X92796000Y-78828893D01*
X92765219Y-78983642D01*
X92704838Y-79129414D01*
X92704837Y-79129416D01*
X92617178Y-79260608D01*
X92505608Y-79372178D01*
X92374416Y-79459837D01*
X92374415Y-79459838D01*
X92374414Y-79459838D01*
X92228642Y-79520219D01*
X92073893Y-79551000D01*
X91916107Y-79551000D01*
X91761358Y-79520219D01*
X91615586Y-79459838D01*
X91615585Y-79459838D01*
X91615584Y-79459837D01*
X91484392Y-79372178D01*
X91372822Y-79260608D01*
X91285163Y-79129416D01*
X91285162Y-79129414D01*
X91224781Y-78983642D01*
X91194000Y-78828893D01*
X91194000Y-78671107D01*
X91224781Y-78516358D01*
X91285162Y-78370586D01*
X91285163Y-78370584D01*
X91372822Y-78239392D01*
X91484392Y-78127822D01*
X91615584Y-78040163D01*
X91615586Y-78040162D01*
X91761358Y-77979781D01*
X91916107Y-77949000D01*
X92073893Y-77949000D01*
X92228642Y-77979781D01*
X92228642Y-77979781D01*
G37*
G36*
X92228642Y-75439781D02*
G01*
X92374414Y-75500162D01*
X92374416Y-75500163D01*
X92505608Y-75587822D01*
X92617178Y-75699392D01*
X92704837Y-75830584D01*
X92704838Y-75830586D01*
X92765219Y-75976358D01*
X92796000Y-76131107D01*
X92796000Y-76288893D01*
X92765219Y-76443642D01*
X92704838Y-76589414D01*
X92704837Y-76589416D01*
X92617178Y-76720608D01*
X92505608Y-76832178D01*
X92374416Y-76919837D01*
X92374415Y-76919838D01*
X92374414Y-76919838D01*
X92228642Y-76980219D01*
X92073893Y-77011000D01*
X91916107Y-77011000D01*
X91761358Y-76980219D01*
X91615586Y-76919838D01*
X91615585Y-76919838D01*
X91615584Y-76919837D01*
X91484392Y-76832178D01*
X91372822Y-76720608D01*
X91285163Y-76589416D01*
X91285162Y-76589414D01*
X91224781Y-76443642D01*
X91194000Y-76288893D01*
X91194000Y-76131107D01*
X91224781Y-75976358D01*
X91285162Y-75830586D01*
X91285163Y-75830584D01*
X91372822Y-75699392D01*
X91484392Y-75587822D01*
X91615584Y-75500163D01*
X91615586Y-75500162D01*
X91761358Y-75439781D01*
X91916107Y-75409000D01*
X92073893Y-75409000D01*
X92228642Y-75439781D01*
X92228642Y-75439781D01*
G37*
G36*
X101786000Y-75841000D02*
G01*
X99984000Y-75841000D01*
X99984000Y-74039000D01*
X101786000Y-74039000D01*
X101786000Y-75841000D01*
X101786000Y-75841000D01*
G37*
G36*
X106075442Y-74045518D02*
G01*
X106141627Y-74052037D01*
X106311466Y-74103557D01*
X106467991Y-74187222D01*
X106503729Y-74216552D01*
X106605186Y-74299814D01*
X106688448Y-74401271D01*
X106717778Y-74437009D01*
X106801443Y-74593534D01*
X106852963Y-74763373D01*
X106870359Y-74940000D01*
X106852963Y-75116627D01*
X106801443Y-75286466D01*
X106717778Y-75442991D01*
X106688448Y-75478729D01*
X106605186Y-75580186D01*
X106503729Y-75663448D01*
X106467991Y-75692778D01*
X106311466Y-75776443D01*
X106141627Y-75827963D01*
X106075443Y-75834481D01*
X106009260Y-75841000D01*
X105920740Y-75841000D01*
X105854557Y-75834481D01*
X105788373Y-75827963D01*
X105618534Y-75776443D01*
X105462009Y-75692778D01*
X105426271Y-75663448D01*
X105324814Y-75580186D01*
X105241552Y-75478729D01*
X105212222Y-75442991D01*
X105128557Y-75286466D01*
X105077037Y-75116627D01*
X105059641Y-74940000D01*
X105077037Y-74763373D01*
X105128557Y-74593534D01*
X105212222Y-74437009D01*
X105241552Y-74401271D01*
X105324814Y-74299814D01*
X105426271Y-74216552D01*
X105462009Y-74187222D01*
X105618534Y-74103557D01*
X105788373Y-74052037D01*
X105854558Y-74045518D01*
X105920740Y-74039000D01*
X106009260Y-74039000D01*
X106075442Y-74045518D01*
X106075442Y-74045518D01*
G37*
G36*
X103535442Y-74045518D02*
G01*
X103601627Y-74052037D01*
X103771466Y-74103557D01*
X103927991Y-74187222D01*
X103963729Y-74216552D01*
X104065186Y-74299814D01*
X104148448Y-74401271D01*
X104177778Y-74437009D01*
X104261443Y-74593534D01*
X104312963Y-74763373D01*
X104330359Y-74940000D01*
X104312963Y-75116627D01*
X104261443Y-75286466D01*
X104177778Y-75442991D01*
X104148448Y-75478729D01*
X104065186Y-75580186D01*
X103963729Y-75663448D01*
X103927991Y-75692778D01*
X103771466Y-75776443D01*
X103601627Y-75827963D01*
X103535443Y-75834481D01*
X103469260Y-75841000D01*
X103380740Y-75841000D01*
X103314557Y-75834481D01*
X103248373Y-75827963D01*
X103078534Y-75776443D01*
X102922009Y-75692778D01*
X102886271Y-75663448D01*
X102784814Y-75580186D01*
X102701552Y-75478729D01*
X102672222Y-75442991D01*
X102588557Y-75286466D01*
X102537037Y-75116627D01*
X102519641Y-74940000D01*
X102537037Y-74763373D01*
X102588557Y-74593534D01*
X102672222Y-74437009D01*
X102701552Y-74401271D01*
X102784814Y-74299814D01*
X102886271Y-74216552D01*
X102922009Y-74187222D01*
X103078534Y-74103557D01*
X103248373Y-74052037D01*
X103314558Y-74045518D01*
X103380740Y-74039000D01*
X103469260Y-74039000D01*
X103535442Y-74045518D01*
X103535442Y-74045518D01*
G37*
G36*
X92796000Y-74471000D02*
G01*
X91194000Y-74471000D01*
X91194000Y-72869000D01*
X92796000Y-72869000D01*
X92796000Y-74471000D01*
X92796000Y-74471000D01*
G37*
G36*
X281346189Y-22710483D02*
G01*
X281346192Y-22710484D01*
X281346191Y-22710484D01*
X281874139Y-22929167D01*
X282349280Y-23246646D01*
X282753354Y-23650720D01*
X283070833Y-24125861D01*
X283070834Y-24125863D01*
X283289517Y-24653811D01*
X283401000Y-25214275D01*
X283401000Y-25785725D01*
X283289517Y-26346189D01*
X283289516Y-26346191D01*
X283070833Y-26874139D01*
X282753354Y-27349280D01*
X282349280Y-27753354D01*
X281874139Y-28070833D01*
X281874138Y-28070834D01*
X281874137Y-28070834D01*
X281346189Y-28289517D01*
X280785725Y-28401000D01*
X280214275Y-28401000D01*
X279653811Y-28289517D01*
X279125863Y-28070834D01*
X279125862Y-28070834D01*
X279125861Y-28070833D01*
X278650720Y-27753354D01*
X278246646Y-27349280D01*
X277929167Y-26874139D01*
X277710484Y-26346191D01*
X277710483Y-26346189D01*
X277599000Y-25785725D01*
X277599000Y-25214275D01*
X277710483Y-24653811D01*
X277929166Y-24125863D01*
X277929167Y-24125861D01*
X278246646Y-23650720D01*
X278650720Y-23246646D01*
X279125861Y-22929167D01*
X279653809Y-22710484D01*
X279653808Y-22710484D01*
X279653811Y-22710483D01*
X280214275Y-22599000D01*
X280785725Y-22599000D01*
X281346189Y-22710483D01*
X281346189Y-22710483D01*
G37*
G36*
X111346189Y-22710483D02*
G01*
X111346192Y-22710484D01*
X111346191Y-22710484D01*
X111874139Y-22929167D01*
X112349280Y-23246646D01*
X112753354Y-23650720D01*
X113070833Y-24125861D01*
X113070834Y-24125863D01*
X113289517Y-24653811D01*
X113401000Y-25214275D01*
X113401000Y-25785725D01*
X113289517Y-26346189D01*
X113289516Y-26346191D01*
X113070833Y-26874139D01*
X112753354Y-27349280D01*
X112349280Y-27753354D01*
X111874139Y-28070833D01*
X111874138Y-28070834D01*
X111874137Y-28070834D01*
X111346189Y-28289517D01*
X110785725Y-28401000D01*
X110214275Y-28401000D01*
X109653811Y-28289517D01*
X109125863Y-28070834D01*
X109125862Y-28070834D01*
X109125861Y-28070833D01*
X108650720Y-27753354D01*
X108246646Y-27349280D01*
X107929167Y-26874139D01*
X107710484Y-26346191D01*
X107710483Y-26346189D01*
X107599000Y-25785725D01*
X107599000Y-25214275D01*
X107710483Y-24653811D01*
X107929166Y-24125863D01*
X107929167Y-24125861D01*
X108246646Y-23650720D01*
X108650720Y-23246646D01*
X109125861Y-22929167D01*
X109653809Y-22710484D01*
X109653808Y-22710484D01*
X109653811Y-22710483D01*
X110214275Y-22599000D01*
X110785725Y-22599000D01*
X111346189Y-22710483D01*
X111346189Y-22710483D01*
G37*
M02*
