G04 #@! TF.GenerationSoftware,KiCad,Pcbnew,5.1.4-3.fc31*
G04 #@! TF.CreationDate,2019-12-02T16:48:44+01:00*
G04 #@! TF.ProjectId,WordclockPCB,576f7264-636c-46f6-936b-5043422e6b69,rev?*
G04 #@! TF.SameCoordinates,Original*
G04 #@! TF.FileFunction,Legend,Top*
G04 #@! TF.FilePolarity,Positive*
%FSLAX46Y46*%
G04 Gerber Fmt 4.6, Leading zero omitted, Abs format (unit mm)*
G04 Created by KiCad (PCBNEW 5.1.4-3.fc31) date 2019-12-02 16:48:44*
%MOMM*%
%LPD*%
G04 APERTURE LIST*
%ADD10C,0.150000*%
%ADD11C,0.120000*%
%ADD12C,0.050000*%
G04 APERTURE END LIST*
D10*
X104068095Y-202662380D02*
X104068095Y-203471904D01*
X104115714Y-203567142D01*
X104163333Y-203614761D01*
X104258571Y-203662380D01*
X104449047Y-203662380D01*
X104544285Y-203614761D01*
X104591904Y-203567142D01*
X104639523Y-203471904D01*
X104639523Y-202662380D01*
X105068095Y-203614761D02*
X105210952Y-203662380D01*
X105449047Y-203662380D01*
X105544285Y-203614761D01*
X105591904Y-203567142D01*
X105639523Y-203471904D01*
X105639523Y-203376666D01*
X105591904Y-203281428D01*
X105544285Y-203233809D01*
X105449047Y-203186190D01*
X105258571Y-203138571D01*
X105163333Y-203090952D01*
X105115714Y-203043333D01*
X105068095Y-202948095D01*
X105068095Y-202852857D01*
X105115714Y-202757619D01*
X105163333Y-202710000D01*
X105258571Y-202662380D01*
X105496666Y-202662380D01*
X105639523Y-202710000D01*
X106401428Y-203138571D02*
X106544285Y-203186190D01*
X106591904Y-203233809D01*
X106639523Y-203329047D01*
X106639523Y-203471904D01*
X106591904Y-203567142D01*
X106544285Y-203614761D01*
X106449047Y-203662380D01*
X106068095Y-203662380D01*
X106068095Y-202662380D01*
X106401428Y-202662380D01*
X106496666Y-202710000D01*
X106544285Y-202757619D01*
X106591904Y-202852857D01*
X106591904Y-202948095D01*
X106544285Y-203043333D01*
X106496666Y-203090952D01*
X106401428Y-203138571D01*
X106068095Y-203138571D01*
X93566666Y-203138571D02*
X93709523Y-203186190D01*
X93757142Y-203233809D01*
X93804761Y-203329047D01*
X93804761Y-203471904D01*
X93757142Y-203567142D01*
X93709523Y-203614761D01*
X93614285Y-203662380D01*
X93233333Y-203662380D01*
X93233333Y-202662380D01*
X93566666Y-202662380D01*
X93661904Y-202710000D01*
X93709523Y-202757619D01*
X93757142Y-202852857D01*
X93757142Y-202948095D01*
X93709523Y-203043333D01*
X93661904Y-203090952D01*
X93566666Y-203138571D01*
X93233333Y-203138571D01*
X94709523Y-203662380D02*
X94233333Y-203662380D01*
X94233333Y-202662380D01*
X85732380Y-200352380D02*
X85732380Y-200161904D01*
X85780000Y-200066666D01*
X85875238Y-199971428D01*
X86065714Y-199923809D01*
X86399047Y-199923809D01*
X86589523Y-199971428D01*
X86684761Y-200066666D01*
X86732380Y-200161904D01*
X86732380Y-200352380D01*
X86684761Y-200447619D01*
X86589523Y-200542857D01*
X86399047Y-200590476D01*
X86065714Y-200590476D01*
X85875238Y-200542857D01*
X85780000Y-200447619D01*
X85732380Y-200352380D01*
X86208571Y-199161904D02*
X86208571Y-199495238D01*
X86732380Y-199495238D02*
X85732380Y-199495238D01*
X85732380Y-199019047D01*
X86208571Y-198304761D02*
X86208571Y-198638095D01*
X86732380Y-198638095D02*
X85732380Y-198638095D01*
X85732380Y-198161904D01*
X85732380Y-191129047D02*
X85732380Y-190938571D01*
X85780000Y-190843333D01*
X85875238Y-190748095D01*
X86065714Y-190700476D01*
X86399047Y-190700476D01*
X86589523Y-190748095D01*
X86684761Y-190843333D01*
X86732380Y-190938571D01*
X86732380Y-191129047D01*
X86684761Y-191224285D01*
X86589523Y-191319523D01*
X86399047Y-191367142D01*
X86065714Y-191367142D01*
X85875238Y-191319523D01*
X85780000Y-191224285D01*
X85732380Y-191129047D01*
X86732380Y-190271904D02*
X85732380Y-190271904D01*
X86732380Y-189700476D01*
X85732380Y-189700476D01*
D11*
X110500000Y-195500000D02*
X280500000Y-195500000D01*
X110500000Y-25500000D02*
X110500000Y-195500000D01*
X280500000Y-25500000D02*
X110500000Y-25500000D01*
X280500000Y-195500000D02*
X280500000Y-25500000D01*
D10*
X90275000Y-117300000D02*
X90500000Y-117300000D01*
X90275000Y-110050000D02*
X90600000Y-110050000D01*
X97525000Y-110050000D02*
X97200000Y-110050000D01*
X97525000Y-117300000D02*
X97200000Y-117300000D01*
X90275000Y-117300000D02*
X90275000Y-116975000D01*
X97525000Y-117300000D02*
X97525000Y-116975000D01*
X97525000Y-110050000D02*
X97525000Y-110375000D01*
X90275000Y-110050000D02*
X90275000Y-110375000D01*
X90500000Y-117300000D02*
X90500000Y-118725000D01*
D11*
X91685000Y-213650000D02*
X92135000Y-213250000D01*
X92135000Y-213250000D02*
X92135000Y-214050000D01*
X92135000Y-214050000D02*
X91685000Y-213650000D01*
X86085000Y-218800000D02*
X88885000Y-218800000D01*
X88885000Y-218800000D02*
X88885000Y-219100000D01*
X88885000Y-219100000D02*
X90435000Y-219100000D01*
X86085000Y-211100000D02*
X88885000Y-211100000D01*
X88885000Y-210800000D02*
X88885000Y-211100000D01*
X88885000Y-210800000D02*
X90435000Y-210800000D01*
X93523578Y-120585000D02*
X93006422Y-120585000D01*
X93523578Y-122005000D02*
X93006422Y-122005000D01*
X295120000Y-178821422D02*
X295120000Y-179338578D01*
X296540000Y-178821422D02*
X296540000Y-179338578D01*
X246558578Y-6920000D02*
X246041422Y-6920000D01*
X246558578Y-8340000D02*
X246041422Y-8340000D01*
X176788578Y-6920000D02*
X176271422Y-6920000D01*
X176788578Y-8340000D02*
X176271422Y-8340000D01*
X295120000Y-93731422D02*
X295120000Y-94248578D01*
X296540000Y-93731422D02*
X296540000Y-94248578D01*
X95730000Y-79761422D02*
X95730000Y-80278578D01*
X97150000Y-79761422D02*
X97150000Y-80278578D01*
X107310000Y-58688578D02*
X107310000Y-58171422D01*
X105890000Y-58688578D02*
X105890000Y-58171422D01*
X100080000Y-68118578D02*
X100080000Y-67601422D01*
X98660000Y-68118578D02*
X98660000Y-67601422D01*
X102595000Y-23830000D02*
X102595000Y-25437090D01*
X100710000Y-23830000D02*
X102595000Y-23830000D01*
X100710000Y-44770000D02*
X102595000Y-44770000D01*
X94710000Y-23830000D02*
X92825000Y-23830000D01*
X94710000Y-44770000D02*
X92825000Y-44770000D01*
X102595000Y-44770000D02*
X102595000Y-43162910D01*
X92825000Y-23830000D02*
X92825000Y-25437090D01*
X92825000Y-44770000D02*
X92825000Y-43162910D01*
X102595000Y-25437090D02*
G75*
G02X102595000Y-43162910I-4885000J-8862910D01*
G01*
X92828832Y-43165021D02*
G75*
G02X92825000Y-25437090I4881168J8865021D01*
G01*
X95428578Y-219160000D02*
X94911422Y-219160000D01*
X95428578Y-217740000D02*
X94911422Y-217740000D01*
X105016422Y-143385000D02*
X105533578Y-143385000D01*
X105016422Y-141965000D02*
X105533578Y-141965000D01*
X105016422Y-118470000D02*
X105533578Y-118470000D01*
X105016422Y-119890000D02*
X105533578Y-119890000D01*
X100508578Y-210120000D02*
X99991422Y-210120000D01*
X100508578Y-211540000D02*
X99991422Y-211540000D01*
X99991422Y-217740000D02*
X100508578Y-217740000D01*
X99991422Y-219160000D02*
X100508578Y-219160000D01*
X120600000Y-185415000D02*
X116540000Y-185415000D01*
X116540000Y-185415000D02*
X116540000Y-188585000D01*
X116540000Y-188585000D02*
X120600000Y-188585000D01*
X137600000Y-185415000D02*
X133540000Y-185415000D01*
X133540000Y-185415000D02*
X133540000Y-188585000D01*
X133540000Y-188585000D02*
X137600000Y-188585000D01*
X150540000Y-188585000D02*
X154600000Y-188585000D01*
X150540000Y-185415000D02*
X150540000Y-188585000D01*
X154600000Y-185415000D02*
X150540000Y-185415000D01*
X167540000Y-188585000D02*
X171600000Y-188585000D01*
X167540000Y-185415000D02*
X167540000Y-188585000D01*
X171600000Y-185415000D02*
X167540000Y-185415000D01*
X188600000Y-185415000D02*
X184540000Y-185415000D01*
X184540000Y-185415000D02*
X184540000Y-188585000D01*
X184540000Y-188585000D02*
X188600000Y-188585000D01*
X205600000Y-185415000D02*
X201540000Y-185415000D01*
X201540000Y-185415000D02*
X201540000Y-188585000D01*
X201540000Y-188585000D02*
X205600000Y-188585000D01*
X222600000Y-185415000D02*
X218540000Y-185415000D01*
X218540000Y-185415000D02*
X218540000Y-188585000D01*
X218540000Y-188585000D02*
X222600000Y-188585000D01*
X239600000Y-185415000D02*
X235540000Y-185415000D01*
X235540000Y-185415000D02*
X235540000Y-188585000D01*
X235540000Y-188585000D02*
X239600000Y-188585000D01*
X252540000Y-188585000D02*
X256600000Y-188585000D01*
X252540000Y-185415000D02*
X252540000Y-188585000D01*
X256600000Y-185415000D02*
X252540000Y-185415000D01*
X269540000Y-188585000D02*
X273600000Y-188585000D01*
X269540000Y-185415000D02*
X269540000Y-188585000D01*
X273600000Y-185415000D02*
X269540000Y-185415000D01*
X116540000Y-171585000D02*
X120600000Y-171585000D01*
X116540000Y-168415000D02*
X116540000Y-171585000D01*
X120600000Y-168415000D02*
X116540000Y-168415000D01*
X133540000Y-171585000D02*
X137600000Y-171585000D01*
X133540000Y-168415000D02*
X133540000Y-171585000D01*
X137600000Y-168415000D02*
X133540000Y-168415000D01*
X154600000Y-168415000D02*
X150540000Y-168415000D01*
X150540000Y-168415000D02*
X150540000Y-171585000D01*
X150540000Y-171585000D02*
X154600000Y-171585000D01*
X171600000Y-168415000D02*
X167540000Y-168415000D01*
X167540000Y-168415000D02*
X167540000Y-171585000D01*
X167540000Y-171585000D02*
X171600000Y-171585000D01*
X184540000Y-171585000D02*
X188600000Y-171585000D01*
X184540000Y-168415000D02*
X184540000Y-171585000D01*
X188600000Y-168415000D02*
X184540000Y-168415000D01*
X201540000Y-171585000D02*
X205600000Y-171585000D01*
X201540000Y-168415000D02*
X201540000Y-171585000D01*
X205600000Y-168415000D02*
X201540000Y-168415000D01*
X218540000Y-171585000D02*
X222600000Y-171585000D01*
X218540000Y-168415000D02*
X218540000Y-171585000D01*
X222600000Y-168415000D02*
X218540000Y-168415000D01*
X235540000Y-171585000D02*
X239600000Y-171585000D01*
X235540000Y-168415000D02*
X235540000Y-171585000D01*
X239600000Y-168415000D02*
X235540000Y-168415000D01*
X256600000Y-168415000D02*
X252540000Y-168415000D01*
X252540000Y-168415000D02*
X252540000Y-171585000D01*
X252540000Y-171585000D02*
X256600000Y-171585000D01*
X273600000Y-168415000D02*
X269540000Y-168415000D01*
X269540000Y-168415000D02*
X269540000Y-171585000D01*
X269540000Y-171585000D02*
X273600000Y-171585000D01*
X120600000Y-151415000D02*
X116540000Y-151415000D01*
X116540000Y-151415000D02*
X116540000Y-154585000D01*
X116540000Y-154585000D02*
X120600000Y-154585000D01*
X137600000Y-151415000D02*
X133540000Y-151415000D01*
X133540000Y-151415000D02*
X133540000Y-154585000D01*
X133540000Y-154585000D02*
X137600000Y-154585000D01*
X150540000Y-154585000D02*
X154600000Y-154585000D01*
X150540000Y-151415000D02*
X150540000Y-154585000D01*
X154600000Y-151415000D02*
X150540000Y-151415000D01*
X171600000Y-151415000D02*
X167540000Y-151415000D01*
X167540000Y-151415000D02*
X167540000Y-154585000D01*
X167540000Y-154585000D02*
X171600000Y-154585000D01*
X188600000Y-151415000D02*
X184540000Y-151415000D01*
X184540000Y-151415000D02*
X184540000Y-154585000D01*
X184540000Y-154585000D02*
X188600000Y-154585000D01*
X205600000Y-151415000D02*
X201540000Y-151415000D01*
X201540000Y-151415000D02*
X201540000Y-154585000D01*
X201540000Y-154585000D02*
X205600000Y-154585000D01*
X222600000Y-151415000D02*
X218540000Y-151415000D01*
X218540000Y-151415000D02*
X218540000Y-154585000D01*
X218540000Y-154585000D02*
X222600000Y-154585000D01*
X235540000Y-154585000D02*
X239600000Y-154585000D01*
X235540000Y-151415000D02*
X235540000Y-154585000D01*
X239600000Y-151415000D02*
X235540000Y-151415000D01*
X252540000Y-154585000D02*
X256600000Y-154585000D01*
X252540000Y-151415000D02*
X252540000Y-154585000D01*
X256600000Y-151415000D02*
X252540000Y-151415000D01*
X269540000Y-154585000D02*
X273600000Y-154585000D01*
X269540000Y-151415000D02*
X269540000Y-154585000D01*
X273600000Y-151415000D02*
X269540000Y-151415000D01*
X116540000Y-137585000D02*
X120600000Y-137585000D01*
X116540000Y-134415000D02*
X116540000Y-137585000D01*
X120600000Y-134415000D02*
X116540000Y-134415000D01*
X133540000Y-137585000D02*
X137600000Y-137585000D01*
X133540000Y-134415000D02*
X133540000Y-137585000D01*
X137600000Y-134415000D02*
X133540000Y-134415000D01*
X154600000Y-134415000D02*
X150540000Y-134415000D01*
X150540000Y-134415000D02*
X150540000Y-137585000D01*
X150540000Y-137585000D02*
X154600000Y-137585000D01*
X167540000Y-137585000D02*
X171600000Y-137585000D01*
X167540000Y-134415000D02*
X167540000Y-137585000D01*
X171600000Y-134415000D02*
X167540000Y-134415000D01*
X184540000Y-137585000D02*
X188600000Y-137585000D01*
X184540000Y-134415000D02*
X184540000Y-137585000D01*
X188600000Y-134415000D02*
X184540000Y-134415000D01*
X201540000Y-137585000D02*
X205600000Y-137585000D01*
X201540000Y-134415000D02*
X201540000Y-137585000D01*
X205600000Y-134415000D02*
X201540000Y-134415000D01*
X218540000Y-137585000D02*
X222600000Y-137585000D01*
X218540000Y-134415000D02*
X218540000Y-137585000D01*
X222600000Y-134415000D02*
X218540000Y-134415000D01*
X239600000Y-134415000D02*
X235540000Y-134415000D01*
X235540000Y-134415000D02*
X235540000Y-137585000D01*
X235540000Y-137585000D02*
X239600000Y-137585000D01*
X256600000Y-134415000D02*
X252540000Y-134415000D01*
X252540000Y-134415000D02*
X252540000Y-137585000D01*
X252540000Y-137585000D02*
X256600000Y-137585000D01*
X273600000Y-134415000D02*
X269540000Y-134415000D01*
X269540000Y-134415000D02*
X269540000Y-137585000D01*
X269540000Y-137585000D02*
X273600000Y-137585000D01*
X120600000Y-117415000D02*
X116540000Y-117415000D01*
X116540000Y-117415000D02*
X116540000Y-120585000D01*
X116540000Y-120585000D02*
X120600000Y-120585000D01*
X137600000Y-117415000D02*
X133540000Y-117415000D01*
X133540000Y-117415000D02*
X133540000Y-120585000D01*
X133540000Y-120585000D02*
X137600000Y-120585000D01*
X154600000Y-117415000D02*
X150540000Y-117415000D01*
X150540000Y-117415000D02*
X150540000Y-120585000D01*
X150540000Y-120585000D02*
X154600000Y-120585000D01*
X171600000Y-117415000D02*
X167540000Y-117415000D01*
X167540000Y-117415000D02*
X167540000Y-120585000D01*
X167540000Y-120585000D02*
X171600000Y-120585000D01*
X184540000Y-120585000D02*
X188600000Y-120585000D01*
X184540000Y-117415000D02*
X184540000Y-120585000D01*
X188600000Y-117415000D02*
X184540000Y-117415000D01*
X205600000Y-117415000D02*
X201540000Y-117415000D01*
X201540000Y-117415000D02*
X201540000Y-120585000D01*
X201540000Y-120585000D02*
X205600000Y-120585000D01*
X218540000Y-120585000D02*
X222600000Y-120585000D01*
X218540000Y-117415000D02*
X218540000Y-120585000D01*
X222600000Y-117415000D02*
X218540000Y-117415000D01*
X239600000Y-117415000D02*
X235540000Y-117415000D01*
X235540000Y-117415000D02*
X235540000Y-120585000D01*
X235540000Y-120585000D02*
X239600000Y-120585000D01*
X252540000Y-120585000D02*
X256600000Y-120585000D01*
X252540000Y-117415000D02*
X252540000Y-120585000D01*
X256600000Y-117415000D02*
X252540000Y-117415000D01*
X269540000Y-120585000D02*
X273600000Y-120585000D01*
X269540000Y-117415000D02*
X269540000Y-120585000D01*
X273600000Y-117415000D02*
X269540000Y-117415000D01*
X116540000Y-103585000D02*
X120600000Y-103585000D01*
X116540000Y-100415000D02*
X116540000Y-103585000D01*
X120600000Y-100415000D02*
X116540000Y-100415000D01*
X133540000Y-103585000D02*
X137600000Y-103585000D01*
X133540000Y-100415000D02*
X133540000Y-103585000D01*
X137600000Y-100415000D02*
X133540000Y-100415000D01*
X154600000Y-100415000D02*
X150540000Y-100415000D01*
X150540000Y-100415000D02*
X150540000Y-103585000D01*
X150540000Y-103585000D02*
X154600000Y-103585000D01*
X167540000Y-103585000D02*
X171600000Y-103585000D01*
X167540000Y-100415000D02*
X167540000Y-103585000D01*
X171600000Y-100415000D02*
X167540000Y-100415000D01*
X184540000Y-103585000D02*
X188600000Y-103585000D01*
X184540000Y-100415000D02*
X184540000Y-103585000D01*
X188600000Y-100415000D02*
X184540000Y-100415000D01*
X201540000Y-103585000D02*
X205600000Y-103585000D01*
X201540000Y-100415000D02*
X201540000Y-103585000D01*
X205600000Y-100415000D02*
X201540000Y-100415000D01*
X222600000Y-100415000D02*
X218540000Y-100415000D01*
X218540000Y-100415000D02*
X218540000Y-103585000D01*
X218540000Y-103585000D02*
X222600000Y-103585000D01*
X239600000Y-100415000D02*
X235540000Y-100415000D01*
X235540000Y-100415000D02*
X235540000Y-103585000D01*
X235540000Y-103585000D02*
X239600000Y-103585000D01*
X256600000Y-100415000D02*
X252540000Y-100415000D01*
X252540000Y-100415000D02*
X252540000Y-103585000D01*
X252540000Y-103585000D02*
X256600000Y-103585000D01*
X273600000Y-100415000D02*
X269540000Y-100415000D01*
X269540000Y-100415000D02*
X269540000Y-103585000D01*
X269540000Y-103585000D02*
X273600000Y-103585000D01*
X120600000Y-83415000D02*
X116540000Y-83415000D01*
X116540000Y-83415000D02*
X116540000Y-86585000D01*
X116540000Y-86585000D02*
X120600000Y-86585000D01*
X133540000Y-86585000D02*
X137600000Y-86585000D01*
X133540000Y-83415000D02*
X133540000Y-86585000D01*
X137600000Y-83415000D02*
X133540000Y-83415000D01*
X150540000Y-86585000D02*
X154600000Y-86585000D01*
X150540000Y-83415000D02*
X150540000Y-86585000D01*
X154600000Y-83415000D02*
X150540000Y-83415000D01*
X171600000Y-83415000D02*
X167540000Y-83415000D01*
X167540000Y-83415000D02*
X167540000Y-86585000D01*
X167540000Y-86585000D02*
X171600000Y-86585000D01*
X188600000Y-83415000D02*
X184540000Y-83415000D01*
X184540000Y-83415000D02*
X184540000Y-86585000D01*
X184540000Y-86585000D02*
X188600000Y-86585000D01*
X205600000Y-83415000D02*
X201540000Y-83415000D01*
X201540000Y-83415000D02*
X201540000Y-86585000D01*
X201540000Y-86585000D02*
X205600000Y-86585000D01*
X222600000Y-83415000D02*
X218540000Y-83415000D01*
X218540000Y-83415000D02*
X218540000Y-86585000D01*
X218540000Y-86585000D02*
X222600000Y-86585000D01*
X235540000Y-86585000D02*
X239600000Y-86585000D01*
X235540000Y-83415000D02*
X235540000Y-86585000D01*
X239600000Y-83415000D02*
X235540000Y-83415000D01*
X252540000Y-86585000D02*
X256600000Y-86585000D01*
X252540000Y-83415000D02*
X252540000Y-86585000D01*
X256600000Y-83415000D02*
X252540000Y-83415000D01*
X269540000Y-86585000D02*
X273600000Y-86585000D01*
X269540000Y-83415000D02*
X269540000Y-86585000D01*
X273600000Y-83415000D02*
X269540000Y-83415000D01*
X116540000Y-69585000D02*
X120600000Y-69585000D01*
X116540000Y-66415000D02*
X116540000Y-69585000D01*
X120600000Y-66415000D02*
X116540000Y-66415000D01*
X137600000Y-66415000D02*
X133540000Y-66415000D01*
X133540000Y-66415000D02*
X133540000Y-69585000D01*
X133540000Y-69585000D02*
X137600000Y-69585000D01*
X154600000Y-66415000D02*
X150540000Y-66415000D01*
X150540000Y-66415000D02*
X150540000Y-69585000D01*
X150540000Y-69585000D02*
X154600000Y-69585000D01*
X167540000Y-69585000D02*
X171600000Y-69585000D01*
X167540000Y-66415000D02*
X167540000Y-69585000D01*
X171600000Y-66415000D02*
X167540000Y-66415000D01*
X184540000Y-69585000D02*
X188600000Y-69585000D01*
X184540000Y-66415000D02*
X184540000Y-69585000D01*
X188600000Y-66415000D02*
X184540000Y-66415000D01*
X201540000Y-69585000D02*
X205600000Y-69585000D01*
X201540000Y-66415000D02*
X201540000Y-69585000D01*
X205600000Y-66415000D02*
X201540000Y-66415000D01*
X218540000Y-69585000D02*
X222600000Y-69585000D01*
X218540000Y-66415000D02*
X218540000Y-69585000D01*
X222600000Y-66415000D02*
X218540000Y-66415000D01*
X239600000Y-66415000D02*
X235540000Y-66415000D01*
X235540000Y-66415000D02*
X235540000Y-69585000D01*
X235540000Y-69585000D02*
X239600000Y-69585000D01*
X256600000Y-66415000D02*
X252540000Y-66415000D01*
X252540000Y-66415000D02*
X252540000Y-69585000D01*
X252540000Y-69585000D02*
X256600000Y-69585000D01*
X269540000Y-69585000D02*
X273600000Y-69585000D01*
X269540000Y-66415000D02*
X269540000Y-69585000D01*
X273600000Y-66415000D02*
X269540000Y-66415000D01*
X120600000Y-49415000D02*
X116540000Y-49415000D01*
X116540000Y-49415000D02*
X116540000Y-52585000D01*
X116540000Y-52585000D02*
X120600000Y-52585000D01*
X133540000Y-52585000D02*
X137600000Y-52585000D01*
X133540000Y-49415000D02*
X133540000Y-52585000D01*
X137600000Y-49415000D02*
X133540000Y-49415000D01*
X150540000Y-52585000D02*
X154600000Y-52585000D01*
X150540000Y-49415000D02*
X150540000Y-52585000D01*
X154600000Y-49415000D02*
X150540000Y-49415000D01*
X171600000Y-49415000D02*
X167540000Y-49415000D01*
X167540000Y-49415000D02*
X167540000Y-52585000D01*
X167540000Y-52585000D02*
X171600000Y-52585000D01*
X188600000Y-49415000D02*
X184540000Y-49415000D01*
X184540000Y-49415000D02*
X184540000Y-52585000D01*
X184540000Y-52585000D02*
X188600000Y-52585000D01*
X205600000Y-49415000D02*
X201540000Y-49415000D01*
X201540000Y-49415000D02*
X201540000Y-52585000D01*
X201540000Y-52585000D02*
X205600000Y-52585000D01*
X222600000Y-49415000D02*
X218540000Y-49415000D01*
X218540000Y-49415000D02*
X218540000Y-52585000D01*
X218540000Y-52585000D02*
X222600000Y-52585000D01*
X235540000Y-52585000D02*
X239600000Y-52585000D01*
X235540000Y-49415000D02*
X235540000Y-52585000D01*
X239600000Y-49415000D02*
X235540000Y-49415000D01*
X252540000Y-52585000D02*
X256600000Y-52585000D01*
X252540000Y-49415000D02*
X252540000Y-52585000D01*
X256600000Y-49415000D02*
X252540000Y-49415000D01*
X269540000Y-52585000D02*
X273600000Y-52585000D01*
X269540000Y-49415000D02*
X269540000Y-52585000D01*
X273600000Y-49415000D02*
X269540000Y-49415000D01*
X116540000Y-35585000D02*
X120600000Y-35585000D01*
X116540000Y-32415000D02*
X116540000Y-35585000D01*
X120600000Y-32415000D02*
X116540000Y-32415000D01*
X137600000Y-32415000D02*
X133540000Y-32415000D01*
X133540000Y-32415000D02*
X133540000Y-35585000D01*
X133540000Y-35585000D02*
X137600000Y-35585000D01*
X154600000Y-32415000D02*
X150540000Y-32415000D01*
X150540000Y-32415000D02*
X150540000Y-35585000D01*
X150540000Y-35585000D02*
X154600000Y-35585000D01*
X167540000Y-35585000D02*
X171600000Y-35585000D01*
X167540000Y-32415000D02*
X167540000Y-35585000D01*
X171600000Y-32415000D02*
X167540000Y-32415000D01*
X184540000Y-35585000D02*
X188600000Y-35585000D01*
X184540000Y-32415000D02*
X184540000Y-35585000D01*
X188600000Y-32415000D02*
X184540000Y-32415000D01*
X201540000Y-35585000D02*
X205600000Y-35585000D01*
X201540000Y-32415000D02*
X201540000Y-35585000D01*
X205600000Y-32415000D02*
X201540000Y-32415000D01*
X218540000Y-35585000D02*
X222600000Y-35585000D01*
X218540000Y-32415000D02*
X218540000Y-35585000D01*
X222600000Y-32415000D02*
X218540000Y-32415000D01*
X239600000Y-32415000D02*
X235540000Y-32415000D01*
X235540000Y-32415000D02*
X235540000Y-35585000D01*
X235540000Y-35585000D02*
X239600000Y-35585000D01*
X256600000Y-32415000D02*
X252540000Y-32415000D01*
X252540000Y-32415000D02*
X252540000Y-35585000D01*
X252540000Y-35585000D02*
X256600000Y-35585000D01*
X273600000Y-32415000D02*
X269540000Y-32415000D01*
X269540000Y-32415000D02*
X269540000Y-35585000D01*
X269540000Y-35585000D02*
X273600000Y-35585000D01*
X104915000Y-215600000D02*
X107600000Y-215600000D01*
X104915000Y-213680000D02*
X104915000Y-215600000D01*
X107600000Y-213680000D02*
X104915000Y-213680000D01*
X107600000Y-216220000D02*
X104915000Y-216220000D01*
X104915000Y-216220000D02*
X104915000Y-218140000D01*
X104915000Y-218140000D02*
X107600000Y-218140000D01*
X191325000Y-198065000D02*
X191325000Y-196515000D01*
X191325000Y-198065000D02*
X191625000Y-198065000D01*
X191625000Y-200865000D02*
X191625000Y-198065000D01*
X199625000Y-198065000D02*
X199625000Y-196515000D01*
X199325000Y-198065000D02*
X199625000Y-198065000D01*
X199325000Y-200865000D02*
X199325000Y-198065000D01*
X194575000Y-194815000D02*
X194175000Y-195265000D01*
X193775000Y-194815000D02*
X194575000Y-194815000D01*
X194175000Y-195265000D02*
X193775000Y-194815000D01*
X94475000Y-97105000D02*
X99675000Y-97105000D01*
X94475000Y-104845000D02*
X99675000Y-104845000D01*
X93035000Y-97675000D02*
X94475000Y-97675000D01*
X94475000Y-97105000D02*
X94475000Y-97675000D01*
X99675000Y-97105000D02*
X99675000Y-97675000D01*
X94475000Y-104275000D02*
X94475000Y-104845000D01*
X99675000Y-104275000D02*
X99675000Y-104845000D01*
X94475000Y-99195000D02*
X94475000Y-100215000D01*
X99675000Y-99195000D02*
X99675000Y-100215000D01*
X94475000Y-101735000D02*
X94475000Y-102755000D01*
X99675000Y-101735000D02*
X99675000Y-102755000D01*
X107295000Y-76270000D02*
X107295000Y-73610000D01*
X102155000Y-76270000D02*
X107295000Y-76270000D01*
X102155000Y-73610000D02*
X107295000Y-73610000D01*
X102155000Y-76270000D02*
X102155000Y-73610000D01*
X100885000Y-76270000D02*
X99555000Y-76270000D01*
X99555000Y-76270000D02*
X99555000Y-74940000D01*
X117400000Y-29468578D02*
X117400000Y-28951422D01*
X118820000Y-29468578D02*
X118820000Y-28951422D01*
X133910000Y-29468578D02*
X133910000Y-28951422D01*
X135330000Y-29468578D02*
X135330000Y-28951422D01*
X153110000Y-29468578D02*
X153110000Y-28951422D01*
X151690000Y-29468578D02*
X151690000Y-28951422D01*
X168200000Y-29468578D02*
X168200000Y-28951422D01*
X169620000Y-29468578D02*
X169620000Y-28951422D01*
X184710000Y-29468578D02*
X184710000Y-28951422D01*
X186130000Y-29468578D02*
X186130000Y-28951422D01*
X203910000Y-29468578D02*
X203910000Y-28951422D01*
X202490000Y-29468578D02*
X202490000Y-28951422D01*
X219000000Y-29468578D02*
X219000000Y-28951422D01*
X220420000Y-29468578D02*
X220420000Y-28951422D01*
X238200000Y-29468578D02*
X238200000Y-28951422D01*
X236780000Y-29468578D02*
X236780000Y-28951422D01*
X253290000Y-29468578D02*
X253290000Y-28951422D01*
X254710000Y-29468578D02*
X254710000Y-28951422D01*
X271220000Y-29468578D02*
X271220000Y-28951422D01*
X269800000Y-29468578D02*
X269800000Y-28951422D01*
X97460578Y-189188000D02*
X96943422Y-189188000D01*
X97460578Y-187768000D02*
X96943422Y-187768000D01*
X96181422Y-107400000D02*
X96698578Y-107400000D01*
X96181422Y-105980000D02*
X96698578Y-105980000D01*
X93825000Y-64403578D02*
X93825000Y-63886422D01*
X95245000Y-64403578D02*
X95245000Y-63886422D01*
X97968578Y-179640000D02*
X97451422Y-179640000D01*
X97968578Y-181060000D02*
X97451422Y-181060000D01*
X92705000Y-64403578D02*
X92705000Y-63886422D01*
X91285000Y-64403578D02*
X91285000Y-63886422D01*
X97150000Y-75198578D02*
X97150000Y-74681422D01*
X95730000Y-75198578D02*
X95730000Y-74681422D01*
X110151422Y-215350000D02*
X110668578Y-215350000D01*
X110151422Y-213930000D02*
X110668578Y-213930000D01*
X110151422Y-216470000D02*
X110668578Y-216470000D01*
X110151422Y-217890000D02*
X110668578Y-217890000D01*
X90675000Y-93600000D02*
X93325000Y-93600000D01*
X90675000Y-89300000D02*
X93325000Y-89300000D01*
X90649524Y-89315612D02*
G75*
G03X90675000Y-93600000I1325476J-2134388D01*
G01*
X93353027Y-93582144D02*
G75*
G03X93325000Y-89300000I-1378027J2132144D01*
G01*
X96698578Y-92160000D02*
X96181422Y-92160000D01*
X96698578Y-90740000D02*
X96181422Y-90740000D01*
X91228000Y-197520000D02*
X91228000Y-198920000D01*
X91228000Y-198920000D02*
X87428000Y-198920000D01*
X87428000Y-189720000D02*
X91228000Y-189720000D01*
X91228000Y-189720000D02*
X91228000Y-191120000D01*
X91228000Y-196120000D02*
X91228000Y-195020000D01*
X91228000Y-195020000D02*
X91228000Y-195020000D01*
X91228000Y-193620000D02*
X91228000Y-192520000D01*
X91228000Y-192520000D02*
X91228000Y-192520000D01*
X87428000Y-198920000D02*
X87428000Y-197220000D01*
X87428000Y-197220000D02*
X87128000Y-197220000D01*
X87128000Y-197220000D02*
X87128000Y-196420000D01*
X87128000Y-196420000D02*
X87428000Y-196420000D01*
X87428000Y-196420000D02*
X87428000Y-194720000D01*
X87428000Y-194720000D02*
X87128000Y-194720000D01*
X87128000Y-194720000D02*
X87128000Y-193920000D01*
X87128000Y-193920000D02*
X87428000Y-193920000D01*
X87428000Y-193920000D02*
X87428000Y-192220000D01*
X87428000Y-192220000D02*
X87128000Y-192220000D01*
X87128000Y-192220000D02*
X87128000Y-191420000D01*
X87128000Y-191420000D02*
X87428000Y-191420000D01*
X87428000Y-191420000D02*
X87428000Y-189720000D01*
X87428000Y-189720000D02*
X87428000Y-189720000D01*
X85528000Y-192320000D02*
X86028000Y-192320000D01*
X86028000Y-192320000D02*
X86028000Y-192320000D01*
X85528000Y-192320000D02*
X85528000Y-192820000D01*
X85528000Y-192820000D02*
X85528000Y-192820000D01*
X85528000Y-196320000D02*
X85528000Y-195820000D01*
X85528000Y-195820000D02*
X85528000Y-195820000D01*
X85528000Y-196320000D02*
X86028000Y-196320000D01*
X86028000Y-196320000D02*
X86028000Y-196320000D01*
X86328000Y-196320000D02*
X86828000Y-196320000D01*
X86828000Y-196320000D02*
X86828000Y-196320000D01*
X86328000Y-192320000D02*
X86828000Y-192320000D01*
X86828000Y-192320000D02*
X86828000Y-192320000D01*
X85528000Y-193120000D02*
X85528000Y-193620000D01*
X85528000Y-193620000D02*
X85528000Y-193620000D01*
X85528000Y-195520000D02*
X85528000Y-195020000D01*
X85528000Y-195020000D02*
X85528000Y-195020000D01*
X85528000Y-194720000D02*
X85528000Y-193920000D01*
X85528000Y-193920000D02*
X85528000Y-193920000D01*
X100830000Y-94680000D02*
X100830000Y-94650000D01*
X100830000Y-88220000D02*
X100830000Y-88250000D01*
X107290000Y-88220000D02*
X107290000Y-88250000D01*
X107290000Y-94650000D02*
X107290000Y-94680000D01*
X100830000Y-92750000D02*
X100830000Y-90150000D01*
X107290000Y-94680000D02*
X100830000Y-94680000D01*
X107290000Y-92750000D02*
X107290000Y-90150000D01*
X107290000Y-88220000D02*
X100830000Y-88220000D01*
X105390000Y-185490000D02*
X105390000Y-182830000D01*
X92630000Y-185490000D02*
X105390000Y-185490000D01*
X92630000Y-182830000D02*
X105390000Y-182830000D01*
X92630000Y-185490000D02*
X92630000Y-182830000D01*
X91360000Y-185490000D02*
X90030000Y-185490000D01*
X90030000Y-185490000D02*
X90030000Y-184160000D01*
X100865000Y-67955000D02*
X100865000Y-69905000D01*
X100865000Y-67955000D02*
X100865000Y-66005000D01*
X105985000Y-67955000D02*
X105985000Y-69905000D01*
X105985000Y-67955000D02*
X105985000Y-64505000D01*
X89125000Y-71350000D02*
X94865000Y-71350000D01*
X94875000Y-71350000D02*
X94875000Y-83610000D01*
X94875000Y-83610000D02*
X89115000Y-83610000D01*
X89115000Y-83610000D02*
X89115000Y-71360000D01*
X88835000Y-71070000D02*
X88835000Y-73070000D01*
X88835000Y-71070000D02*
X90445000Y-71070000D01*
X293215000Y-175220000D02*
X293215000Y-173405000D01*
X293470000Y-175220000D02*
X293215000Y-175220000D01*
X293470000Y-179080000D02*
X293470000Y-175220000D01*
X293470000Y-182940000D02*
X293215000Y-182940000D01*
X293470000Y-179080000D02*
X293470000Y-182940000D01*
X282950000Y-175220000D02*
X283205000Y-175220000D01*
X282950000Y-179080000D02*
X282950000Y-175220000D01*
X282950000Y-182940000D02*
X283205000Y-182940000D01*
X282950000Y-179080000D02*
X282950000Y-182940000D01*
D10*
X98625000Y-213015000D02*
X98625000Y-213190000D01*
X101875000Y-213015000D02*
X101875000Y-213290000D01*
X101875000Y-216265000D02*
X101875000Y-215990000D01*
X98625000Y-216265000D02*
X98625000Y-215990000D01*
X98625000Y-213015000D02*
X101875000Y-213015000D01*
X98625000Y-216265000D02*
X101875000Y-216265000D01*
X98625000Y-213190000D02*
X97550000Y-213190000D01*
D11*
X282950000Y-93990000D02*
X282950000Y-97850000D01*
X282950000Y-97850000D02*
X283205000Y-97850000D01*
X282950000Y-93990000D02*
X282950000Y-90130000D01*
X282950000Y-90130000D02*
X283205000Y-90130000D01*
X293470000Y-93990000D02*
X293470000Y-97850000D01*
X293470000Y-97850000D02*
X293215000Y-97850000D01*
X293470000Y-93990000D02*
X293470000Y-90130000D01*
X293470000Y-90130000D02*
X293215000Y-90130000D01*
X293215000Y-90130000D02*
X293215000Y-88315000D01*
X98980000Y-51265000D02*
X95120000Y-51265000D01*
X95120000Y-51265000D02*
X95120000Y-51520000D01*
X98980000Y-51265000D02*
X102840000Y-51265000D01*
X102840000Y-51265000D02*
X102840000Y-51520000D01*
X98980000Y-61785000D02*
X95120000Y-61785000D01*
X95120000Y-61785000D02*
X95120000Y-61530000D01*
X98980000Y-61785000D02*
X102840000Y-61785000D01*
X102840000Y-61785000D02*
X102840000Y-61530000D01*
X102840000Y-61530000D02*
X104655000Y-61530000D01*
X172670000Y-10245000D02*
X170855000Y-10245000D01*
X172670000Y-10010000D02*
X172670000Y-10245000D01*
X176530000Y-10010000D02*
X172670000Y-10010000D01*
X180390000Y-10010000D02*
X180390000Y-10245000D01*
X176530000Y-10010000D02*
X180390000Y-10010000D01*
X172670000Y-23030000D02*
X172670000Y-22795000D01*
X176530000Y-23030000D02*
X172670000Y-23030000D01*
X180390000Y-23030000D02*
X180390000Y-22795000D01*
X176530000Y-23030000D02*
X180390000Y-23030000D01*
X246300000Y-23030000D02*
X250160000Y-23030000D01*
X250160000Y-23030000D02*
X250160000Y-22795000D01*
X246300000Y-23030000D02*
X242440000Y-23030000D01*
X242440000Y-23030000D02*
X242440000Y-22795000D01*
X246300000Y-10010000D02*
X250160000Y-10010000D01*
X250160000Y-10010000D02*
X250160000Y-10245000D01*
X246300000Y-10010000D02*
X242440000Y-10010000D01*
X242440000Y-10010000D02*
X242440000Y-10245000D01*
X242440000Y-10245000D02*
X240625000Y-10245000D01*
X102725000Y-125345000D02*
X102725000Y-141320000D01*
X102725000Y-141320000D02*
X107825000Y-141320000D01*
X107825000Y-141320000D02*
X107825000Y-125345000D01*
D10*
X109166666Y-22102380D02*
X108833333Y-21626190D01*
X108595238Y-22102380D02*
X108595238Y-21102380D01*
X108976190Y-21102380D01*
X109071428Y-21150000D01*
X109119047Y-21197619D01*
X109166666Y-21292857D01*
X109166666Y-21435714D01*
X109119047Y-21530952D01*
X109071428Y-21578571D01*
X108976190Y-21626190D01*
X108595238Y-21626190D01*
X109595238Y-21578571D02*
X109928571Y-21578571D01*
X110071428Y-22102380D02*
X109595238Y-22102380D01*
X109595238Y-21102380D01*
X110071428Y-21102380D01*
X110833333Y-21578571D02*
X110500000Y-21578571D01*
X110500000Y-22102380D02*
X110500000Y-21102380D01*
X110976190Y-21102380D01*
X111500000Y-21102380D02*
X111500000Y-21340476D01*
X111261904Y-21245238D02*
X111500000Y-21340476D01*
X111738095Y-21245238D01*
X111357142Y-21530952D02*
X111500000Y-21340476D01*
X111642857Y-21530952D01*
X112261904Y-21102380D02*
X112261904Y-21340476D01*
X112023809Y-21245238D02*
X112261904Y-21340476D01*
X112500000Y-21245238D01*
X112119047Y-21530952D02*
X112261904Y-21340476D01*
X112404761Y-21530952D01*
X279166666Y-22102380D02*
X278833333Y-21626190D01*
X278595238Y-22102380D02*
X278595238Y-21102380D01*
X278976190Y-21102380D01*
X279071428Y-21150000D01*
X279119047Y-21197619D01*
X279166666Y-21292857D01*
X279166666Y-21435714D01*
X279119047Y-21530952D01*
X279071428Y-21578571D01*
X278976190Y-21626190D01*
X278595238Y-21626190D01*
X279595238Y-21578571D02*
X279928571Y-21578571D01*
X280071428Y-22102380D02*
X279595238Y-22102380D01*
X279595238Y-21102380D01*
X280071428Y-21102380D01*
X280833333Y-21578571D02*
X280500000Y-21578571D01*
X280500000Y-22102380D02*
X280500000Y-21102380D01*
X280976190Y-21102380D01*
X281500000Y-21102380D02*
X281500000Y-21340476D01*
X281261904Y-21245238D02*
X281500000Y-21340476D01*
X281738095Y-21245238D01*
X281357142Y-21530952D02*
X281500000Y-21340476D01*
X281642857Y-21530952D01*
X282261904Y-21102380D02*
X282261904Y-21340476D01*
X282023809Y-21245238D02*
X282261904Y-21340476D01*
X282500000Y-21245238D01*
X282119047Y-21530952D02*
X282261904Y-21340476D01*
X282404761Y-21530952D01*
X279166666Y-192102380D02*
X278833333Y-191626190D01*
X278595238Y-192102380D02*
X278595238Y-191102380D01*
X278976190Y-191102380D01*
X279071428Y-191150000D01*
X279119047Y-191197619D01*
X279166666Y-191292857D01*
X279166666Y-191435714D01*
X279119047Y-191530952D01*
X279071428Y-191578571D01*
X278976190Y-191626190D01*
X278595238Y-191626190D01*
X279595238Y-191578571D02*
X279928571Y-191578571D01*
X280071428Y-192102380D02*
X279595238Y-192102380D01*
X279595238Y-191102380D01*
X280071428Y-191102380D01*
X280833333Y-191578571D02*
X280500000Y-191578571D01*
X280500000Y-192102380D02*
X280500000Y-191102380D01*
X280976190Y-191102380D01*
X281500000Y-191102380D02*
X281500000Y-191340476D01*
X281261904Y-191245238D02*
X281500000Y-191340476D01*
X281738095Y-191245238D01*
X281357142Y-191530952D02*
X281500000Y-191340476D01*
X281642857Y-191530952D01*
X282261904Y-191102380D02*
X282261904Y-191340476D01*
X282023809Y-191245238D02*
X282261904Y-191340476D01*
X282500000Y-191245238D01*
X282119047Y-191530952D02*
X282261904Y-191340476D01*
X282404761Y-191530952D01*
X109166666Y-192102380D02*
X108833333Y-191626190D01*
X108595238Y-192102380D02*
X108595238Y-191102380D01*
X108976190Y-191102380D01*
X109071428Y-191150000D01*
X109119047Y-191197619D01*
X109166666Y-191292857D01*
X109166666Y-191435714D01*
X109119047Y-191530952D01*
X109071428Y-191578571D01*
X108976190Y-191626190D01*
X108595238Y-191626190D01*
X109595238Y-191578571D02*
X109928571Y-191578571D01*
X110071428Y-192102380D02*
X109595238Y-192102380D01*
X109595238Y-191102380D01*
X110071428Y-191102380D01*
X110833333Y-191578571D02*
X110500000Y-191578571D01*
X110500000Y-192102380D02*
X110500000Y-191102380D01*
X110976190Y-191102380D01*
X111500000Y-191102380D02*
X111500000Y-191340476D01*
X111261904Y-191245238D02*
X111500000Y-191340476D01*
X111738095Y-191245238D01*
X111357142Y-191530952D02*
X111500000Y-191340476D01*
X111642857Y-191530952D01*
X112261904Y-191102380D02*
X112261904Y-191340476D01*
X112023809Y-191245238D02*
X112261904Y-191340476D01*
X112500000Y-191245238D01*
X112119047Y-191530952D02*
X112261904Y-191340476D01*
X112404761Y-191530952D01*
X87302380Y-114436904D02*
X88111904Y-114436904D01*
X88207142Y-114389285D01*
X88254761Y-114341666D01*
X88302380Y-114246428D01*
X88302380Y-114055952D01*
X88254761Y-113960714D01*
X88207142Y-113913095D01*
X88111904Y-113865476D01*
X87302380Y-113865476D01*
X87730952Y-113246428D02*
X87683333Y-113341666D01*
X87635714Y-113389285D01*
X87540476Y-113436904D01*
X87492857Y-113436904D01*
X87397619Y-113389285D01*
X87350000Y-113341666D01*
X87302380Y-113246428D01*
X87302380Y-113055952D01*
X87350000Y-112960714D01*
X87397619Y-112913095D01*
X87492857Y-112865476D01*
X87540476Y-112865476D01*
X87635714Y-112913095D01*
X87683333Y-112960714D01*
X87730952Y-113055952D01*
X87730952Y-113246428D01*
X87778571Y-113341666D01*
X87826190Y-113389285D01*
X87921428Y-113436904D01*
X88111904Y-113436904D01*
X88207142Y-113389285D01*
X88254761Y-113341666D01*
X88302380Y-113246428D01*
X88302380Y-113055952D01*
X88254761Y-112960714D01*
X88207142Y-112913095D01*
X88111904Y-112865476D01*
X87921428Y-112865476D01*
X87826190Y-112913095D01*
X87778571Y-112960714D01*
X87730952Y-113055952D01*
D12*
X98419474Y-203788373D02*
X98533959Y-203826535D01*
X98724767Y-203826535D01*
X98801090Y-203788373D01*
X98839252Y-203750212D01*
X98877414Y-203673888D01*
X98877414Y-203597565D01*
X98839252Y-203521242D01*
X98801090Y-203483080D01*
X98724767Y-203444919D01*
X98572121Y-203406757D01*
X98495797Y-203368595D01*
X98457636Y-203330434D01*
X98419474Y-203254111D01*
X98419474Y-203177787D01*
X98457636Y-203101464D01*
X98495797Y-203063303D01*
X98572121Y-203025141D01*
X98762929Y-203025141D01*
X98877414Y-203063303D01*
X99144545Y-203025141D02*
X99335353Y-203826535D01*
X99488000Y-203254111D01*
X99640646Y-203826535D01*
X99831454Y-203025141D01*
X100060424Y-203025141D02*
X100556525Y-203025141D01*
X100289394Y-203330434D01*
X100403878Y-203330434D01*
X100480202Y-203368595D01*
X100518363Y-203406757D01*
X100556525Y-203483080D01*
X100556525Y-203673888D01*
X100518363Y-203750212D01*
X100480202Y-203788373D01*
X100403878Y-203826535D01*
X100174909Y-203826535D01*
X100098585Y-203788373D01*
X100060424Y-203750212D01*
D10*
X91637380Y-217233333D02*
X92351666Y-217233333D01*
X92494523Y-217280952D01*
X92589761Y-217376190D01*
X92637380Y-217519047D01*
X92637380Y-217614285D01*
X92637380Y-216233333D02*
X92637380Y-216804761D01*
X92637380Y-216519047D02*
X91637380Y-216519047D01*
X91780238Y-216614285D01*
X91875476Y-216709523D01*
X91923095Y-216804761D01*
X92622142Y-123302142D02*
X92574523Y-123349761D01*
X92431666Y-123397380D01*
X92336428Y-123397380D01*
X92193571Y-123349761D01*
X92098333Y-123254523D01*
X92050714Y-123159285D01*
X92003095Y-122968809D01*
X92003095Y-122825952D01*
X92050714Y-122635476D01*
X92098333Y-122540238D01*
X92193571Y-122445000D01*
X92336428Y-122397380D01*
X92431666Y-122397380D01*
X92574523Y-122445000D01*
X92622142Y-122492619D01*
X93574523Y-123397380D02*
X93003095Y-123397380D01*
X93288809Y-123397380D02*
X93288809Y-122397380D01*
X93193571Y-122540238D01*
X93098333Y-122635476D01*
X93003095Y-122683095D01*
X93907857Y-122397380D02*
X94526904Y-122397380D01*
X94193571Y-122778333D01*
X94336428Y-122778333D01*
X94431666Y-122825952D01*
X94479285Y-122873571D01*
X94526904Y-122968809D01*
X94526904Y-123206904D01*
X94479285Y-123302142D01*
X94431666Y-123349761D01*
X94336428Y-123397380D01*
X94050714Y-123397380D01*
X93955476Y-123349761D01*
X93907857Y-123302142D01*
X297837142Y-179722857D02*
X297884761Y-179770476D01*
X297932380Y-179913333D01*
X297932380Y-180008571D01*
X297884761Y-180151428D01*
X297789523Y-180246666D01*
X297694285Y-180294285D01*
X297503809Y-180341904D01*
X297360952Y-180341904D01*
X297170476Y-180294285D01*
X297075238Y-180246666D01*
X296980000Y-180151428D01*
X296932380Y-180008571D01*
X296932380Y-179913333D01*
X296980000Y-179770476D01*
X297027619Y-179722857D01*
X297932380Y-178770476D02*
X297932380Y-179341904D01*
X297932380Y-179056190D02*
X296932380Y-179056190D01*
X297075238Y-179151428D01*
X297170476Y-179246666D01*
X297218095Y-179341904D01*
X297027619Y-178389523D02*
X296980000Y-178341904D01*
X296932380Y-178246666D01*
X296932380Y-178008571D01*
X296980000Y-177913333D01*
X297027619Y-177865714D01*
X297122857Y-177818095D01*
X297218095Y-177818095D01*
X297360952Y-177865714D01*
X297932380Y-178437142D01*
X297932380Y-177818095D01*
X245657142Y-9637142D02*
X245609523Y-9684761D01*
X245466666Y-9732380D01*
X245371428Y-9732380D01*
X245228571Y-9684761D01*
X245133333Y-9589523D01*
X245085714Y-9494285D01*
X245038095Y-9303809D01*
X245038095Y-9160952D01*
X245085714Y-8970476D01*
X245133333Y-8875238D01*
X245228571Y-8780000D01*
X245371428Y-8732380D01*
X245466666Y-8732380D01*
X245609523Y-8780000D01*
X245657142Y-8827619D01*
X246609523Y-9732380D02*
X246038095Y-9732380D01*
X246323809Y-9732380D02*
X246323809Y-8732380D01*
X246228571Y-8875238D01*
X246133333Y-8970476D01*
X246038095Y-9018095D01*
X247561904Y-9732380D02*
X246990476Y-9732380D01*
X247276190Y-9732380D02*
X247276190Y-8732380D01*
X247180952Y-8875238D01*
X247085714Y-8970476D01*
X246990476Y-9018095D01*
X175887142Y-9637142D02*
X175839523Y-9684761D01*
X175696666Y-9732380D01*
X175601428Y-9732380D01*
X175458571Y-9684761D01*
X175363333Y-9589523D01*
X175315714Y-9494285D01*
X175268095Y-9303809D01*
X175268095Y-9160952D01*
X175315714Y-8970476D01*
X175363333Y-8875238D01*
X175458571Y-8780000D01*
X175601428Y-8732380D01*
X175696666Y-8732380D01*
X175839523Y-8780000D01*
X175887142Y-8827619D01*
X176839523Y-9732380D02*
X176268095Y-9732380D01*
X176553809Y-9732380D02*
X176553809Y-8732380D01*
X176458571Y-8875238D01*
X176363333Y-8970476D01*
X176268095Y-9018095D01*
X177458571Y-8732380D02*
X177553809Y-8732380D01*
X177649047Y-8780000D01*
X177696666Y-8827619D01*
X177744285Y-8922857D01*
X177791904Y-9113333D01*
X177791904Y-9351428D01*
X177744285Y-9541904D01*
X177696666Y-9637142D01*
X177649047Y-9684761D01*
X177553809Y-9732380D01*
X177458571Y-9732380D01*
X177363333Y-9684761D01*
X177315714Y-9637142D01*
X177268095Y-9541904D01*
X177220476Y-9351428D01*
X177220476Y-9113333D01*
X177268095Y-8922857D01*
X177315714Y-8827619D01*
X177363333Y-8780000D01*
X177458571Y-8732380D01*
X297837142Y-94156666D02*
X297884761Y-94204285D01*
X297932380Y-94347142D01*
X297932380Y-94442380D01*
X297884761Y-94585238D01*
X297789523Y-94680476D01*
X297694285Y-94728095D01*
X297503809Y-94775714D01*
X297360952Y-94775714D01*
X297170476Y-94728095D01*
X297075238Y-94680476D01*
X296980000Y-94585238D01*
X296932380Y-94442380D01*
X296932380Y-94347142D01*
X296980000Y-94204285D01*
X297027619Y-94156666D01*
X297932380Y-93680476D02*
X297932380Y-93490000D01*
X297884761Y-93394761D01*
X297837142Y-93347142D01*
X297694285Y-93251904D01*
X297503809Y-93204285D01*
X297122857Y-93204285D01*
X297027619Y-93251904D01*
X296980000Y-93299523D01*
X296932380Y-93394761D01*
X296932380Y-93585238D01*
X296980000Y-93680476D01*
X297027619Y-93728095D01*
X297122857Y-93775714D01*
X297360952Y-93775714D01*
X297456190Y-93728095D01*
X297503809Y-93680476D01*
X297551428Y-93585238D01*
X297551428Y-93394761D01*
X297503809Y-93299523D01*
X297456190Y-93251904D01*
X297360952Y-93204285D01*
X98447142Y-80186666D02*
X98494761Y-80234285D01*
X98542380Y-80377142D01*
X98542380Y-80472380D01*
X98494761Y-80615238D01*
X98399523Y-80710476D01*
X98304285Y-80758095D01*
X98113809Y-80805714D01*
X97970952Y-80805714D01*
X97780476Y-80758095D01*
X97685238Y-80710476D01*
X97590000Y-80615238D01*
X97542380Y-80472380D01*
X97542380Y-80377142D01*
X97590000Y-80234285D01*
X97637619Y-80186666D01*
X97970952Y-79615238D02*
X97923333Y-79710476D01*
X97875714Y-79758095D01*
X97780476Y-79805714D01*
X97732857Y-79805714D01*
X97637619Y-79758095D01*
X97590000Y-79710476D01*
X97542380Y-79615238D01*
X97542380Y-79424761D01*
X97590000Y-79329523D01*
X97637619Y-79281904D01*
X97732857Y-79234285D01*
X97780476Y-79234285D01*
X97875714Y-79281904D01*
X97923333Y-79329523D01*
X97970952Y-79424761D01*
X97970952Y-79615238D01*
X98018571Y-79710476D01*
X98066190Y-79758095D01*
X98161428Y-79805714D01*
X98351904Y-79805714D01*
X98447142Y-79758095D01*
X98494761Y-79710476D01*
X98542380Y-79615238D01*
X98542380Y-79424761D01*
X98494761Y-79329523D01*
X98447142Y-79281904D01*
X98351904Y-79234285D01*
X98161428Y-79234285D01*
X98066190Y-79281904D01*
X98018571Y-79329523D01*
X97970952Y-79424761D01*
X105307142Y-58596666D02*
X105354761Y-58644285D01*
X105402380Y-58787142D01*
X105402380Y-58882380D01*
X105354761Y-59025238D01*
X105259523Y-59120476D01*
X105164285Y-59168095D01*
X104973809Y-59215714D01*
X104830952Y-59215714D01*
X104640476Y-59168095D01*
X104545238Y-59120476D01*
X104450000Y-59025238D01*
X104402380Y-58882380D01*
X104402380Y-58787142D01*
X104450000Y-58644285D01*
X104497619Y-58596666D01*
X104402380Y-58263333D02*
X104402380Y-57596666D01*
X105402380Y-58025238D01*
X98077142Y-68026666D02*
X98124761Y-68074285D01*
X98172380Y-68217142D01*
X98172380Y-68312380D01*
X98124761Y-68455238D01*
X98029523Y-68550476D01*
X97934285Y-68598095D01*
X97743809Y-68645714D01*
X97600952Y-68645714D01*
X97410476Y-68598095D01*
X97315238Y-68550476D01*
X97220000Y-68455238D01*
X97172380Y-68312380D01*
X97172380Y-68217142D01*
X97220000Y-68074285D01*
X97267619Y-68026666D01*
X97172380Y-67169523D02*
X97172380Y-67360000D01*
X97220000Y-67455238D01*
X97267619Y-67502857D01*
X97410476Y-67598095D01*
X97600952Y-67645714D01*
X97981904Y-67645714D01*
X98077142Y-67598095D01*
X98124761Y-67550476D01*
X98172380Y-67455238D01*
X98172380Y-67264761D01*
X98124761Y-67169523D01*
X98077142Y-67121904D01*
X97981904Y-67074285D01*
X97743809Y-67074285D01*
X97648571Y-67121904D01*
X97600952Y-67169523D01*
X97553333Y-67264761D01*
X97553333Y-67455238D01*
X97600952Y-67550476D01*
X97648571Y-67598095D01*
X97743809Y-67645714D01*
X108838571Y-35085714D02*
X108886190Y-34942857D01*
X108933809Y-34895238D01*
X109029047Y-34847619D01*
X109171904Y-34847619D01*
X109267142Y-34895238D01*
X109314761Y-34942857D01*
X109362380Y-35038095D01*
X109362380Y-35419047D01*
X108362380Y-35419047D01*
X108362380Y-35085714D01*
X108410000Y-34990476D01*
X108457619Y-34942857D01*
X108552857Y-34895238D01*
X108648095Y-34895238D01*
X108743333Y-34942857D01*
X108790952Y-34990476D01*
X108838571Y-35085714D01*
X108838571Y-35419047D01*
X108362380Y-34561904D02*
X108362380Y-33990476D01*
X109362380Y-34276190D02*
X108362380Y-34276190D01*
X109362380Y-33133333D02*
X109362380Y-33704761D01*
X109362380Y-33419047D02*
X108362380Y-33419047D01*
X108505238Y-33514285D01*
X108600476Y-33609523D01*
X108648095Y-33704761D01*
X95003333Y-220331142D02*
X94955714Y-220378761D01*
X94812857Y-220426380D01*
X94717619Y-220426380D01*
X94574761Y-220378761D01*
X94479523Y-220283523D01*
X94431904Y-220188285D01*
X94384285Y-219997809D01*
X94384285Y-219854952D01*
X94431904Y-219664476D01*
X94479523Y-219569238D01*
X94574761Y-219474000D01*
X94717619Y-219426380D01*
X94812857Y-219426380D01*
X94955714Y-219474000D01*
X95003333Y-219521619D01*
X95955714Y-220426380D02*
X95384285Y-220426380D01*
X95670000Y-220426380D02*
X95670000Y-219426380D01*
X95574761Y-219569238D01*
X95479523Y-219664476D01*
X95384285Y-219712095D01*
X105108333Y-141382142D02*
X105060714Y-141429761D01*
X104917857Y-141477380D01*
X104822619Y-141477380D01*
X104679761Y-141429761D01*
X104584523Y-141334523D01*
X104536904Y-141239285D01*
X104489285Y-141048809D01*
X104489285Y-140905952D01*
X104536904Y-140715476D01*
X104584523Y-140620238D01*
X104679761Y-140525000D01*
X104822619Y-140477380D01*
X104917857Y-140477380D01*
X105060714Y-140525000D01*
X105108333Y-140572619D01*
X105489285Y-140572619D02*
X105536904Y-140525000D01*
X105632142Y-140477380D01*
X105870238Y-140477380D01*
X105965476Y-140525000D01*
X106013095Y-140572619D01*
X106060714Y-140667857D01*
X106060714Y-140763095D01*
X106013095Y-140905952D01*
X105441666Y-141477380D01*
X106060714Y-141477380D01*
X105108333Y-117887142D02*
X105060714Y-117934761D01*
X104917857Y-117982380D01*
X104822619Y-117982380D01*
X104679761Y-117934761D01*
X104584523Y-117839523D01*
X104536904Y-117744285D01*
X104489285Y-117553809D01*
X104489285Y-117410952D01*
X104536904Y-117220476D01*
X104584523Y-117125238D01*
X104679761Y-117030000D01*
X104822619Y-116982380D01*
X104917857Y-116982380D01*
X105060714Y-117030000D01*
X105108333Y-117077619D01*
X105441666Y-116982380D02*
X106060714Y-116982380D01*
X105727380Y-117363333D01*
X105870238Y-117363333D01*
X105965476Y-117410952D01*
X106013095Y-117458571D01*
X106060714Y-117553809D01*
X106060714Y-117791904D01*
X106013095Y-117887142D01*
X105965476Y-117934761D01*
X105870238Y-117982380D01*
X105584523Y-117982380D01*
X105489285Y-117934761D01*
X105441666Y-117887142D01*
X100083333Y-209663142D02*
X100035714Y-209710761D01*
X99892857Y-209758380D01*
X99797619Y-209758380D01*
X99654761Y-209710761D01*
X99559523Y-209615523D01*
X99511904Y-209520285D01*
X99464285Y-209329809D01*
X99464285Y-209186952D01*
X99511904Y-208996476D01*
X99559523Y-208901238D01*
X99654761Y-208806000D01*
X99797619Y-208758380D01*
X99892857Y-208758380D01*
X100035714Y-208806000D01*
X100083333Y-208853619D01*
X100940476Y-209091714D02*
X100940476Y-209758380D01*
X100702380Y-208710761D02*
X100464285Y-209425047D01*
X101083333Y-209425047D01*
X99829333Y-220331142D02*
X99781714Y-220378761D01*
X99638857Y-220426380D01*
X99543619Y-220426380D01*
X99400761Y-220378761D01*
X99305523Y-220283523D01*
X99257904Y-220188285D01*
X99210285Y-219997809D01*
X99210285Y-219854952D01*
X99257904Y-219664476D01*
X99305523Y-219569238D01*
X99400761Y-219474000D01*
X99543619Y-219426380D01*
X99638857Y-219426380D01*
X99781714Y-219474000D01*
X99829333Y-219521619D01*
X100734095Y-219426380D02*
X100257904Y-219426380D01*
X100210285Y-219902571D01*
X100257904Y-219854952D01*
X100353142Y-219807333D01*
X100591238Y-219807333D01*
X100686476Y-219854952D01*
X100734095Y-219902571D01*
X100781714Y-219997809D01*
X100781714Y-220235904D01*
X100734095Y-220331142D01*
X100686476Y-220378761D01*
X100591238Y-220426380D01*
X100353142Y-220426380D01*
X100257904Y-220378761D01*
X100210285Y-220331142D01*
X118261904Y-185172380D02*
X118261904Y-184172380D01*
X118500000Y-184172380D01*
X118642857Y-184220000D01*
X118738095Y-184315238D01*
X118785714Y-184410476D01*
X118833333Y-184600952D01*
X118833333Y-184743809D01*
X118785714Y-184934285D01*
X118738095Y-185029523D01*
X118642857Y-185124761D01*
X118500000Y-185172380D01*
X118261904Y-185172380D01*
X119785714Y-185172380D02*
X119214285Y-185172380D01*
X119500000Y-185172380D02*
X119500000Y-184172380D01*
X119404761Y-184315238D01*
X119309523Y-184410476D01*
X119214285Y-184458095D01*
X135261904Y-185172380D02*
X135261904Y-184172380D01*
X135500000Y-184172380D01*
X135642857Y-184220000D01*
X135738095Y-184315238D01*
X135785714Y-184410476D01*
X135833333Y-184600952D01*
X135833333Y-184743809D01*
X135785714Y-184934285D01*
X135738095Y-185029523D01*
X135642857Y-185124761D01*
X135500000Y-185172380D01*
X135261904Y-185172380D01*
X136214285Y-184267619D02*
X136261904Y-184220000D01*
X136357142Y-184172380D01*
X136595238Y-184172380D01*
X136690476Y-184220000D01*
X136738095Y-184267619D01*
X136785714Y-184362857D01*
X136785714Y-184458095D01*
X136738095Y-184600952D01*
X136166666Y-185172380D01*
X136785714Y-185172380D01*
X152261904Y-185172380D02*
X152261904Y-184172380D01*
X152500000Y-184172380D01*
X152642857Y-184220000D01*
X152738095Y-184315238D01*
X152785714Y-184410476D01*
X152833333Y-184600952D01*
X152833333Y-184743809D01*
X152785714Y-184934285D01*
X152738095Y-185029523D01*
X152642857Y-185124761D01*
X152500000Y-185172380D01*
X152261904Y-185172380D01*
X153166666Y-184172380D02*
X153785714Y-184172380D01*
X153452380Y-184553333D01*
X153595238Y-184553333D01*
X153690476Y-184600952D01*
X153738095Y-184648571D01*
X153785714Y-184743809D01*
X153785714Y-184981904D01*
X153738095Y-185077142D01*
X153690476Y-185124761D01*
X153595238Y-185172380D01*
X153309523Y-185172380D01*
X153214285Y-185124761D01*
X153166666Y-185077142D01*
X169261904Y-185172380D02*
X169261904Y-184172380D01*
X169500000Y-184172380D01*
X169642857Y-184220000D01*
X169738095Y-184315238D01*
X169785714Y-184410476D01*
X169833333Y-184600952D01*
X169833333Y-184743809D01*
X169785714Y-184934285D01*
X169738095Y-185029523D01*
X169642857Y-185124761D01*
X169500000Y-185172380D01*
X169261904Y-185172380D01*
X170690476Y-184505714D02*
X170690476Y-185172380D01*
X170452380Y-184124761D02*
X170214285Y-184839047D01*
X170833333Y-184839047D01*
X186261904Y-185172380D02*
X186261904Y-184172380D01*
X186500000Y-184172380D01*
X186642857Y-184220000D01*
X186738095Y-184315238D01*
X186785714Y-184410476D01*
X186833333Y-184600952D01*
X186833333Y-184743809D01*
X186785714Y-184934285D01*
X186738095Y-185029523D01*
X186642857Y-185124761D01*
X186500000Y-185172380D01*
X186261904Y-185172380D01*
X187738095Y-184172380D02*
X187261904Y-184172380D01*
X187214285Y-184648571D01*
X187261904Y-184600952D01*
X187357142Y-184553333D01*
X187595238Y-184553333D01*
X187690476Y-184600952D01*
X187738095Y-184648571D01*
X187785714Y-184743809D01*
X187785714Y-184981904D01*
X187738095Y-185077142D01*
X187690476Y-185124761D01*
X187595238Y-185172380D01*
X187357142Y-185172380D01*
X187261904Y-185124761D01*
X187214285Y-185077142D01*
X203261904Y-185172380D02*
X203261904Y-184172380D01*
X203500000Y-184172380D01*
X203642857Y-184220000D01*
X203738095Y-184315238D01*
X203785714Y-184410476D01*
X203833333Y-184600952D01*
X203833333Y-184743809D01*
X203785714Y-184934285D01*
X203738095Y-185029523D01*
X203642857Y-185124761D01*
X203500000Y-185172380D01*
X203261904Y-185172380D01*
X204690476Y-184172380D02*
X204500000Y-184172380D01*
X204404761Y-184220000D01*
X204357142Y-184267619D01*
X204261904Y-184410476D01*
X204214285Y-184600952D01*
X204214285Y-184981904D01*
X204261904Y-185077142D01*
X204309523Y-185124761D01*
X204404761Y-185172380D01*
X204595238Y-185172380D01*
X204690476Y-185124761D01*
X204738095Y-185077142D01*
X204785714Y-184981904D01*
X204785714Y-184743809D01*
X204738095Y-184648571D01*
X204690476Y-184600952D01*
X204595238Y-184553333D01*
X204404761Y-184553333D01*
X204309523Y-184600952D01*
X204261904Y-184648571D01*
X204214285Y-184743809D01*
X220261904Y-185172380D02*
X220261904Y-184172380D01*
X220500000Y-184172380D01*
X220642857Y-184220000D01*
X220738095Y-184315238D01*
X220785714Y-184410476D01*
X220833333Y-184600952D01*
X220833333Y-184743809D01*
X220785714Y-184934285D01*
X220738095Y-185029523D01*
X220642857Y-185124761D01*
X220500000Y-185172380D01*
X220261904Y-185172380D01*
X221166666Y-184172380D02*
X221833333Y-184172380D01*
X221404761Y-185172380D01*
X237261904Y-185172380D02*
X237261904Y-184172380D01*
X237500000Y-184172380D01*
X237642857Y-184220000D01*
X237738095Y-184315238D01*
X237785714Y-184410476D01*
X237833333Y-184600952D01*
X237833333Y-184743809D01*
X237785714Y-184934285D01*
X237738095Y-185029523D01*
X237642857Y-185124761D01*
X237500000Y-185172380D01*
X237261904Y-185172380D01*
X238404761Y-184600952D02*
X238309523Y-184553333D01*
X238261904Y-184505714D01*
X238214285Y-184410476D01*
X238214285Y-184362857D01*
X238261904Y-184267619D01*
X238309523Y-184220000D01*
X238404761Y-184172380D01*
X238595238Y-184172380D01*
X238690476Y-184220000D01*
X238738095Y-184267619D01*
X238785714Y-184362857D01*
X238785714Y-184410476D01*
X238738095Y-184505714D01*
X238690476Y-184553333D01*
X238595238Y-184600952D01*
X238404761Y-184600952D01*
X238309523Y-184648571D01*
X238261904Y-184696190D01*
X238214285Y-184791428D01*
X238214285Y-184981904D01*
X238261904Y-185077142D01*
X238309523Y-185124761D01*
X238404761Y-185172380D01*
X238595238Y-185172380D01*
X238690476Y-185124761D01*
X238738095Y-185077142D01*
X238785714Y-184981904D01*
X238785714Y-184791428D01*
X238738095Y-184696190D01*
X238690476Y-184648571D01*
X238595238Y-184600952D01*
X254261904Y-185172380D02*
X254261904Y-184172380D01*
X254500000Y-184172380D01*
X254642857Y-184220000D01*
X254738095Y-184315238D01*
X254785714Y-184410476D01*
X254833333Y-184600952D01*
X254833333Y-184743809D01*
X254785714Y-184934285D01*
X254738095Y-185029523D01*
X254642857Y-185124761D01*
X254500000Y-185172380D01*
X254261904Y-185172380D01*
X255309523Y-185172380D02*
X255500000Y-185172380D01*
X255595238Y-185124761D01*
X255642857Y-185077142D01*
X255738095Y-184934285D01*
X255785714Y-184743809D01*
X255785714Y-184362857D01*
X255738095Y-184267619D01*
X255690476Y-184220000D01*
X255595238Y-184172380D01*
X255404761Y-184172380D01*
X255309523Y-184220000D01*
X255261904Y-184267619D01*
X255214285Y-184362857D01*
X255214285Y-184600952D01*
X255261904Y-184696190D01*
X255309523Y-184743809D01*
X255404761Y-184791428D01*
X255595238Y-184791428D01*
X255690476Y-184743809D01*
X255738095Y-184696190D01*
X255785714Y-184600952D01*
X270785714Y-185172380D02*
X270785714Y-184172380D01*
X271023809Y-184172380D01*
X271166666Y-184220000D01*
X271261904Y-184315238D01*
X271309523Y-184410476D01*
X271357142Y-184600952D01*
X271357142Y-184743809D01*
X271309523Y-184934285D01*
X271261904Y-185029523D01*
X271166666Y-185124761D01*
X271023809Y-185172380D01*
X270785714Y-185172380D01*
X272309523Y-185172380D02*
X271738095Y-185172380D01*
X272023809Y-185172380D02*
X272023809Y-184172380D01*
X271928571Y-184315238D01*
X271833333Y-184410476D01*
X271738095Y-184458095D01*
X272928571Y-184172380D02*
X273023809Y-184172380D01*
X273119047Y-184220000D01*
X273166666Y-184267619D01*
X273214285Y-184362857D01*
X273261904Y-184553333D01*
X273261904Y-184791428D01*
X273214285Y-184981904D01*
X273166666Y-185077142D01*
X273119047Y-185124761D01*
X273023809Y-185172380D01*
X272928571Y-185172380D01*
X272833333Y-185124761D01*
X272785714Y-185077142D01*
X272738095Y-184981904D01*
X272690476Y-184791428D01*
X272690476Y-184553333D01*
X272738095Y-184362857D01*
X272785714Y-184267619D01*
X272833333Y-184220000D01*
X272928571Y-184172380D01*
X117785714Y-168172380D02*
X117785714Y-167172380D01*
X118023809Y-167172380D01*
X118166666Y-167220000D01*
X118261904Y-167315238D01*
X118309523Y-167410476D01*
X118357142Y-167600952D01*
X118357142Y-167743809D01*
X118309523Y-167934285D01*
X118261904Y-168029523D01*
X118166666Y-168124761D01*
X118023809Y-168172380D01*
X117785714Y-168172380D01*
X119309523Y-168172380D02*
X118738095Y-168172380D01*
X119023809Y-168172380D02*
X119023809Y-167172380D01*
X118928571Y-167315238D01*
X118833333Y-167410476D01*
X118738095Y-167458095D01*
X120261904Y-168172380D02*
X119690476Y-168172380D01*
X119976190Y-168172380D02*
X119976190Y-167172380D01*
X119880952Y-167315238D01*
X119785714Y-167410476D01*
X119690476Y-167458095D01*
X134785714Y-168172380D02*
X134785714Y-167172380D01*
X135023809Y-167172380D01*
X135166666Y-167220000D01*
X135261904Y-167315238D01*
X135309523Y-167410476D01*
X135357142Y-167600952D01*
X135357142Y-167743809D01*
X135309523Y-167934285D01*
X135261904Y-168029523D01*
X135166666Y-168124761D01*
X135023809Y-168172380D01*
X134785714Y-168172380D01*
X136309523Y-168172380D02*
X135738095Y-168172380D01*
X136023809Y-168172380D02*
X136023809Y-167172380D01*
X135928571Y-167315238D01*
X135833333Y-167410476D01*
X135738095Y-167458095D01*
X136690476Y-167267619D02*
X136738095Y-167220000D01*
X136833333Y-167172380D01*
X137071428Y-167172380D01*
X137166666Y-167220000D01*
X137214285Y-167267619D01*
X137261904Y-167362857D01*
X137261904Y-167458095D01*
X137214285Y-167600952D01*
X136642857Y-168172380D01*
X137261904Y-168172380D01*
X151785714Y-168172380D02*
X151785714Y-167172380D01*
X152023809Y-167172380D01*
X152166666Y-167220000D01*
X152261904Y-167315238D01*
X152309523Y-167410476D01*
X152357142Y-167600952D01*
X152357142Y-167743809D01*
X152309523Y-167934285D01*
X152261904Y-168029523D01*
X152166666Y-168124761D01*
X152023809Y-168172380D01*
X151785714Y-168172380D01*
X153309523Y-168172380D02*
X152738095Y-168172380D01*
X153023809Y-168172380D02*
X153023809Y-167172380D01*
X152928571Y-167315238D01*
X152833333Y-167410476D01*
X152738095Y-167458095D01*
X153642857Y-167172380D02*
X154261904Y-167172380D01*
X153928571Y-167553333D01*
X154071428Y-167553333D01*
X154166666Y-167600952D01*
X154214285Y-167648571D01*
X154261904Y-167743809D01*
X154261904Y-167981904D01*
X154214285Y-168077142D01*
X154166666Y-168124761D01*
X154071428Y-168172380D01*
X153785714Y-168172380D01*
X153690476Y-168124761D01*
X153642857Y-168077142D01*
X168785714Y-168172380D02*
X168785714Y-167172380D01*
X169023809Y-167172380D01*
X169166666Y-167220000D01*
X169261904Y-167315238D01*
X169309523Y-167410476D01*
X169357142Y-167600952D01*
X169357142Y-167743809D01*
X169309523Y-167934285D01*
X169261904Y-168029523D01*
X169166666Y-168124761D01*
X169023809Y-168172380D01*
X168785714Y-168172380D01*
X170309523Y-168172380D02*
X169738095Y-168172380D01*
X170023809Y-168172380D02*
X170023809Y-167172380D01*
X169928571Y-167315238D01*
X169833333Y-167410476D01*
X169738095Y-167458095D01*
X171166666Y-167505714D02*
X171166666Y-168172380D01*
X170928571Y-167124761D02*
X170690476Y-167839047D01*
X171309523Y-167839047D01*
X185785714Y-168172380D02*
X185785714Y-167172380D01*
X186023809Y-167172380D01*
X186166666Y-167220000D01*
X186261904Y-167315238D01*
X186309523Y-167410476D01*
X186357142Y-167600952D01*
X186357142Y-167743809D01*
X186309523Y-167934285D01*
X186261904Y-168029523D01*
X186166666Y-168124761D01*
X186023809Y-168172380D01*
X185785714Y-168172380D01*
X187309523Y-168172380D02*
X186738095Y-168172380D01*
X187023809Y-168172380D02*
X187023809Y-167172380D01*
X186928571Y-167315238D01*
X186833333Y-167410476D01*
X186738095Y-167458095D01*
X188214285Y-167172380D02*
X187738095Y-167172380D01*
X187690476Y-167648571D01*
X187738095Y-167600952D01*
X187833333Y-167553333D01*
X188071428Y-167553333D01*
X188166666Y-167600952D01*
X188214285Y-167648571D01*
X188261904Y-167743809D01*
X188261904Y-167981904D01*
X188214285Y-168077142D01*
X188166666Y-168124761D01*
X188071428Y-168172380D01*
X187833333Y-168172380D01*
X187738095Y-168124761D01*
X187690476Y-168077142D01*
X202785714Y-168172380D02*
X202785714Y-167172380D01*
X203023809Y-167172380D01*
X203166666Y-167220000D01*
X203261904Y-167315238D01*
X203309523Y-167410476D01*
X203357142Y-167600952D01*
X203357142Y-167743809D01*
X203309523Y-167934285D01*
X203261904Y-168029523D01*
X203166666Y-168124761D01*
X203023809Y-168172380D01*
X202785714Y-168172380D01*
X204309523Y-168172380D02*
X203738095Y-168172380D01*
X204023809Y-168172380D02*
X204023809Y-167172380D01*
X203928571Y-167315238D01*
X203833333Y-167410476D01*
X203738095Y-167458095D01*
X205166666Y-167172380D02*
X204976190Y-167172380D01*
X204880952Y-167220000D01*
X204833333Y-167267619D01*
X204738095Y-167410476D01*
X204690476Y-167600952D01*
X204690476Y-167981904D01*
X204738095Y-168077142D01*
X204785714Y-168124761D01*
X204880952Y-168172380D01*
X205071428Y-168172380D01*
X205166666Y-168124761D01*
X205214285Y-168077142D01*
X205261904Y-167981904D01*
X205261904Y-167743809D01*
X205214285Y-167648571D01*
X205166666Y-167600952D01*
X205071428Y-167553333D01*
X204880952Y-167553333D01*
X204785714Y-167600952D01*
X204738095Y-167648571D01*
X204690476Y-167743809D01*
X219785714Y-168172380D02*
X219785714Y-167172380D01*
X220023809Y-167172380D01*
X220166666Y-167220000D01*
X220261904Y-167315238D01*
X220309523Y-167410476D01*
X220357142Y-167600952D01*
X220357142Y-167743809D01*
X220309523Y-167934285D01*
X220261904Y-168029523D01*
X220166666Y-168124761D01*
X220023809Y-168172380D01*
X219785714Y-168172380D01*
X221309523Y-168172380D02*
X220738095Y-168172380D01*
X221023809Y-168172380D02*
X221023809Y-167172380D01*
X220928571Y-167315238D01*
X220833333Y-167410476D01*
X220738095Y-167458095D01*
X221642857Y-167172380D02*
X222309523Y-167172380D01*
X221880952Y-168172380D01*
X236785714Y-168172380D02*
X236785714Y-167172380D01*
X237023809Y-167172380D01*
X237166666Y-167220000D01*
X237261904Y-167315238D01*
X237309523Y-167410476D01*
X237357142Y-167600952D01*
X237357142Y-167743809D01*
X237309523Y-167934285D01*
X237261904Y-168029523D01*
X237166666Y-168124761D01*
X237023809Y-168172380D01*
X236785714Y-168172380D01*
X238309523Y-168172380D02*
X237738095Y-168172380D01*
X238023809Y-168172380D02*
X238023809Y-167172380D01*
X237928571Y-167315238D01*
X237833333Y-167410476D01*
X237738095Y-167458095D01*
X238880952Y-167600952D02*
X238785714Y-167553333D01*
X238738095Y-167505714D01*
X238690476Y-167410476D01*
X238690476Y-167362857D01*
X238738095Y-167267619D01*
X238785714Y-167220000D01*
X238880952Y-167172380D01*
X239071428Y-167172380D01*
X239166666Y-167220000D01*
X239214285Y-167267619D01*
X239261904Y-167362857D01*
X239261904Y-167410476D01*
X239214285Y-167505714D01*
X239166666Y-167553333D01*
X239071428Y-167600952D01*
X238880952Y-167600952D01*
X238785714Y-167648571D01*
X238738095Y-167696190D01*
X238690476Y-167791428D01*
X238690476Y-167981904D01*
X238738095Y-168077142D01*
X238785714Y-168124761D01*
X238880952Y-168172380D01*
X239071428Y-168172380D01*
X239166666Y-168124761D01*
X239214285Y-168077142D01*
X239261904Y-167981904D01*
X239261904Y-167791428D01*
X239214285Y-167696190D01*
X239166666Y-167648571D01*
X239071428Y-167600952D01*
X253785714Y-168172380D02*
X253785714Y-167172380D01*
X254023809Y-167172380D01*
X254166666Y-167220000D01*
X254261904Y-167315238D01*
X254309523Y-167410476D01*
X254357142Y-167600952D01*
X254357142Y-167743809D01*
X254309523Y-167934285D01*
X254261904Y-168029523D01*
X254166666Y-168124761D01*
X254023809Y-168172380D01*
X253785714Y-168172380D01*
X255309523Y-168172380D02*
X254738095Y-168172380D01*
X255023809Y-168172380D02*
X255023809Y-167172380D01*
X254928571Y-167315238D01*
X254833333Y-167410476D01*
X254738095Y-167458095D01*
X255785714Y-168172380D02*
X255976190Y-168172380D01*
X256071428Y-168124761D01*
X256119047Y-168077142D01*
X256214285Y-167934285D01*
X256261904Y-167743809D01*
X256261904Y-167362857D01*
X256214285Y-167267619D01*
X256166666Y-167220000D01*
X256071428Y-167172380D01*
X255880952Y-167172380D01*
X255785714Y-167220000D01*
X255738095Y-167267619D01*
X255690476Y-167362857D01*
X255690476Y-167600952D01*
X255738095Y-167696190D01*
X255785714Y-167743809D01*
X255880952Y-167791428D01*
X256071428Y-167791428D01*
X256166666Y-167743809D01*
X256214285Y-167696190D01*
X256261904Y-167600952D01*
X270785714Y-168172380D02*
X270785714Y-167172380D01*
X271023809Y-167172380D01*
X271166666Y-167220000D01*
X271261904Y-167315238D01*
X271309523Y-167410476D01*
X271357142Y-167600952D01*
X271357142Y-167743809D01*
X271309523Y-167934285D01*
X271261904Y-168029523D01*
X271166666Y-168124761D01*
X271023809Y-168172380D01*
X270785714Y-168172380D01*
X271738095Y-167267619D02*
X271785714Y-167220000D01*
X271880952Y-167172380D01*
X272119047Y-167172380D01*
X272214285Y-167220000D01*
X272261904Y-167267619D01*
X272309523Y-167362857D01*
X272309523Y-167458095D01*
X272261904Y-167600952D01*
X271690476Y-168172380D01*
X272309523Y-168172380D01*
X272928571Y-167172380D02*
X273023809Y-167172380D01*
X273119047Y-167220000D01*
X273166666Y-167267619D01*
X273214285Y-167362857D01*
X273261904Y-167553333D01*
X273261904Y-167791428D01*
X273214285Y-167981904D01*
X273166666Y-168077142D01*
X273119047Y-168124761D01*
X273023809Y-168172380D01*
X272928571Y-168172380D01*
X272833333Y-168124761D01*
X272785714Y-168077142D01*
X272738095Y-167981904D01*
X272690476Y-167791428D01*
X272690476Y-167553333D01*
X272738095Y-167362857D01*
X272785714Y-167267619D01*
X272833333Y-167220000D01*
X272928571Y-167172380D01*
X117785714Y-151172380D02*
X117785714Y-150172380D01*
X118023809Y-150172380D01*
X118166666Y-150220000D01*
X118261904Y-150315238D01*
X118309523Y-150410476D01*
X118357142Y-150600952D01*
X118357142Y-150743809D01*
X118309523Y-150934285D01*
X118261904Y-151029523D01*
X118166666Y-151124761D01*
X118023809Y-151172380D01*
X117785714Y-151172380D01*
X118738095Y-150267619D02*
X118785714Y-150220000D01*
X118880952Y-150172380D01*
X119119047Y-150172380D01*
X119214285Y-150220000D01*
X119261904Y-150267619D01*
X119309523Y-150362857D01*
X119309523Y-150458095D01*
X119261904Y-150600952D01*
X118690476Y-151172380D01*
X119309523Y-151172380D01*
X120261904Y-151172380D02*
X119690476Y-151172380D01*
X119976190Y-151172380D02*
X119976190Y-150172380D01*
X119880952Y-150315238D01*
X119785714Y-150410476D01*
X119690476Y-150458095D01*
X134785714Y-151172380D02*
X134785714Y-150172380D01*
X135023809Y-150172380D01*
X135166666Y-150220000D01*
X135261904Y-150315238D01*
X135309523Y-150410476D01*
X135357142Y-150600952D01*
X135357142Y-150743809D01*
X135309523Y-150934285D01*
X135261904Y-151029523D01*
X135166666Y-151124761D01*
X135023809Y-151172380D01*
X134785714Y-151172380D01*
X135738095Y-150267619D02*
X135785714Y-150220000D01*
X135880952Y-150172380D01*
X136119047Y-150172380D01*
X136214285Y-150220000D01*
X136261904Y-150267619D01*
X136309523Y-150362857D01*
X136309523Y-150458095D01*
X136261904Y-150600952D01*
X135690476Y-151172380D01*
X136309523Y-151172380D01*
X136690476Y-150267619D02*
X136738095Y-150220000D01*
X136833333Y-150172380D01*
X137071428Y-150172380D01*
X137166666Y-150220000D01*
X137214285Y-150267619D01*
X137261904Y-150362857D01*
X137261904Y-150458095D01*
X137214285Y-150600952D01*
X136642857Y-151172380D01*
X137261904Y-151172380D01*
X151785714Y-151172380D02*
X151785714Y-150172380D01*
X152023809Y-150172380D01*
X152166666Y-150220000D01*
X152261904Y-150315238D01*
X152309523Y-150410476D01*
X152357142Y-150600952D01*
X152357142Y-150743809D01*
X152309523Y-150934285D01*
X152261904Y-151029523D01*
X152166666Y-151124761D01*
X152023809Y-151172380D01*
X151785714Y-151172380D01*
X152738095Y-150267619D02*
X152785714Y-150220000D01*
X152880952Y-150172380D01*
X153119047Y-150172380D01*
X153214285Y-150220000D01*
X153261904Y-150267619D01*
X153309523Y-150362857D01*
X153309523Y-150458095D01*
X153261904Y-150600952D01*
X152690476Y-151172380D01*
X153309523Y-151172380D01*
X153642857Y-150172380D02*
X154261904Y-150172380D01*
X153928571Y-150553333D01*
X154071428Y-150553333D01*
X154166666Y-150600952D01*
X154214285Y-150648571D01*
X154261904Y-150743809D01*
X154261904Y-150981904D01*
X154214285Y-151077142D01*
X154166666Y-151124761D01*
X154071428Y-151172380D01*
X153785714Y-151172380D01*
X153690476Y-151124761D01*
X153642857Y-151077142D01*
X168785714Y-151172380D02*
X168785714Y-150172380D01*
X169023809Y-150172380D01*
X169166666Y-150220000D01*
X169261904Y-150315238D01*
X169309523Y-150410476D01*
X169357142Y-150600952D01*
X169357142Y-150743809D01*
X169309523Y-150934285D01*
X169261904Y-151029523D01*
X169166666Y-151124761D01*
X169023809Y-151172380D01*
X168785714Y-151172380D01*
X169738095Y-150267619D02*
X169785714Y-150220000D01*
X169880952Y-150172380D01*
X170119047Y-150172380D01*
X170214285Y-150220000D01*
X170261904Y-150267619D01*
X170309523Y-150362857D01*
X170309523Y-150458095D01*
X170261904Y-150600952D01*
X169690476Y-151172380D01*
X170309523Y-151172380D01*
X171166666Y-150505714D02*
X171166666Y-151172380D01*
X170928571Y-150124761D02*
X170690476Y-150839047D01*
X171309523Y-150839047D01*
X185785714Y-151172380D02*
X185785714Y-150172380D01*
X186023809Y-150172380D01*
X186166666Y-150220000D01*
X186261904Y-150315238D01*
X186309523Y-150410476D01*
X186357142Y-150600952D01*
X186357142Y-150743809D01*
X186309523Y-150934285D01*
X186261904Y-151029523D01*
X186166666Y-151124761D01*
X186023809Y-151172380D01*
X185785714Y-151172380D01*
X186738095Y-150267619D02*
X186785714Y-150220000D01*
X186880952Y-150172380D01*
X187119047Y-150172380D01*
X187214285Y-150220000D01*
X187261904Y-150267619D01*
X187309523Y-150362857D01*
X187309523Y-150458095D01*
X187261904Y-150600952D01*
X186690476Y-151172380D01*
X187309523Y-151172380D01*
X188214285Y-150172380D02*
X187738095Y-150172380D01*
X187690476Y-150648571D01*
X187738095Y-150600952D01*
X187833333Y-150553333D01*
X188071428Y-150553333D01*
X188166666Y-150600952D01*
X188214285Y-150648571D01*
X188261904Y-150743809D01*
X188261904Y-150981904D01*
X188214285Y-151077142D01*
X188166666Y-151124761D01*
X188071428Y-151172380D01*
X187833333Y-151172380D01*
X187738095Y-151124761D01*
X187690476Y-151077142D01*
X202785714Y-151172380D02*
X202785714Y-150172380D01*
X203023809Y-150172380D01*
X203166666Y-150220000D01*
X203261904Y-150315238D01*
X203309523Y-150410476D01*
X203357142Y-150600952D01*
X203357142Y-150743809D01*
X203309523Y-150934285D01*
X203261904Y-151029523D01*
X203166666Y-151124761D01*
X203023809Y-151172380D01*
X202785714Y-151172380D01*
X203738095Y-150267619D02*
X203785714Y-150220000D01*
X203880952Y-150172380D01*
X204119047Y-150172380D01*
X204214285Y-150220000D01*
X204261904Y-150267619D01*
X204309523Y-150362857D01*
X204309523Y-150458095D01*
X204261904Y-150600952D01*
X203690476Y-151172380D01*
X204309523Y-151172380D01*
X205166666Y-150172380D02*
X204976190Y-150172380D01*
X204880952Y-150220000D01*
X204833333Y-150267619D01*
X204738095Y-150410476D01*
X204690476Y-150600952D01*
X204690476Y-150981904D01*
X204738095Y-151077142D01*
X204785714Y-151124761D01*
X204880952Y-151172380D01*
X205071428Y-151172380D01*
X205166666Y-151124761D01*
X205214285Y-151077142D01*
X205261904Y-150981904D01*
X205261904Y-150743809D01*
X205214285Y-150648571D01*
X205166666Y-150600952D01*
X205071428Y-150553333D01*
X204880952Y-150553333D01*
X204785714Y-150600952D01*
X204738095Y-150648571D01*
X204690476Y-150743809D01*
X219785714Y-151172380D02*
X219785714Y-150172380D01*
X220023809Y-150172380D01*
X220166666Y-150220000D01*
X220261904Y-150315238D01*
X220309523Y-150410476D01*
X220357142Y-150600952D01*
X220357142Y-150743809D01*
X220309523Y-150934285D01*
X220261904Y-151029523D01*
X220166666Y-151124761D01*
X220023809Y-151172380D01*
X219785714Y-151172380D01*
X220738095Y-150267619D02*
X220785714Y-150220000D01*
X220880952Y-150172380D01*
X221119047Y-150172380D01*
X221214285Y-150220000D01*
X221261904Y-150267619D01*
X221309523Y-150362857D01*
X221309523Y-150458095D01*
X221261904Y-150600952D01*
X220690476Y-151172380D01*
X221309523Y-151172380D01*
X221642857Y-150172380D02*
X222309523Y-150172380D01*
X221880952Y-151172380D01*
X236785714Y-151172380D02*
X236785714Y-150172380D01*
X237023809Y-150172380D01*
X237166666Y-150220000D01*
X237261904Y-150315238D01*
X237309523Y-150410476D01*
X237357142Y-150600952D01*
X237357142Y-150743809D01*
X237309523Y-150934285D01*
X237261904Y-151029523D01*
X237166666Y-151124761D01*
X237023809Y-151172380D01*
X236785714Y-151172380D01*
X237738095Y-150267619D02*
X237785714Y-150220000D01*
X237880952Y-150172380D01*
X238119047Y-150172380D01*
X238214285Y-150220000D01*
X238261904Y-150267619D01*
X238309523Y-150362857D01*
X238309523Y-150458095D01*
X238261904Y-150600952D01*
X237690476Y-151172380D01*
X238309523Y-151172380D01*
X238880952Y-150600952D02*
X238785714Y-150553333D01*
X238738095Y-150505714D01*
X238690476Y-150410476D01*
X238690476Y-150362857D01*
X238738095Y-150267619D01*
X238785714Y-150220000D01*
X238880952Y-150172380D01*
X239071428Y-150172380D01*
X239166666Y-150220000D01*
X239214285Y-150267619D01*
X239261904Y-150362857D01*
X239261904Y-150410476D01*
X239214285Y-150505714D01*
X239166666Y-150553333D01*
X239071428Y-150600952D01*
X238880952Y-150600952D01*
X238785714Y-150648571D01*
X238738095Y-150696190D01*
X238690476Y-150791428D01*
X238690476Y-150981904D01*
X238738095Y-151077142D01*
X238785714Y-151124761D01*
X238880952Y-151172380D01*
X239071428Y-151172380D01*
X239166666Y-151124761D01*
X239214285Y-151077142D01*
X239261904Y-150981904D01*
X239261904Y-150791428D01*
X239214285Y-150696190D01*
X239166666Y-150648571D01*
X239071428Y-150600952D01*
X253785714Y-151172380D02*
X253785714Y-150172380D01*
X254023809Y-150172380D01*
X254166666Y-150220000D01*
X254261904Y-150315238D01*
X254309523Y-150410476D01*
X254357142Y-150600952D01*
X254357142Y-150743809D01*
X254309523Y-150934285D01*
X254261904Y-151029523D01*
X254166666Y-151124761D01*
X254023809Y-151172380D01*
X253785714Y-151172380D01*
X254738095Y-150267619D02*
X254785714Y-150220000D01*
X254880952Y-150172380D01*
X255119047Y-150172380D01*
X255214285Y-150220000D01*
X255261904Y-150267619D01*
X255309523Y-150362857D01*
X255309523Y-150458095D01*
X255261904Y-150600952D01*
X254690476Y-151172380D01*
X255309523Y-151172380D01*
X255785714Y-151172380D02*
X255976190Y-151172380D01*
X256071428Y-151124761D01*
X256119047Y-151077142D01*
X256214285Y-150934285D01*
X256261904Y-150743809D01*
X256261904Y-150362857D01*
X256214285Y-150267619D01*
X256166666Y-150220000D01*
X256071428Y-150172380D01*
X255880952Y-150172380D01*
X255785714Y-150220000D01*
X255738095Y-150267619D01*
X255690476Y-150362857D01*
X255690476Y-150600952D01*
X255738095Y-150696190D01*
X255785714Y-150743809D01*
X255880952Y-150791428D01*
X256071428Y-150791428D01*
X256166666Y-150743809D01*
X256214285Y-150696190D01*
X256261904Y-150600952D01*
X270785714Y-151172380D02*
X270785714Y-150172380D01*
X271023809Y-150172380D01*
X271166666Y-150220000D01*
X271261904Y-150315238D01*
X271309523Y-150410476D01*
X271357142Y-150600952D01*
X271357142Y-150743809D01*
X271309523Y-150934285D01*
X271261904Y-151029523D01*
X271166666Y-151124761D01*
X271023809Y-151172380D01*
X270785714Y-151172380D01*
X271690476Y-150172380D02*
X272309523Y-150172380D01*
X271976190Y-150553333D01*
X272119047Y-150553333D01*
X272214285Y-150600952D01*
X272261904Y-150648571D01*
X272309523Y-150743809D01*
X272309523Y-150981904D01*
X272261904Y-151077142D01*
X272214285Y-151124761D01*
X272119047Y-151172380D01*
X271833333Y-151172380D01*
X271738095Y-151124761D01*
X271690476Y-151077142D01*
X272928571Y-150172380D02*
X273023809Y-150172380D01*
X273119047Y-150220000D01*
X273166666Y-150267619D01*
X273214285Y-150362857D01*
X273261904Y-150553333D01*
X273261904Y-150791428D01*
X273214285Y-150981904D01*
X273166666Y-151077142D01*
X273119047Y-151124761D01*
X273023809Y-151172380D01*
X272928571Y-151172380D01*
X272833333Y-151124761D01*
X272785714Y-151077142D01*
X272738095Y-150981904D01*
X272690476Y-150791428D01*
X272690476Y-150553333D01*
X272738095Y-150362857D01*
X272785714Y-150267619D01*
X272833333Y-150220000D01*
X272928571Y-150172380D01*
X117785714Y-134172380D02*
X117785714Y-133172380D01*
X118023809Y-133172380D01*
X118166666Y-133220000D01*
X118261904Y-133315238D01*
X118309523Y-133410476D01*
X118357142Y-133600952D01*
X118357142Y-133743809D01*
X118309523Y-133934285D01*
X118261904Y-134029523D01*
X118166666Y-134124761D01*
X118023809Y-134172380D01*
X117785714Y-134172380D01*
X118690476Y-133172380D02*
X119309523Y-133172380D01*
X118976190Y-133553333D01*
X119119047Y-133553333D01*
X119214285Y-133600952D01*
X119261904Y-133648571D01*
X119309523Y-133743809D01*
X119309523Y-133981904D01*
X119261904Y-134077142D01*
X119214285Y-134124761D01*
X119119047Y-134172380D01*
X118833333Y-134172380D01*
X118738095Y-134124761D01*
X118690476Y-134077142D01*
X120261904Y-134172380D02*
X119690476Y-134172380D01*
X119976190Y-134172380D02*
X119976190Y-133172380D01*
X119880952Y-133315238D01*
X119785714Y-133410476D01*
X119690476Y-133458095D01*
X134785714Y-134172380D02*
X134785714Y-133172380D01*
X135023809Y-133172380D01*
X135166666Y-133220000D01*
X135261904Y-133315238D01*
X135309523Y-133410476D01*
X135357142Y-133600952D01*
X135357142Y-133743809D01*
X135309523Y-133934285D01*
X135261904Y-134029523D01*
X135166666Y-134124761D01*
X135023809Y-134172380D01*
X134785714Y-134172380D01*
X135690476Y-133172380D02*
X136309523Y-133172380D01*
X135976190Y-133553333D01*
X136119047Y-133553333D01*
X136214285Y-133600952D01*
X136261904Y-133648571D01*
X136309523Y-133743809D01*
X136309523Y-133981904D01*
X136261904Y-134077142D01*
X136214285Y-134124761D01*
X136119047Y-134172380D01*
X135833333Y-134172380D01*
X135738095Y-134124761D01*
X135690476Y-134077142D01*
X136690476Y-133267619D02*
X136738095Y-133220000D01*
X136833333Y-133172380D01*
X137071428Y-133172380D01*
X137166666Y-133220000D01*
X137214285Y-133267619D01*
X137261904Y-133362857D01*
X137261904Y-133458095D01*
X137214285Y-133600952D01*
X136642857Y-134172380D01*
X137261904Y-134172380D01*
X151785714Y-134172380D02*
X151785714Y-133172380D01*
X152023809Y-133172380D01*
X152166666Y-133220000D01*
X152261904Y-133315238D01*
X152309523Y-133410476D01*
X152357142Y-133600952D01*
X152357142Y-133743809D01*
X152309523Y-133934285D01*
X152261904Y-134029523D01*
X152166666Y-134124761D01*
X152023809Y-134172380D01*
X151785714Y-134172380D01*
X152690476Y-133172380D02*
X153309523Y-133172380D01*
X152976190Y-133553333D01*
X153119047Y-133553333D01*
X153214285Y-133600952D01*
X153261904Y-133648571D01*
X153309523Y-133743809D01*
X153309523Y-133981904D01*
X153261904Y-134077142D01*
X153214285Y-134124761D01*
X153119047Y-134172380D01*
X152833333Y-134172380D01*
X152738095Y-134124761D01*
X152690476Y-134077142D01*
X153642857Y-133172380D02*
X154261904Y-133172380D01*
X153928571Y-133553333D01*
X154071428Y-133553333D01*
X154166666Y-133600952D01*
X154214285Y-133648571D01*
X154261904Y-133743809D01*
X154261904Y-133981904D01*
X154214285Y-134077142D01*
X154166666Y-134124761D01*
X154071428Y-134172380D01*
X153785714Y-134172380D01*
X153690476Y-134124761D01*
X153642857Y-134077142D01*
X168785714Y-134172380D02*
X168785714Y-133172380D01*
X169023809Y-133172380D01*
X169166666Y-133220000D01*
X169261904Y-133315238D01*
X169309523Y-133410476D01*
X169357142Y-133600952D01*
X169357142Y-133743809D01*
X169309523Y-133934285D01*
X169261904Y-134029523D01*
X169166666Y-134124761D01*
X169023809Y-134172380D01*
X168785714Y-134172380D01*
X169690476Y-133172380D02*
X170309523Y-133172380D01*
X169976190Y-133553333D01*
X170119047Y-133553333D01*
X170214285Y-133600952D01*
X170261904Y-133648571D01*
X170309523Y-133743809D01*
X170309523Y-133981904D01*
X170261904Y-134077142D01*
X170214285Y-134124761D01*
X170119047Y-134172380D01*
X169833333Y-134172380D01*
X169738095Y-134124761D01*
X169690476Y-134077142D01*
X171166666Y-133505714D02*
X171166666Y-134172380D01*
X170928571Y-133124761D02*
X170690476Y-133839047D01*
X171309523Y-133839047D01*
X185785714Y-134172380D02*
X185785714Y-133172380D01*
X186023809Y-133172380D01*
X186166666Y-133220000D01*
X186261904Y-133315238D01*
X186309523Y-133410476D01*
X186357142Y-133600952D01*
X186357142Y-133743809D01*
X186309523Y-133934285D01*
X186261904Y-134029523D01*
X186166666Y-134124761D01*
X186023809Y-134172380D01*
X185785714Y-134172380D01*
X186690476Y-133172380D02*
X187309523Y-133172380D01*
X186976190Y-133553333D01*
X187119047Y-133553333D01*
X187214285Y-133600952D01*
X187261904Y-133648571D01*
X187309523Y-133743809D01*
X187309523Y-133981904D01*
X187261904Y-134077142D01*
X187214285Y-134124761D01*
X187119047Y-134172380D01*
X186833333Y-134172380D01*
X186738095Y-134124761D01*
X186690476Y-134077142D01*
X188214285Y-133172380D02*
X187738095Y-133172380D01*
X187690476Y-133648571D01*
X187738095Y-133600952D01*
X187833333Y-133553333D01*
X188071428Y-133553333D01*
X188166666Y-133600952D01*
X188214285Y-133648571D01*
X188261904Y-133743809D01*
X188261904Y-133981904D01*
X188214285Y-134077142D01*
X188166666Y-134124761D01*
X188071428Y-134172380D01*
X187833333Y-134172380D01*
X187738095Y-134124761D01*
X187690476Y-134077142D01*
X202785714Y-134172380D02*
X202785714Y-133172380D01*
X203023809Y-133172380D01*
X203166666Y-133220000D01*
X203261904Y-133315238D01*
X203309523Y-133410476D01*
X203357142Y-133600952D01*
X203357142Y-133743809D01*
X203309523Y-133934285D01*
X203261904Y-134029523D01*
X203166666Y-134124761D01*
X203023809Y-134172380D01*
X202785714Y-134172380D01*
X203690476Y-133172380D02*
X204309523Y-133172380D01*
X203976190Y-133553333D01*
X204119047Y-133553333D01*
X204214285Y-133600952D01*
X204261904Y-133648571D01*
X204309523Y-133743809D01*
X204309523Y-133981904D01*
X204261904Y-134077142D01*
X204214285Y-134124761D01*
X204119047Y-134172380D01*
X203833333Y-134172380D01*
X203738095Y-134124761D01*
X203690476Y-134077142D01*
X205166666Y-133172380D02*
X204976190Y-133172380D01*
X204880952Y-133220000D01*
X204833333Y-133267619D01*
X204738095Y-133410476D01*
X204690476Y-133600952D01*
X204690476Y-133981904D01*
X204738095Y-134077142D01*
X204785714Y-134124761D01*
X204880952Y-134172380D01*
X205071428Y-134172380D01*
X205166666Y-134124761D01*
X205214285Y-134077142D01*
X205261904Y-133981904D01*
X205261904Y-133743809D01*
X205214285Y-133648571D01*
X205166666Y-133600952D01*
X205071428Y-133553333D01*
X204880952Y-133553333D01*
X204785714Y-133600952D01*
X204738095Y-133648571D01*
X204690476Y-133743809D01*
X219785714Y-134172380D02*
X219785714Y-133172380D01*
X220023809Y-133172380D01*
X220166666Y-133220000D01*
X220261904Y-133315238D01*
X220309523Y-133410476D01*
X220357142Y-133600952D01*
X220357142Y-133743809D01*
X220309523Y-133934285D01*
X220261904Y-134029523D01*
X220166666Y-134124761D01*
X220023809Y-134172380D01*
X219785714Y-134172380D01*
X220690476Y-133172380D02*
X221309523Y-133172380D01*
X220976190Y-133553333D01*
X221119047Y-133553333D01*
X221214285Y-133600952D01*
X221261904Y-133648571D01*
X221309523Y-133743809D01*
X221309523Y-133981904D01*
X221261904Y-134077142D01*
X221214285Y-134124761D01*
X221119047Y-134172380D01*
X220833333Y-134172380D01*
X220738095Y-134124761D01*
X220690476Y-134077142D01*
X221642857Y-133172380D02*
X222309523Y-133172380D01*
X221880952Y-134172380D01*
X236785714Y-134172380D02*
X236785714Y-133172380D01*
X237023809Y-133172380D01*
X237166666Y-133220000D01*
X237261904Y-133315238D01*
X237309523Y-133410476D01*
X237357142Y-133600952D01*
X237357142Y-133743809D01*
X237309523Y-133934285D01*
X237261904Y-134029523D01*
X237166666Y-134124761D01*
X237023809Y-134172380D01*
X236785714Y-134172380D01*
X237690476Y-133172380D02*
X238309523Y-133172380D01*
X237976190Y-133553333D01*
X238119047Y-133553333D01*
X238214285Y-133600952D01*
X238261904Y-133648571D01*
X238309523Y-133743809D01*
X238309523Y-133981904D01*
X238261904Y-134077142D01*
X238214285Y-134124761D01*
X238119047Y-134172380D01*
X237833333Y-134172380D01*
X237738095Y-134124761D01*
X237690476Y-134077142D01*
X238880952Y-133600952D02*
X238785714Y-133553333D01*
X238738095Y-133505714D01*
X238690476Y-133410476D01*
X238690476Y-133362857D01*
X238738095Y-133267619D01*
X238785714Y-133220000D01*
X238880952Y-133172380D01*
X239071428Y-133172380D01*
X239166666Y-133220000D01*
X239214285Y-133267619D01*
X239261904Y-133362857D01*
X239261904Y-133410476D01*
X239214285Y-133505714D01*
X239166666Y-133553333D01*
X239071428Y-133600952D01*
X238880952Y-133600952D01*
X238785714Y-133648571D01*
X238738095Y-133696190D01*
X238690476Y-133791428D01*
X238690476Y-133981904D01*
X238738095Y-134077142D01*
X238785714Y-134124761D01*
X238880952Y-134172380D01*
X239071428Y-134172380D01*
X239166666Y-134124761D01*
X239214285Y-134077142D01*
X239261904Y-133981904D01*
X239261904Y-133791428D01*
X239214285Y-133696190D01*
X239166666Y-133648571D01*
X239071428Y-133600952D01*
X253785714Y-134172380D02*
X253785714Y-133172380D01*
X254023809Y-133172380D01*
X254166666Y-133220000D01*
X254261904Y-133315238D01*
X254309523Y-133410476D01*
X254357142Y-133600952D01*
X254357142Y-133743809D01*
X254309523Y-133934285D01*
X254261904Y-134029523D01*
X254166666Y-134124761D01*
X254023809Y-134172380D01*
X253785714Y-134172380D01*
X254690476Y-133172380D02*
X255309523Y-133172380D01*
X254976190Y-133553333D01*
X255119047Y-133553333D01*
X255214285Y-133600952D01*
X255261904Y-133648571D01*
X255309523Y-133743809D01*
X255309523Y-133981904D01*
X255261904Y-134077142D01*
X255214285Y-134124761D01*
X255119047Y-134172380D01*
X254833333Y-134172380D01*
X254738095Y-134124761D01*
X254690476Y-134077142D01*
X255785714Y-134172380D02*
X255976190Y-134172380D01*
X256071428Y-134124761D01*
X256119047Y-134077142D01*
X256214285Y-133934285D01*
X256261904Y-133743809D01*
X256261904Y-133362857D01*
X256214285Y-133267619D01*
X256166666Y-133220000D01*
X256071428Y-133172380D01*
X255880952Y-133172380D01*
X255785714Y-133220000D01*
X255738095Y-133267619D01*
X255690476Y-133362857D01*
X255690476Y-133600952D01*
X255738095Y-133696190D01*
X255785714Y-133743809D01*
X255880952Y-133791428D01*
X256071428Y-133791428D01*
X256166666Y-133743809D01*
X256214285Y-133696190D01*
X256261904Y-133600952D01*
X270785714Y-134172380D02*
X270785714Y-133172380D01*
X271023809Y-133172380D01*
X271166666Y-133220000D01*
X271261904Y-133315238D01*
X271309523Y-133410476D01*
X271357142Y-133600952D01*
X271357142Y-133743809D01*
X271309523Y-133934285D01*
X271261904Y-134029523D01*
X271166666Y-134124761D01*
X271023809Y-134172380D01*
X270785714Y-134172380D01*
X272214285Y-133505714D02*
X272214285Y-134172380D01*
X271976190Y-133124761D02*
X271738095Y-133839047D01*
X272357142Y-133839047D01*
X272928571Y-133172380D02*
X273023809Y-133172380D01*
X273119047Y-133220000D01*
X273166666Y-133267619D01*
X273214285Y-133362857D01*
X273261904Y-133553333D01*
X273261904Y-133791428D01*
X273214285Y-133981904D01*
X273166666Y-134077142D01*
X273119047Y-134124761D01*
X273023809Y-134172380D01*
X272928571Y-134172380D01*
X272833333Y-134124761D01*
X272785714Y-134077142D01*
X272738095Y-133981904D01*
X272690476Y-133791428D01*
X272690476Y-133553333D01*
X272738095Y-133362857D01*
X272785714Y-133267619D01*
X272833333Y-133220000D01*
X272928571Y-133172380D01*
X117785714Y-117172380D02*
X117785714Y-116172380D01*
X118023809Y-116172380D01*
X118166666Y-116220000D01*
X118261904Y-116315238D01*
X118309523Y-116410476D01*
X118357142Y-116600952D01*
X118357142Y-116743809D01*
X118309523Y-116934285D01*
X118261904Y-117029523D01*
X118166666Y-117124761D01*
X118023809Y-117172380D01*
X117785714Y-117172380D01*
X119214285Y-116505714D02*
X119214285Y-117172380D01*
X118976190Y-116124761D02*
X118738095Y-116839047D01*
X119357142Y-116839047D01*
X120261904Y-117172380D02*
X119690476Y-117172380D01*
X119976190Y-117172380D02*
X119976190Y-116172380D01*
X119880952Y-116315238D01*
X119785714Y-116410476D01*
X119690476Y-116458095D01*
X134785714Y-117172380D02*
X134785714Y-116172380D01*
X135023809Y-116172380D01*
X135166666Y-116220000D01*
X135261904Y-116315238D01*
X135309523Y-116410476D01*
X135357142Y-116600952D01*
X135357142Y-116743809D01*
X135309523Y-116934285D01*
X135261904Y-117029523D01*
X135166666Y-117124761D01*
X135023809Y-117172380D01*
X134785714Y-117172380D01*
X136214285Y-116505714D02*
X136214285Y-117172380D01*
X135976190Y-116124761D02*
X135738095Y-116839047D01*
X136357142Y-116839047D01*
X136690476Y-116267619D02*
X136738095Y-116220000D01*
X136833333Y-116172380D01*
X137071428Y-116172380D01*
X137166666Y-116220000D01*
X137214285Y-116267619D01*
X137261904Y-116362857D01*
X137261904Y-116458095D01*
X137214285Y-116600952D01*
X136642857Y-117172380D01*
X137261904Y-117172380D01*
X151785714Y-117172380D02*
X151785714Y-116172380D01*
X152023809Y-116172380D01*
X152166666Y-116220000D01*
X152261904Y-116315238D01*
X152309523Y-116410476D01*
X152357142Y-116600952D01*
X152357142Y-116743809D01*
X152309523Y-116934285D01*
X152261904Y-117029523D01*
X152166666Y-117124761D01*
X152023809Y-117172380D01*
X151785714Y-117172380D01*
X153214285Y-116505714D02*
X153214285Y-117172380D01*
X152976190Y-116124761D02*
X152738095Y-116839047D01*
X153357142Y-116839047D01*
X153642857Y-116172380D02*
X154261904Y-116172380D01*
X153928571Y-116553333D01*
X154071428Y-116553333D01*
X154166666Y-116600952D01*
X154214285Y-116648571D01*
X154261904Y-116743809D01*
X154261904Y-116981904D01*
X154214285Y-117077142D01*
X154166666Y-117124761D01*
X154071428Y-117172380D01*
X153785714Y-117172380D01*
X153690476Y-117124761D01*
X153642857Y-117077142D01*
X168785714Y-117172380D02*
X168785714Y-116172380D01*
X169023809Y-116172380D01*
X169166666Y-116220000D01*
X169261904Y-116315238D01*
X169309523Y-116410476D01*
X169357142Y-116600952D01*
X169357142Y-116743809D01*
X169309523Y-116934285D01*
X169261904Y-117029523D01*
X169166666Y-117124761D01*
X169023809Y-117172380D01*
X168785714Y-117172380D01*
X170214285Y-116505714D02*
X170214285Y-117172380D01*
X169976190Y-116124761D02*
X169738095Y-116839047D01*
X170357142Y-116839047D01*
X171166666Y-116505714D02*
X171166666Y-117172380D01*
X170928571Y-116124761D02*
X170690476Y-116839047D01*
X171309523Y-116839047D01*
X185785714Y-117172380D02*
X185785714Y-116172380D01*
X186023809Y-116172380D01*
X186166666Y-116220000D01*
X186261904Y-116315238D01*
X186309523Y-116410476D01*
X186357142Y-116600952D01*
X186357142Y-116743809D01*
X186309523Y-116934285D01*
X186261904Y-117029523D01*
X186166666Y-117124761D01*
X186023809Y-117172380D01*
X185785714Y-117172380D01*
X187214285Y-116505714D02*
X187214285Y-117172380D01*
X186976190Y-116124761D02*
X186738095Y-116839047D01*
X187357142Y-116839047D01*
X188214285Y-116172380D02*
X187738095Y-116172380D01*
X187690476Y-116648571D01*
X187738095Y-116600952D01*
X187833333Y-116553333D01*
X188071428Y-116553333D01*
X188166666Y-116600952D01*
X188214285Y-116648571D01*
X188261904Y-116743809D01*
X188261904Y-116981904D01*
X188214285Y-117077142D01*
X188166666Y-117124761D01*
X188071428Y-117172380D01*
X187833333Y-117172380D01*
X187738095Y-117124761D01*
X187690476Y-117077142D01*
X202785714Y-117172380D02*
X202785714Y-116172380D01*
X203023809Y-116172380D01*
X203166666Y-116220000D01*
X203261904Y-116315238D01*
X203309523Y-116410476D01*
X203357142Y-116600952D01*
X203357142Y-116743809D01*
X203309523Y-116934285D01*
X203261904Y-117029523D01*
X203166666Y-117124761D01*
X203023809Y-117172380D01*
X202785714Y-117172380D01*
X204214285Y-116505714D02*
X204214285Y-117172380D01*
X203976190Y-116124761D02*
X203738095Y-116839047D01*
X204357142Y-116839047D01*
X205166666Y-116172380D02*
X204976190Y-116172380D01*
X204880952Y-116220000D01*
X204833333Y-116267619D01*
X204738095Y-116410476D01*
X204690476Y-116600952D01*
X204690476Y-116981904D01*
X204738095Y-117077142D01*
X204785714Y-117124761D01*
X204880952Y-117172380D01*
X205071428Y-117172380D01*
X205166666Y-117124761D01*
X205214285Y-117077142D01*
X205261904Y-116981904D01*
X205261904Y-116743809D01*
X205214285Y-116648571D01*
X205166666Y-116600952D01*
X205071428Y-116553333D01*
X204880952Y-116553333D01*
X204785714Y-116600952D01*
X204738095Y-116648571D01*
X204690476Y-116743809D01*
X219785714Y-117172380D02*
X219785714Y-116172380D01*
X220023809Y-116172380D01*
X220166666Y-116220000D01*
X220261904Y-116315238D01*
X220309523Y-116410476D01*
X220357142Y-116600952D01*
X220357142Y-116743809D01*
X220309523Y-116934285D01*
X220261904Y-117029523D01*
X220166666Y-117124761D01*
X220023809Y-117172380D01*
X219785714Y-117172380D01*
X221214285Y-116505714D02*
X221214285Y-117172380D01*
X220976190Y-116124761D02*
X220738095Y-116839047D01*
X221357142Y-116839047D01*
X221642857Y-116172380D02*
X222309523Y-116172380D01*
X221880952Y-117172380D01*
X236785714Y-117172380D02*
X236785714Y-116172380D01*
X237023809Y-116172380D01*
X237166666Y-116220000D01*
X237261904Y-116315238D01*
X237309523Y-116410476D01*
X237357142Y-116600952D01*
X237357142Y-116743809D01*
X237309523Y-116934285D01*
X237261904Y-117029523D01*
X237166666Y-117124761D01*
X237023809Y-117172380D01*
X236785714Y-117172380D01*
X238214285Y-116505714D02*
X238214285Y-117172380D01*
X237976190Y-116124761D02*
X237738095Y-116839047D01*
X238357142Y-116839047D01*
X238880952Y-116600952D02*
X238785714Y-116553333D01*
X238738095Y-116505714D01*
X238690476Y-116410476D01*
X238690476Y-116362857D01*
X238738095Y-116267619D01*
X238785714Y-116220000D01*
X238880952Y-116172380D01*
X239071428Y-116172380D01*
X239166666Y-116220000D01*
X239214285Y-116267619D01*
X239261904Y-116362857D01*
X239261904Y-116410476D01*
X239214285Y-116505714D01*
X239166666Y-116553333D01*
X239071428Y-116600952D01*
X238880952Y-116600952D01*
X238785714Y-116648571D01*
X238738095Y-116696190D01*
X238690476Y-116791428D01*
X238690476Y-116981904D01*
X238738095Y-117077142D01*
X238785714Y-117124761D01*
X238880952Y-117172380D01*
X239071428Y-117172380D01*
X239166666Y-117124761D01*
X239214285Y-117077142D01*
X239261904Y-116981904D01*
X239261904Y-116791428D01*
X239214285Y-116696190D01*
X239166666Y-116648571D01*
X239071428Y-116600952D01*
X253785714Y-117172380D02*
X253785714Y-116172380D01*
X254023809Y-116172380D01*
X254166666Y-116220000D01*
X254261904Y-116315238D01*
X254309523Y-116410476D01*
X254357142Y-116600952D01*
X254357142Y-116743809D01*
X254309523Y-116934285D01*
X254261904Y-117029523D01*
X254166666Y-117124761D01*
X254023809Y-117172380D01*
X253785714Y-117172380D01*
X255214285Y-116505714D02*
X255214285Y-117172380D01*
X254976190Y-116124761D02*
X254738095Y-116839047D01*
X255357142Y-116839047D01*
X255785714Y-117172380D02*
X255976190Y-117172380D01*
X256071428Y-117124761D01*
X256119047Y-117077142D01*
X256214285Y-116934285D01*
X256261904Y-116743809D01*
X256261904Y-116362857D01*
X256214285Y-116267619D01*
X256166666Y-116220000D01*
X256071428Y-116172380D01*
X255880952Y-116172380D01*
X255785714Y-116220000D01*
X255738095Y-116267619D01*
X255690476Y-116362857D01*
X255690476Y-116600952D01*
X255738095Y-116696190D01*
X255785714Y-116743809D01*
X255880952Y-116791428D01*
X256071428Y-116791428D01*
X256166666Y-116743809D01*
X256214285Y-116696190D01*
X256261904Y-116600952D01*
X270785714Y-117172380D02*
X270785714Y-116172380D01*
X271023809Y-116172380D01*
X271166666Y-116220000D01*
X271261904Y-116315238D01*
X271309523Y-116410476D01*
X271357142Y-116600952D01*
X271357142Y-116743809D01*
X271309523Y-116934285D01*
X271261904Y-117029523D01*
X271166666Y-117124761D01*
X271023809Y-117172380D01*
X270785714Y-117172380D01*
X272261904Y-116172380D02*
X271785714Y-116172380D01*
X271738095Y-116648571D01*
X271785714Y-116600952D01*
X271880952Y-116553333D01*
X272119047Y-116553333D01*
X272214285Y-116600952D01*
X272261904Y-116648571D01*
X272309523Y-116743809D01*
X272309523Y-116981904D01*
X272261904Y-117077142D01*
X272214285Y-117124761D01*
X272119047Y-117172380D01*
X271880952Y-117172380D01*
X271785714Y-117124761D01*
X271738095Y-117077142D01*
X272928571Y-116172380D02*
X273023809Y-116172380D01*
X273119047Y-116220000D01*
X273166666Y-116267619D01*
X273214285Y-116362857D01*
X273261904Y-116553333D01*
X273261904Y-116791428D01*
X273214285Y-116981904D01*
X273166666Y-117077142D01*
X273119047Y-117124761D01*
X273023809Y-117172380D01*
X272928571Y-117172380D01*
X272833333Y-117124761D01*
X272785714Y-117077142D01*
X272738095Y-116981904D01*
X272690476Y-116791428D01*
X272690476Y-116553333D01*
X272738095Y-116362857D01*
X272785714Y-116267619D01*
X272833333Y-116220000D01*
X272928571Y-116172380D01*
X117785714Y-100172380D02*
X117785714Y-99172380D01*
X118023809Y-99172380D01*
X118166666Y-99220000D01*
X118261904Y-99315238D01*
X118309523Y-99410476D01*
X118357142Y-99600952D01*
X118357142Y-99743809D01*
X118309523Y-99934285D01*
X118261904Y-100029523D01*
X118166666Y-100124761D01*
X118023809Y-100172380D01*
X117785714Y-100172380D01*
X119261904Y-99172380D02*
X118785714Y-99172380D01*
X118738095Y-99648571D01*
X118785714Y-99600952D01*
X118880952Y-99553333D01*
X119119047Y-99553333D01*
X119214285Y-99600952D01*
X119261904Y-99648571D01*
X119309523Y-99743809D01*
X119309523Y-99981904D01*
X119261904Y-100077142D01*
X119214285Y-100124761D01*
X119119047Y-100172380D01*
X118880952Y-100172380D01*
X118785714Y-100124761D01*
X118738095Y-100077142D01*
X120261904Y-100172380D02*
X119690476Y-100172380D01*
X119976190Y-100172380D02*
X119976190Y-99172380D01*
X119880952Y-99315238D01*
X119785714Y-99410476D01*
X119690476Y-99458095D01*
X134785714Y-100172380D02*
X134785714Y-99172380D01*
X135023809Y-99172380D01*
X135166666Y-99220000D01*
X135261904Y-99315238D01*
X135309523Y-99410476D01*
X135357142Y-99600952D01*
X135357142Y-99743809D01*
X135309523Y-99934285D01*
X135261904Y-100029523D01*
X135166666Y-100124761D01*
X135023809Y-100172380D01*
X134785714Y-100172380D01*
X136261904Y-99172380D02*
X135785714Y-99172380D01*
X135738095Y-99648571D01*
X135785714Y-99600952D01*
X135880952Y-99553333D01*
X136119047Y-99553333D01*
X136214285Y-99600952D01*
X136261904Y-99648571D01*
X136309523Y-99743809D01*
X136309523Y-99981904D01*
X136261904Y-100077142D01*
X136214285Y-100124761D01*
X136119047Y-100172380D01*
X135880952Y-100172380D01*
X135785714Y-100124761D01*
X135738095Y-100077142D01*
X136690476Y-99267619D02*
X136738095Y-99220000D01*
X136833333Y-99172380D01*
X137071428Y-99172380D01*
X137166666Y-99220000D01*
X137214285Y-99267619D01*
X137261904Y-99362857D01*
X137261904Y-99458095D01*
X137214285Y-99600952D01*
X136642857Y-100172380D01*
X137261904Y-100172380D01*
X151785714Y-100172380D02*
X151785714Y-99172380D01*
X152023809Y-99172380D01*
X152166666Y-99220000D01*
X152261904Y-99315238D01*
X152309523Y-99410476D01*
X152357142Y-99600952D01*
X152357142Y-99743809D01*
X152309523Y-99934285D01*
X152261904Y-100029523D01*
X152166666Y-100124761D01*
X152023809Y-100172380D01*
X151785714Y-100172380D01*
X153261904Y-99172380D02*
X152785714Y-99172380D01*
X152738095Y-99648571D01*
X152785714Y-99600952D01*
X152880952Y-99553333D01*
X153119047Y-99553333D01*
X153214285Y-99600952D01*
X153261904Y-99648571D01*
X153309523Y-99743809D01*
X153309523Y-99981904D01*
X153261904Y-100077142D01*
X153214285Y-100124761D01*
X153119047Y-100172380D01*
X152880952Y-100172380D01*
X152785714Y-100124761D01*
X152738095Y-100077142D01*
X153642857Y-99172380D02*
X154261904Y-99172380D01*
X153928571Y-99553333D01*
X154071428Y-99553333D01*
X154166666Y-99600952D01*
X154214285Y-99648571D01*
X154261904Y-99743809D01*
X154261904Y-99981904D01*
X154214285Y-100077142D01*
X154166666Y-100124761D01*
X154071428Y-100172380D01*
X153785714Y-100172380D01*
X153690476Y-100124761D01*
X153642857Y-100077142D01*
X168785714Y-100172380D02*
X168785714Y-99172380D01*
X169023809Y-99172380D01*
X169166666Y-99220000D01*
X169261904Y-99315238D01*
X169309523Y-99410476D01*
X169357142Y-99600952D01*
X169357142Y-99743809D01*
X169309523Y-99934285D01*
X169261904Y-100029523D01*
X169166666Y-100124761D01*
X169023809Y-100172380D01*
X168785714Y-100172380D01*
X170261904Y-99172380D02*
X169785714Y-99172380D01*
X169738095Y-99648571D01*
X169785714Y-99600952D01*
X169880952Y-99553333D01*
X170119047Y-99553333D01*
X170214285Y-99600952D01*
X170261904Y-99648571D01*
X170309523Y-99743809D01*
X170309523Y-99981904D01*
X170261904Y-100077142D01*
X170214285Y-100124761D01*
X170119047Y-100172380D01*
X169880952Y-100172380D01*
X169785714Y-100124761D01*
X169738095Y-100077142D01*
X171166666Y-99505714D02*
X171166666Y-100172380D01*
X170928571Y-99124761D02*
X170690476Y-99839047D01*
X171309523Y-99839047D01*
X185785714Y-100172380D02*
X185785714Y-99172380D01*
X186023809Y-99172380D01*
X186166666Y-99220000D01*
X186261904Y-99315238D01*
X186309523Y-99410476D01*
X186357142Y-99600952D01*
X186357142Y-99743809D01*
X186309523Y-99934285D01*
X186261904Y-100029523D01*
X186166666Y-100124761D01*
X186023809Y-100172380D01*
X185785714Y-100172380D01*
X187261904Y-99172380D02*
X186785714Y-99172380D01*
X186738095Y-99648571D01*
X186785714Y-99600952D01*
X186880952Y-99553333D01*
X187119047Y-99553333D01*
X187214285Y-99600952D01*
X187261904Y-99648571D01*
X187309523Y-99743809D01*
X187309523Y-99981904D01*
X187261904Y-100077142D01*
X187214285Y-100124761D01*
X187119047Y-100172380D01*
X186880952Y-100172380D01*
X186785714Y-100124761D01*
X186738095Y-100077142D01*
X188214285Y-99172380D02*
X187738095Y-99172380D01*
X187690476Y-99648571D01*
X187738095Y-99600952D01*
X187833333Y-99553333D01*
X188071428Y-99553333D01*
X188166666Y-99600952D01*
X188214285Y-99648571D01*
X188261904Y-99743809D01*
X188261904Y-99981904D01*
X188214285Y-100077142D01*
X188166666Y-100124761D01*
X188071428Y-100172380D01*
X187833333Y-100172380D01*
X187738095Y-100124761D01*
X187690476Y-100077142D01*
X202785714Y-100172380D02*
X202785714Y-99172380D01*
X203023809Y-99172380D01*
X203166666Y-99220000D01*
X203261904Y-99315238D01*
X203309523Y-99410476D01*
X203357142Y-99600952D01*
X203357142Y-99743809D01*
X203309523Y-99934285D01*
X203261904Y-100029523D01*
X203166666Y-100124761D01*
X203023809Y-100172380D01*
X202785714Y-100172380D01*
X204261904Y-99172380D02*
X203785714Y-99172380D01*
X203738095Y-99648571D01*
X203785714Y-99600952D01*
X203880952Y-99553333D01*
X204119047Y-99553333D01*
X204214285Y-99600952D01*
X204261904Y-99648571D01*
X204309523Y-99743809D01*
X204309523Y-99981904D01*
X204261904Y-100077142D01*
X204214285Y-100124761D01*
X204119047Y-100172380D01*
X203880952Y-100172380D01*
X203785714Y-100124761D01*
X203738095Y-100077142D01*
X205166666Y-99172380D02*
X204976190Y-99172380D01*
X204880952Y-99220000D01*
X204833333Y-99267619D01*
X204738095Y-99410476D01*
X204690476Y-99600952D01*
X204690476Y-99981904D01*
X204738095Y-100077142D01*
X204785714Y-100124761D01*
X204880952Y-100172380D01*
X205071428Y-100172380D01*
X205166666Y-100124761D01*
X205214285Y-100077142D01*
X205261904Y-99981904D01*
X205261904Y-99743809D01*
X205214285Y-99648571D01*
X205166666Y-99600952D01*
X205071428Y-99553333D01*
X204880952Y-99553333D01*
X204785714Y-99600952D01*
X204738095Y-99648571D01*
X204690476Y-99743809D01*
X219785714Y-100172380D02*
X219785714Y-99172380D01*
X220023809Y-99172380D01*
X220166666Y-99220000D01*
X220261904Y-99315238D01*
X220309523Y-99410476D01*
X220357142Y-99600952D01*
X220357142Y-99743809D01*
X220309523Y-99934285D01*
X220261904Y-100029523D01*
X220166666Y-100124761D01*
X220023809Y-100172380D01*
X219785714Y-100172380D01*
X221261904Y-99172380D02*
X220785714Y-99172380D01*
X220738095Y-99648571D01*
X220785714Y-99600952D01*
X220880952Y-99553333D01*
X221119047Y-99553333D01*
X221214285Y-99600952D01*
X221261904Y-99648571D01*
X221309523Y-99743809D01*
X221309523Y-99981904D01*
X221261904Y-100077142D01*
X221214285Y-100124761D01*
X221119047Y-100172380D01*
X220880952Y-100172380D01*
X220785714Y-100124761D01*
X220738095Y-100077142D01*
X221642857Y-99172380D02*
X222309523Y-99172380D01*
X221880952Y-100172380D01*
X236785714Y-100172380D02*
X236785714Y-99172380D01*
X237023809Y-99172380D01*
X237166666Y-99220000D01*
X237261904Y-99315238D01*
X237309523Y-99410476D01*
X237357142Y-99600952D01*
X237357142Y-99743809D01*
X237309523Y-99934285D01*
X237261904Y-100029523D01*
X237166666Y-100124761D01*
X237023809Y-100172380D01*
X236785714Y-100172380D01*
X238261904Y-99172380D02*
X237785714Y-99172380D01*
X237738095Y-99648571D01*
X237785714Y-99600952D01*
X237880952Y-99553333D01*
X238119047Y-99553333D01*
X238214285Y-99600952D01*
X238261904Y-99648571D01*
X238309523Y-99743809D01*
X238309523Y-99981904D01*
X238261904Y-100077142D01*
X238214285Y-100124761D01*
X238119047Y-100172380D01*
X237880952Y-100172380D01*
X237785714Y-100124761D01*
X237738095Y-100077142D01*
X238880952Y-99600952D02*
X238785714Y-99553333D01*
X238738095Y-99505714D01*
X238690476Y-99410476D01*
X238690476Y-99362857D01*
X238738095Y-99267619D01*
X238785714Y-99220000D01*
X238880952Y-99172380D01*
X239071428Y-99172380D01*
X239166666Y-99220000D01*
X239214285Y-99267619D01*
X239261904Y-99362857D01*
X239261904Y-99410476D01*
X239214285Y-99505714D01*
X239166666Y-99553333D01*
X239071428Y-99600952D01*
X238880952Y-99600952D01*
X238785714Y-99648571D01*
X238738095Y-99696190D01*
X238690476Y-99791428D01*
X238690476Y-99981904D01*
X238738095Y-100077142D01*
X238785714Y-100124761D01*
X238880952Y-100172380D01*
X239071428Y-100172380D01*
X239166666Y-100124761D01*
X239214285Y-100077142D01*
X239261904Y-99981904D01*
X239261904Y-99791428D01*
X239214285Y-99696190D01*
X239166666Y-99648571D01*
X239071428Y-99600952D01*
X253785714Y-100172380D02*
X253785714Y-99172380D01*
X254023809Y-99172380D01*
X254166666Y-99220000D01*
X254261904Y-99315238D01*
X254309523Y-99410476D01*
X254357142Y-99600952D01*
X254357142Y-99743809D01*
X254309523Y-99934285D01*
X254261904Y-100029523D01*
X254166666Y-100124761D01*
X254023809Y-100172380D01*
X253785714Y-100172380D01*
X255261904Y-99172380D02*
X254785714Y-99172380D01*
X254738095Y-99648571D01*
X254785714Y-99600952D01*
X254880952Y-99553333D01*
X255119047Y-99553333D01*
X255214285Y-99600952D01*
X255261904Y-99648571D01*
X255309523Y-99743809D01*
X255309523Y-99981904D01*
X255261904Y-100077142D01*
X255214285Y-100124761D01*
X255119047Y-100172380D01*
X254880952Y-100172380D01*
X254785714Y-100124761D01*
X254738095Y-100077142D01*
X255785714Y-100172380D02*
X255976190Y-100172380D01*
X256071428Y-100124761D01*
X256119047Y-100077142D01*
X256214285Y-99934285D01*
X256261904Y-99743809D01*
X256261904Y-99362857D01*
X256214285Y-99267619D01*
X256166666Y-99220000D01*
X256071428Y-99172380D01*
X255880952Y-99172380D01*
X255785714Y-99220000D01*
X255738095Y-99267619D01*
X255690476Y-99362857D01*
X255690476Y-99600952D01*
X255738095Y-99696190D01*
X255785714Y-99743809D01*
X255880952Y-99791428D01*
X256071428Y-99791428D01*
X256166666Y-99743809D01*
X256214285Y-99696190D01*
X256261904Y-99600952D01*
X270785714Y-100172380D02*
X270785714Y-99172380D01*
X271023809Y-99172380D01*
X271166666Y-99220000D01*
X271261904Y-99315238D01*
X271309523Y-99410476D01*
X271357142Y-99600952D01*
X271357142Y-99743809D01*
X271309523Y-99934285D01*
X271261904Y-100029523D01*
X271166666Y-100124761D01*
X271023809Y-100172380D01*
X270785714Y-100172380D01*
X272214285Y-99172380D02*
X272023809Y-99172380D01*
X271928571Y-99220000D01*
X271880952Y-99267619D01*
X271785714Y-99410476D01*
X271738095Y-99600952D01*
X271738095Y-99981904D01*
X271785714Y-100077142D01*
X271833333Y-100124761D01*
X271928571Y-100172380D01*
X272119047Y-100172380D01*
X272214285Y-100124761D01*
X272261904Y-100077142D01*
X272309523Y-99981904D01*
X272309523Y-99743809D01*
X272261904Y-99648571D01*
X272214285Y-99600952D01*
X272119047Y-99553333D01*
X271928571Y-99553333D01*
X271833333Y-99600952D01*
X271785714Y-99648571D01*
X271738095Y-99743809D01*
X272928571Y-99172380D02*
X273023809Y-99172380D01*
X273119047Y-99220000D01*
X273166666Y-99267619D01*
X273214285Y-99362857D01*
X273261904Y-99553333D01*
X273261904Y-99791428D01*
X273214285Y-99981904D01*
X273166666Y-100077142D01*
X273119047Y-100124761D01*
X273023809Y-100172380D01*
X272928571Y-100172380D01*
X272833333Y-100124761D01*
X272785714Y-100077142D01*
X272738095Y-99981904D01*
X272690476Y-99791428D01*
X272690476Y-99553333D01*
X272738095Y-99362857D01*
X272785714Y-99267619D01*
X272833333Y-99220000D01*
X272928571Y-99172380D01*
X117785714Y-83172380D02*
X117785714Y-82172380D01*
X118023809Y-82172380D01*
X118166666Y-82220000D01*
X118261904Y-82315238D01*
X118309523Y-82410476D01*
X118357142Y-82600952D01*
X118357142Y-82743809D01*
X118309523Y-82934285D01*
X118261904Y-83029523D01*
X118166666Y-83124761D01*
X118023809Y-83172380D01*
X117785714Y-83172380D01*
X119214285Y-82172380D02*
X119023809Y-82172380D01*
X118928571Y-82220000D01*
X118880952Y-82267619D01*
X118785714Y-82410476D01*
X118738095Y-82600952D01*
X118738095Y-82981904D01*
X118785714Y-83077142D01*
X118833333Y-83124761D01*
X118928571Y-83172380D01*
X119119047Y-83172380D01*
X119214285Y-83124761D01*
X119261904Y-83077142D01*
X119309523Y-82981904D01*
X119309523Y-82743809D01*
X119261904Y-82648571D01*
X119214285Y-82600952D01*
X119119047Y-82553333D01*
X118928571Y-82553333D01*
X118833333Y-82600952D01*
X118785714Y-82648571D01*
X118738095Y-82743809D01*
X120261904Y-83172380D02*
X119690476Y-83172380D01*
X119976190Y-83172380D02*
X119976190Y-82172380D01*
X119880952Y-82315238D01*
X119785714Y-82410476D01*
X119690476Y-82458095D01*
X134785714Y-83172380D02*
X134785714Y-82172380D01*
X135023809Y-82172380D01*
X135166666Y-82220000D01*
X135261904Y-82315238D01*
X135309523Y-82410476D01*
X135357142Y-82600952D01*
X135357142Y-82743809D01*
X135309523Y-82934285D01*
X135261904Y-83029523D01*
X135166666Y-83124761D01*
X135023809Y-83172380D01*
X134785714Y-83172380D01*
X136214285Y-82172380D02*
X136023809Y-82172380D01*
X135928571Y-82220000D01*
X135880952Y-82267619D01*
X135785714Y-82410476D01*
X135738095Y-82600952D01*
X135738095Y-82981904D01*
X135785714Y-83077142D01*
X135833333Y-83124761D01*
X135928571Y-83172380D01*
X136119047Y-83172380D01*
X136214285Y-83124761D01*
X136261904Y-83077142D01*
X136309523Y-82981904D01*
X136309523Y-82743809D01*
X136261904Y-82648571D01*
X136214285Y-82600952D01*
X136119047Y-82553333D01*
X135928571Y-82553333D01*
X135833333Y-82600952D01*
X135785714Y-82648571D01*
X135738095Y-82743809D01*
X136690476Y-82267619D02*
X136738095Y-82220000D01*
X136833333Y-82172380D01*
X137071428Y-82172380D01*
X137166666Y-82220000D01*
X137214285Y-82267619D01*
X137261904Y-82362857D01*
X137261904Y-82458095D01*
X137214285Y-82600952D01*
X136642857Y-83172380D01*
X137261904Y-83172380D01*
X151785714Y-83172380D02*
X151785714Y-82172380D01*
X152023809Y-82172380D01*
X152166666Y-82220000D01*
X152261904Y-82315238D01*
X152309523Y-82410476D01*
X152357142Y-82600952D01*
X152357142Y-82743809D01*
X152309523Y-82934285D01*
X152261904Y-83029523D01*
X152166666Y-83124761D01*
X152023809Y-83172380D01*
X151785714Y-83172380D01*
X153214285Y-82172380D02*
X153023809Y-82172380D01*
X152928571Y-82220000D01*
X152880952Y-82267619D01*
X152785714Y-82410476D01*
X152738095Y-82600952D01*
X152738095Y-82981904D01*
X152785714Y-83077142D01*
X152833333Y-83124761D01*
X152928571Y-83172380D01*
X153119047Y-83172380D01*
X153214285Y-83124761D01*
X153261904Y-83077142D01*
X153309523Y-82981904D01*
X153309523Y-82743809D01*
X153261904Y-82648571D01*
X153214285Y-82600952D01*
X153119047Y-82553333D01*
X152928571Y-82553333D01*
X152833333Y-82600952D01*
X152785714Y-82648571D01*
X152738095Y-82743809D01*
X153642857Y-82172380D02*
X154261904Y-82172380D01*
X153928571Y-82553333D01*
X154071428Y-82553333D01*
X154166666Y-82600952D01*
X154214285Y-82648571D01*
X154261904Y-82743809D01*
X154261904Y-82981904D01*
X154214285Y-83077142D01*
X154166666Y-83124761D01*
X154071428Y-83172380D01*
X153785714Y-83172380D01*
X153690476Y-83124761D01*
X153642857Y-83077142D01*
X168785714Y-83172380D02*
X168785714Y-82172380D01*
X169023809Y-82172380D01*
X169166666Y-82220000D01*
X169261904Y-82315238D01*
X169309523Y-82410476D01*
X169357142Y-82600952D01*
X169357142Y-82743809D01*
X169309523Y-82934285D01*
X169261904Y-83029523D01*
X169166666Y-83124761D01*
X169023809Y-83172380D01*
X168785714Y-83172380D01*
X170214285Y-82172380D02*
X170023809Y-82172380D01*
X169928571Y-82220000D01*
X169880952Y-82267619D01*
X169785714Y-82410476D01*
X169738095Y-82600952D01*
X169738095Y-82981904D01*
X169785714Y-83077142D01*
X169833333Y-83124761D01*
X169928571Y-83172380D01*
X170119047Y-83172380D01*
X170214285Y-83124761D01*
X170261904Y-83077142D01*
X170309523Y-82981904D01*
X170309523Y-82743809D01*
X170261904Y-82648571D01*
X170214285Y-82600952D01*
X170119047Y-82553333D01*
X169928571Y-82553333D01*
X169833333Y-82600952D01*
X169785714Y-82648571D01*
X169738095Y-82743809D01*
X171166666Y-82505714D02*
X171166666Y-83172380D01*
X170928571Y-82124761D02*
X170690476Y-82839047D01*
X171309523Y-82839047D01*
X185785714Y-83172380D02*
X185785714Y-82172380D01*
X186023809Y-82172380D01*
X186166666Y-82220000D01*
X186261904Y-82315238D01*
X186309523Y-82410476D01*
X186357142Y-82600952D01*
X186357142Y-82743809D01*
X186309523Y-82934285D01*
X186261904Y-83029523D01*
X186166666Y-83124761D01*
X186023809Y-83172380D01*
X185785714Y-83172380D01*
X187214285Y-82172380D02*
X187023809Y-82172380D01*
X186928571Y-82220000D01*
X186880952Y-82267619D01*
X186785714Y-82410476D01*
X186738095Y-82600952D01*
X186738095Y-82981904D01*
X186785714Y-83077142D01*
X186833333Y-83124761D01*
X186928571Y-83172380D01*
X187119047Y-83172380D01*
X187214285Y-83124761D01*
X187261904Y-83077142D01*
X187309523Y-82981904D01*
X187309523Y-82743809D01*
X187261904Y-82648571D01*
X187214285Y-82600952D01*
X187119047Y-82553333D01*
X186928571Y-82553333D01*
X186833333Y-82600952D01*
X186785714Y-82648571D01*
X186738095Y-82743809D01*
X188214285Y-82172380D02*
X187738095Y-82172380D01*
X187690476Y-82648571D01*
X187738095Y-82600952D01*
X187833333Y-82553333D01*
X188071428Y-82553333D01*
X188166666Y-82600952D01*
X188214285Y-82648571D01*
X188261904Y-82743809D01*
X188261904Y-82981904D01*
X188214285Y-83077142D01*
X188166666Y-83124761D01*
X188071428Y-83172380D01*
X187833333Y-83172380D01*
X187738095Y-83124761D01*
X187690476Y-83077142D01*
X202785714Y-83172380D02*
X202785714Y-82172380D01*
X203023809Y-82172380D01*
X203166666Y-82220000D01*
X203261904Y-82315238D01*
X203309523Y-82410476D01*
X203357142Y-82600952D01*
X203357142Y-82743809D01*
X203309523Y-82934285D01*
X203261904Y-83029523D01*
X203166666Y-83124761D01*
X203023809Y-83172380D01*
X202785714Y-83172380D01*
X204214285Y-82172380D02*
X204023809Y-82172380D01*
X203928571Y-82220000D01*
X203880952Y-82267619D01*
X203785714Y-82410476D01*
X203738095Y-82600952D01*
X203738095Y-82981904D01*
X203785714Y-83077142D01*
X203833333Y-83124761D01*
X203928571Y-83172380D01*
X204119047Y-83172380D01*
X204214285Y-83124761D01*
X204261904Y-83077142D01*
X204309523Y-82981904D01*
X204309523Y-82743809D01*
X204261904Y-82648571D01*
X204214285Y-82600952D01*
X204119047Y-82553333D01*
X203928571Y-82553333D01*
X203833333Y-82600952D01*
X203785714Y-82648571D01*
X203738095Y-82743809D01*
X205166666Y-82172380D02*
X204976190Y-82172380D01*
X204880952Y-82220000D01*
X204833333Y-82267619D01*
X204738095Y-82410476D01*
X204690476Y-82600952D01*
X204690476Y-82981904D01*
X204738095Y-83077142D01*
X204785714Y-83124761D01*
X204880952Y-83172380D01*
X205071428Y-83172380D01*
X205166666Y-83124761D01*
X205214285Y-83077142D01*
X205261904Y-82981904D01*
X205261904Y-82743809D01*
X205214285Y-82648571D01*
X205166666Y-82600952D01*
X205071428Y-82553333D01*
X204880952Y-82553333D01*
X204785714Y-82600952D01*
X204738095Y-82648571D01*
X204690476Y-82743809D01*
X219785714Y-83172380D02*
X219785714Y-82172380D01*
X220023809Y-82172380D01*
X220166666Y-82220000D01*
X220261904Y-82315238D01*
X220309523Y-82410476D01*
X220357142Y-82600952D01*
X220357142Y-82743809D01*
X220309523Y-82934285D01*
X220261904Y-83029523D01*
X220166666Y-83124761D01*
X220023809Y-83172380D01*
X219785714Y-83172380D01*
X221214285Y-82172380D02*
X221023809Y-82172380D01*
X220928571Y-82220000D01*
X220880952Y-82267619D01*
X220785714Y-82410476D01*
X220738095Y-82600952D01*
X220738095Y-82981904D01*
X220785714Y-83077142D01*
X220833333Y-83124761D01*
X220928571Y-83172380D01*
X221119047Y-83172380D01*
X221214285Y-83124761D01*
X221261904Y-83077142D01*
X221309523Y-82981904D01*
X221309523Y-82743809D01*
X221261904Y-82648571D01*
X221214285Y-82600952D01*
X221119047Y-82553333D01*
X220928571Y-82553333D01*
X220833333Y-82600952D01*
X220785714Y-82648571D01*
X220738095Y-82743809D01*
X221642857Y-82172380D02*
X222309523Y-82172380D01*
X221880952Y-83172380D01*
X236785714Y-83172380D02*
X236785714Y-82172380D01*
X237023809Y-82172380D01*
X237166666Y-82220000D01*
X237261904Y-82315238D01*
X237309523Y-82410476D01*
X237357142Y-82600952D01*
X237357142Y-82743809D01*
X237309523Y-82934285D01*
X237261904Y-83029523D01*
X237166666Y-83124761D01*
X237023809Y-83172380D01*
X236785714Y-83172380D01*
X238214285Y-82172380D02*
X238023809Y-82172380D01*
X237928571Y-82220000D01*
X237880952Y-82267619D01*
X237785714Y-82410476D01*
X237738095Y-82600952D01*
X237738095Y-82981904D01*
X237785714Y-83077142D01*
X237833333Y-83124761D01*
X237928571Y-83172380D01*
X238119047Y-83172380D01*
X238214285Y-83124761D01*
X238261904Y-83077142D01*
X238309523Y-82981904D01*
X238309523Y-82743809D01*
X238261904Y-82648571D01*
X238214285Y-82600952D01*
X238119047Y-82553333D01*
X237928571Y-82553333D01*
X237833333Y-82600952D01*
X237785714Y-82648571D01*
X237738095Y-82743809D01*
X238880952Y-82600952D02*
X238785714Y-82553333D01*
X238738095Y-82505714D01*
X238690476Y-82410476D01*
X238690476Y-82362857D01*
X238738095Y-82267619D01*
X238785714Y-82220000D01*
X238880952Y-82172380D01*
X239071428Y-82172380D01*
X239166666Y-82220000D01*
X239214285Y-82267619D01*
X239261904Y-82362857D01*
X239261904Y-82410476D01*
X239214285Y-82505714D01*
X239166666Y-82553333D01*
X239071428Y-82600952D01*
X238880952Y-82600952D01*
X238785714Y-82648571D01*
X238738095Y-82696190D01*
X238690476Y-82791428D01*
X238690476Y-82981904D01*
X238738095Y-83077142D01*
X238785714Y-83124761D01*
X238880952Y-83172380D01*
X239071428Y-83172380D01*
X239166666Y-83124761D01*
X239214285Y-83077142D01*
X239261904Y-82981904D01*
X239261904Y-82791428D01*
X239214285Y-82696190D01*
X239166666Y-82648571D01*
X239071428Y-82600952D01*
X253785714Y-83172380D02*
X253785714Y-82172380D01*
X254023809Y-82172380D01*
X254166666Y-82220000D01*
X254261904Y-82315238D01*
X254309523Y-82410476D01*
X254357142Y-82600952D01*
X254357142Y-82743809D01*
X254309523Y-82934285D01*
X254261904Y-83029523D01*
X254166666Y-83124761D01*
X254023809Y-83172380D01*
X253785714Y-83172380D01*
X255214285Y-82172380D02*
X255023809Y-82172380D01*
X254928571Y-82220000D01*
X254880952Y-82267619D01*
X254785714Y-82410476D01*
X254738095Y-82600952D01*
X254738095Y-82981904D01*
X254785714Y-83077142D01*
X254833333Y-83124761D01*
X254928571Y-83172380D01*
X255119047Y-83172380D01*
X255214285Y-83124761D01*
X255261904Y-83077142D01*
X255309523Y-82981904D01*
X255309523Y-82743809D01*
X255261904Y-82648571D01*
X255214285Y-82600952D01*
X255119047Y-82553333D01*
X254928571Y-82553333D01*
X254833333Y-82600952D01*
X254785714Y-82648571D01*
X254738095Y-82743809D01*
X255785714Y-83172380D02*
X255976190Y-83172380D01*
X256071428Y-83124761D01*
X256119047Y-83077142D01*
X256214285Y-82934285D01*
X256261904Y-82743809D01*
X256261904Y-82362857D01*
X256214285Y-82267619D01*
X256166666Y-82220000D01*
X256071428Y-82172380D01*
X255880952Y-82172380D01*
X255785714Y-82220000D01*
X255738095Y-82267619D01*
X255690476Y-82362857D01*
X255690476Y-82600952D01*
X255738095Y-82696190D01*
X255785714Y-82743809D01*
X255880952Y-82791428D01*
X256071428Y-82791428D01*
X256166666Y-82743809D01*
X256214285Y-82696190D01*
X256261904Y-82600952D01*
X270785714Y-83172380D02*
X270785714Y-82172380D01*
X271023809Y-82172380D01*
X271166666Y-82220000D01*
X271261904Y-82315238D01*
X271309523Y-82410476D01*
X271357142Y-82600952D01*
X271357142Y-82743809D01*
X271309523Y-82934285D01*
X271261904Y-83029523D01*
X271166666Y-83124761D01*
X271023809Y-83172380D01*
X270785714Y-83172380D01*
X271690476Y-82172380D02*
X272357142Y-82172380D01*
X271928571Y-83172380D01*
X272928571Y-82172380D02*
X273023809Y-82172380D01*
X273119047Y-82220000D01*
X273166666Y-82267619D01*
X273214285Y-82362857D01*
X273261904Y-82553333D01*
X273261904Y-82791428D01*
X273214285Y-82981904D01*
X273166666Y-83077142D01*
X273119047Y-83124761D01*
X273023809Y-83172380D01*
X272928571Y-83172380D01*
X272833333Y-83124761D01*
X272785714Y-83077142D01*
X272738095Y-82981904D01*
X272690476Y-82791428D01*
X272690476Y-82553333D01*
X272738095Y-82362857D01*
X272785714Y-82267619D01*
X272833333Y-82220000D01*
X272928571Y-82172380D01*
X117785714Y-66172380D02*
X117785714Y-65172380D01*
X118023809Y-65172380D01*
X118166666Y-65220000D01*
X118261904Y-65315238D01*
X118309523Y-65410476D01*
X118357142Y-65600952D01*
X118357142Y-65743809D01*
X118309523Y-65934285D01*
X118261904Y-66029523D01*
X118166666Y-66124761D01*
X118023809Y-66172380D01*
X117785714Y-66172380D01*
X118690476Y-65172380D02*
X119357142Y-65172380D01*
X118928571Y-66172380D01*
X120261904Y-66172380D02*
X119690476Y-66172380D01*
X119976190Y-66172380D02*
X119976190Y-65172380D01*
X119880952Y-65315238D01*
X119785714Y-65410476D01*
X119690476Y-65458095D01*
X134785714Y-66172380D02*
X134785714Y-65172380D01*
X135023809Y-65172380D01*
X135166666Y-65220000D01*
X135261904Y-65315238D01*
X135309523Y-65410476D01*
X135357142Y-65600952D01*
X135357142Y-65743809D01*
X135309523Y-65934285D01*
X135261904Y-66029523D01*
X135166666Y-66124761D01*
X135023809Y-66172380D01*
X134785714Y-66172380D01*
X135690476Y-65172380D02*
X136357142Y-65172380D01*
X135928571Y-66172380D01*
X136690476Y-65267619D02*
X136738095Y-65220000D01*
X136833333Y-65172380D01*
X137071428Y-65172380D01*
X137166666Y-65220000D01*
X137214285Y-65267619D01*
X137261904Y-65362857D01*
X137261904Y-65458095D01*
X137214285Y-65600952D01*
X136642857Y-66172380D01*
X137261904Y-66172380D01*
X151785714Y-66172380D02*
X151785714Y-65172380D01*
X152023809Y-65172380D01*
X152166666Y-65220000D01*
X152261904Y-65315238D01*
X152309523Y-65410476D01*
X152357142Y-65600952D01*
X152357142Y-65743809D01*
X152309523Y-65934285D01*
X152261904Y-66029523D01*
X152166666Y-66124761D01*
X152023809Y-66172380D01*
X151785714Y-66172380D01*
X152690476Y-65172380D02*
X153357142Y-65172380D01*
X152928571Y-66172380D01*
X153642857Y-65172380D02*
X154261904Y-65172380D01*
X153928571Y-65553333D01*
X154071428Y-65553333D01*
X154166666Y-65600952D01*
X154214285Y-65648571D01*
X154261904Y-65743809D01*
X154261904Y-65981904D01*
X154214285Y-66077142D01*
X154166666Y-66124761D01*
X154071428Y-66172380D01*
X153785714Y-66172380D01*
X153690476Y-66124761D01*
X153642857Y-66077142D01*
X168785714Y-66172380D02*
X168785714Y-65172380D01*
X169023809Y-65172380D01*
X169166666Y-65220000D01*
X169261904Y-65315238D01*
X169309523Y-65410476D01*
X169357142Y-65600952D01*
X169357142Y-65743809D01*
X169309523Y-65934285D01*
X169261904Y-66029523D01*
X169166666Y-66124761D01*
X169023809Y-66172380D01*
X168785714Y-66172380D01*
X169690476Y-65172380D02*
X170357142Y-65172380D01*
X169928571Y-66172380D01*
X171166666Y-65505714D02*
X171166666Y-66172380D01*
X170928571Y-65124761D02*
X170690476Y-65839047D01*
X171309523Y-65839047D01*
X185785714Y-66172380D02*
X185785714Y-65172380D01*
X186023809Y-65172380D01*
X186166666Y-65220000D01*
X186261904Y-65315238D01*
X186309523Y-65410476D01*
X186357142Y-65600952D01*
X186357142Y-65743809D01*
X186309523Y-65934285D01*
X186261904Y-66029523D01*
X186166666Y-66124761D01*
X186023809Y-66172380D01*
X185785714Y-66172380D01*
X186690476Y-65172380D02*
X187357142Y-65172380D01*
X186928571Y-66172380D01*
X188214285Y-65172380D02*
X187738095Y-65172380D01*
X187690476Y-65648571D01*
X187738095Y-65600952D01*
X187833333Y-65553333D01*
X188071428Y-65553333D01*
X188166666Y-65600952D01*
X188214285Y-65648571D01*
X188261904Y-65743809D01*
X188261904Y-65981904D01*
X188214285Y-66077142D01*
X188166666Y-66124761D01*
X188071428Y-66172380D01*
X187833333Y-66172380D01*
X187738095Y-66124761D01*
X187690476Y-66077142D01*
X202785714Y-66172380D02*
X202785714Y-65172380D01*
X203023809Y-65172380D01*
X203166666Y-65220000D01*
X203261904Y-65315238D01*
X203309523Y-65410476D01*
X203357142Y-65600952D01*
X203357142Y-65743809D01*
X203309523Y-65934285D01*
X203261904Y-66029523D01*
X203166666Y-66124761D01*
X203023809Y-66172380D01*
X202785714Y-66172380D01*
X203690476Y-65172380D02*
X204357142Y-65172380D01*
X203928571Y-66172380D01*
X205166666Y-65172380D02*
X204976190Y-65172380D01*
X204880952Y-65220000D01*
X204833333Y-65267619D01*
X204738095Y-65410476D01*
X204690476Y-65600952D01*
X204690476Y-65981904D01*
X204738095Y-66077142D01*
X204785714Y-66124761D01*
X204880952Y-66172380D01*
X205071428Y-66172380D01*
X205166666Y-66124761D01*
X205214285Y-66077142D01*
X205261904Y-65981904D01*
X205261904Y-65743809D01*
X205214285Y-65648571D01*
X205166666Y-65600952D01*
X205071428Y-65553333D01*
X204880952Y-65553333D01*
X204785714Y-65600952D01*
X204738095Y-65648571D01*
X204690476Y-65743809D01*
X219785714Y-66172380D02*
X219785714Y-65172380D01*
X220023809Y-65172380D01*
X220166666Y-65220000D01*
X220261904Y-65315238D01*
X220309523Y-65410476D01*
X220357142Y-65600952D01*
X220357142Y-65743809D01*
X220309523Y-65934285D01*
X220261904Y-66029523D01*
X220166666Y-66124761D01*
X220023809Y-66172380D01*
X219785714Y-66172380D01*
X220690476Y-65172380D02*
X221357142Y-65172380D01*
X220928571Y-66172380D01*
X221642857Y-65172380D02*
X222309523Y-65172380D01*
X221880952Y-66172380D01*
X236785714Y-66172380D02*
X236785714Y-65172380D01*
X237023809Y-65172380D01*
X237166666Y-65220000D01*
X237261904Y-65315238D01*
X237309523Y-65410476D01*
X237357142Y-65600952D01*
X237357142Y-65743809D01*
X237309523Y-65934285D01*
X237261904Y-66029523D01*
X237166666Y-66124761D01*
X237023809Y-66172380D01*
X236785714Y-66172380D01*
X237690476Y-65172380D02*
X238357142Y-65172380D01*
X237928571Y-66172380D01*
X238880952Y-65600952D02*
X238785714Y-65553333D01*
X238738095Y-65505714D01*
X238690476Y-65410476D01*
X238690476Y-65362857D01*
X238738095Y-65267619D01*
X238785714Y-65220000D01*
X238880952Y-65172380D01*
X239071428Y-65172380D01*
X239166666Y-65220000D01*
X239214285Y-65267619D01*
X239261904Y-65362857D01*
X239261904Y-65410476D01*
X239214285Y-65505714D01*
X239166666Y-65553333D01*
X239071428Y-65600952D01*
X238880952Y-65600952D01*
X238785714Y-65648571D01*
X238738095Y-65696190D01*
X238690476Y-65791428D01*
X238690476Y-65981904D01*
X238738095Y-66077142D01*
X238785714Y-66124761D01*
X238880952Y-66172380D01*
X239071428Y-66172380D01*
X239166666Y-66124761D01*
X239214285Y-66077142D01*
X239261904Y-65981904D01*
X239261904Y-65791428D01*
X239214285Y-65696190D01*
X239166666Y-65648571D01*
X239071428Y-65600952D01*
X253785714Y-66172380D02*
X253785714Y-65172380D01*
X254023809Y-65172380D01*
X254166666Y-65220000D01*
X254261904Y-65315238D01*
X254309523Y-65410476D01*
X254357142Y-65600952D01*
X254357142Y-65743809D01*
X254309523Y-65934285D01*
X254261904Y-66029523D01*
X254166666Y-66124761D01*
X254023809Y-66172380D01*
X253785714Y-66172380D01*
X254690476Y-65172380D02*
X255357142Y-65172380D01*
X254928571Y-66172380D01*
X255785714Y-66172380D02*
X255976190Y-66172380D01*
X256071428Y-66124761D01*
X256119047Y-66077142D01*
X256214285Y-65934285D01*
X256261904Y-65743809D01*
X256261904Y-65362857D01*
X256214285Y-65267619D01*
X256166666Y-65220000D01*
X256071428Y-65172380D01*
X255880952Y-65172380D01*
X255785714Y-65220000D01*
X255738095Y-65267619D01*
X255690476Y-65362857D01*
X255690476Y-65600952D01*
X255738095Y-65696190D01*
X255785714Y-65743809D01*
X255880952Y-65791428D01*
X256071428Y-65791428D01*
X256166666Y-65743809D01*
X256214285Y-65696190D01*
X256261904Y-65600952D01*
X270785714Y-66172380D02*
X270785714Y-65172380D01*
X271023809Y-65172380D01*
X271166666Y-65220000D01*
X271261904Y-65315238D01*
X271309523Y-65410476D01*
X271357142Y-65600952D01*
X271357142Y-65743809D01*
X271309523Y-65934285D01*
X271261904Y-66029523D01*
X271166666Y-66124761D01*
X271023809Y-66172380D01*
X270785714Y-66172380D01*
X271928571Y-65600952D02*
X271833333Y-65553333D01*
X271785714Y-65505714D01*
X271738095Y-65410476D01*
X271738095Y-65362857D01*
X271785714Y-65267619D01*
X271833333Y-65220000D01*
X271928571Y-65172380D01*
X272119047Y-65172380D01*
X272214285Y-65220000D01*
X272261904Y-65267619D01*
X272309523Y-65362857D01*
X272309523Y-65410476D01*
X272261904Y-65505714D01*
X272214285Y-65553333D01*
X272119047Y-65600952D01*
X271928571Y-65600952D01*
X271833333Y-65648571D01*
X271785714Y-65696190D01*
X271738095Y-65791428D01*
X271738095Y-65981904D01*
X271785714Y-66077142D01*
X271833333Y-66124761D01*
X271928571Y-66172380D01*
X272119047Y-66172380D01*
X272214285Y-66124761D01*
X272261904Y-66077142D01*
X272309523Y-65981904D01*
X272309523Y-65791428D01*
X272261904Y-65696190D01*
X272214285Y-65648571D01*
X272119047Y-65600952D01*
X272928571Y-65172380D02*
X273023809Y-65172380D01*
X273119047Y-65220000D01*
X273166666Y-65267619D01*
X273214285Y-65362857D01*
X273261904Y-65553333D01*
X273261904Y-65791428D01*
X273214285Y-65981904D01*
X273166666Y-66077142D01*
X273119047Y-66124761D01*
X273023809Y-66172380D01*
X272928571Y-66172380D01*
X272833333Y-66124761D01*
X272785714Y-66077142D01*
X272738095Y-65981904D01*
X272690476Y-65791428D01*
X272690476Y-65553333D01*
X272738095Y-65362857D01*
X272785714Y-65267619D01*
X272833333Y-65220000D01*
X272928571Y-65172380D01*
X117785714Y-49172380D02*
X117785714Y-48172380D01*
X118023809Y-48172380D01*
X118166666Y-48220000D01*
X118261904Y-48315238D01*
X118309523Y-48410476D01*
X118357142Y-48600952D01*
X118357142Y-48743809D01*
X118309523Y-48934285D01*
X118261904Y-49029523D01*
X118166666Y-49124761D01*
X118023809Y-49172380D01*
X117785714Y-49172380D01*
X118928571Y-48600952D02*
X118833333Y-48553333D01*
X118785714Y-48505714D01*
X118738095Y-48410476D01*
X118738095Y-48362857D01*
X118785714Y-48267619D01*
X118833333Y-48220000D01*
X118928571Y-48172380D01*
X119119047Y-48172380D01*
X119214285Y-48220000D01*
X119261904Y-48267619D01*
X119309523Y-48362857D01*
X119309523Y-48410476D01*
X119261904Y-48505714D01*
X119214285Y-48553333D01*
X119119047Y-48600952D01*
X118928571Y-48600952D01*
X118833333Y-48648571D01*
X118785714Y-48696190D01*
X118738095Y-48791428D01*
X118738095Y-48981904D01*
X118785714Y-49077142D01*
X118833333Y-49124761D01*
X118928571Y-49172380D01*
X119119047Y-49172380D01*
X119214285Y-49124761D01*
X119261904Y-49077142D01*
X119309523Y-48981904D01*
X119309523Y-48791428D01*
X119261904Y-48696190D01*
X119214285Y-48648571D01*
X119119047Y-48600952D01*
X120261904Y-49172380D02*
X119690476Y-49172380D01*
X119976190Y-49172380D02*
X119976190Y-48172380D01*
X119880952Y-48315238D01*
X119785714Y-48410476D01*
X119690476Y-48458095D01*
X134785714Y-49172380D02*
X134785714Y-48172380D01*
X135023809Y-48172380D01*
X135166666Y-48220000D01*
X135261904Y-48315238D01*
X135309523Y-48410476D01*
X135357142Y-48600952D01*
X135357142Y-48743809D01*
X135309523Y-48934285D01*
X135261904Y-49029523D01*
X135166666Y-49124761D01*
X135023809Y-49172380D01*
X134785714Y-49172380D01*
X135928571Y-48600952D02*
X135833333Y-48553333D01*
X135785714Y-48505714D01*
X135738095Y-48410476D01*
X135738095Y-48362857D01*
X135785714Y-48267619D01*
X135833333Y-48220000D01*
X135928571Y-48172380D01*
X136119047Y-48172380D01*
X136214285Y-48220000D01*
X136261904Y-48267619D01*
X136309523Y-48362857D01*
X136309523Y-48410476D01*
X136261904Y-48505714D01*
X136214285Y-48553333D01*
X136119047Y-48600952D01*
X135928571Y-48600952D01*
X135833333Y-48648571D01*
X135785714Y-48696190D01*
X135738095Y-48791428D01*
X135738095Y-48981904D01*
X135785714Y-49077142D01*
X135833333Y-49124761D01*
X135928571Y-49172380D01*
X136119047Y-49172380D01*
X136214285Y-49124761D01*
X136261904Y-49077142D01*
X136309523Y-48981904D01*
X136309523Y-48791428D01*
X136261904Y-48696190D01*
X136214285Y-48648571D01*
X136119047Y-48600952D01*
X136690476Y-48267619D02*
X136738095Y-48220000D01*
X136833333Y-48172380D01*
X137071428Y-48172380D01*
X137166666Y-48220000D01*
X137214285Y-48267619D01*
X137261904Y-48362857D01*
X137261904Y-48458095D01*
X137214285Y-48600952D01*
X136642857Y-49172380D01*
X137261904Y-49172380D01*
X151785714Y-49172380D02*
X151785714Y-48172380D01*
X152023809Y-48172380D01*
X152166666Y-48220000D01*
X152261904Y-48315238D01*
X152309523Y-48410476D01*
X152357142Y-48600952D01*
X152357142Y-48743809D01*
X152309523Y-48934285D01*
X152261904Y-49029523D01*
X152166666Y-49124761D01*
X152023809Y-49172380D01*
X151785714Y-49172380D01*
X152928571Y-48600952D02*
X152833333Y-48553333D01*
X152785714Y-48505714D01*
X152738095Y-48410476D01*
X152738095Y-48362857D01*
X152785714Y-48267619D01*
X152833333Y-48220000D01*
X152928571Y-48172380D01*
X153119047Y-48172380D01*
X153214285Y-48220000D01*
X153261904Y-48267619D01*
X153309523Y-48362857D01*
X153309523Y-48410476D01*
X153261904Y-48505714D01*
X153214285Y-48553333D01*
X153119047Y-48600952D01*
X152928571Y-48600952D01*
X152833333Y-48648571D01*
X152785714Y-48696190D01*
X152738095Y-48791428D01*
X152738095Y-48981904D01*
X152785714Y-49077142D01*
X152833333Y-49124761D01*
X152928571Y-49172380D01*
X153119047Y-49172380D01*
X153214285Y-49124761D01*
X153261904Y-49077142D01*
X153309523Y-48981904D01*
X153309523Y-48791428D01*
X153261904Y-48696190D01*
X153214285Y-48648571D01*
X153119047Y-48600952D01*
X153642857Y-48172380D02*
X154261904Y-48172380D01*
X153928571Y-48553333D01*
X154071428Y-48553333D01*
X154166666Y-48600952D01*
X154214285Y-48648571D01*
X154261904Y-48743809D01*
X154261904Y-48981904D01*
X154214285Y-49077142D01*
X154166666Y-49124761D01*
X154071428Y-49172380D01*
X153785714Y-49172380D01*
X153690476Y-49124761D01*
X153642857Y-49077142D01*
X168785714Y-49172380D02*
X168785714Y-48172380D01*
X169023809Y-48172380D01*
X169166666Y-48220000D01*
X169261904Y-48315238D01*
X169309523Y-48410476D01*
X169357142Y-48600952D01*
X169357142Y-48743809D01*
X169309523Y-48934285D01*
X169261904Y-49029523D01*
X169166666Y-49124761D01*
X169023809Y-49172380D01*
X168785714Y-49172380D01*
X169928571Y-48600952D02*
X169833333Y-48553333D01*
X169785714Y-48505714D01*
X169738095Y-48410476D01*
X169738095Y-48362857D01*
X169785714Y-48267619D01*
X169833333Y-48220000D01*
X169928571Y-48172380D01*
X170119047Y-48172380D01*
X170214285Y-48220000D01*
X170261904Y-48267619D01*
X170309523Y-48362857D01*
X170309523Y-48410476D01*
X170261904Y-48505714D01*
X170214285Y-48553333D01*
X170119047Y-48600952D01*
X169928571Y-48600952D01*
X169833333Y-48648571D01*
X169785714Y-48696190D01*
X169738095Y-48791428D01*
X169738095Y-48981904D01*
X169785714Y-49077142D01*
X169833333Y-49124761D01*
X169928571Y-49172380D01*
X170119047Y-49172380D01*
X170214285Y-49124761D01*
X170261904Y-49077142D01*
X170309523Y-48981904D01*
X170309523Y-48791428D01*
X170261904Y-48696190D01*
X170214285Y-48648571D01*
X170119047Y-48600952D01*
X171166666Y-48505714D02*
X171166666Y-49172380D01*
X170928571Y-48124761D02*
X170690476Y-48839047D01*
X171309523Y-48839047D01*
X185785714Y-49172380D02*
X185785714Y-48172380D01*
X186023809Y-48172380D01*
X186166666Y-48220000D01*
X186261904Y-48315238D01*
X186309523Y-48410476D01*
X186357142Y-48600952D01*
X186357142Y-48743809D01*
X186309523Y-48934285D01*
X186261904Y-49029523D01*
X186166666Y-49124761D01*
X186023809Y-49172380D01*
X185785714Y-49172380D01*
X186928571Y-48600952D02*
X186833333Y-48553333D01*
X186785714Y-48505714D01*
X186738095Y-48410476D01*
X186738095Y-48362857D01*
X186785714Y-48267619D01*
X186833333Y-48220000D01*
X186928571Y-48172380D01*
X187119047Y-48172380D01*
X187214285Y-48220000D01*
X187261904Y-48267619D01*
X187309523Y-48362857D01*
X187309523Y-48410476D01*
X187261904Y-48505714D01*
X187214285Y-48553333D01*
X187119047Y-48600952D01*
X186928571Y-48600952D01*
X186833333Y-48648571D01*
X186785714Y-48696190D01*
X186738095Y-48791428D01*
X186738095Y-48981904D01*
X186785714Y-49077142D01*
X186833333Y-49124761D01*
X186928571Y-49172380D01*
X187119047Y-49172380D01*
X187214285Y-49124761D01*
X187261904Y-49077142D01*
X187309523Y-48981904D01*
X187309523Y-48791428D01*
X187261904Y-48696190D01*
X187214285Y-48648571D01*
X187119047Y-48600952D01*
X188214285Y-48172380D02*
X187738095Y-48172380D01*
X187690476Y-48648571D01*
X187738095Y-48600952D01*
X187833333Y-48553333D01*
X188071428Y-48553333D01*
X188166666Y-48600952D01*
X188214285Y-48648571D01*
X188261904Y-48743809D01*
X188261904Y-48981904D01*
X188214285Y-49077142D01*
X188166666Y-49124761D01*
X188071428Y-49172380D01*
X187833333Y-49172380D01*
X187738095Y-49124761D01*
X187690476Y-49077142D01*
X202785714Y-49172380D02*
X202785714Y-48172380D01*
X203023809Y-48172380D01*
X203166666Y-48220000D01*
X203261904Y-48315238D01*
X203309523Y-48410476D01*
X203357142Y-48600952D01*
X203357142Y-48743809D01*
X203309523Y-48934285D01*
X203261904Y-49029523D01*
X203166666Y-49124761D01*
X203023809Y-49172380D01*
X202785714Y-49172380D01*
X203928571Y-48600952D02*
X203833333Y-48553333D01*
X203785714Y-48505714D01*
X203738095Y-48410476D01*
X203738095Y-48362857D01*
X203785714Y-48267619D01*
X203833333Y-48220000D01*
X203928571Y-48172380D01*
X204119047Y-48172380D01*
X204214285Y-48220000D01*
X204261904Y-48267619D01*
X204309523Y-48362857D01*
X204309523Y-48410476D01*
X204261904Y-48505714D01*
X204214285Y-48553333D01*
X204119047Y-48600952D01*
X203928571Y-48600952D01*
X203833333Y-48648571D01*
X203785714Y-48696190D01*
X203738095Y-48791428D01*
X203738095Y-48981904D01*
X203785714Y-49077142D01*
X203833333Y-49124761D01*
X203928571Y-49172380D01*
X204119047Y-49172380D01*
X204214285Y-49124761D01*
X204261904Y-49077142D01*
X204309523Y-48981904D01*
X204309523Y-48791428D01*
X204261904Y-48696190D01*
X204214285Y-48648571D01*
X204119047Y-48600952D01*
X205166666Y-48172380D02*
X204976190Y-48172380D01*
X204880952Y-48220000D01*
X204833333Y-48267619D01*
X204738095Y-48410476D01*
X204690476Y-48600952D01*
X204690476Y-48981904D01*
X204738095Y-49077142D01*
X204785714Y-49124761D01*
X204880952Y-49172380D01*
X205071428Y-49172380D01*
X205166666Y-49124761D01*
X205214285Y-49077142D01*
X205261904Y-48981904D01*
X205261904Y-48743809D01*
X205214285Y-48648571D01*
X205166666Y-48600952D01*
X205071428Y-48553333D01*
X204880952Y-48553333D01*
X204785714Y-48600952D01*
X204738095Y-48648571D01*
X204690476Y-48743809D01*
X219785714Y-49172380D02*
X219785714Y-48172380D01*
X220023809Y-48172380D01*
X220166666Y-48220000D01*
X220261904Y-48315238D01*
X220309523Y-48410476D01*
X220357142Y-48600952D01*
X220357142Y-48743809D01*
X220309523Y-48934285D01*
X220261904Y-49029523D01*
X220166666Y-49124761D01*
X220023809Y-49172380D01*
X219785714Y-49172380D01*
X220928571Y-48600952D02*
X220833333Y-48553333D01*
X220785714Y-48505714D01*
X220738095Y-48410476D01*
X220738095Y-48362857D01*
X220785714Y-48267619D01*
X220833333Y-48220000D01*
X220928571Y-48172380D01*
X221119047Y-48172380D01*
X221214285Y-48220000D01*
X221261904Y-48267619D01*
X221309523Y-48362857D01*
X221309523Y-48410476D01*
X221261904Y-48505714D01*
X221214285Y-48553333D01*
X221119047Y-48600952D01*
X220928571Y-48600952D01*
X220833333Y-48648571D01*
X220785714Y-48696190D01*
X220738095Y-48791428D01*
X220738095Y-48981904D01*
X220785714Y-49077142D01*
X220833333Y-49124761D01*
X220928571Y-49172380D01*
X221119047Y-49172380D01*
X221214285Y-49124761D01*
X221261904Y-49077142D01*
X221309523Y-48981904D01*
X221309523Y-48791428D01*
X221261904Y-48696190D01*
X221214285Y-48648571D01*
X221119047Y-48600952D01*
X221642857Y-48172380D02*
X222309523Y-48172380D01*
X221880952Y-49172380D01*
X236785714Y-49172380D02*
X236785714Y-48172380D01*
X237023809Y-48172380D01*
X237166666Y-48220000D01*
X237261904Y-48315238D01*
X237309523Y-48410476D01*
X237357142Y-48600952D01*
X237357142Y-48743809D01*
X237309523Y-48934285D01*
X237261904Y-49029523D01*
X237166666Y-49124761D01*
X237023809Y-49172380D01*
X236785714Y-49172380D01*
X237928571Y-48600952D02*
X237833333Y-48553333D01*
X237785714Y-48505714D01*
X237738095Y-48410476D01*
X237738095Y-48362857D01*
X237785714Y-48267619D01*
X237833333Y-48220000D01*
X237928571Y-48172380D01*
X238119047Y-48172380D01*
X238214285Y-48220000D01*
X238261904Y-48267619D01*
X238309523Y-48362857D01*
X238309523Y-48410476D01*
X238261904Y-48505714D01*
X238214285Y-48553333D01*
X238119047Y-48600952D01*
X237928571Y-48600952D01*
X237833333Y-48648571D01*
X237785714Y-48696190D01*
X237738095Y-48791428D01*
X237738095Y-48981904D01*
X237785714Y-49077142D01*
X237833333Y-49124761D01*
X237928571Y-49172380D01*
X238119047Y-49172380D01*
X238214285Y-49124761D01*
X238261904Y-49077142D01*
X238309523Y-48981904D01*
X238309523Y-48791428D01*
X238261904Y-48696190D01*
X238214285Y-48648571D01*
X238119047Y-48600952D01*
X238880952Y-48600952D02*
X238785714Y-48553333D01*
X238738095Y-48505714D01*
X238690476Y-48410476D01*
X238690476Y-48362857D01*
X238738095Y-48267619D01*
X238785714Y-48220000D01*
X238880952Y-48172380D01*
X239071428Y-48172380D01*
X239166666Y-48220000D01*
X239214285Y-48267619D01*
X239261904Y-48362857D01*
X239261904Y-48410476D01*
X239214285Y-48505714D01*
X239166666Y-48553333D01*
X239071428Y-48600952D01*
X238880952Y-48600952D01*
X238785714Y-48648571D01*
X238738095Y-48696190D01*
X238690476Y-48791428D01*
X238690476Y-48981904D01*
X238738095Y-49077142D01*
X238785714Y-49124761D01*
X238880952Y-49172380D01*
X239071428Y-49172380D01*
X239166666Y-49124761D01*
X239214285Y-49077142D01*
X239261904Y-48981904D01*
X239261904Y-48791428D01*
X239214285Y-48696190D01*
X239166666Y-48648571D01*
X239071428Y-48600952D01*
X253785714Y-49172380D02*
X253785714Y-48172380D01*
X254023809Y-48172380D01*
X254166666Y-48220000D01*
X254261904Y-48315238D01*
X254309523Y-48410476D01*
X254357142Y-48600952D01*
X254357142Y-48743809D01*
X254309523Y-48934285D01*
X254261904Y-49029523D01*
X254166666Y-49124761D01*
X254023809Y-49172380D01*
X253785714Y-49172380D01*
X254928571Y-48600952D02*
X254833333Y-48553333D01*
X254785714Y-48505714D01*
X254738095Y-48410476D01*
X254738095Y-48362857D01*
X254785714Y-48267619D01*
X254833333Y-48220000D01*
X254928571Y-48172380D01*
X255119047Y-48172380D01*
X255214285Y-48220000D01*
X255261904Y-48267619D01*
X255309523Y-48362857D01*
X255309523Y-48410476D01*
X255261904Y-48505714D01*
X255214285Y-48553333D01*
X255119047Y-48600952D01*
X254928571Y-48600952D01*
X254833333Y-48648571D01*
X254785714Y-48696190D01*
X254738095Y-48791428D01*
X254738095Y-48981904D01*
X254785714Y-49077142D01*
X254833333Y-49124761D01*
X254928571Y-49172380D01*
X255119047Y-49172380D01*
X255214285Y-49124761D01*
X255261904Y-49077142D01*
X255309523Y-48981904D01*
X255309523Y-48791428D01*
X255261904Y-48696190D01*
X255214285Y-48648571D01*
X255119047Y-48600952D01*
X255785714Y-49172380D02*
X255976190Y-49172380D01*
X256071428Y-49124761D01*
X256119047Y-49077142D01*
X256214285Y-48934285D01*
X256261904Y-48743809D01*
X256261904Y-48362857D01*
X256214285Y-48267619D01*
X256166666Y-48220000D01*
X256071428Y-48172380D01*
X255880952Y-48172380D01*
X255785714Y-48220000D01*
X255738095Y-48267619D01*
X255690476Y-48362857D01*
X255690476Y-48600952D01*
X255738095Y-48696190D01*
X255785714Y-48743809D01*
X255880952Y-48791428D01*
X256071428Y-48791428D01*
X256166666Y-48743809D01*
X256214285Y-48696190D01*
X256261904Y-48600952D01*
X270785714Y-49172380D02*
X270785714Y-48172380D01*
X271023809Y-48172380D01*
X271166666Y-48220000D01*
X271261904Y-48315238D01*
X271309523Y-48410476D01*
X271357142Y-48600952D01*
X271357142Y-48743809D01*
X271309523Y-48934285D01*
X271261904Y-49029523D01*
X271166666Y-49124761D01*
X271023809Y-49172380D01*
X270785714Y-49172380D01*
X271833333Y-49172380D02*
X272023809Y-49172380D01*
X272119047Y-49124761D01*
X272166666Y-49077142D01*
X272261904Y-48934285D01*
X272309523Y-48743809D01*
X272309523Y-48362857D01*
X272261904Y-48267619D01*
X272214285Y-48220000D01*
X272119047Y-48172380D01*
X271928571Y-48172380D01*
X271833333Y-48220000D01*
X271785714Y-48267619D01*
X271738095Y-48362857D01*
X271738095Y-48600952D01*
X271785714Y-48696190D01*
X271833333Y-48743809D01*
X271928571Y-48791428D01*
X272119047Y-48791428D01*
X272214285Y-48743809D01*
X272261904Y-48696190D01*
X272309523Y-48600952D01*
X272928571Y-48172380D02*
X273023809Y-48172380D01*
X273119047Y-48220000D01*
X273166666Y-48267619D01*
X273214285Y-48362857D01*
X273261904Y-48553333D01*
X273261904Y-48791428D01*
X273214285Y-48981904D01*
X273166666Y-49077142D01*
X273119047Y-49124761D01*
X273023809Y-49172380D01*
X272928571Y-49172380D01*
X272833333Y-49124761D01*
X272785714Y-49077142D01*
X272738095Y-48981904D01*
X272690476Y-48791428D01*
X272690476Y-48553333D01*
X272738095Y-48362857D01*
X272785714Y-48267619D01*
X272833333Y-48220000D01*
X272928571Y-48172380D01*
X117785714Y-32172380D02*
X117785714Y-31172380D01*
X118023809Y-31172380D01*
X118166666Y-31220000D01*
X118261904Y-31315238D01*
X118309523Y-31410476D01*
X118357142Y-31600952D01*
X118357142Y-31743809D01*
X118309523Y-31934285D01*
X118261904Y-32029523D01*
X118166666Y-32124761D01*
X118023809Y-32172380D01*
X117785714Y-32172380D01*
X118833333Y-32172380D02*
X119023809Y-32172380D01*
X119119047Y-32124761D01*
X119166666Y-32077142D01*
X119261904Y-31934285D01*
X119309523Y-31743809D01*
X119309523Y-31362857D01*
X119261904Y-31267619D01*
X119214285Y-31220000D01*
X119119047Y-31172380D01*
X118928571Y-31172380D01*
X118833333Y-31220000D01*
X118785714Y-31267619D01*
X118738095Y-31362857D01*
X118738095Y-31600952D01*
X118785714Y-31696190D01*
X118833333Y-31743809D01*
X118928571Y-31791428D01*
X119119047Y-31791428D01*
X119214285Y-31743809D01*
X119261904Y-31696190D01*
X119309523Y-31600952D01*
X120261904Y-32172380D02*
X119690476Y-32172380D01*
X119976190Y-32172380D02*
X119976190Y-31172380D01*
X119880952Y-31315238D01*
X119785714Y-31410476D01*
X119690476Y-31458095D01*
X134785714Y-32172380D02*
X134785714Y-31172380D01*
X135023809Y-31172380D01*
X135166666Y-31220000D01*
X135261904Y-31315238D01*
X135309523Y-31410476D01*
X135357142Y-31600952D01*
X135357142Y-31743809D01*
X135309523Y-31934285D01*
X135261904Y-32029523D01*
X135166666Y-32124761D01*
X135023809Y-32172380D01*
X134785714Y-32172380D01*
X135833333Y-32172380D02*
X136023809Y-32172380D01*
X136119047Y-32124761D01*
X136166666Y-32077142D01*
X136261904Y-31934285D01*
X136309523Y-31743809D01*
X136309523Y-31362857D01*
X136261904Y-31267619D01*
X136214285Y-31220000D01*
X136119047Y-31172380D01*
X135928571Y-31172380D01*
X135833333Y-31220000D01*
X135785714Y-31267619D01*
X135738095Y-31362857D01*
X135738095Y-31600952D01*
X135785714Y-31696190D01*
X135833333Y-31743809D01*
X135928571Y-31791428D01*
X136119047Y-31791428D01*
X136214285Y-31743809D01*
X136261904Y-31696190D01*
X136309523Y-31600952D01*
X136690476Y-31267619D02*
X136738095Y-31220000D01*
X136833333Y-31172380D01*
X137071428Y-31172380D01*
X137166666Y-31220000D01*
X137214285Y-31267619D01*
X137261904Y-31362857D01*
X137261904Y-31458095D01*
X137214285Y-31600952D01*
X136642857Y-32172380D01*
X137261904Y-32172380D01*
X151785714Y-32172380D02*
X151785714Y-31172380D01*
X152023809Y-31172380D01*
X152166666Y-31220000D01*
X152261904Y-31315238D01*
X152309523Y-31410476D01*
X152357142Y-31600952D01*
X152357142Y-31743809D01*
X152309523Y-31934285D01*
X152261904Y-32029523D01*
X152166666Y-32124761D01*
X152023809Y-32172380D01*
X151785714Y-32172380D01*
X152833333Y-32172380D02*
X153023809Y-32172380D01*
X153119047Y-32124761D01*
X153166666Y-32077142D01*
X153261904Y-31934285D01*
X153309523Y-31743809D01*
X153309523Y-31362857D01*
X153261904Y-31267619D01*
X153214285Y-31220000D01*
X153119047Y-31172380D01*
X152928571Y-31172380D01*
X152833333Y-31220000D01*
X152785714Y-31267619D01*
X152738095Y-31362857D01*
X152738095Y-31600952D01*
X152785714Y-31696190D01*
X152833333Y-31743809D01*
X152928571Y-31791428D01*
X153119047Y-31791428D01*
X153214285Y-31743809D01*
X153261904Y-31696190D01*
X153309523Y-31600952D01*
X153642857Y-31172380D02*
X154261904Y-31172380D01*
X153928571Y-31553333D01*
X154071428Y-31553333D01*
X154166666Y-31600952D01*
X154214285Y-31648571D01*
X154261904Y-31743809D01*
X154261904Y-31981904D01*
X154214285Y-32077142D01*
X154166666Y-32124761D01*
X154071428Y-32172380D01*
X153785714Y-32172380D01*
X153690476Y-32124761D01*
X153642857Y-32077142D01*
X168785714Y-32172380D02*
X168785714Y-31172380D01*
X169023809Y-31172380D01*
X169166666Y-31220000D01*
X169261904Y-31315238D01*
X169309523Y-31410476D01*
X169357142Y-31600952D01*
X169357142Y-31743809D01*
X169309523Y-31934285D01*
X169261904Y-32029523D01*
X169166666Y-32124761D01*
X169023809Y-32172380D01*
X168785714Y-32172380D01*
X169833333Y-32172380D02*
X170023809Y-32172380D01*
X170119047Y-32124761D01*
X170166666Y-32077142D01*
X170261904Y-31934285D01*
X170309523Y-31743809D01*
X170309523Y-31362857D01*
X170261904Y-31267619D01*
X170214285Y-31220000D01*
X170119047Y-31172380D01*
X169928571Y-31172380D01*
X169833333Y-31220000D01*
X169785714Y-31267619D01*
X169738095Y-31362857D01*
X169738095Y-31600952D01*
X169785714Y-31696190D01*
X169833333Y-31743809D01*
X169928571Y-31791428D01*
X170119047Y-31791428D01*
X170214285Y-31743809D01*
X170261904Y-31696190D01*
X170309523Y-31600952D01*
X171166666Y-31505714D02*
X171166666Y-32172380D01*
X170928571Y-31124761D02*
X170690476Y-31839047D01*
X171309523Y-31839047D01*
X185785714Y-32172380D02*
X185785714Y-31172380D01*
X186023809Y-31172380D01*
X186166666Y-31220000D01*
X186261904Y-31315238D01*
X186309523Y-31410476D01*
X186357142Y-31600952D01*
X186357142Y-31743809D01*
X186309523Y-31934285D01*
X186261904Y-32029523D01*
X186166666Y-32124761D01*
X186023809Y-32172380D01*
X185785714Y-32172380D01*
X186833333Y-32172380D02*
X187023809Y-32172380D01*
X187119047Y-32124761D01*
X187166666Y-32077142D01*
X187261904Y-31934285D01*
X187309523Y-31743809D01*
X187309523Y-31362857D01*
X187261904Y-31267619D01*
X187214285Y-31220000D01*
X187119047Y-31172380D01*
X186928571Y-31172380D01*
X186833333Y-31220000D01*
X186785714Y-31267619D01*
X186738095Y-31362857D01*
X186738095Y-31600952D01*
X186785714Y-31696190D01*
X186833333Y-31743809D01*
X186928571Y-31791428D01*
X187119047Y-31791428D01*
X187214285Y-31743809D01*
X187261904Y-31696190D01*
X187309523Y-31600952D01*
X188214285Y-31172380D02*
X187738095Y-31172380D01*
X187690476Y-31648571D01*
X187738095Y-31600952D01*
X187833333Y-31553333D01*
X188071428Y-31553333D01*
X188166666Y-31600952D01*
X188214285Y-31648571D01*
X188261904Y-31743809D01*
X188261904Y-31981904D01*
X188214285Y-32077142D01*
X188166666Y-32124761D01*
X188071428Y-32172380D01*
X187833333Y-32172380D01*
X187738095Y-32124761D01*
X187690476Y-32077142D01*
X202785714Y-32172380D02*
X202785714Y-31172380D01*
X203023809Y-31172380D01*
X203166666Y-31220000D01*
X203261904Y-31315238D01*
X203309523Y-31410476D01*
X203357142Y-31600952D01*
X203357142Y-31743809D01*
X203309523Y-31934285D01*
X203261904Y-32029523D01*
X203166666Y-32124761D01*
X203023809Y-32172380D01*
X202785714Y-32172380D01*
X203833333Y-32172380D02*
X204023809Y-32172380D01*
X204119047Y-32124761D01*
X204166666Y-32077142D01*
X204261904Y-31934285D01*
X204309523Y-31743809D01*
X204309523Y-31362857D01*
X204261904Y-31267619D01*
X204214285Y-31220000D01*
X204119047Y-31172380D01*
X203928571Y-31172380D01*
X203833333Y-31220000D01*
X203785714Y-31267619D01*
X203738095Y-31362857D01*
X203738095Y-31600952D01*
X203785714Y-31696190D01*
X203833333Y-31743809D01*
X203928571Y-31791428D01*
X204119047Y-31791428D01*
X204214285Y-31743809D01*
X204261904Y-31696190D01*
X204309523Y-31600952D01*
X205166666Y-31172380D02*
X204976190Y-31172380D01*
X204880952Y-31220000D01*
X204833333Y-31267619D01*
X204738095Y-31410476D01*
X204690476Y-31600952D01*
X204690476Y-31981904D01*
X204738095Y-32077142D01*
X204785714Y-32124761D01*
X204880952Y-32172380D01*
X205071428Y-32172380D01*
X205166666Y-32124761D01*
X205214285Y-32077142D01*
X205261904Y-31981904D01*
X205261904Y-31743809D01*
X205214285Y-31648571D01*
X205166666Y-31600952D01*
X205071428Y-31553333D01*
X204880952Y-31553333D01*
X204785714Y-31600952D01*
X204738095Y-31648571D01*
X204690476Y-31743809D01*
X219785714Y-32172380D02*
X219785714Y-31172380D01*
X220023809Y-31172380D01*
X220166666Y-31220000D01*
X220261904Y-31315238D01*
X220309523Y-31410476D01*
X220357142Y-31600952D01*
X220357142Y-31743809D01*
X220309523Y-31934285D01*
X220261904Y-32029523D01*
X220166666Y-32124761D01*
X220023809Y-32172380D01*
X219785714Y-32172380D01*
X220833333Y-32172380D02*
X221023809Y-32172380D01*
X221119047Y-32124761D01*
X221166666Y-32077142D01*
X221261904Y-31934285D01*
X221309523Y-31743809D01*
X221309523Y-31362857D01*
X221261904Y-31267619D01*
X221214285Y-31220000D01*
X221119047Y-31172380D01*
X220928571Y-31172380D01*
X220833333Y-31220000D01*
X220785714Y-31267619D01*
X220738095Y-31362857D01*
X220738095Y-31600952D01*
X220785714Y-31696190D01*
X220833333Y-31743809D01*
X220928571Y-31791428D01*
X221119047Y-31791428D01*
X221214285Y-31743809D01*
X221261904Y-31696190D01*
X221309523Y-31600952D01*
X221642857Y-31172380D02*
X222309523Y-31172380D01*
X221880952Y-32172380D01*
X236785714Y-32172380D02*
X236785714Y-31172380D01*
X237023809Y-31172380D01*
X237166666Y-31220000D01*
X237261904Y-31315238D01*
X237309523Y-31410476D01*
X237357142Y-31600952D01*
X237357142Y-31743809D01*
X237309523Y-31934285D01*
X237261904Y-32029523D01*
X237166666Y-32124761D01*
X237023809Y-32172380D01*
X236785714Y-32172380D01*
X237833333Y-32172380D02*
X238023809Y-32172380D01*
X238119047Y-32124761D01*
X238166666Y-32077142D01*
X238261904Y-31934285D01*
X238309523Y-31743809D01*
X238309523Y-31362857D01*
X238261904Y-31267619D01*
X238214285Y-31220000D01*
X238119047Y-31172380D01*
X237928571Y-31172380D01*
X237833333Y-31220000D01*
X237785714Y-31267619D01*
X237738095Y-31362857D01*
X237738095Y-31600952D01*
X237785714Y-31696190D01*
X237833333Y-31743809D01*
X237928571Y-31791428D01*
X238119047Y-31791428D01*
X238214285Y-31743809D01*
X238261904Y-31696190D01*
X238309523Y-31600952D01*
X238880952Y-31600952D02*
X238785714Y-31553333D01*
X238738095Y-31505714D01*
X238690476Y-31410476D01*
X238690476Y-31362857D01*
X238738095Y-31267619D01*
X238785714Y-31220000D01*
X238880952Y-31172380D01*
X239071428Y-31172380D01*
X239166666Y-31220000D01*
X239214285Y-31267619D01*
X239261904Y-31362857D01*
X239261904Y-31410476D01*
X239214285Y-31505714D01*
X239166666Y-31553333D01*
X239071428Y-31600952D01*
X238880952Y-31600952D01*
X238785714Y-31648571D01*
X238738095Y-31696190D01*
X238690476Y-31791428D01*
X238690476Y-31981904D01*
X238738095Y-32077142D01*
X238785714Y-32124761D01*
X238880952Y-32172380D01*
X239071428Y-32172380D01*
X239166666Y-32124761D01*
X239214285Y-32077142D01*
X239261904Y-31981904D01*
X239261904Y-31791428D01*
X239214285Y-31696190D01*
X239166666Y-31648571D01*
X239071428Y-31600952D01*
X253785714Y-32172380D02*
X253785714Y-31172380D01*
X254023809Y-31172380D01*
X254166666Y-31220000D01*
X254261904Y-31315238D01*
X254309523Y-31410476D01*
X254357142Y-31600952D01*
X254357142Y-31743809D01*
X254309523Y-31934285D01*
X254261904Y-32029523D01*
X254166666Y-32124761D01*
X254023809Y-32172380D01*
X253785714Y-32172380D01*
X254833333Y-32172380D02*
X255023809Y-32172380D01*
X255119047Y-32124761D01*
X255166666Y-32077142D01*
X255261904Y-31934285D01*
X255309523Y-31743809D01*
X255309523Y-31362857D01*
X255261904Y-31267619D01*
X255214285Y-31220000D01*
X255119047Y-31172380D01*
X254928571Y-31172380D01*
X254833333Y-31220000D01*
X254785714Y-31267619D01*
X254738095Y-31362857D01*
X254738095Y-31600952D01*
X254785714Y-31696190D01*
X254833333Y-31743809D01*
X254928571Y-31791428D01*
X255119047Y-31791428D01*
X255214285Y-31743809D01*
X255261904Y-31696190D01*
X255309523Y-31600952D01*
X255785714Y-32172380D02*
X255976190Y-32172380D01*
X256071428Y-32124761D01*
X256119047Y-32077142D01*
X256214285Y-31934285D01*
X256261904Y-31743809D01*
X256261904Y-31362857D01*
X256214285Y-31267619D01*
X256166666Y-31220000D01*
X256071428Y-31172380D01*
X255880952Y-31172380D01*
X255785714Y-31220000D01*
X255738095Y-31267619D01*
X255690476Y-31362857D01*
X255690476Y-31600952D01*
X255738095Y-31696190D01*
X255785714Y-31743809D01*
X255880952Y-31791428D01*
X256071428Y-31791428D01*
X256166666Y-31743809D01*
X256214285Y-31696190D01*
X256261904Y-31600952D01*
X270309523Y-32172380D02*
X270309523Y-31172380D01*
X270547619Y-31172380D01*
X270690476Y-31220000D01*
X270785714Y-31315238D01*
X270833333Y-31410476D01*
X270880952Y-31600952D01*
X270880952Y-31743809D01*
X270833333Y-31934285D01*
X270785714Y-32029523D01*
X270690476Y-32124761D01*
X270547619Y-32172380D01*
X270309523Y-32172380D01*
X271833333Y-32172380D02*
X271261904Y-32172380D01*
X271547619Y-32172380D02*
X271547619Y-31172380D01*
X271452380Y-31315238D01*
X271357142Y-31410476D01*
X271261904Y-31458095D01*
X272452380Y-31172380D02*
X272547619Y-31172380D01*
X272642857Y-31220000D01*
X272690476Y-31267619D01*
X272738095Y-31362857D01*
X272785714Y-31553333D01*
X272785714Y-31791428D01*
X272738095Y-31981904D01*
X272690476Y-32077142D01*
X272642857Y-32124761D01*
X272547619Y-32172380D01*
X272452380Y-32172380D01*
X272357142Y-32124761D01*
X272309523Y-32077142D01*
X272261904Y-31981904D01*
X272214285Y-31791428D01*
X272214285Y-31553333D01*
X272261904Y-31362857D01*
X272309523Y-31267619D01*
X272357142Y-31220000D01*
X272452380Y-31172380D01*
X273404761Y-31172380D02*
X273500000Y-31172380D01*
X273595238Y-31220000D01*
X273642857Y-31267619D01*
X273690476Y-31362857D01*
X273738095Y-31553333D01*
X273738095Y-31791428D01*
X273690476Y-31981904D01*
X273642857Y-32077142D01*
X273595238Y-32124761D01*
X273500000Y-32172380D01*
X273404761Y-32172380D01*
X273309523Y-32124761D01*
X273261904Y-32077142D01*
X273214285Y-31981904D01*
X273166666Y-31791428D01*
X273166666Y-31553333D01*
X273214285Y-31362857D01*
X273261904Y-31267619D01*
X273309523Y-31220000D01*
X273404761Y-31172380D01*
X104909523Y-213442380D02*
X104909523Y-212442380D01*
X105147619Y-212442380D01*
X105290476Y-212490000D01*
X105385714Y-212585238D01*
X105433333Y-212680476D01*
X105480952Y-212870952D01*
X105480952Y-213013809D01*
X105433333Y-213204285D01*
X105385714Y-213299523D01*
X105290476Y-213394761D01*
X105147619Y-213442380D01*
X104909523Y-213442380D01*
X106433333Y-213442380D02*
X105861904Y-213442380D01*
X106147619Y-213442380D02*
X106147619Y-212442380D01*
X106052380Y-212585238D01*
X105957142Y-212680476D01*
X105861904Y-212728095D01*
X107052380Y-212442380D02*
X107147619Y-212442380D01*
X107242857Y-212490000D01*
X107290476Y-212537619D01*
X107338095Y-212632857D01*
X107385714Y-212823333D01*
X107385714Y-213061428D01*
X107338095Y-213251904D01*
X107290476Y-213347142D01*
X107242857Y-213394761D01*
X107147619Y-213442380D01*
X107052380Y-213442380D01*
X106957142Y-213394761D01*
X106909523Y-213347142D01*
X106861904Y-213251904D01*
X106814285Y-213061428D01*
X106814285Y-212823333D01*
X106861904Y-212632857D01*
X106909523Y-212537619D01*
X106957142Y-212490000D01*
X107052380Y-212442380D01*
X108338095Y-213442380D02*
X107766666Y-213442380D01*
X108052380Y-213442380D02*
X108052380Y-212442380D01*
X107957142Y-212585238D01*
X107861904Y-212680476D01*
X107766666Y-212728095D01*
X104909523Y-219410380D02*
X104909523Y-218410380D01*
X105147619Y-218410380D01*
X105290476Y-218458000D01*
X105385714Y-218553238D01*
X105433333Y-218648476D01*
X105480952Y-218838952D01*
X105480952Y-218981809D01*
X105433333Y-219172285D01*
X105385714Y-219267523D01*
X105290476Y-219362761D01*
X105147619Y-219410380D01*
X104909523Y-219410380D01*
X106433333Y-219410380D02*
X105861904Y-219410380D01*
X106147619Y-219410380D02*
X106147619Y-218410380D01*
X106052380Y-218553238D01*
X105957142Y-218648476D01*
X105861904Y-218696095D01*
X107052380Y-218410380D02*
X107147619Y-218410380D01*
X107242857Y-218458000D01*
X107290476Y-218505619D01*
X107338095Y-218600857D01*
X107385714Y-218791333D01*
X107385714Y-219029428D01*
X107338095Y-219219904D01*
X107290476Y-219315142D01*
X107242857Y-219362761D01*
X107147619Y-219410380D01*
X107052380Y-219410380D01*
X106957142Y-219362761D01*
X106909523Y-219315142D01*
X106861904Y-219219904D01*
X106814285Y-219029428D01*
X106814285Y-218791333D01*
X106861904Y-218600857D01*
X106909523Y-218505619D01*
X106957142Y-218458000D01*
X107052380Y-218410380D01*
X107766666Y-218505619D02*
X107814285Y-218458000D01*
X107909523Y-218410380D01*
X108147619Y-218410380D01*
X108242857Y-218458000D01*
X108290476Y-218505619D01*
X108338095Y-218600857D01*
X108338095Y-218696095D01*
X108290476Y-218838952D01*
X107719047Y-219410380D01*
X108338095Y-219410380D01*
X197091666Y-194217380D02*
X197091666Y-194931666D01*
X197044047Y-195074523D01*
X196948809Y-195169761D01*
X196805952Y-195217380D01*
X196710714Y-195217380D01*
X198091666Y-195217380D02*
X197520238Y-195217380D01*
X197805952Y-195217380D02*
X197805952Y-194217380D01*
X197710714Y-194360238D01*
X197615476Y-194455476D01*
X197520238Y-194503095D01*
X96741666Y-95557380D02*
X96741666Y-96271666D01*
X96694047Y-96414523D01*
X96598809Y-96509761D01*
X96455952Y-96557380D01*
X96360714Y-96557380D01*
X97170238Y-95652619D02*
X97217857Y-95605000D01*
X97313095Y-95557380D01*
X97551190Y-95557380D01*
X97646428Y-95605000D01*
X97694047Y-95652619D01*
X97741666Y-95747857D01*
X97741666Y-95843095D01*
X97694047Y-95985952D01*
X97122619Y-96557380D01*
X97741666Y-96557380D01*
X98007380Y-75273333D02*
X98721666Y-75273333D01*
X98864523Y-75320952D01*
X98959761Y-75416190D01*
X99007380Y-75559047D01*
X99007380Y-75654285D01*
X98007380Y-74892380D02*
X98007380Y-74273333D01*
X98388333Y-74606666D01*
X98388333Y-74463809D01*
X98435952Y-74368571D01*
X98483571Y-74320952D01*
X98578809Y-74273333D01*
X98816904Y-74273333D01*
X98912142Y-74320952D01*
X98959761Y-74368571D01*
X99007380Y-74463809D01*
X99007380Y-74749523D01*
X98959761Y-74844761D01*
X98912142Y-74892380D01*
X116912380Y-29376666D02*
X116436190Y-29710000D01*
X116912380Y-29948095D02*
X115912380Y-29948095D01*
X115912380Y-29567142D01*
X115960000Y-29471904D01*
X116007619Y-29424285D01*
X116102857Y-29376666D01*
X116245714Y-29376666D01*
X116340952Y-29424285D01*
X116388571Y-29471904D01*
X116436190Y-29567142D01*
X116436190Y-29948095D01*
X116912380Y-28424285D02*
X116912380Y-28995714D01*
X116912380Y-28710000D02*
X115912380Y-28710000D01*
X116055238Y-28805238D01*
X116150476Y-28900476D01*
X116198095Y-28995714D01*
X133422380Y-29376666D02*
X132946190Y-29710000D01*
X133422380Y-29948095D02*
X132422380Y-29948095D01*
X132422380Y-29567142D01*
X132470000Y-29471904D01*
X132517619Y-29424285D01*
X132612857Y-29376666D01*
X132755714Y-29376666D01*
X132850952Y-29424285D01*
X132898571Y-29471904D01*
X132946190Y-29567142D01*
X132946190Y-29948095D01*
X132517619Y-28995714D02*
X132470000Y-28948095D01*
X132422380Y-28852857D01*
X132422380Y-28614761D01*
X132470000Y-28519523D01*
X132517619Y-28471904D01*
X132612857Y-28424285D01*
X132708095Y-28424285D01*
X132850952Y-28471904D01*
X133422380Y-29043333D01*
X133422380Y-28424285D01*
X151202380Y-29376666D02*
X150726190Y-29710000D01*
X151202380Y-29948095D02*
X150202380Y-29948095D01*
X150202380Y-29567142D01*
X150250000Y-29471904D01*
X150297619Y-29424285D01*
X150392857Y-29376666D01*
X150535714Y-29376666D01*
X150630952Y-29424285D01*
X150678571Y-29471904D01*
X150726190Y-29567142D01*
X150726190Y-29948095D01*
X150202380Y-29043333D02*
X150202380Y-28424285D01*
X150583333Y-28757619D01*
X150583333Y-28614761D01*
X150630952Y-28519523D01*
X150678571Y-28471904D01*
X150773809Y-28424285D01*
X151011904Y-28424285D01*
X151107142Y-28471904D01*
X151154761Y-28519523D01*
X151202380Y-28614761D01*
X151202380Y-28900476D01*
X151154761Y-28995714D01*
X151107142Y-29043333D01*
X167712380Y-29376666D02*
X167236190Y-29710000D01*
X167712380Y-29948095D02*
X166712380Y-29948095D01*
X166712380Y-29567142D01*
X166760000Y-29471904D01*
X166807619Y-29424285D01*
X166902857Y-29376666D01*
X167045714Y-29376666D01*
X167140952Y-29424285D01*
X167188571Y-29471904D01*
X167236190Y-29567142D01*
X167236190Y-29948095D01*
X167045714Y-28519523D02*
X167712380Y-28519523D01*
X166664761Y-28757619D02*
X167379047Y-28995714D01*
X167379047Y-28376666D01*
X184222380Y-29376666D02*
X183746190Y-29710000D01*
X184222380Y-29948095D02*
X183222380Y-29948095D01*
X183222380Y-29567142D01*
X183270000Y-29471904D01*
X183317619Y-29424285D01*
X183412857Y-29376666D01*
X183555714Y-29376666D01*
X183650952Y-29424285D01*
X183698571Y-29471904D01*
X183746190Y-29567142D01*
X183746190Y-29948095D01*
X183222380Y-28471904D02*
X183222380Y-28948095D01*
X183698571Y-28995714D01*
X183650952Y-28948095D01*
X183603333Y-28852857D01*
X183603333Y-28614761D01*
X183650952Y-28519523D01*
X183698571Y-28471904D01*
X183793809Y-28424285D01*
X184031904Y-28424285D01*
X184127142Y-28471904D01*
X184174761Y-28519523D01*
X184222380Y-28614761D01*
X184222380Y-28852857D01*
X184174761Y-28948095D01*
X184127142Y-28995714D01*
X202002380Y-29376666D02*
X201526190Y-29710000D01*
X202002380Y-29948095D02*
X201002380Y-29948095D01*
X201002380Y-29567142D01*
X201050000Y-29471904D01*
X201097619Y-29424285D01*
X201192857Y-29376666D01*
X201335714Y-29376666D01*
X201430952Y-29424285D01*
X201478571Y-29471904D01*
X201526190Y-29567142D01*
X201526190Y-29948095D01*
X201002380Y-28519523D02*
X201002380Y-28710000D01*
X201050000Y-28805238D01*
X201097619Y-28852857D01*
X201240476Y-28948095D01*
X201430952Y-28995714D01*
X201811904Y-28995714D01*
X201907142Y-28948095D01*
X201954761Y-28900476D01*
X202002380Y-28805238D01*
X202002380Y-28614761D01*
X201954761Y-28519523D01*
X201907142Y-28471904D01*
X201811904Y-28424285D01*
X201573809Y-28424285D01*
X201478571Y-28471904D01*
X201430952Y-28519523D01*
X201383333Y-28614761D01*
X201383333Y-28805238D01*
X201430952Y-28900476D01*
X201478571Y-28948095D01*
X201573809Y-28995714D01*
X218512380Y-29376666D02*
X218036190Y-29710000D01*
X218512380Y-29948095D02*
X217512380Y-29948095D01*
X217512380Y-29567142D01*
X217560000Y-29471904D01*
X217607619Y-29424285D01*
X217702857Y-29376666D01*
X217845714Y-29376666D01*
X217940952Y-29424285D01*
X217988571Y-29471904D01*
X218036190Y-29567142D01*
X218036190Y-29948095D01*
X217512380Y-29043333D02*
X217512380Y-28376666D01*
X218512380Y-28805238D01*
X236292380Y-29376666D02*
X235816190Y-29710000D01*
X236292380Y-29948095D02*
X235292380Y-29948095D01*
X235292380Y-29567142D01*
X235340000Y-29471904D01*
X235387619Y-29424285D01*
X235482857Y-29376666D01*
X235625714Y-29376666D01*
X235720952Y-29424285D01*
X235768571Y-29471904D01*
X235816190Y-29567142D01*
X235816190Y-29948095D01*
X235720952Y-28805238D02*
X235673333Y-28900476D01*
X235625714Y-28948095D01*
X235530476Y-28995714D01*
X235482857Y-28995714D01*
X235387619Y-28948095D01*
X235340000Y-28900476D01*
X235292380Y-28805238D01*
X235292380Y-28614761D01*
X235340000Y-28519523D01*
X235387619Y-28471904D01*
X235482857Y-28424285D01*
X235530476Y-28424285D01*
X235625714Y-28471904D01*
X235673333Y-28519523D01*
X235720952Y-28614761D01*
X235720952Y-28805238D01*
X235768571Y-28900476D01*
X235816190Y-28948095D01*
X235911428Y-28995714D01*
X236101904Y-28995714D01*
X236197142Y-28948095D01*
X236244761Y-28900476D01*
X236292380Y-28805238D01*
X236292380Y-28614761D01*
X236244761Y-28519523D01*
X236197142Y-28471904D01*
X236101904Y-28424285D01*
X235911428Y-28424285D01*
X235816190Y-28471904D01*
X235768571Y-28519523D01*
X235720952Y-28614761D01*
X252802380Y-29376666D02*
X252326190Y-29710000D01*
X252802380Y-29948095D02*
X251802380Y-29948095D01*
X251802380Y-29567142D01*
X251850000Y-29471904D01*
X251897619Y-29424285D01*
X251992857Y-29376666D01*
X252135714Y-29376666D01*
X252230952Y-29424285D01*
X252278571Y-29471904D01*
X252326190Y-29567142D01*
X252326190Y-29948095D01*
X252802380Y-28900476D02*
X252802380Y-28710000D01*
X252754761Y-28614761D01*
X252707142Y-28567142D01*
X252564285Y-28471904D01*
X252373809Y-28424285D01*
X251992857Y-28424285D01*
X251897619Y-28471904D01*
X251850000Y-28519523D01*
X251802380Y-28614761D01*
X251802380Y-28805238D01*
X251850000Y-28900476D01*
X251897619Y-28948095D01*
X251992857Y-28995714D01*
X252230952Y-28995714D01*
X252326190Y-28948095D01*
X252373809Y-28900476D01*
X252421428Y-28805238D01*
X252421428Y-28614761D01*
X252373809Y-28519523D01*
X252326190Y-28471904D01*
X252230952Y-28424285D01*
X269312380Y-29852857D02*
X268836190Y-30186190D01*
X269312380Y-30424285D02*
X268312380Y-30424285D01*
X268312380Y-30043333D01*
X268360000Y-29948095D01*
X268407619Y-29900476D01*
X268502857Y-29852857D01*
X268645714Y-29852857D01*
X268740952Y-29900476D01*
X268788571Y-29948095D01*
X268836190Y-30043333D01*
X268836190Y-30424285D01*
X269312380Y-28900476D02*
X269312380Y-29471904D01*
X269312380Y-29186190D02*
X268312380Y-29186190D01*
X268455238Y-29281428D01*
X268550476Y-29376666D01*
X268598095Y-29471904D01*
X268312380Y-28281428D02*
X268312380Y-28186190D01*
X268360000Y-28090952D01*
X268407619Y-28043333D01*
X268502857Y-27995714D01*
X268693333Y-27948095D01*
X268931428Y-27948095D01*
X269121904Y-27995714D01*
X269217142Y-28043333D01*
X269264761Y-28090952D01*
X269312380Y-28186190D01*
X269312380Y-28281428D01*
X269264761Y-28376666D01*
X269217142Y-28424285D01*
X269121904Y-28471904D01*
X268931428Y-28519523D01*
X268693333Y-28519523D01*
X268502857Y-28471904D01*
X268407619Y-28424285D01*
X268360000Y-28376666D01*
X268312380Y-28281428D01*
X96559142Y-190580380D02*
X96225809Y-190104190D01*
X95987714Y-190580380D02*
X95987714Y-189580380D01*
X96368666Y-189580380D01*
X96463904Y-189628000D01*
X96511523Y-189675619D01*
X96559142Y-189770857D01*
X96559142Y-189913714D01*
X96511523Y-190008952D01*
X96463904Y-190056571D01*
X96368666Y-190104190D01*
X95987714Y-190104190D01*
X97511523Y-190580380D02*
X96940095Y-190580380D01*
X97225809Y-190580380D02*
X97225809Y-189580380D01*
X97130571Y-189723238D01*
X97035333Y-189818476D01*
X96940095Y-189866095D01*
X98463904Y-190580380D02*
X97892476Y-190580380D01*
X98178190Y-190580380D02*
X98178190Y-189580380D01*
X98082952Y-189723238D01*
X97987714Y-189818476D01*
X97892476Y-189866095D01*
X95797142Y-105492380D02*
X95463809Y-105016190D01*
X95225714Y-105492380D02*
X95225714Y-104492380D01*
X95606666Y-104492380D01*
X95701904Y-104540000D01*
X95749523Y-104587619D01*
X95797142Y-104682857D01*
X95797142Y-104825714D01*
X95749523Y-104920952D01*
X95701904Y-104968571D01*
X95606666Y-105016190D01*
X95225714Y-105016190D01*
X96749523Y-105492380D02*
X96178095Y-105492380D01*
X96463809Y-105492380D02*
X96463809Y-104492380D01*
X96368571Y-104635238D01*
X96273333Y-104730476D01*
X96178095Y-104778095D01*
X97130476Y-104587619D02*
X97178095Y-104540000D01*
X97273333Y-104492380D01*
X97511428Y-104492380D01*
X97606666Y-104540000D01*
X97654285Y-104587619D01*
X97701904Y-104682857D01*
X97701904Y-104778095D01*
X97654285Y-104920952D01*
X97082857Y-105492380D01*
X97701904Y-105492380D01*
X93337380Y-64787857D02*
X92861190Y-65121190D01*
X93337380Y-65359285D02*
X92337380Y-65359285D01*
X92337380Y-64978333D01*
X92385000Y-64883095D01*
X92432619Y-64835476D01*
X92527857Y-64787857D01*
X92670714Y-64787857D01*
X92765952Y-64835476D01*
X92813571Y-64883095D01*
X92861190Y-64978333D01*
X92861190Y-65359285D01*
X93337380Y-63835476D02*
X93337380Y-64406904D01*
X93337380Y-64121190D02*
X92337380Y-64121190D01*
X92480238Y-64216428D01*
X92575476Y-64311666D01*
X92623095Y-64406904D01*
X92337380Y-63502142D02*
X92337380Y-62883095D01*
X92718333Y-63216428D01*
X92718333Y-63073571D01*
X92765952Y-62978333D01*
X92813571Y-62930714D01*
X92908809Y-62883095D01*
X93146904Y-62883095D01*
X93242142Y-62930714D01*
X93289761Y-62978333D01*
X93337380Y-63073571D01*
X93337380Y-63359285D01*
X93289761Y-63454523D01*
X93242142Y-63502142D01*
X97067142Y-182452380D02*
X96733809Y-181976190D01*
X96495714Y-182452380D02*
X96495714Y-181452380D01*
X96876666Y-181452380D01*
X96971904Y-181500000D01*
X97019523Y-181547619D01*
X97067142Y-181642857D01*
X97067142Y-181785714D01*
X97019523Y-181880952D01*
X96971904Y-181928571D01*
X96876666Y-181976190D01*
X96495714Y-181976190D01*
X98019523Y-182452380D02*
X97448095Y-182452380D01*
X97733809Y-182452380D02*
X97733809Y-181452380D01*
X97638571Y-181595238D01*
X97543333Y-181690476D01*
X97448095Y-181738095D01*
X98876666Y-181785714D02*
X98876666Y-182452380D01*
X98638571Y-181404761D02*
X98400476Y-182119047D01*
X99019523Y-182119047D01*
X90797380Y-64787857D02*
X90321190Y-65121190D01*
X90797380Y-65359285D02*
X89797380Y-65359285D01*
X89797380Y-64978333D01*
X89845000Y-64883095D01*
X89892619Y-64835476D01*
X89987857Y-64787857D01*
X90130714Y-64787857D01*
X90225952Y-64835476D01*
X90273571Y-64883095D01*
X90321190Y-64978333D01*
X90321190Y-65359285D01*
X90797380Y-63835476D02*
X90797380Y-64406904D01*
X90797380Y-64121190D02*
X89797380Y-64121190D01*
X89940238Y-64216428D01*
X90035476Y-64311666D01*
X90083095Y-64406904D01*
X89797380Y-62930714D02*
X89797380Y-63406904D01*
X90273571Y-63454523D01*
X90225952Y-63406904D01*
X90178333Y-63311666D01*
X90178333Y-63073571D01*
X90225952Y-62978333D01*
X90273571Y-62930714D01*
X90368809Y-62883095D01*
X90606904Y-62883095D01*
X90702142Y-62930714D01*
X90749761Y-62978333D01*
X90797380Y-63073571D01*
X90797380Y-63311666D01*
X90749761Y-63406904D01*
X90702142Y-63454523D01*
X95242380Y-75582857D02*
X94766190Y-75916190D01*
X95242380Y-76154285D02*
X94242380Y-76154285D01*
X94242380Y-75773333D01*
X94290000Y-75678095D01*
X94337619Y-75630476D01*
X94432857Y-75582857D01*
X94575714Y-75582857D01*
X94670952Y-75630476D01*
X94718571Y-75678095D01*
X94766190Y-75773333D01*
X94766190Y-76154285D01*
X95242380Y-74630476D02*
X95242380Y-75201904D01*
X95242380Y-74916190D02*
X94242380Y-74916190D01*
X94385238Y-75011428D01*
X94480476Y-75106666D01*
X94528095Y-75201904D01*
X94242380Y-73773333D02*
X94242380Y-73963809D01*
X94290000Y-74059047D01*
X94337619Y-74106666D01*
X94480476Y-74201904D01*
X94670952Y-74249523D01*
X95051904Y-74249523D01*
X95147142Y-74201904D01*
X95194761Y-74154285D01*
X95242380Y-74059047D01*
X95242380Y-73868571D01*
X95194761Y-73773333D01*
X95147142Y-73725714D01*
X95051904Y-73678095D01*
X94813809Y-73678095D01*
X94718571Y-73725714D01*
X94670952Y-73773333D01*
X94623333Y-73868571D01*
X94623333Y-74059047D01*
X94670952Y-74154285D01*
X94718571Y-74201904D01*
X94813809Y-74249523D01*
X109767142Y-213442380D02*
X109433809Y-212966190D01*
X109195714Y-213442380D02*
X109195714Y-212442380D01*
X109576666Y-212442380D01*
X109671904Y-212490000D01*
X109719523Y-212537619D01*
X109767142Y-212632857D01*
X109767142Y-212775714D01*
X109719523Y-212870952D01*
X109671904Y-212918571D01*
X109576666Y-212966190D01*
X109195714Y-212966190D01*
X110719523Y-213442380D02*
X110148095Y-213442380D01*
X110433809Y-213442380D02*
X110433809Y-212442380D01*
X110338571Y-212585238D01*
X110243333Y-212680476D01*
X110148095Y-212728095D01*
X111052857Y-212442380D02*
X111719523Y-212442380D01*
X111290952Y-213442380D01*
X109767142Y-219410380D02*
X109433809Y-218934190D01*
X109195714Y-219410380D02*
X109195714Y-218410380D01*
X109576666Y-218410380D01*
X109671904Y-218458000D01*
X109719523Y-218505619D01*
X109767142Y-218600857D01*
X109767142Y-218743714D01*
X109719523Y-218838952D01*
X109671904Y-218886571D01*
X109576666Y-218934190D01*
X109195714Y-218934190D01*
X110719523Y-219410380D02*
X110148095Y-219410380D01*
X110433809Y-219410380D02*
X110433809Y-218410380D01*
X110338571Y-218553238D01*
X110243333Y-218648476D01*
X110148095Y-218696095D01*
X111290952Y-218838952D02*
X111195714Y-218791333D01*
X111148095Y-218743714D01*
X111100476Y-218648476D01*
X111100476Y-218600857D01*
X111148095Y-218505619D01*
X111195714Y-218458000D01*
X111290952Y-218410380D01*
X111481428Y-218410380D01*
X111576666Y-218458000D01*
X111624285Y-218505619D01*
X111671904Y-218600857D01*
X111671904Y-218648476D01*
X111624285Y-218743714D01*
X111576666Y-218791333D01*
X111481428Y-218838952D01*
X111290952Y-218838952D01*
X111195714Y-218886571D01*
X111148095Y-218934190D01*
X111100476Y-219029428D01*
X111100476Y-219219904D01*
X111148095Y-219315142D01*
X111195714Y-219362761D01*
X111290952Y-219410380D01*
X111481428Y-219410380D01*
X111576666Y-219362761D01*
X111624285Y-219315142D01*
X111671904Y-219219904D01*
X111671904Y-219029428D01*
X111624285Y-218934190D01*
X111576666Y-218886571D01*
X111481428Y-218838952D01*
X91352142Y-89002380D02*
X91018809Y-88526190D01*
X90780714Y-89002380D02*
X90780714Y-88002380D01*
X91161666Y-88002380D01*
X91256904Y-88050000D01*
X91304523Y-88097619D01*
X91352142Y-88192857D01*
X91352142Y-88335714D01*
X91304523Y-88430952D01*
X91256904Y-88478571D01*
X91161666Y-88526190D01*
X90780714Y-88526190D01*
X92304523Y-89002380D02*
X91733095Y-89002380D01*
X92018809Y-89002380D02*
X92018809Y-88002380D01*
X91923571Y-88145238D01*
X91828333Y-88240476D01*
X91733095Y-88288095D01*
X92780714Y-89002380D02*
X92971190Y-89002380D01*
X93066428Y-88954761D01*
X93114047Y-88907142D01*
X93209285Y-88764285D01*
X93256904Y-88573809D01*
X93256904Y-88192857D01*
X93209285Y-88097619D01*
X93161666Y-88050000D01*
X93066428Y-88002380D01*
X92875952Y-88002380D01*
X92780714Y-88050000D01*
X92733095Y-88097619D01*
X92685476Y-88192857D01*
X92685476Y-88430952D01*
X92733095Y-88526190D01*
X92780714Y-88573809D01*
X92875952Y-88621428D01*
X93066428Y-88621428D01*
X93161666Y-88573809D01*
X93209285Y-88526190D01*
X93256904Y-88430952D01*
X95797142Y-93552380D02*
X95463809Y-93076190D01*
X95225714Y-93552380D02*
X95225714Y-92552380D01*
X95606666Y-92552380D01*
X95701904Y-92600000D01*
X95749523Y-92647619D01*
X95797142Y-92742857D01*
X95797142Y-92885714D01*
X95749523Y-92980952D01*
X95701904Y-93028571D01*
X95606666Y-93076190D01*
X95225714Y-93076190D01*
X96178095Y-92647619D02*
X96225714Y-92600000D01*
X96320952Y-92552380D01*
X96559047Y-92552380D01*
X96654285Y-92600000D01*
X96701904Y-92647619D01*
X96749523Y-92742857D01*
X96749523Y-92838095D01*
X96701904Y-92980952D01*
X96130476Y-93552380D01*
X96749523Y-93552380D01*
X97368571Y-92552380D02*
X97463809Y-92552380D01*
X97559047Y-92600000D01*
X97606666Y-92647619D01*
X97654285Y-92742857D01*
X97701904Y-92933333D01*
X97701904Y-93171428D01*
X97654285Y-93361904D01*
X97606666Y-93457142D01*
X97559047Y-93504761D01*
X97463809Y-93552380D01*
X97368571Y-93552380D01*
X97273333Y-93504761D01*
X97225714Y-93457142D01*
X97178095Y-93361904D01*
X97130476Y-93171428D01*
X97130476Y-92933333D01*
X97178095Y-92742857D01*
X97225714Y-92647619D01*
X97273333Y-92600000D01*
X97368571Y-92552380D01*
X94532761Y-195653333D02*
X94580380Y-195510476D01*
X94580380Y-195272380D01*
X94532761Y-195177142D01*
X94485142Y-195129523D01*
X94389904Y-195081904D01*
X94294666Y-195081904D01*
X94199428Y-195129523D01*
X94151809Y-195177142D01*
X94104190Y-195272380D01*
X94056571Y-195462857D01*
X94008952Y-195558095D01*
X93961333Y-195605714D01*
X93866095Y-195653333D01*
X93770857Y-195653333D01*
X93675619Y-195605714D01*
X93628000Y-195558095D01*
X93580380Y-195462857D01*
X93580380Y-195224761D01*
X93628000Y-195081904D01*
X93580380Y-194748571D02*
X94580380Y-194510476D01*
X93866095Y-194320000D01*
X94580380Y-194129523D01*
X93580380Y-193891428D01*
X94580380Y-192986666D02*
X94580380Y-193558095D01*
X94580380Y-193272380D02*
X93580380Y-193272380D01*
X93723238Y-193367619D01*
X93818476Y-193462857D01*
X93866095Y-193558095D01*
X102726666Y-95904761D02*
X102869523Y-95952380D01*
X103107619Y-95952380D01*
X103202857Y-95904761D01*
X103250476Y-95857142D01*
X103298095Y-95761904D01*
X103298095Y-95666666D01*
X103250476Y-95571428D01*
X103202857Y-95523809D01*
X103107619Y-95476190D01*
X102917142Y-95428571D01*
X102821904Y-95380952D01*
X102774285Y-95333333D01*
X102726666Y-95238095D01*
X102726666Y-95142857D01*
X102774285Y-95047619D01*
X102821904Y-95000000D01*
X102917142Y-94952380D01*
X103155238Y-94952380D01*
X103298095Y-95000000D01*
X103631428Y-94952380D02*
X103869523Y-95952380D01*
X104060000Y-95238095D01*
X104250476Y-95952380D01*
X104488571Y-94952380D01*
X104821904Y-95047619D02*
X104869523Y-95000000D01*
X104964761Y-94952380D01*
X105202857Y-94952380D01*
X105298095Y-95000000D01*
X105345714Y-95047619D01*
X105393333Y-95142857D01*
X105393333Y-95238095D01*
X105345714Y-95380952D01*
X104774285Y-95952380D01*
X105393333Y-95952380D01*
X88482380Y-184921904D02*
X89291904Y-184921904D01*
X89387142Y-184874285D01*
X89434761Y-184826666D01*
X89482380Y-184731428D01*
X89482380Y-184540952D01*
X89434761Y-184445714D01*
X89387142Y-184398095D01*
X89291904Y-184350476D01*
X88482380Y-184350476D01*
X89482380Y-183350476D02*
X89482380Y-183921904D01*
X89482380Y-183636190D02*
X88482380Y-183636190D01*
X88625238Y-183731428D01*
X88720476Y-183826666D01*
X88768095Y-183921904D01*
X106277380Y-68716904D02*
X107086904Y-68716904D01*
X107182142Y-68669285D01*
X107229761Y-68621666D01*
X107277380Y-68526428D01*
X107277380Y-68335952D01*
X107229761Y-68240714D01*
X107182142Y-68193095D01*
X107086904Y-68145476D01*
X106277380Y-68145476D01*
X106372619Y-67716904D02*
X106325000Y-67669285D01*
X106277380Y-67574047D01*
X106277380Y-67335952D01*
X106325000Y-67240714D01*
X106372619Y-67193095D01*
X106467857Y-67145476D01*
X106563095Y-67145476D01*
X106705952Y-67193095D01*
X107277380Y-67764523D01*
X107277380Y-67145476D01*
X90233095Y-69622380D02*
X90233095Y-70431904D01*
X90280714Y-70527142D01*
X90328333Y-70574761D01*
X90423571Y-70622380D01*
X90614047Y-70622380D01*
X90709285Y-70574761D01*
X90756904Y-70527142D01*
X90804523Y-70431904D01*
X90804523Y-69622380D01*
X91185476Y-69622380D02*
X91804523Y-69622380D01*
X91471190Y-70003333D01*
X91614047Y-70003333D01*
X91709285Y-70050952D01*
X91756904Y-70098571D01*
X91804523Y-70193809D01*
X91804523Y-70431904D01*
X91756904Y-70527142D01*
X91709285Y-70574761D01*
X91614047Y-70622380D01*
X91328333Y-70622380D01*
X91233095Y-70574761D01*
X91185476Y-70527142D01*
X293762380Y-179841904D02*
X294571904Y-179841904D01*
X294667142Y-179794285D01*
X294714761Y-179746666D01*
X294762380Y-179651428D01*
X294762380Y-179460952D01*
X294714761Y-179365714D01*
X294667142Y-179318095D01*
X294571904Y-179270476D01*
X293762380Y-179270476D01*
X294095714Y-178365714D02*
X294762380Y-178365714D01*
X293714761Y-178603809D02*
X294429047Y-178841904D01*
X294429047Y-178222857D01*
X99488095Y-211806380D02*
X99488095Y-212615904D01*
X99535714Y-212711142D01*
X99583333Y-212758761D01*
X99678571Y-212806380D01*
X99869047Y-212806380D01*
X99964285Y-212758761D01*
X100011904Y-212711142D01*
X100059523Y-212615904D01*
X100059523Y-211806380D01*
X101011904Y-211806380D02*
X100535714Y-211806380D01*
X100488095Y-212282571D01*
X100535714Y-212234952D01*
X100630952Y-212187333D01*
X100869047Y-212187333D01*
X100964285Y-212234952D01*
X101011904Y-212282571D01*
X101059523Y-212377809D01*
X101059523Y-212615904D01*
X101011904Y-212711142D01*
X100964285Y-212758761D01*
X100869047Y-212806380D01*
X100630952Y-212806380D01*
X100535714Y-212758761D01*
X100488095Y-212711142D01*
X293762380Y-94751904D02*
X294571904Y-94751904D01*
X294667142Y-94704285D01*
X294714761Y-94656666D01*
X294762380Y-94561428D01*
X294762380Y-94370952D01*
X294714761Y-94275714D01*
X294667142Y-94228095D01*
X294571904Y-94180476D01*
X293762380Y-94180476D01*
X293762380Y-93275714D02*
X293762380Y-93466190D01*
X293810000Y-93561428D01*
X293857619Y-93609047D01*
X294000476Y-93704285D01*
X294190952Y-93751904D01*
X294571904Y-93751904D01*
X294667142Y-93704285D01*
X294714761Y-93656666D01*
X294762380Y-93561428D01*
X294762380Y-93370952D01*
X294714761Y-93275714D01*
X294667142Y-93228095D01*
X294571904Y-93180476D01*
X294333809Y-93180476D01*
X294238571Y-93228095D01*
X294190952Y-93275714D01*
X294143333Y-93370952D01*
X294143333Y-93561428D01*
X294190952Y-93656666D01*
X294238571Y-93704285D01*
X294333809Y-93751904D01*
X98218095Y-62077380D02*
X98218095Y-62886904D01*
X98265714Y-62982142D01*
X98313333Y-63029761D01*
X98408571Y-63077380D01*
X98599047Y-63077380D01*
X98694285Y-63029761D01*
X98741904Y-62982142D01*
X98789523Y-62886904D01*
X98789523Y-62077380D01*
X99170476Y-62077380D02*
X99837142Y-62077380D01*
X99408571Y-63077380D01*
X175768095Y-8622380D02*
X175768095Y-9431904D01*
X175815714Y-9527142D01*
X175863333Y-9574761D01*
X175958571Y-9622380D01*
X176149047Y-9622380D01*
X176244285Y-9574761D01*
X176291904Y-9527142D01*
X176339523Y-9431904D01*
X176339523Y-8622380D01*
X176863333Y-9622380D02*
X177053809Y-9622380D01*
X177149047Y-9574761D01*
X177196666Y-9527142D01*
X177291904Y-9384285D01*
X177339523Y-9193809D01*
X177339523Y-8812857D01*
X177291904Y-8717619D01*
X177244285Y-8670000D01*
X177149047Y-8622380D01*
X176958571Y-8622380D01*
X176863333Y-8670000D01*
X176815714Y-8717619D01*
X176768095Y-8812857D01*
X176768095Y-9050952D01*
X176815714Y-9146190D01*
X176863333Y-9193809D01*
X176958571Y-9241428D01*
X177149047Y-9241428D01*
X177244285Y-9193809D01*
X177291904Y-9146190D01*
X177339523Y-9050952D01*
X245061904Y-8622380D02*
X245061904Y-9431904D01*
X245109523Y-9527142D01*
X245157142Y-9574761D01*
X245252380Y-9622380D01*
X245442857Y-9622380D01*
X245538095Y-9574761D01*
X245585714Y-9527142D01*
X245633333Y-9431904D01*
X245633333Y-8622380D01*
X246633333Y-9622380D02*
X246061904Y-9622380D01*
X246347619Y-9622380D02*
X246347619Y-8622380D01*
X246252380Y-8765238D01*
X246157142Y-8860476D01*
X246061904Y-8908095D01*
X247252380Y-8622380D02*
X247347619Y-8622380D01*
X247442857Y-8670000D01*
X247490476Y-8717619D01*
X247538095Y-8812857D01*
X247585714Y-9003333D01*
X247585714Y-9241428D01*
X247538095Y-9431904D01*
X247490476Y-9527142D01*
X247442857Y-9574761D01*
X247347619Y-9622380D01*
X247252380Y-9622380D01*
X247157142Y-9574761D01*
X247109523Y-9527142D01*
X247061904Y-9431904D01*
X247014285Y-9241428D01*
X247014285Y-9003333D01*
X247061904Y-8812857D01*
X247109523Y-8717619D01*
X247157142Y-8670000D01*
X247252380Y-8622380D01*
X101701190Y-131721190D02*
X102177380Y-131721190D01*
X101177380Y-132054523D02*
X101701190Y-131721190D01*
X101177380Y-131387857D01*
X102177380Y-130530714D02*
X102177380Y-131102142D01*
X102177380Y-130816428D02*
X101177380Y-130816428D01*
X101320238Y-130911666D01*
X101415476Y-131006904D01*
X101463095Y-131102142D01*
M02*
